<svg width="49" height="120" viewBox="0 0 49 120" fill="none" xmlns="http://www.w3.org/2000/svg">
<path d="M48.0879 118.492C38.8454 116.696 30.1947 111.787 23.108 105.679C15.9822 99.534 10.1257 91.8086 6.26222 83.2255C2.19937 74.1825 0.379675 64.2397 0.912972 54.3405C1.44462 44.3255 4.21471 34.4328 9.08338 25.667C11.5269 21.2551 14.5142 17.1053 17.9902 13.4306C21.5797 9.59997 25.7922 6.18465 30.6012 4.03343C31.8465 3.47572 33.1312 2.9753 34.4366 2.57099C35.4925 2.24738 36.5099 3.27407 36.2356 4.31923C35.2486 8.1126 34.4363 11.9806 33.159 15.701C32.6226 17.2898 30.3196 16.7057 30.6237 15.0431C31.3014 11.1963 32.4618 7.40047 33.4295 3.60736C34.0357 4.19644 34.6223 4.76649 35.2285 5.35556C30.4288 6.8125 26.1687 9.59218 22.4957 12.9805C18.8991 16.3099 15.8108 20.1333 13.2089 24.2583C8.11848 32.3524 4.91598 41.6728 3.91367 51.1353C2.91219 60.6557 4.05276 70.2996 7.47805 79.2553C10.7026 87.6547 15.9414 95.3311 22.4517 101.582C29.0013 107.89 36.8027 112.734 45.2947 115.987C46.3418 116.396 47.3699 116.825 48.4359 117.214C49.2495 117.473 48.9579 118.653 48.0879 118.492Z" fill="#204E1C"/>
<path d="M35.233 4.3335C34.1556 4.50316 33.1107 4.24814 32.0476 4.07053C31.062 3.91109 30.0959 3.77066 29.1102 3.61122C27.1778 3.31107 25.2268 3.069 23.2957 2.86523C22.5425 2.77959 21.9374 2.26765 22.0219 1.43732C22.1257 0.606712 22.8344 0.268778 23.5876 0.354416C25.5771 0.595912 27.5671 0.875969 29.5385 1.19485C30.5048 1.35457 31.4905 1.514 32.4574 1.71227C33.4629 1.90999 34.5444 2.02949 35.4389 2.55659C36.0811 2.97161 36.0988 4.20542 35.233 4.3335Z" fill="#204E1C"/>
</svg>
