<svg width="48" height="44" viewBox="0 0 48 44" fill="none" xmlns="http://www.w3.org/2000/svg">
<path d="M28.2096 14.7229C28.1183 11.8903 27.2162 9.36117 25.3055 7.33036C21.7924 3.60222 16.8673 2.80039 12.4788 5.35201C8.4062 7.72003 6.43842 11.4182 5.95884 15.9519C5.85227 16.9336 5.82563 17.9265 5.82182 18.912C5.81421 20.4332 5.70002 21.872 5.08723 23.352C3.66754 26.7879 5.83705 30.7746 9.58991 31.9661C10.2408 32.1721 10.5909 32.4719 10.785 33.1276C11.7632 36.3911 15.2078 38.5756 18.4468 37.4777C21.0502 36.5935 23.627 36.7096 26.2342 36.5635C29.6407 36.3724 32.7123 35.342 35.3385 33.1463C35.5364 32.9815 35.8562 32.8166 36.0883 32.8503C37.1579 32.9965 38.2122 33.2175 39.3502 33.4236C38.5547 34.2067 37.7783 35.0985 36.8724 35.8403C32.914 39.0701 28.1982 39.9507 23.2273 40.0031C18.9226 40.0443 14.6673 39.6846 10.4615 38.6917C7.3557 37.9573 5.30419 36.2825 4.36026 33.2025C2.9596 28.6164 2.4686 23.944 2.66272 19.1817C2.7769 16.3266 3.10423 13.5015 4.27272 10.8449C6.06161 6.77582 8.91242 3.66217 13.1639 2.06975C17.4801 0.466085 21.545 1.31288 25.2408 3.92445C27.966 5.85034 29.5189 8.51812 30.1089 11.7442C30.2002 12.2313 30.3639 12.5123 30.9272 12.6172C35.4489 13.4415 38.6499 15.9107 40.4312 20.1072C40.4768 20.2196 40.5529 20.317 40.61 20.4182C40.6519 20.4894 40.69 20.5718 40.7356 20.6617C39.8526 20.5568 38.9924 20.4744 38.1398 20.347C37.9343 20.317 37.6907 20.1746 37.5765 20.0098C34.8247 16.1318 33.2071 15.2063 28.2096 14.7229Z" fill="#D9E693"/>
<path d="M21.1536 31.952C22.3394 29.1407 22.3654 26.2943 21.2283 23.4606C20.8645 22.5523 20.1659 21.9159 19.24 21.5225C17.2517 20.6781 15.179 20.563 13.0639 20.8029C11.6312 20.966 10.2699 21.3274 9.20756 22.3796C7.92426 23.6429 7.64161 25.5971 8.5318 27.1642C9.14258 28.2452 10.0393 29.0384 11.1796 29.5405C12.0893 29.9435 12.7781 30.5384 13.1874 31.4531C13.3434 31.7985 13.5838 32.1055 13.7982 32.4254C14.7566 33.8614 16.0854 34.6194 17.8528 34.485C19.4999 34.3603 20.5493 33.3912 21.1536 31.9584L21.1536 31.952Z" fill="#006838"/>
<path d="M27.9271 31.1067C29.5605 30.335 30.3336 28.5793 29.654 27.1853C28.9743 25.7913 27.0992 25.2869 25.4658 26.0586C23.8324 26.8304 23.0593 28.5861 23.739 29.9801C24.4186 31.3741 26.2937 31.8785 27.9271 31.1067Z" fill="#009444"/>
<path d="M26.8607 24.514C28.4941 23.7422 29.2672 21.9865 28.5875 20.5925C27.9079 19.1985 26.0328 18.6941 24.3994 19.4659C22.766 20.2376 21.9929 21.9933 22.6726 23.3873C23.3522 24.7813 25.2273 25.2858 26.8607 24.514Z" fill="#009444"/>
<path d="M12.5443 18.8508C13.9603 19.5199 15.7438 18.7588 16.5278 17.1508C17.3118 15.5429 16.7994 13.697 15.3833 13.0279C13.9673 12.3588 12.1838 13.1199 11.3998 14.7278C10.6158 16.3358 11.1282 18.1817 12.5443 18.8508Z" fill="#009444"/>
<path d="M19.2376 19.9016C20.6537 20.5706 22.4372 19.8096 23.2211 18.2016C24.0051 16.5937 23.4927 14.7478 22.0767 14.0787C20.6606 13.4096 18.8771 14.1707 18.0932 15.7786C17.3092 17.3866 17.8216 19.2325 19.2376 19.9016Z" fill="#009444"/>
<path d="M22.8558 24.6184L24.5319 35.5129C24.6006 35.9592 25.0923 36.2094 25.498 36.0065C28.1878 34.6602 30.8944 34.1758 34.0128 34.4991C34.4308 34.5424 34.8276 34.7301 35.1018 35.047C35.3763 35.3648 35.8045 35.5417 36.2508 35.4788C36.6981 35.4158 37.0548 35.1279 37.2222 34.7467C37.3871 34.3702 37.7116 34.0846 38.1001 33.9396C40.2328 33.1439 42.5489 32.8231 44.8455 32.9121C45.4823 32.9364 46.118 32.992 46.7475 33.0782C47.1865 33.1378 47.5582 32.7671 47.4915 32.3334L45.8102 21.4053C45.769 21.1379 45.5669 20.919 45.2994 20.8578C45.0453 20.7994 44.7938 20.7472 44.5444 20.7011C40.5252 19.9551 37.1077 20.7677 34.2665 22.5816C30.1795 21.5644 26.3173 22.0471 23.1645 23.9619C22.9379 24.0998 22.8155 24.3569 22.8558 24.6184Z" fill="#009444"/>
<g opacity="0.3">
<path d="M22.8555 24.6195L24.5316 35.5128C24.6002 35.9591 25.0919 36.2093 25.4975 36.0064C28.1871 34.6603 30.8935 34.1759 34.0116 34.4992C34.4296 34.5425 34.8263 34.7302 35.1006 35.047C35.375 35.3648 35.8032 35.5417 36.2494 35.4788C36.6967 35.4158 37.0534 35.1279 37.2208 34.7468C37.3856 34.3703 37.7101 34.0848 38.0986 33.9397C39.2075 33.526 40.3661 33.2408 41.5452 33.0747C41.6079 33.0659 41.6713 33.0575 41.7341 33.0492C41.781 33.0431 41.8279 33.037 41.8749 33.0315C41.9245 33.0256 41.9736 33.0197 42.0233 33.0143C42.0713 33.0087 42.1194 33.0035 42.1675 32.9983C42.229 32.9918 42.2911 32.9858 42.3532 32.9797C42.3597 32.9793 42.366 32.9784 42.3725 32.9781C42.4373 32.9716 42.5017 32.9663 42.566 32.961C42.5692 32.9606 42.5724 32.9601 42.5757 32.9602C42.6427 32.9545 42.7093 32.9494 42.7765 32.9448C42.8454 32.94 42.9136 32.9352 42.9826 32.9314C43.0531 32.9268 43.1237 32.9233 43.1944 32.9198C43.2612 32.9163 43.3287 32.9133 43.3957 32.9114C43.4643 32.9082 43.5335 32.906 43.6022 32.9043C43.7402 32.9005 43.8779 32.8983 44.0159 32.8982C44.0718 32.8979 44.1277 32.8975 44.1832 32.8983C44.2169 32.8984 44.2512 32.8984 44.285 32.899C44.335 32.8995 44.3851 32.9 44.4352 32.901C44.5016 32.9019 44.5682 32.9033 44.6342 32.9052C44.6353 32.9056 44.6359 32.9055 44.6364 32.9055C44.7057 32.907 44.7744 32.9091 44.8434 32.9123L44.8439 32.9123C45.4807 32.9366 46.1158 32.9923 46.7452 33.0784C47.1842 33.1381 47.5559 32.7674 47.4891 32.3338L47.4738 32.2343C47.3352 32.4033 47.1125 32.5024 46.8689 32.4695C46.7134 32.4482 46.5575 32.4288 46.4013 32.4113C46.0795 32.3752 45.8889 32.0348 46.0333 31.7501L46.1934 31.4344L44.5422 20.7027C40.5234 19.9567 37.1062 20.7692 34.2653 22.583C30.1786 21.5658 26.3167 22.0484 23.1642 23.9631C23.0981 24.003 23.0411 24.053 22.9946 24.1106C22.9937 24.1118 22.9927 24.1125 22.9923 24.1136C22.9864 24.1209 22.9805 24.1287 22.9746 24.1365C22.9571 24.16 22.9413 24.1848 22.9279 24.2103C22.9219 24.2209 22.9164 24.2313 22.9115 24.2417C22.8986 24.2677 22.8877 24.2956 22.879 24.3237C22.8767 24.3299 22.8749 24.3361 22.8732 24.3428C22.8628 24.3776 22.856 24.414 22.8518 24.4507C22.8494 24.4703 22.8487 24.4903 22.8485 24.5103C22.8479 24.5168 22.8478 24.5238 22.8484 24.5307C22.8482 24.5399 22.8485 24.549 22.8494 24.5585C22.8496 24.5671 22.8503 24.5751 22.851 24.583C22.8523 24.5952 22.8537 24.6074 22.8555 24.6195Z" fill="#006838"/>
</g>
<g opacity="0.55">
<path d="M45.3524 21.4464L47.0257 32.3403C47.0693 32.6242 46.9247 32.881 46.6961 33.0071C46.7176 33.0099 46.7397 33.0127 46.7612 33.0156C47.1986 33.075 47.569 32.7054 47.5026 32.273L45.8293 21.3791C45.7883 21.1126 45.587 20.8944 45.3204 20.8333C43.2165 20.3497 41.2726 20.2883 39.4849 20.5732C41.1395 20.3698 42.9253 20.4599 44.8435 20.9006C45.1101 20.9617 45.3114 21.1798 45.3524 21.4464Z" fill="white"/>
</g>
<path d="M47.1896 33.2085C47.0456 33.2719 46.8847 33.2949 46.7216 33.2727C43.7193 32.8623 40.7628 33.1565 38.1715 34.1235C37.8225 34.2535 37.5427 34.5099 37.404 34.8263C37.2024 35.2859 36.7823 35.6025 36.2802 35.6732C35.7791 35.7438 35.2822 35.5571 34.9507 35.1738C34.7177 34.9045 34.3779 34.7343 33.9938 34.6945C30.9224 34.3762 28.2514 34.8488 25.5888 36.1819C25.3361 36.3075 25.0481 36.3057 24.7963 36.1763C24.5456 36.0475 24.3775 35.8158 24.3351 35.5405L22.659 24.6463C22.6071 24.3083 22.764 23.974 23.0588 23.7946C26.2497 21.8568 30.1104 21.3651 34.2292 22.3709C37.5142 20.2996 41.2525 19.7264 45.342 20.6668C45.6857 20.7455 45.9527 21.0313 46.006 21.3779L47.6873 32.3058C47.7285 32.5736 47.6425 32.8372 47.4513 33.0288C47.3746 33.1057 47.2858 33.1661 47.1896 33.2085ZM37.9297 33.7958C37.9619 33.7816 37.9946 33.7683 38.0279 33.7559C40.6808 32.7659 43.7046 32.4643 46.7722 32.8837C46.9193 32.9037 47.0633 32.8556 47.1669 32.7517C47.2702 32.6482 47.3167 32.5058 47.2944 32.3611L45.6131 21.4332C45.5843 21.246 45.4406 21.0917 45.2557 21.0493C41.2448 20.127 37.5842 20.6982 34.375 22.7471C34.3292 22.7765 34.2728 22.7855 34.2193 22.7723C30.1752 21.7658 26.389 22.2351 23.2694 24.1297C23.1092 24.2272 23.0238 24.4083 23.0519 24.591L24.728 35.4852C24.7509 35.6337 24.8416 35.7587 24.9769 35.8282C25.1134 35.8984 25.2709 35.8997 25.4066 35.8311C28.1403 34.4631 30.8809 33.9774 34.0314 34.3039C34.5181 34.3543 34.9515 34.5733 35.2517 34.9204C35.4933 35.1997 35.8554 35.3358 36.2204 35.2844C36.5859 35.2329 36.8921 35.0022 37.039 34.6673C37.2063 34.2858 37.5277 33.9727 37.9297 33.7958Z" fill="#006838"/>
<path d="M44.5505 29.7034C40.6554 28.4554 36.7606 30.3496 36.0233 33.8316L34.3117 22.7088C34.7712 19.4212 38.9608 16.9518 42.8388 18.5806L44.5505 29.7034Z" fill="white"/>
<path d="M36.0188 33.9792L34.2846 22.7032C34.4995 21.1657 35.5575 19.7308 37.1147 18.8648C38.8847 17.8804 40.9745 17.7674 42.8486 18.5546L42.8626 18.5604L42.8649 18.5752L44.5831 29.74L44.5419 29.7269C42.5297 29.0822 40.4186 29.2573 38.7493 30.2079C37.3326 31.0146 36.3737 32.3029 36.0492 33.8355L36.0188 33.9792ZM34.3384 22.7072L36.0278 33.6854C36.3828 32.1991 37.3351 30.9516 38.7221 30.1618C40.3929 29.2107 42.5027 29.0294 44.517 29.6633L42.8141 18.5976C40.9591 17.8234 38.892 17.9373 37.1414 18.9111C35.5999 19.7684 34.5523 21.1873 34.3384 22.7072Z" fill="#006838"/>
<path d="M36.1051 34.01C36.0783 34.0218 36.0485 34.0278 36.0175 34.0267C35.9215 34.0231 35.8412 33.9522 35.8267 33.8583L34.115 22.7353C34.1121 22.7166 34.112 22.6976 34.1146 22.6789C34.3369 21.0896 35.4267 19.6086 37.0299 18.7171C38.8461 17.7072 40.9914 17.591 42.9149 18.399C42.979 18.4259 43.0245 18.4838 43.035 18.5517L44.7467 29.6747C44.757 29.7418 44.7316 29.809 44.6796 29.8525C44.6276 29.8961 44.5563 29.9098 44.4908 29.8889C42.525 29.2589 40.4645 29.4286 38.8369 30.3554C37.4623 31.138 36.532 32.3871 36.2172 33.8726C36.204 33.9353 36.1612 33.9853 36.1051 34.01ZM39.2358 29.7136C40.7613 29.0422 42.5615 28.9369 44.3073 29.425L42.6595 18.7175C40.8773 18.0044 38.9033 18.1271 37.2272 19.0594C35.7394 19.8867 34.7263 21.2491 34.5119 22.7085L36.0843 32.9268C36.5538 31.7125 37.4375 30.6975 38.6361 30.015C38.8305 29.9044 39.0308 29.8038 39.2358 29.7136Z" fill="#006838"/>
<path d="M34.3132 22.713L36.024 33.8312C35.8237 31.9582 36.5218 30.4086 37.7529 29.3751L37.7528 29.3746C39.0265 28.3039 40.8713 27.7858 42.8796 28.0335L41.1688 16.9153C39.1978 16.4229 37.3362 17.0685 36.048 18.2953C34.8653 19.4213 34.1666 21.0375 34.3132 22.713Z" fill="white"/>
<path d="M36.0511 33.8287L35.9978 33.835L34.2868 22.715C34.1463 21.1083 34.7978 19.4488 36.0297 18.2759C36.6908 17.6463 37.4912 17.1827 38.3449 16.935C39.27 16.6667 40.2223 16.6514 41.1756 16.8895L41.1931 16.8938L42.9119 28.0641L42.877 28.0598C40.9328 27.82 39.0767 28.3032 37.7818 29.3855L37.7708 29.3954C36.4726 30.4852 35.8619 32.0596 36.0511 33.8287ZM34.3403 22.7101L35.9639 33.2619C35.9481 31.7139 36.5616 30.3461 37.7243 29.3644L37.7243 29.3643L37.7356 29.3542C39.0347 28.2624 40.8963 27.7707 42.8482 28.0029L41.1454 16.9366C39.3117 16.4846 37.4617 16.9862 36.0671 18.3144C34.8469 19.4761 34.2014 21.1193 34.3403 22.7101Z" fill="#006838"/>
<path d="M36.1072 34.0103C36.0896 34.018 36.0705 34.0233 36.0503 34.0257C35.9434 34.0383 35.845 33.9641 35.8288 33.8586L34.118 22.7404C34.1173 22.7362 34.1168 22.732 34.1165 22.7278C33.959 20.9271 34.735 19.1225 36.1922 17.9006C37.6115 16.7105 39.4427 16.282 41.2164 16.7249C41.2946 16.7445 41.3536 16.8086 41.3657 16.8874L43.0766 28.0056C43.0859 28.0661 43.0662 28.1271 43.0233 28.1707C42.9804 28.2142 42.9192 28.2354 42.8578 28.2278C40.7963 27.9737 38.887 28.5329 37.6194 29.762C36.5498 30.7992 36.0536 32.2376 36.2223 33.8122C36.2315 33.8983 36.1829 33.9769 36.1072 34.0103ZM34.5113 22.6915L35.9363 31.9526C36.1579 31.0117 36.6334 30.166 37.3401 29.4808C38.6403 28.2201 40.5625 27.6181 42.6458 27.8109L40.9937 17.0745C39.3862 16.7147 37.7375 17.1216 36.4507 18.2006C35.0918 19.34 34.3671 21.0184 34.5113 22.6915Z" fill="#006838"/>
<path d="M35.9842 33.8195C38.1641 30.9082 41.984 30.9937 46.1917 31.3978L44.5309 29.6784C40.6272 28.4272 36.724 30.3276 35.9842 33.8195Z" fill="white"/>
<path d="M46.2609 31.4313L46.1893 31.4244C42.0704 31.0287 38.1924 30.9154 36.006 33.8355L35.9326 33.9335L35.9579 33.8138C36.2867 32.2617 37.2573 30.9571 38.6907 30.1404C40.3766 29.1798 42.5082 29.0022 44.539 29.6531L44.5455 29.6552L44.5503 29.6601L46.2609 31.4313ZM38.3605 31.9066C40.5039 30.9625 43.253 31.0911 46.1224 31.3645L44.5163 29.7016C42.5019 29.0579 40.389 29.2345 38.7179 30.1866C37.3347 30.9747 36.3866 32.2209 36.0373 33.7056C36.6838 32.8765 37.4701 32.2988 38.3605 31.9066Z" fill="#006838"/>
<path d="M42.8585 18.5695L44.5613 29.6658L46.2125 31.3762L44.5715 20.6822L42.8585 18.5695Z" fill="white"/>
<path d="M46.2513 31.4543L44.5357 29.6772L44.5345 29.6689L42.8168 18.4757L44.5965 20.6707L44.5976 20.6778L46.2513 31.4543ZM44.5862 29.6531L46.1731 31.2969L44.5458 20.6924L42.8995 18.662L44.5862 29.6531Z" fill="#006838"/>
<path d="M46.2739 31.5784C46.2433 31.5919 46.2091 31.5977 46.1741 31.5944C42.1064 31.2037 38.2786 31.0889 36.1453 33.9378C36.0898 34.0119 35.9893 34.0371 35.9039 33.9986C35.8184 33.9601 35.7711 33.8681 35.7903 33.7777C36.1291 32.1784 37.1285 30.8345 38.6042 29.9937C40.332 29.0091 42.5137 28.8268 44.5906 29.4924C44.6224 29.5025 44.6511 29.5204 44.6742 29.5443L46.3348 31.2635C46.3923 31.3231 46.4068 31.4114 46.371 31.4851C46.3504 31.5276 46.3156 31.5601 46.2739 31.5784ZM38.2896 31.7496C40.3514 30.8415 42.9509 30.9095 45.6813 31.1539L44.4231 29.8511C42.4676 29.2378 40.423 29.4129 38.8053 30.335C37.7059 30.9613 36.89 31.8856 36.4449 32.9905C36.9919 32.4524 37.6117 32.0482 38.2896 31.7496Z" fill="#006838"/>
<path d="M46.2946 31.5562C46.2185 31.5897 46.1285 31.5721 46.0702 31.5117L44.4187 29.8011C44.3903 29.7717 44.3717 29.7343 44.3656 29.6943L42.6622 18.597C42.6488 18.5094 42.6954 18.4266 42.778 18.3895C42.8598 18.3546 42.9556 18.3785 43.0117 18.4478L44.725 20.5607C44.7471 20.5879 44.7615 20.6203 44.7667 20.6546L46.4083 31.3497C46.4213 31.434 46.3776 31.5165 46.3003 31.5535C46.2984 31.5544 46.2965 31.5553 46.2946 31.5562ZM44.7473 29.5774L45.9236 30.7958L44.3836 20.7623L43.1633 19.2574L44.7473 29.5774Z" fill="#006838"/>
<path d="M24.8806 21.1491L26.5901 32.2623C28.5848 30.9128 30.9147 30.6286 32.8435 31.2794C34.1545 31.7221 35.2799 32.5972 35.9893 33.8632L34.2797 22.75C33.6851 21.4932 32.5139 20.5499 31.1176 20.0672L31.117 20.0672C29.1598 19.3898 26.7592 19.6163 24.8806 21.1491Z" fill="white"/>
<path d="M36.0379 34.005L35.9654 33.8758C35.2808 32.6541 34.1983 31.765 32.8346 31.3045C30.837 30.6304 28.5081 30.9967 26.6052 32.2842L26.5698 32.3081L26.5633 32.266L24.8515 21.1382L24.8631 21.1287C25.7548 20.4012 26.8274 19.9256 27.9647 19.7532C29.0207 19.5933 30.1112 19.6925 31.119 20.0402L31.1259 20.0423C32.5709 20.5418 33.7291 21.5248 34.3036 22.7391L34.3053 22.7426L34.3059 22.7464L36.0379 34.005ZM27.8127 31.5556C29.4482 30.8357 31.2545 30.7153 32.8516 31.2543C34.1815 31.7034 35.2467 32.5566 35.9407 33.7262L34.2534 22.7577C33.6853 21.5598 32.5419 20.5895 31.1149 20.0945L31.1081 20.0924C28.9628 19.3499 26.6467 19.7491 24.9091 21.1603L26.6099 32.2165C26.9957 31.9585 27.3988 31.7378 27.8127 31.5556Z" fill="#006838"/>
<path d="M36.0713 34.0421C36.0654 34.0447 36.0593 34.047 36.0531 34.0491C35.9624 34.0789 35.8624 34.04 35.8157 33.9567C35.0679 32.6222 33.8024 31.6834 32.2521 31.3132C30.4165 30.8749 28.3938 31.2798 26.7026 32.4241C26.6461 32.4622 26.574 32.4686 26.5111 32.4413C26.4482 32.414 26.4037 32.3566 26.3934 32.2897L24.6837 21.1762C24.6733 21.1084 24.6995 21.0404 24.7527 20.997C26.3497 19.6942 28.4368 19.2143 30.4785 19.6805C32.2803 20.0919 33.7682 21.2088 34.4588 22.668C34.4669 22.6851 34.4725 22.7033 34.4754 22.722L36.185 33.8354C36.1985 33.9229 36.1512 34.007 36.0713 34.0421ZM27.7486 31.3962C29.227 30.7454 30.8419 30.5741 32.3417 30.9323C33.6935 31.2551 34.844 31.9827 35.6582 33.015L34.0876 22.8057C33.4437 21.4686 32.0648 20.4441 30.3928 20.0623C28.5085 19.632 26.5833 20.0583 25.0928 21.2314L26.7386 31.9297C27.0657 31.7262 27.4035 31.5481 27.7486 31.3962Z" fill="#006838"/>
<path d="M25.4774 34.3566C29.3827 32.8096 33.0126 31.6743 35.9736 33.8586C34.2161 30.7217 29.9094 29.9799 26.5497 32.2535L25.4774 34.3566Z" fill="white"/>
<path d="M36.0575 33.9538L35.9578 33.8802C32.988 31.6895 29.3108 32.8673 25.4881 34.3816L25.4216 34.4079L26.5292 32.2357L26.5348 32.2319C28.2829 31.0491 30.3763 30.6312 32.2784 31.0854C33.8955 31.4716 35.2162 32.4521 35.9973 33.8462L36.0575 33.9538ZM25.5341 34.3059C29.3046 32.8156 32.932 31.6694 35.8887 33.7646C35.1083 32.4408 33.8265 31.5098 32.2662 31.1372C30.3808 30.6869 28.3054 31.1008 26.5712 32.2721L25.5341 34.3059Z" fill="#006838"/>
<path d="M23.8575 23.6771L25.5012 34.3762L26.5693 32.281L24.8638 21.1794L23.8575 23.6771Z" fill="white"/>
<path d="M25.4878 34.4629L25.4751 34.3804L23.8303 23.6741L23.833 23.6675L24.8757 21.0791L24.8906 21.176L26.5975 32.2861L26.5937 32.2936L25.4878 34.4629ZM23.8855 23.6808L25.5154 34.2905L26.5419 32.2769L24.8526 21.2804L23.8855 23.6808Z" fill="#006838"/>
<g opacity="0.3">
<path d="M25.4779 34.3566C29.3832 32.8095 33.0131 31.6743 35.9741 33.8585C34.2166 30.7216 29.9099 29.9799 26.5502 32.2535L25.4779 34.3566Z" fill="#006838"/>
</g>
<g opacity="0.3">
<path d="M23.8575 23.678L25.5012 34.3771L26.5693 32.282L24.8638 21.1804L23.8575 23.678Z" fill="#006838"/>
</g>
<path d="M36.0566 34.0379C35.9923 34.0662 35.9155 34.059 35.8563 34.0154C32.9585 31.8778 29.3296 33.0431 25.5541 34.5387C25.4774 34.5691 25.3892 34.549 25.3329 34.4884C25.2765 34.4278 25.2638 34.3393 25.3009 34.2664L26.3732 32.1635C26.3881 32.1343 26.4102 32.1093 26.4376 32.0909C28.225 30.8811 30.3685 30.4543 32.3178 30.9198C33.9827 31.3174 35.343 32.3276 36.1479 33.7644C36.1934 33.8456 36.1758 33.9466 36.1056 34.007C36.0906 34.0199 36.074 34.0302 36.0566 34.0379ZM25.8933 33.9813C29.2678 32.6702 32.5158 31.7207 35.2848 33.1916C34.5268 32.2572 33.4683 31.598 32.2279 31.3018C30.4027 30.8659 28.393 31.2617 26.7058 32.3879L25.8933 33.9813Z" fill="#006838"/>
<path d="M25.5836 34.556C25.5491 34.5712 25.51 34.5766 25.4707 34.5701C25.3855 34.556 25.3188 34.489 25.3059 34.4046L23.6618 23.7047C23.6565 23.6703 23.6606 23.6353 23.6735 23.6032L24.6799 21.1053C24.7129 21.0234 24.7975 20.9741 24.8863 20.9849C24.9752 20.9958 25.0463 21.0641 25.0597 21.1517L26.7656 32.2541C26.7718 32.2942 26.7652 32.3351 26.7468 32.3711L25.6786 34.4665C25.6578 34.5073 25.6239 34.5383 25.5836 34.556ZM24.0614 23.7019L25.6038 33.74L26.3646 32.2476L24.7782 21.9229L24.0614 23.7019Z" fill="#006838"/>
<g opacity="0.3">
<path d="M44.005 32.8444C43.8668 32.8445 43.7289 32.8467 43.5908 32.8506C43.729 32.8473 43.8669 32.8451 44.005 32.8444Z" fill="#6B184E"/>
<path d="M44.0049 32.8709C43.8745 32.8715 43.7392 32.8735 43.5914 32.877L43.5895 32.8238C43.7358 32.8198 43.8715 32.8178 44.0041 32.8177C44.0042 32.8177 44.0041 32.8177 44.0042 32.8177C44.0042 32.8177 44.0042 32.8177 44.0043 32.8177L44.0049 32.8709Z" fill="#006838"/>
</g>
<g opacity="0.3">
<path d="M31.1352 20.0609L32.8428 31.183C32.8428 31.183 32.8475 31.2097 32.856 31.2584C34.1643 31.7002 35.2873 32.574 35.995 33.8382L34.291 22.7397C33.6978 21.4845 32.5292 20.5427 31.1357 20.0608L31.1352 20.0609Z" fill="#006838"/>
</g>
<g opacity="0.3">
<path d="M41.1912 27.9876L41.3988 29.3384C38.8634 29.6257 37.0776 30.8967 36.1388 33.2787C36.0624 30.2915 37.7465 28.5278 41.1912 27.9876Z" fill="#006838"/>
</g>
<g opacity="0.3">
<path d="M34.305 22.7268L36.0116 33.831C35.8119 31.9604 36.5089 30.4126 37.738 29.3802L36.0373 18.3143C34.8565 19.4391 34.1588 21.0534 34.305 22.7268Z" fill="#006838"/>
</g>
<path d="M40.5355 30.4413L41.9689 30.2394L42.3084 32.4458L41.5172 32.0625L40.875 32.6477L40.5355 30.4413Z" fill="#ED1C24"/>
<g opacity="0.55">
<path d="M40.8075 32.2389L40.8702 32.6468L41.5133 32.0607L42.3062 32.4446L42.2434 32.0366L41.4505 31.6528L40.8075 32.2389Z" fill="white"/>
</g>
<path d="M42.3755 32.5906C42.3325 32.6095 42.2824 32.6089 42.2389 32.5879L41.5468 32.2525L40.9851 32.7643C40.9414 32.8041 40.8787 32.8166 40.8223 32.7967C40.7658 32.7768 40.7249 32.7277 40.7159 32.6693L40.3763 30.4627C40.3629 30.3756 40.4236 30.295 40.5114 30.2826L41.9449 30.0807C42.0329 30.0683 42.1151 30.1289 42.1284 30.216L42.468 32.4226C42.477 32.481 42.4526 32.5393 42.4045 32.5739C42.3954 32.5805 42.3856 32.5861 42.3755 32.5906ZM41.4506 31.916C41.4933 31.8972 41.5434 31.8975 41.5872 31.9187L42.1034 32.1688L41.8341 30.4185L40.7193 30.5755L40.9886 32.3258L41.4075 31.9441C41.4205 31.9322 41.4351 31.9229 41.4506 31.916Z" fill="#006838"/>
</svg>
