<svg width="114" height="114" viewBox="0 0 114 114" fill="none" xmlns="http://www.w3.org/2000/svg">
<rect width="114" height="114" rx="57" fill="white"/>
<path d="M17.3552 47.1854L31.1364 78.3527L25.2631 80.9497L14.5338 56.6847L11.3748 59.7985L8.61665 53.5608L12.3393 49.4033L17.3552 47.1854ZM44.2068 72.9578C41.1057 74.329 38.4257 74.5658 36.1667 73.6683C33.9014 72.7565 32.1684 70.9431 30.9678 68.2279L24.7028 54.059C23.4833 51.301 23.312 48.7885 24.1889 46.5215C25.0657 44.2545 27.0404 42.4417 30.1128 41.0832C33.1995 39.7183 35.8692 39.4775 38.122 40.3607C40.3826 41.2233 42.1259 43.0407 43.3517 45.8131L49.6168 59.982C50.8363 62.74 51.0076 65.2525 50.1307 67.5195C49.2538 69.7865 47.2792 71.5993 44.2068 72.9578ZM41.7045 67.2988C42.9335 66.7554 43.6291 65.9524 43.7914 64.8898C43.9616 63.8065 43.7245 62.5361 43.08 61.0785L38.1419 49.9106C37.491 48.4386 36.7109 47.4083 35.8013 46.8196C34.9061 46.2246 33.844 46.1987 32.615 46.7421C31.4004 47.2792 30.7047 48.0823 30.5282 49.1512C30.3516 50.2202 30.5888 51.4906 31.2396 52.9625L36.1777 64.1304C36.8222 65.588 37.6024 66.6183 38.5182 67.2214C39.4278 67.8101 40.4899 67.8359 41.7045 67.2988ZM64.9375 63.7913C61.8365 65.1625 59.1565 65.3993 56.8974 64.5019C54.6321 63.5901 52.8991 61.7766 51.6986 59.0614L45.4335 44.8926C44.214 42.1345 44.0427 39.622 44.9196 37.355C45.7965 35.088 47.7711 33.2752 50.8435 31.9167C53.9303 30.5519 56.6 30.311 58.8527 31.1942C61.1134 32.0568 62.8566 33.8743 64.0825 36.6466L70.3475 50.8155C71.567 53.5735 71.7383 56.086 70.8614 58.353C69.9846 60.62 68.0099 62.4328 64.9375 63.7913ZM62.4353 58.1324C63.6642 57.5889 64.3598 56.7859 64.5221 55.7233C64.6923 54.64 64.4552 53.3696 63.8107 51.912L58.8726 40.7441C58.2218 39.2722 57.4416 38.2419 56.5321 37.6531C55.6368 37.0581 54.5747 37.0323 53.3458 37.5757C52.1311 38.1128 51.4355 38.9158 51.2589 39.9848C51.0824 41.0537 51.3195 42.3241 51.9703 43.796L56.9084 54.964C57.5529 56.4216 58.3331 57.4519 59.249 58.0549C60.1585 58.6436 61.2206 58.6694 62.4353 58.1324ZM78.7739 57.2889L81.2837 18.9183L86.6211 16.5583L84.1113 54.9289L78.7739 57.2889ZM97.2434 49.5067C95.4428 50.3029 93.845 50.437 92.4499 49.9093C91.0485 49.3672 89.9655 48.2316 89.2009 46.5025L88.0161 43.823C87.2516 42.0939 87.1435 40.5358 87.6919 39.1486C88.2339 37.7472 89.4053 36.6484 91.2058 35.8523C93.0064 35.0561 94.6074 34.9291 96.0089 35.4711C97.4103 36.0132 98.4964 37.1559 99.2673 38.8994L100.433 41.5359C101.198 43.2651 101.302 44.8335 100.745 46.2412C100.197 47.6284 99.0297 48.7168 97.2434 49.5067ZM95.2814 45.0695C95.9245 44.7852 96.0628 44.2286 95.6963 43.3998L94.6537 41.0419C94.3062 40.2559 93.8109 40.0051 93.1678 40.2894C92.5248 40.5738 92.3833 41.1232 92.7435 41.9378L93.7671 44.2528C94.1336 45.0816 94.6384 45.3539 95.2814 45.0695ZM73.727 38.2249C71.9265 39.0211 70.3286 39.1553 68.9335 38.6275C67.5321 38.0854 66.4491 36.9498 65.6845 35.2207L64.4998 32.5412C63.7352 30.8121 63.6271 29.254 64.1755 27.8668C64.7176 26.4654 65.8889 25.3666 67.6895 24.5705C69.4901 23.7743 71.0911 23.6473 72.4925 24.1893C73.8939 24.7314 74.9801 25.8742 75.7509 27.6176L76.9168 30.2541C77.6813 31.9833 77.7854 33.5517 77.2291 34.9594C76.6807 36.3466 75.5133 37.4351 73.727 38.2249ZM71.7651 33.7877C72.4081 33.5034 72.5464 32.9468 72.1799 32.118L71.1373 29.7601C70.7898 28.9741 70.2945 28.7233 69.6515 29.0076C69.0084 29.292 68.8669 29.8414 69.2271 30.656L70.2507 32.971C70.6172 33.7998 71.122 34.0721 71.7651 33.7877Z" fill="#214A1E"/>
<path d="M55.0385 92.2788C54.0433 92.7167 53.1116 92.9026 52.2432 92.8366C51.3782 92.762 50.6023 92.4455 49.9156 91.887C49.2262 91.3225 48.6561 90.5278 48.2051 89.5029L46.6358 85.9364C46.1822 84.9054 45.9815 83.9482 46.0337 83.0646C46.0859 82.181 46.3767 81.3951 46.9061 80.7069C47.4415 80.0161 48.2067 79.4518 49.2019 79.0139C50.0243 78.6521 50.8316 78.5067 51.6239 78.5777C52.4222 78.6461 53.1767 78.9223 53.8875 79.4061C54.6043 79.8874 55.2529 80.5694 55.8333 81.452L53.2947 82.569C53.008 82.1759 52.6977 81.875 52.364 81.6662C52.0337 81.4488 51.6901 81.3226 51.3332 81.2876C50.9824 81.2499 50.6311 81.3084 50.2795 81.4631C49.5943 81.7646 49.154 82.2109 48.9588 82.8018C48.7669 83.3841 48.8388 84.0566 49.1744 84.8194L50.7437 88.3859C51.0793 89.1487 51.5266 89.656 52.0855 89.908C52.6504 90.1573 53.2756 90.1312 53.9608 89.8297C54.4972 89.5937 54.8727 89.2186 55.0875 88.7045C55.2996 88.1844 55.3313 87.5694 55.1826 86.8595L57.7211 85.7426C57.9712 86.7635 58.0328 87.7037 57.906 88.5632C57.7825 89.4142 57.4793 90.1557 56.9964 90.7879C56.5135 91.42 55.8608 91.917 55.0385 92.2788ZM58.994 90.3784L58.2453 75.1949L59.8006 74.5105L70.4891 85.3205L67.8522 86.4807L60.8361 78.9734L61.6309 89.2181L58.994 90.3784ZM60.4642 87.2456L59.4259 84.8858L66.264 81.877L67.3023 84.2368L60.4642 87.2456ZM69.6731 79.4381L68.6348 77.0783L73.1578 75.0882C73.5391 74.9204 73.7814 74.6466 73.8846 74.2669C73.9938 73.8845 73.9504 73.4626 73.7545 73.0012C73.5526 72.5423 73.2738 72.224 72.9182 72.0462C72.5685 71.8657 72.2 71.8607 71.8127 72.0312L67.2897 74.0213L66.2514 71.6615L70.971 69.5848C71.6921 69.2676 72.3915 69.1518 73.0694 69.2377C73.7533 69.3208 74.3727 69.5889 74.9276 70.0418C75.4825 70.4947 75.9317 71.1114 76.2752 71.8921C76.6187 72.6727 76.7669 73.4219 76.72 74.1396C76.679 74.8547 76.4611 75.4911 76.0664 76.0489C75.6717 76.6067 75.1138 77.0442 74.3927 77.3614L69.6731 79.4381ZM70.9996 85.0959L65.2771 72.0902L67.7263 71.0125L73.4488 84.0182L70.9996 85.0959ZM77.8645 82.0753L72.2314 77.8323L74.6695 76.2688L80.8321 80.7695L77.8645 82.0753ZM81.8433 80.3246L76.1247 67.3279L78.5738 66.2502L84.2924 79.247L81.8433 80.3246ZM82.7282 79.9353L81.6899 77.5755L89.5111 74.1341L90.5495 76.4939L82.7282 79.9353ZM80.4077 74.6615L79.3694 72.3017L86.2074 69.2929L87.2457 71.6527L80.4077 74.6615ZM78.0479 69.2983L77.0096 66.9385L84.8309 63.4971L85.8692 65.8569L78.0479 69.2983Z" fill="#214A1E"/>
</svg>
