<svg width="64" height="61" viewBox="0 0 64 61" fill="none" xmlns="http://www.w3.org/2000/svg">
<g clip-path="url(#clip0_826_911)">
<path d="M18.4007 15.3821C18.4007 15.3821 18.3966 15.3847 18.3946 15.386C18.0414 15.6272 17.9464 16.1185 17.934 16.5184C17.9167 17.1158 18.0168 17.7066 18.042 18.3026C18.0666 18.8931 18.0629 19.4847 18.0491 20.0741C18.0333 20.6648 18.004 21.2527 17.9693 21.8411C17.9346 22.4296 17.8945 23.0187 17.8632 23.6079C17.8511 23.8479 17.8378 24.0858 17.8271 24.3279C17.821 24.4479 17.8171 24.5665 17.8131 24.6852C17.8111 24.7445 17.8091 24.8039 17.8071 24.8632C17.8058 24.9192 17.7929 24.9885 17.8024 25.0433C17.6853 29.3159 18.5711 33.6737 20.1831 37.6378C19.6181 37.7091 19.0544 37.7824 18.4866 37.8584C17.3727 38.0079 16.2599 38.177 15.1772 38.4861C13.9431 38.8385 12.7442 39.6062 11.4402 39.6326C11.3626 39.6337 11.2984 39.6552 11.2434 39.6909C10.9806 39.8617 11.0023 40.3497 11.3799 40.3422C13.5761 40.293 15.6583 39.0033 17.853 38.6621C18.7281 38.5285 19.6109 38.4335 20.4931 38.333C20.6941 38.7625 20.9202 39.1728 21.1613 39.5616C20.2868 39.7006 19.4171 39.8915 18.5641 40.1616C16.2262 40.9065 14.1344 42.6407 11.609 42.6514C11.5315 42.6524 11.4638 42.6732 11.4088 42.7089C11.1481 42.8784 11.1739 43.3637 11.5508 43.3596C13.4256 43.351 14.8504 42.5787 16.5109 41.7634C18.1503 40.9559 19.8576 40.4933 21.6092 40.2282C21.9725 40.7291 22.368 41.186 22.7921 41.6067C21.5866 41.8738 20.3985 42.2079 19.244 42.674C17.2527 43.4751 15.6733 44.8385 13.7673 45.7844C13.7531 45.7936 13.7395 45.7995 13.7273 45.8075C13.3851 46.0299 13.6848 46.6158 14.0793 46.4203C14.8032 46.0629 15.4813 45.6308 16.1555 45.1925C16.2573 45.1263 16.3592 45.0601 16.459 44.9953C17.2187 44.5014 17.9844 44.0123 18.8163 43.634C20.2974 42.9528 21.8498 42.5328 23.4301 42.2049C28.7921 46.8162 37.9899 46.3947 44.2233 43.4454C44.846 43.1509 45.4456 42.8163 46.0138 42.4469C47.9243 41.205 49.5043 39.5481 50.558 37.5543C51.4079 37.5736 52.2562 37.5503 53.098 37.4413C55.0071 37.1957 57.3946 37.2224 59.118 36.3256C59.1302 36.3176 59.1404 36.311 59.1506 36.3044C59.5009 36.0766 59.1993 35.4834 58.8027 35.6889C57.2977 36.467 54.6767 36.5224 52.9647 36.7414C52.2781 36.8308 51.5909 36.8567 50.9013 36.8523C51.1941 36.2063 51.432 35.5292 51.6076 34.8231C52.2523 34.7987 52.897 34.7742 53.5473 34.7404C55.6343 34.6259 56.9143 33.8315 58.8632 33.3395C58.9058 33.3292 58.941 33.3121 58.9736 33.2909C59.271 33.0976 59.1294 32.5367 58.7333 32.6404C58.0113 32.8224 57.4749 33.174 56.7911 33.4502C55.4424 33.9874 54.0445 34.0167 52.6134 34.0705C52.3329 34.0846 52.0442 34.0952 51.763 34.1039C51.8977 33.433 51.9741 32.7884 51.9985 32.1573C52.6436 32.031 53.2719 31.9099 53.8565 31.7708C55.7976 31.3158 57.7137 30.8625 59.5486 30.0614C59.5683 30.0516 59.5879 30.0417 59.6042 30.0311C59.9342 29.8166 59.6323 29.2496 59.234 29.4214C56.9337 30.4292 54.4522 30.9221 52.0112 31.4815C51.9994 29.9569 51.7357 28.477 51.384 26.8395C50.5122 22.8151 49.651 18.7982 48.6873 14.7929C48.2188 12.8599 47.7408 8.63459 45.4963 10.0937C45.2702 10.2406 45.0246 10.4467 44.7581 10.7186C43.7737 11.7271 42.7704 12.8001 41.9236 13.9311C41.611 14.3461 41.3466 14.8575 41.012 15.2521C40.6609 15.6748 40.3923 15.948 40.1194 16.1254C39.6509 16.43 39.1721 16.451 38.2384 16.4544C35.8376 16.4652 33.3948 16.6254 31.0431 17.0949C30.4485 17.2143 29.8605 17.3528 29.2763 17.5149C28.7178 17.6719 28.1605 17.8398 27.6281 18.0727C27.0882 18.3075 26.5641 18.5844 26.0699 18.9028C26.0638 18.9067 26.0557 18.912 26.0495 18.916C25.8153 19.0683 25.5897 19.2382 25.3581 19.3945C25.2949 19.4356 25.2277 19.4793 25.1605 19.5229C24.91 19.6858 24.6359 19.8436 24.343 19.8744C24.1054 19.9012 23.8699 19.8598 23.6594 19.75C23.4221 19.6256 23.211 19.4524 23.0202 19.2659C22.8087 19.0609 22.5932 18.8585 22.3906 18.6449C22.1879 18.4313 22.001 18.2016 21.812 17.9733C21.623 17.745 21.4279 17.5294 21.2259 17.3124C21.0866 17.165 20.9473 17.0176 20.8101 16.8688C20.437 16.4642 20.0443 16.0607 19.6016 15.7274C19.4318 15.5999 19.2436 15.4842 19.0415 15.4095C18.8508 15.3391 18.5806 15.2622 18.3973 15.3814L18.4007 15.3821ZM25.8662 37.9426C26.1289 37.7718 25.9788 37.2512 25.5867 37.2943C24.4878 37.4224 23.3882 37.2463 22.267 37.3802C21.8289 37.4328 21.3908 37.4854 20.9527 37.538C20.5513 36.6352 20.2131 35.6826 19.9149 34.7069C18.8558 31.2947 18.319 27.7054 18.5532 24.1344C18.592 23.5346 18.6477 22.9382 18.6987 22.3392C18.7477 21.7414 18.7919 21.141 18.8011 20.54C18.8111 19.9357 18.7178 19.3376 18.6548 18.7371C18.6451 18.6419 18.6353 18.5467 18.6256 18.4514C18.5899 18.0712 18.5617 17.6891 18.5577 17.3085C18.5572 17.1116 18.558 16.9079 18.5804 16.7105C18.5984 16.5421 18.6232 16.3663 18.6883 16.2079C18.7029 16.1723 18.724 16.147 18.7485 16.1311C18.8503 16.0649 19.02 16.1432 19.1179 16.1957C19.5295 16.4099 19.8837 16.6962 20.205 17.03C20.4656 17.3017 20.7038 17.5967 20.9358 17.8957C21.1731 18.2029 21.4057 18.5161 21.643 18.8232C21.8737 19.1202 22.1113 19.4098 22.3739 19.6802C22.6133 19.928 22.8757 20.1579 23.1704 20.3349C23.3546 20.4444 23.5498 20.5352 23.7541 20.591C24.2965 20.7434 24.6775 20.6118 25.0522 20.3682C25.3741 20.159 25.6927 19.8648 26.1062 19.596C26.2019 19.5338 26.3024 19.4743 26.4061 19.4155C26.8829 19.155 27.3748 18.9222 27.8753 18.7159C28.3811 18.509 28.8974 18.3271 29.4229 18.1684C29.9539 18.009 30.4886 17.8732 31.0298 17.7564C31.5765 17.6391 32.1256 17.5433 32.6799 17.4645C33.2363 17.3843 33.7938 17.3237 34.3538 17.276C34.9139 17.2283 35.4724 17.196 36.0335 17.1766C36.6391 17.1544 37.246 17.143 37.854 17.1512C38.1013 17.1529 38.3493 17.16 38.5981 17.1637C38.8919 17.1701 39.1958 17.1873 39.4866 17.1578C39.8403 17.1224 40.1899 17.0228 40.5124 16.877C40.5896 16.8443 40.6615 16.8033 40.7287 16.7596C41.0668 16.5398 41.3112 16.1982 41.5178 15.8519C41.8199 15.345 42.1522 14.8533 42.5018 14.3794C42.5087 14.372 42.5121 14.364 42.5189 14.3566C42.8487 13.9101 43.1945 13.4793 43.557 13.0608C43.7051 12.8919 43.8546 12.7251 44.0074 12.5591C44.2032 12.3476 44.409 12.1384 44.6115 11.9284C44.8059 11.7237 44.9882 11.5094 45.1805 11.306C45.3551 11.12 45.5371 10.932 45.751 10.7929C45.7673 10.7824 45.7856 10.7704 45.8019 10.7598C45.9105 10.6951 46.0283 10.6446 46.156 10.6226C46.5531 10.5559 46.8909 10.9864 47.0493 11.2926C47.1477 11.4841 47.2034 11.6945 47.251 11.9015C47.3 12.1106 47.3544 12.319 47.4108 12.5261C47.5334 12.9688 47.6506 13.4121 47.7645 13.8547C47.8796 14.2993 47.9894 14.7445 48.0985 15.1931C48.2062 15.6396 48.3119 16.0875 48.4156 16.5367C48.5193 16.9859 48.6216 17.433 48.7232 17.8836C48.8235 18.332 48.9252 18.7825 49.0255 19.231C49.1258 19.6795 49.2261 20.128 49.3264 20.5764C49.3656 20.7483 49.4049 20.9201 49.4421 21.0932C50.2038 24.4579 51.4429 28.1246 51.3367 31.6385C51.286 31.6541 51.2313 31.6635 51.1792 31.677C49.3076 32.1275 47.4069 32.4083 45.7836 33.4635C45.7103 33.5112 45.6349 33.5602 45.5642 33.6119C45.2415 33.842 45.555 34.2797 45.8846 34.2163C45.9265 34.2094 45.9733 34.1877 46.0181 34.1585C46.0221 34.1559 46.0283 34.1519 46.0323 34.1493C46.1043 34.0996 46.1763 34.0499 46.2517 34.0009C47.6632 33.0833 49.511 32.6454 51.3007 32.2829C51.3003 32.3268 51.2971 32.3666 51.2913 32.411C51.2397 33.0047 51.1445 33.5715 51.0199 34.1197C49.4236 34.1823 47.8398 34.2599 46.2504 34.556C46.2044 34.5656 46.1612 34.5792 46.1286 34.6004C46.1204 34.6057 46.1143 34.6097 46.1082 34.6136C45.8779 34.772 45.9564 35.1824 46.2274 35.2472C46.2751 35.2626 46.3263 35.2612 46.381 35.2518C47.859 34.9759 49.3464 34.8971 50.8382 34.8386C50.6324 35.5383 50.3772 36.1975 50.0705 36.8177C48.739 36.7575 47.4087 36.592 46.1031 36.4511C46.0903 36.4536 46.0789 36.4494 46.0634 36.4479C45.9758 36.4381 45.9028 36.4594 45.8437 36.4978C45.6034 36.654 45.6361 37.1233 46.0044 37.1595C47.2266 37.2879 48.4633 37.4388 49.701 37.5107C48.6817 39.25 47.2487 40.6604 45.5561 41.7606C42.9837 43.4329 39.8102 44.3901 36.5758 44.6962C32.9823 45.0384 29.0568 44.8477 25.8053 43.1219C25.2101 42.8036 24.6767 42.4422 24.187 42.0408C24.5362 41.9763 24.8895 41.9092 25.2393 41.8501C25.294 41.8406 25.3401 41.8223 25.3788 41.7972C25.6558 41.6171 25.5065 41.0844 25.1094 41.151C24.5819 41.2443 24.0577 41.3384 23.5328 41.4445C23.1139 41.0319 22.7405 40.5868 22.4012 40.1138C23.3157 40.0098 24.2427 39.947 25.1807 39.9235C25.2569 39.9204 25.3245 39.8996 25.3775 39.8652C25.6423 39.6931 25.6226 39.2038 25.2409 39.2139C25.0777 39.2213 24.9165 39.2274 24.754 39.2315C23.8167 39.2604 22.8802 39.3264 21.9467 39.437C21.7055 39.0482 21.4841 38.6407 21.2762 38.2274C21.4133 38.2108 21.5449 38.1949 21.6806 38.1764C22.7034 38.0426 23.7066 38.0927 24.7101 38.0586C25.0453 38.0438 25.3779 38.025 25.7181 37.9867C25.7775 37.98 25.8269 37.9624 25.8676 37.9359L25.8662 37.9426Z" fill="#204E1C"/>
<path d="M44.9639 16.6067C44.9859 16.6853 45.0067 16.7617 45.0295 16.8369C45.0898 17.0501 45.1456 17.2518 45.1981 17.4528C45.2996 17.8541 45.3549 18.1577 45.3728 18.4392C45.3745 18.4642 45.3763 18.4891 45.3767 18.5121C44.9978 18.326 44.6288 18.1595 44.2784 18.0216C44.1455 17.9687 44.0153 17.9199 43.889 17.8772L43.9875 17.7435C44.1785 17.4801 44.3558 17.2313 44.5528 17.0307C44.6026 16.978 44.6537 16.9274 44.7048 16.8767C44.7913 16.7915 44.8806 16.7015 44.9693 16.6061M44.9457 14.6799C44.9131 14.7011 44.8845 14.7284 44.8619 14.7605C44.7983 14.8454 44.7815 14.9579 44.7683 15.0623C44.7314 15.3532 44.5561 15.6007 44.3698 15.8176C44.2086 16.0065 44.0254 16.1749 43.8543 16.3529C43.5686 16.6489 43.3371 16.988 43.0949 17.3196C42.934 17.5403 42.7371 17.7321 42.5991 17.9699C42.5414 18.0683 42.4657 18.2104 42.49 18.3281C42.5246 18.4972 42.6715 18.5671 42.8221 18.6027C42.9815 18.6384 43.1443 18.666 43.3015 18.7118C43.5119 18.7724 43.7194 18.8465 43.9234 18.9286C44.3336 19.0915 44.7387 19.2779 45.131 19.4757C45.2785 19.5511 45.4287 19.6217 45.5831 19.681C45.7006 19.7236 45.8268 19.775 45.9557 19.7638C46.0076 19.759 46.057 19.7414 46.0978 19.715C46.1609 19.6739 46.2061 19.6097 46.2312 19.5324C46.3438 19.1574 46.3737 18.7665 46.3489 18.3763C46.3228 17.9841 46.2435 17.5946 46.1465 17.2136C46.0347 16.7697 45.8985 16.3329 45.7867 15.889C45.7499 15.7388 45.7179 15.5826 45.6682 15.4349C45.6592 15.4031 45.648 15.3726 45.6349 15.3435C45.5673 15.1726 45.4787 15.0096 45.3779 14.8546C45.3249 14.773 45.2533 14.6628 45.151 14.6393C45.0791 14.6222 45.0075 14.6369 44.9464 14.6766L44.9457 14.6799Z" fill="#204E1C"/>
<path d="M40.5841 27.2921C39.8773 27.7516 39.387 28.4592 38.9424 29.3577C38.7748 29.7017 39.2147 29.9236 39.4815 29.7502C39.5344 29.7157 39.5802 29.6657 39.6139 29.5973C39.9807 28.8511 40.3786 28.2731 40.955 27.8984C41.3216 27.6601 41.7588 27.5036 42.3069 27.4375C43.5922 27.284 44.5163 27.7919 45.3301 28.772C45.4606 28.9281 45.6426 28.9229 45.775 28.8368C45.938 28.7309 46.0301 28.5027 45.8698 28.3051C44.8829 27.1212 43.7343 26.5444 42.177 26.7384C41.5377 26.8202 41.0199 27.0088 40.5841 27.2921Z" fill="#204E1C"/>
<path d="M43.1996 33.7184C43.0346 33.8256 42.9244 34.0395 43.012 34.2321C43.1107 34.4553 43.4357 34.5139 43.6332 34.3855C43.6801 34.355 43.7203 34.3144 43.7492 34.2608C43.8345 34.0979 43.7695 33.8819 43.6488 33.7543C43.5369 33.6355 43.3927 33.6277 43.2687 33.6821C43.2457 33.6913 43.222 33.7038 43.2016 33.7171L43.1996 33.7184Z" fill="#204E1C"/>
<path d="M43.179 35.7942C43.0384 35.8856 42.9447 36.0713 42.974 36.2322C43.0097 36.4208 43.2185 36.5637 43.409 36.5269C43.4549 36.5174 43.4989 36.5004 43.5397 36.4739C43.67 36.3892 43.7547 36.2297 43.7482 36.0771C43.7411 35.8699 43.5123 35.7052 43.3076 35.7425C43.2637 35.7507 43.221 35.7698 43.1823 35.7949L43.179 35.7942Z" fill="#204E1C"/>
<path d="M41.2823 32.8457C41.2293 32.8801 41.1843 32.9268 41.1514 32.9831C41.0429 33.1639 41.0797 33.3721 41.2183 33.5229C41.2496 33.5577 41.2857 33.5864 41.3245 33.6105C41.439 33.6841 41.5866 33.6927 41.6986 33.6199C41.7149 33.6093 41.7332 33.5973 41.7476 33.5793C41.8457 33.4807 41.8831 33.3287 41.8697 33.1923C41.8539 33.0342 41.7747 32.8767 41.6285 32.8122C41.5077 32.7601 41.3848 32.7761 41.285 32.841L41.2823 32.8457Z" fill="#204E1C"/>
<path d="M40.9899 36.0689C40.9614 36.0874 40.9335 36.1114 40.9116 36.1401C40.8063 36.2724 40.8224 36.4709 40.8923 36.6141C40.9536 36.7396 41.0712 36.8402 41.2162 36.836C41.2957 36.8336 41.3749 36.8082 41.4421 36.7645C41.4971 36.7288 41.5441 36.6808 41.5805 36.6253C41.6888 36.4532 41.6704 36.2243 41.4978 36.1015C41.356 35.9992 41.1406 35.9709 40.9899 36.0689Z" fill="#204E1C"/>
<path d="M39.7715 34.5333C39.7185 34.5678 39.6735 34.6144 39.6473 34.6721C39.5639 34.8424 39.6052 35.0709 39.7419 35.2055C39.8687 35.3292 40.052 35.3348 40.1925 35.2435C40.2109 35.2315 40.2312 35.2183 40.2476 35.1989C40.3307 35.1217 40.3804 35.011 40.3729 34.8969C40.3637 34.7491 40.2872 34.5957 40.16 34.5159C40.0435 34.4436 39.8896 34.4565 39.7756 34.5307L39.7715 34.5333Z" fill="#204E1C"/>
<path d="M34.7272 32.3855C34.5297 32.514 34.3874 32.7051 34.343 33.0068C34.2912 33.3684 34.3816 33.7304 34.5575 34.0456C34.7401 34.371 35.0027 34.6501 35.2879 34.8884C35.4376 35.0116 35.5887 35.1282 35.7514 35.2314C35.8338 35.2823 35.9182 35.3319 36.006 35.3735C36.0778 35.4081 36.1603 35.4415 36.1925 35.5221C36.2614 35.695 36.2424 35.8931 36.2445 36.0746C36.2469 36.221 36.246 36.3667 36.2397 36.513C36.2342 36.6472 36.2388 36.7835 36.2212 36.9168C36.197 37.098 36.0968 37.2559 36.0049 37.4086C35.9156 37.5566 35.8136 37.6983 35.703 37.8312C35.4789 38.1017 35.2175 38.3413 34.9301 38.5455C34.8832 38.5759 34.8357 38.6098 34.7888 38.6402C34.5424 38.8004 34.2787 38.9341 34.0052 39.0393C33.7358 39.1419 33.4566 39.2161 33.171 39.2537C33.115 39.2611 33.0656 39.2787 33.0269 39.3039C32.758 39.4786 32.9087 40.0046 33.303 39.9515C33.9538 39.8651 34.6084 39.6107 35.1848 39.236C35.8244 38.8203 36.3705 38.2563 36.7261 37.6044C37.5597 38.3742 39.1064 38.5471 40.1399 38.3541C40.1912 38.3439 40.2373 38.3256 40.2739 38.3018C40.557 38.1177 40.4085 37.5816 40.0099 37.655C39.7282 37.7075 39.4369 37.7228 39.1504 37.7145C38.831 37.7045 38.5126 37.6648 38.2027 37.5848C37.9096 37.5083 37.6222 37.3962 37.3727 37.2218C37.2456 37.1332 37.1274 37.0272 37.0445 36.8953C36.9756 36.7892 36.9485 36.6762 36.9485 36.5514C36.9464 36.3699 36.9598 36.19 36.9557 36.0098C36.9511 35.8155 36.9343 35.6203 36.9034 35.4257C36.8889 35.3364 36.9038 35.2658 36.9417 35.186C37.0003 35.0666 37.0797 34.957 37.1511 34.8439C37.2437 34.6966 37.3329 34.5486 37.4208 34.3986C37.5836 34.1186 37.7271 33.8223 37.7932 33.5006C37.8488 33.2295 37.8397 32.9481 37.7685 32.678C37.5281 31.7779 36.8346 31.8833 36.0887 32.0374C35.657 32.1265 35.0999 32.1432 34.7293 32.3842L34.7272 32.3855ZM36.3782 34.7426C36.3782 34.7426 36.3627 34.7498 36.3539 34.7497C36.3343 34.7508 36.3122 34.7391 36.2935 34.7281C36.1649 34.6462 36.0343 34.5657 35.9126 34.4765C35.7614 34.3687 35.6178 34.2502 35.4864 34.115C35.3624 33.9867 35.2507 33.8416 35.1702 33.6821C35.1082 33.5599 35.0658 33.4279 35.0524 33.2914C35.0361 33.1192 35.1034 33.0088 35.2154 32.9359C35.468 32.7718 35.9497 32.7952 36.2187 32.7365C36.3991 32.6976 36.6748 32.5735 36.8597 32.6129C37.1248 32.664 37.1426 33.0123 37.1217 33.261C37.107 33.4389 37.0532 33.6102 36.982 33.7726C36.9081 33.9397 36.81 34.0963 36.7126 34.2496C36.6139 34.4008 36.5118 34.5513 36.4131 34.7026C36.4055 34.7133 36.3973 34.7273 36.3851 34.7353L36.381 34.7379L36.3782 34.7426Z" fill="#204E1C"/>
<path d="M26.9986 30.3682C26.0861 30.9614 25.5492 31.9896 25.4104 33.0955C25.3657 33.4322 25.7432 33.5495 25.9653 33.4052C26.0427 33.3549 26.1022 33.2727 26.1163 33.1562C26.2322 32.2247 26.6801 31.4517 27.3848 30.9936C27.7596 30.75 28.2049 30.597 28.7143 30.556C29.8377 30.4613 30.6672 30.9349 31.5595 31.5766C31.6906 31.6714 31.8249 31.6595 31.9268 31.5933C32.1141 31.4715 32.1984 31.1643 31.9589 30.992C30.6946 30.0813 29.3774 29.5213 27.8049 29.995C27.51 30.0852 27.241 30.2107 27.0006 30.3669L26.9986 30.3682Z" fill="#204E1C"/>
<path d="M31.6569 35.8984C31.6019 35.9341 31.5542 35.9855 31.5198 36.0484C31.4922 36.1041 31.474 36.1653 31.4821 36.2267C31.4962 36.3598 31.5879 36.483 31.7059 36.5398C31.8273 36.5973 31.967 36.5848 32.0709 36.5173C32.1238 36.4829 32.1675 36.4342 32.1965 36.3718C32.278 36.1941 32.2061 35.9854 32.0406 35.8869C31.9161 35.8112 31.7697 35.8222 31.6556 35.8963L31.6569 35.8984Z" fill="#204E1C"/>
<path d="M31.6787 37.8668C31.6522 37.884 31.6284 37.9053 31.6059 37.9286C31.4988 38.0447 31.4686 38.221 31.5554 38.359C31.6562 38.5141 31.8588 38.6029 32.0391 38.5728C32.0864 38.5652 32.127 38.5475 32.1637 38.5237C32.2981 38.4363 32.3587 38.2576 32.2937 38.0996C32.2766 38.0556 32.2514 38.0168 32.2235 37.9828C32.0904 37.8226 31.8572 37.7536 31.68 37.8688L31.6787 37.8668Z" fill="#204E1C"/>
<path d="M29.8828 35.2559C29.8828 35.2559 29.8807 35.2572 29.8787 35.2586C29.5277 35.4897 29.8546 36.1129 30.2477 35.9242C30.2599 35.9162 30.2755 35.909 30.2877 35.9011C30.5056 35.7594 30.5636 35.3851 30.3266 35.2344C30.1873 35.145 30.0152 35.1698 29.8828 35.2559Z" fill="#204E1C"/>
<path d="M29.6238 38.436C29.4608 38.5419 29.3669 38.7539 29.474 38.9454C29.595 39.1628 29.8765 39.1858 30.0639 39.064C30.1454 39.0111 30.2083 38.9295 30.2337 38.826C30.2761 38.6417 30.1573 38.4722 29.9916 38.4C29.8661 38.3452 29.731 38.3692 29.6271 38.4367L29.6238 38.436Z" fill="#204E1C"/>
<path d="M28.5469 36.7802C28.5001 36.8106 28.4612 36.8533 28.433 36.9036C28.3436 37.0691 28.3941 37.3206 28.5507 37.4278C28.6705 37.5095 28.8397 37.5069 28.9599 37.4288C28.9843 37.4129 29.0061 37.3929 29.0266 37.3709C29.1126 37.2715 29.1344 37.1267 29.0973 37.0028C29.0407 36.8132 28.848 36.6773 28.6384 36.7381C28.6046 36.7485 28.5755 36.7616 28.5469 36.7802Z" fill="#204E1C"/>
<path d="M20.6802 21.3843C20.7173 21.4414 20.7599 21.4979 20.799 21.5537C20.9105 21.7163 21.0267 21.8816 21.1476 22.0497C21.2744 22.2314 21.4167 22.4146 21.5772 22.5947C21.5527 22.6106 21.5303 22.6251 21.5079 22.6397C21.4509 22.6768 21.3939 22.7139 21.3368 22.7509C21.2737 22.792 21.2105 22.833 21.1494 22.8727C21.0374 22.9456 20.9471 23.0072 20.8601 23.0695C20.6984 23.1862 20.5427 23.3078 20.3918 23.4233L20.3497 23.4565C20.367 23.3495 20.3865 23.2323 20.4088 23.1017L20.4482 22.8816C20.5135 22.5229 20.5795 22.152 20.6368 21.781C20.6592 21.6417 20.6714 21.5089 20.6821 21.3917C20.6821 21.3917 20.6821 21.3917 20.6808 21.3897M20.1168 19.6261C20.0353 19.6791 19.9965 19.7798 19.9639 19.8678C19.8958 20.0484 19.8642 20.2315 19.8285 20.4172C19.7903 20.6394 19.7602 20.865 19.7342 21.0879C19.7121 21.2678 19.7054 21.4491 19.6765 21.6275C19.6091 22.0632 19.5282 22.4959 19.4507 22.9294C19.4119 23.1461 19.3765 23.3635 19.3492 23.5845C19.2961 24.002 19.2246 24.4403 19.3354 24.8559C19.3587 24.9452 19.4047 25.0604 19.5021 25.09C19.6109 25.1237 19.7535 25.089 19.8472 25.0281C19.8574 25.0215 19.8676 25.0149 19.8778 25.0083C20.2301 24.7792 20.5626 24.5195 20.8977 24.264C21.0758 24.1279 21.2506 23.9911 21.4313 23.8591C21.5122 23.8007 21.5944 23.7444 21.6799 23.6888C21.8001 23.6106 21.9216 23.5346 22.0397 23.4578C22.1904 23.3598 22.3405 23.2564 22.4793 23.1401C22.6161 23.0251 22.8152 22.8724 22.8362 22.6817C22.8497 22.551 22.7881 22.4518 22.7082 22.3644C22.6369 22.286 22.5547 22.2175 22.4801 22.1384C22.2854 21.937 22.0997 21.7181 21.9397 21.4855C21.7079 21.1689 21.4944 20.8405 21.2625 20.5239C21.0619 20.251 20.8501 19.9563 20.5793 19.7492C20.469 19.6642 20.2951 19.5393 20.1494 19.6049C20.1392 19.6116 20.1277 19.6161 20.1175 19.6228L20.1168 19.6261Z" fill="#204E1C"/>
</g>
<defs>
<clipPath id="clip0_826_911">
<rect width="49.1033" height="40.7198" fill="white" transform="translate(0 26.7627) rotate(-33.0263)"/>
</clipPath>
</defs>
</svg>
