<svg width="152" height="152" viewBox="0 0 152 152" fill="none" xmlns="http://www.w3.org/2000/svg">
<rect x="13.3545" y="0.674011" width="128" height="128" rx="64" transform="rotate(1.2 13.3545 0.674011)" fill="#AD321C"/>
<g filter="url(#filter0_dd_730_26230)">
<rect x="13.3545" y="0.674011" width="128" height="128" rx="64" transform="rotate(1.2 13.3545 0.674011)" fill="white" fill-opacity="0.01" shape-rendering="crispEdges"/>
</g>
<path d="M51.7412 62.4446C51.076 62.3681 50.5855 62.1547 50.2699 61.8043C50.0052 61.507 49.877 61.1605 49.8853 60.7647C49.8897 60.5564 49.9307 60.3385 50.0084 60.1109C50.2849 59.3457 50.9104 58.5826 51.8849 57.8216L52.0118 57.7305C52.0967 57.6593 52.1496 57.6187 52.1707 57.6088L52.2042 57.5001C52.2162 57.4274 52.2284 57.3391 52.241 57.2352C52.6715 55.0875 53.2009 52.9418 53.8293 50.7983C54.0759 49.9699 54.3938 48.9659 54.7832 47.7863C55.1728 46.5963 55.5728 45.4065 55.9832 44.2169C56.0384 44.0722 56.0827 43.9429 56.1164 43.829L56.1665 43.6738C56.1667 43.6633 56.1616 43.658 56.1512 43.6578C56.141 43.6472 56.1257 43.6312 56.1053 43.61C56.0537 43.588 56.0127 43.5559 55.9823 43.5136C55.9626 43.4611 55.9537 43.388 55.9557 43.2943L55.9573 43.2162C55.9634 42.9246 56.0857 42.5572 56.3242 42.1142C56.6491 41.5271 56.9018 41.1522 57.0823 40.9892C57.157 40.9074 57.2259 40.8516 57.289 40.8216C57.3625 40.7919 57.4462 40.7781 57.5399 40.78C57.6336 40.782 57.7062 40.7991 57.7576 40.8315C57.8197 40.8536 57.8814 40.8914 57.9428 40.9447C58.0658 41.0411 58.1248 41.209 58.1198 41.4486C58.1254 41.6779 58.044 42.0825 57.8756 42.6625C57.7074 43.232 57.4344 44.0754 57.0568 45.1927C56.5795 46.5893 56.2128 47.6808 55.9567 48.4673C55.7006 49.2538 55.4382 50.0922 55.1695 50.9826C54.8459 52.0073 54.5773 52.8925 54.3637 53.6382C54.1607 54.3737 53.9563 55.1821 53.7503 56.0634C53.7049 56.2396 53.6705 56.3899 53.647 56.5144L53.6116 56.7169C53.622 56.7171 53.6693 56.6972 53.7535 56.6573C53.8376 56.6174 53.9429 56.5675 54.0692 56.5077C55.4481 55.8385 57.0269 55.3245 58.8056 54.9659C59.7369 54.777 60.5102 54.663 61.1258 54.6238C61.3343 54.6177 61.579 54.6229 61.86 54.6392C62.1516 54.6453 62.3805 54.6605 62.5467 54.6848L62.7491 54.7203L62.8448 54.6285C62.9301 54.5365 63.0742 54.3729 63.2771 54.1375C63.4906 53.8919 63.6885 53.646 63.8708 53.3997C65.7109 51.1044 67.0017 48.9227 67.7431 46.8544C68.1307 45.7581 68.3349 44.7153 68.3556 43.7259C68.3621 43.4135 68.3479 43.1006 68.3127 42.7873C68.1088 41.0848 67.3339 39.7766 65.9882 38.8628C64.7446 38.0449 63.2012 37.6166 61.3578 37.578C60.8267 37.5669 60.2741 37.5866 59.7 37.6371C57.8099 37.8371 55.9346 38.3292 54.0741 39.1133C51.4868 40.2677 49.5983 41.6399 48.4085 43.2299C48.0001 43.8257 47.7912 44.3475 47.7818 44.7953C47.7796 44.8994 47.783 44.9881 47.7919 45.0612C47.8114 45.1241 47.8459 45.2186 47.8953 45.3447C47.9854 45.5237 48.0292 45.6705 48.0268 45.785C48.0261 45.8163 48.0202 45.8474 48.0092 45.8784C47.9755 45.9923 47.9165 46.0744 47.8321 46.1248C47.7479 46.1647 47.6642 46.1838 47.5809 46.182C47.5496 46.1814 47.5185 46.1755 47.4874 46.1644C47.249 46.1073 47.0643 45.9732 46.9333 45.7621C46.7419 45.4455 46.6505 45.0842 46.659 44.678C46.6649 44.3968 46.7181 44.0958 46.8186 43.7749C47.1617 42.8131 47.8801 41.8436 48.9737 40.8663C50.078 39.8788 51.43 39.0006 53.0298 38.2319C55.2291 37.1944 57.5343 36.5706 59.9455 36.3607C60.2378 36.3355 60.5401 36.3262 60.8525 36.3328C61.1756 36.3291 61.4048 36.3287 61.5402 36.3316C61.811 36.3372 62.0452 36.3474 62.2429 36.3619C63.6989 36.4862 64.9833 36.8465 66.0961 37.4428C66.7864 37.8115 67.3864 38.2669 67.896 38.809C69.1284 40.158 69.7241 41.8115 69.6831 43.7694C69.672 44.3005 69.6134 44.8567 69.5075 45.4379C69.3089 46.4652 68.9529 47.5413 68.4397 48.6663C67.4789 50.7612 66.1119 52.8528 64.3386 54.9411C64.2531 55.0435 64.1782 55.1357 64.114 55.2177C64.05 55.2893 64.0074 55.3353 63.9861 55.3557C63.9752 55.3763 63.9538 55.4071 63.9216 55.4481C63.8897 55.4787 63.8578 55.5093 63.8259 55.5399C62.685 56.7871 61.6428 57.7968 60.6993 58.5688C57.8796 60.8749 55.2478 62.1638 52.8041 62.4356C52.6266 62.4527 52.4598 62.4596 52.3036 62.4564C52.1578 62.4533 52.0432 62.4509 51.9599 62.4492L51.7412 62.4446ZM52.9224 61.2659C55.3477 60.8791 57.9577 59.3814 60.7526 56.7727C60.8481 56.6913 60.9597 56.5843 61.0875 56.4515C61.2257 56.319 61.3586 56.1915 61.4862 56.0691C61.614 55.9364 61.7205 55.8292 61.8055 55.7476C61.8908 55.6557 61.9336 55.6045 61.9338 55.594C61.9234 55.5938 61.8398 55.6025 61.6832 55.62C61.5369 55.6378 61.3593 55.6601 61.1504 55.687C60.9519 55.7141 60.7638 55.7414 60.5861 55.769C57.7427 56.2199 55.3763 57.0247 53.4871 58.1833C53.4235 58.2341 53.3653 58.2746 53.3126 58.3047C53.2703 58.3351 53.2438 58.3554 53.2332 58.3656L53.2169 58.3965C53.2058 58.4275 53.1999 58.4638 53.199 58.5055C53.1882 58.5261 53.1769 58.5676 53.1651 58.6298C53.1204 58.7747 53.0694 58.9716 53.0121 59.2205C52.967 59.3863 52.9272 59.5417 52.8929 59.6868C52.8589 59.8216 52.8361 59.9149 52.8246 59.9667C52.8133 60.0082 52.8074 60.0393 52.807 60.0601C52.8063 60.0914 52.8058 60.1174 52.8053 60.1382C52.8155 60.1489 52.8308 60.1648 52.8512 60.1861C52.8918 60.239 52.9115 60.2915 52.9104 60.3436C52.91 60.3644 52.9044 60.3852 52.8935 60.4058C52.8712 60.4782 52.8179 60.5344 52.7337 60.5743C52.7129 60.5739 52.6815 60.5785 52.6396 60.588C52.6082 60.5978 52.582 60.6024 52.5612 60.602C52.2279 60.595 52.0477 60.2474 52.0204 59.5592L52.0094 59.3401L51.93 59.401C51.866 59.4726 51.7806 59.5698 51.6738 59.6926C51.567 59.8154 51.4814 59.923 51.417 60.0154C51.2017 60.3443 51.0919 60.6129 51.0875 60.8212L51.0866 60.868C51.1243 61.0564 51.3351 61.191 51.7189 61.272C51.7811 61.2837 51.8904 61.2912 52.0466 61.2945C52.2132 61.298 52.38 61.2963 52.5468 61.2893C52.7137 61.2824 52.8388 61.2746 52.9224 61.2659ZM70.8701 57.2347C70.2479 57.0966 69.8539 56.755 69.6882 56.2097C69.5227 55.654 69.4446 55.1575 69.4537 54.7201C69.4633 54.2618 69.5363 53.7633 69.6726 53.2243C69.9315 52.3025 70.3458 51.4255 70.9155 50.5935C71.3128 50.0288 71.6694 49.6664 71.9853 49.5063C72.0381 49.4762 72.0802 49.4562 72.1116 49.4465C72.1431 49.4367 72.1744 49.4321 72.2057 49.4328C72.2369 49.4335 72.2838 49.4344 72.3463 49.4357C72.4608 49.4381 72.5439 49.4503 72.5956 49.4722C72.6576 49.4944 72.7191 49.5425 72.7801 49.6167L72.8409 49.6962L72.9376 49.5575C73.0563 49.3621 73.2051 49.2245 73.3838 49.1449C73.447 49.115 73.4943 49.0951 73.5257 49.0854C73.5676 49.0758 73.625 49.0718 73.6979 49.0733C73.7708 49.0749 73.828 49.0813 73.8694 49.0926C73.9109 49.1039 73.9573 49.1257 74.0087 49.158C74.2662 49.2988 74.4432 49.5526 74.5398 49.9193C74.5872 50.1391 74.6079 50.3948 74.6018 50.6864C74.5944 51.0405 74.5492 51.4563 74.4663 51.9338L74.4132 52.2296L74.4747 52.2778C74.5363 52.3208 74.6341 52.3801 74.7679 52.4559C74.902 52.5212 75.0208 52.5706 75.1243 52.604C75.2586 52.6589 75.388 52.6981 75.5125 52.7215C75.6371 52.745 75.7825 52.7637 75.949 52.7776L76.1208 52.7812C76.5894 52.791 77.102 52.6923 77.6586 52.4852C77.8578 52.4268 78.1308 52.3231 78.4778 52.1741C78.8249 52.0147 79.1196 51.875 79.3617 51.7551C79.5301 51.6752 79.6616 51.6155 79.7562 51.5758C79.851 51.5257 79.9247 51.4907 79.9772 51.471C80.0299 51.4409 80.0667 51.426 80.0875 51.4264C80.119 51.4167 80.1451 51.412 80.166 51.4124C80.2909 51.4151 80.3676 51.4844 80.396 51.6204C80.3952 51.6621 80.3892 51.6984 80.3781 51.7295C80.3775 51.7607 80.361 51.802 80.3286 51.8534C80.1019 52.2342 79.7193 52.5908 79.181 52.9234C78.9384 53.0642 78.6385 53.2038 78.2814 53.3422C77.9347 53.4808 77.6041 53.5936 77.2897 53.6808C76.808 53.7958 76.3537 53.8488 75.9267 53.8398C75.3331 53.8274 74.7888 53.6962 74.294 53.4462C74.2117 53.3924 74.1602 53.3652 74.1394 53.3648C74.129 53.3646 74.1237 53.3697 74.1234 53.3801C74.1128 53.3903 74.0964 53.4264 74.0743 53.4885C74.0521 53.5505 74.0245 53.6281 73.9913 53.7211C73.8584 54.0934 73.6995 54.4704 73.5144 54.852C73.3399 55.2235 73.1717 55.5429 73.0098 55.8104C72.3965 56.7353 71.7614 57.2117 71.1044 57.2396L70.8701 57.2347ZM71.2998 56.1184C71.6264 55.9481 71.9624 55.5749 72.3079 54.9987C72.6534 54.4224 72.949 53.741 73.1946 52.9543L73.279 52.6591L73.2185 52.5641C72.9241 52.1932 72.735 51.7673 72.6513 51.2863C72.6427 51.2028 72.6344 51.0984 72.6266 50.9732C72.6293 50.8482 72.6317 50.7337 72.6338 50.6295C72.6362 50.515 72.6432 50.4318 72.6547 50.3799L72.6713 50.3334L72.5141 50.377C72.472 50.3969 72.4352 50.4118 72.4038 50.4215C72.3827 50.4315 72.3562 50.4518 72.3244 50.4824C72.3031 50.5028 72.2659 50.5385 72.2127 50.5895C71.8603 50.9988 71.5421 51.5183 71.258 52.1479C70.9741 52.7671 70.7684 53.3879 70.6407 54.0104C70.6286 54.0935 70.6162 54.187 70.6036 54.2909C70.6014 54.3951 70.598 54.5565 70.5934 54.7752C70.59 54.9418 70.5873 55.0668 70.5856 55.1501C70.5838 55.2334 70.5876 55.3012 70.597 55.3535C70.6065 55.3954 70.6158 55.4477 70.6249 55.5104C70.7219 55.8563 70.8425 56.0672 70.9868 56.1431C71.0176 56.1646 71.0538 56.1758 71.0955 56.1767C71.1579 56.178 71.2261 56.1586 71.2998 56.1184ZM78.1005 58.2457C78.0075 58.2125 77.9306 58.1536 77.8698 58.0689C77.8093 57.9739 77.775 57.869 77.767 57.7542L77.769 57.6605C77.7725 57.4939 77.82 57.2135 77.9116 56.8195C78.0258 56.3427 78.1832 55.7938 78.3837 55.1728C78.6847 54.231 79.0498 53.2176 79.4789 52.1326C79.9079 51.0476 80.2965 50.1545 80.6446 49.4533C80.7533 49.2368 80.8554 49.0878 80.9509 49.0065C81.0464 48.9251 81.1618 48.8859 81.2972 48.8887C81.4638 48.8922 81.5979 48.9575 81.6994 49.0847C81.7806 49.1906 81.8198 49.306 81.8172 49.431L81.8162 49.4778C81.8043 49.5505 81.6721 49.8916 81.4197 50.501C81.2227 50.9553 81.0363 51.3942 80.8608 51.8177C80.6854 52.2308 80.5481 52.5665 80.449 52.8249C80.3498 53.0833 80.2998 53.2281 80.2992 53.2594L80.2989 53.275L80.3311 53.2288C80.3526 53.198 80.3794 53.1621 80.4115 53.1211C80.7012 52.7208 81.0062 52.3365 81.3265 51.9681C81.6574 51.5896 81.9555 51.2832 82.2209 51.0492C82.9535 50.3977 83.5594 50.0718 84.0387 50.0714L84.1168 50.073C84.4396 50.0798 84.7131 50.2053 84.9372 50.4497C85.1005 50.6094 85.2363 50.8414 85.3446 51.1458C85.4634 51.4401 85.5887 51.9272 85.7203 52.6072C85.9471 53.7163 86.192 54.4612 86.4549 54.8418C86.5857 55.0633 86.7389 55.2124 86.9144 55.289C86.9554 55.3211 86.9914 55.3427 87.0224 55.3538C87.0537 55.3544 87.09 55.3604 87.1315 55.3717C87.1731 55.3726 87.2356 55.3739 87.3189 55.3756C87.4543 55.3785 87.5481 55.3752 87.6004 55.3659C87.6527 55.3566 87.7261 55.3373 87.8204 55.308C88.1455 55.2106 88.5191 55.0309 88.9414 54.7688C89.3638 54.4964 89.9246 54.0862 90.6237 53.5382C90.9837 53.2644 91.275 53.0361 91.4977 52.8532C91.7203 52.6703 91.9643 52.4618 92.2297 52.2278C92.2401 52.228 92.2454 52.2229 92.2456 52.2125C92.394 52.0906 92.5055 51.9939 92.5799 51.9225C92.6647 51.8514 92.7283 51.8006 92.7706 51.7702C92.8129 51.7399 92.8446 51.7197 92.8657 51.7097C92.8867 51.6997 92.9129 51.6951 92.9441 51.6957L92.991 51.6967C93.0743 51.6985 93.1359 51.7414 93.1758 51.8256C93.1856 51.8571 93.1901 51.8884 93.1895 51.9197L93.1881 51.9822C93.1766 52.034 93.1331 52.1217 93.0576 52.2451C92.4749 53.2019 91.559 54.1516 90.3098 55.0944C89.2408 55.8951 88.3664 56.3509 87.6869 56.4617C87.5719 56.4801 87.4467 56.4879 87.3113 56.4851L87.1863 56.4825C87.0093 56.4787 86.8535 56.4546 86.719 56.4102C86.0766 56.2404 85.576 55.7663 85.2172 54.9878C85.0773 54.7035 84.9588 54.3937 84.8616 54.0582C84.7646 53.7124 84.6598 53.2465 84.547 52.6607C84.4521 52.2211 84.3754 51.9017 84.3171 51.7026C84.2693 51.4932 84.215 51.3514 84.1541 51.2772C84.1239 51.2245 84.0828 51.1976 84.0307 51.1965C83.9789 51.185 83.9003 51.2041 83.7951 51.254C83.2791 51.5141 82.6687 52.0535 81.9639 52.8723C81.2695 53.6913 80.5981 54.6566 79.9497 55.7682C79.831 55.9637 79.6955 56.2161 79.5431 56.5255C79.391 56.8245 79.2605 57.0874 79.1515 57.3144C79.0424 57.5517 78.9552 57.7322 78.8901 57.8559C78.8146 57.9793 78.7502 58.0718 78.6968 58.1332C78.6436 58.1841 78.5856 58.2194 78.5226 58.2389C78.4491 58.2686 78.3759 58.2827 78.303 58.2812C78.2301 58.2797 78.1626 58.2678 78.1005 58.2457ZM94.0397 44.9047C94.0089 44.8832 93.9885 44.8619 93.9785 44.8409C93.9789 44.8201 93.9797 44.7836 93.9808 44.7315C93.9852 44.5233 94.1714 44.0896 94.5394 43.4305C94.6692 43.204 94.8306 42.9573 95.0238 42.6904C95.2171 42.4132 95.528 41.9977 95.9563 41.4441C96.8664 40.2754 97.4544 39.5636 97.7202 39.3087C97.7944 39.2477 97.863 39.2075 97.9259 39.1879C97.989 39.158 98.0624 39.1387 98.1459 39.13C98.2084 39.1313 98.2551 39.1375 98.2862 39.1486C98.3174 39.1493 98.3587 39.1658 98.4102 39.1981C98.5952 39.3166 98.6858 39.4695 98.6819 39.657C98.681 39.6987 98.6748 39.7454 98.6633 39.7973C98.6516 39.8595 98.6135 39.9369 98.549 40.0293C98.4952 40.1115 98.3881 40.2499 98.2278 40.4445C98.0778 40.6394 97.8479 40.9211 97.538 41.2897C97.1956 41.7201 96.9335 42.048 96.7516 42.2734C96.5698 42.4988 96.3826 42.7293 96.1902 42.9649C95.9653 43.2519 95.7729 43.4875 95.6127 43.6717C95.463 43.8561 95.2871 44.0452 95.0851 44.2389C94.8829 44.4431 94.7233 44.6012 94.6063 44.7134C94.5 44.8154 94.4151 44.8865 94.3518 44.9269C94.2991 44.957 94.2467 44.9715 94.1946 44.9704C94.1529 44.9696 94.1218 44.9637 94.1012 44.9529C94.0806 44.942 94.0601 44.926 94.0397 44.9047ZM98.7685 61.6324C98.7065 61.6103 98.6398 61.562 98.5684 61.4875C98.4968 61.4235 98.4409 61.3546 98.4008 61.2809C98.3312 61.1231 98.2779 60.9293 98.2411 60.6993C98.2222 60.6051 98.2145 60.4747 98.218 60.3081C98.2217 60.131 98.2249 59.98 98.2275 59.8551L98.2354 59.4801C98.2408 59.2198 98.2507 58.996 98.2651 58.8087C98.4143 57.1552 98.7744 55.1363 99.3453 52.7519C99.8484 50.6161 100.406 48.6222 101.018 46.77C101.074 46.5836 101.118 46.4387 101.152 46.3352C101.174 46.2732 101.185 46.2369 101.185 46.2265C101.175 46.2263 101.165 46.2261 101.154 46.2258C101.154 46.2258 101.144 46.2256 101.123 46.2252C101.113 46.225 101.097 46.2246 101.076 46.2242C101.066 46.224 101.05 46.2289 101.029 46.2389C101.008 46.2384 100.982 46.2379 100.951 46.2372C100.92 46.2366 100.883 46.241 100.841 46.2505C100.81 46.2499 100.768 46.249 100.716 46.2479C100.674 46.2471 100.622 46.2512 100.56 46.2603C100.508 46.2592 100.445 46.2631 100.372 46.272C100.309 46.2707 100.242 46.2745 100.168 46.2833C100.002 46.2903 99.7982 46.3016 99.5582 46.3174C98.0976 46.4119 97.1271 46.4853 96.6467 46.5378C96.375 46.5738 96.1976 46.5909 96.1142 46.5891C96.0309 46.5874 95.9736 46.5862 95.9424 46.5855C95.8591 46.5838 95.7916 46.572 95.74 46.55C95.5235 46.4413 95.4176 46.2724 95.4224 46.0433L95.423 46.012C95.4296 45.6996 95.6366 45.5164 96.0441 45.4624C96.2845 45.4258 96.6812 45.3872 97.2343 45.3467C97.7875 45.2958 98.4136 45.2516 99.1124 45.2141C99.3941 45.1992 99.7174 45.1851 100.082 45.1719C100.447 45.1483 100.771 45.129 101.052 45.1141C101.334 45.0992 101.496 45.0921 101.537 45.093C101.548 45.0932 101.558 45.0934 101.569 45.0937C101.579 45.0835 101.59 45.0628 101.601 45.0318C101.612 45.0008 101.629 44.9543 101.651 44.8922C101.684 44.8304 101.717 44.7425 101.75 44.6286C102.479 42.6747 103.133 41.2766 103.714 40.4344C104.016 39.9406 104.339 39.6974 104.682 39.7046C104.849 39.708 104.993 39.7788 105.115 39.9168C105.238 40.0444 105.297 40.2175 105.292 40.4362C105.287 40.6549 105.223 40.9714 105.1 41.3855C104.822 42.2445 104.404 43.2933 103.847 44.5319L103.618 45.0115L103.899 45.0174C104.994 44.9779 105.807 44.9584 106.338 44.9591C106.869 44.9598 107.463 44.9671 108.119 44.9808C108.89 45.0074 109.519 45.0414 110.008 45.0829C110.508 45.1142 110.981 45.1606 111.427 45.222C111.594 45.2463 111.718 45.2698 111.801 45.2924C111.895 45.3047 111.957 45.3217 111.988 45.3432C112.029 45.3544 112.065 45.3708 112.096 45.3923C112.126 45.445 112.141 45.4974 112.14 45.5495L112.139 45.5964C112.116 45.6793 112.068 45.7356 111.994 45.7653C111.869 45.7939 111.373 45.8252 110.508 45.8592C110.32 45.8656 110.054 45.8757 109.71 45.8893C109.376 45.9032 109.048 45.9171 108.725 45.9312C108.203 45.9515 107.734 45.9678 107.317 45.9799C106.91 45.9922 106.3 46.0107 105.487 46.0353C103.986 46.0872 103.188 46.1174 103.094 46.1258C103.084 46.136 103.057 46.1771 103.013 46.2492C102.97 46.3212 102.921 46.4139 102.867 46.5274C102.628 46.9913 102.401 47.3928 102.185 47.7322L102.185 47.7478C102.131 47.8196 102.088 47.8864 102.056 47.9482C102.034 47.9999 102.007 48.0618 101.974 48.1341C101.951 48.2065 101.923 48.3101 101.889 48.4449C101.095 51.0538 100.411 53.8474 99.8382 56.8256C99.5466 58.3094 99.3917 59.4887 99.3734 60.3635L99.3668 60.676L99.4443 60.7088C99.5371 60.7525 99.5822 60.8368 99.5796 60.9617C99.5785 61.0138 99.5668 61.0761 99.5445 61.1485C99.4557 61.4072 99.3168 61.5709 99.1278 61.6399C99.0649 61.6594 99.0022 61.6685 98.9397 61.6672C98.8876 61.6661 98.8306 61.6545 98.7685 61.6324ZM48.539 94.4471C48.2917 94.3168 48.1419 94.0063 48.0897 93.5156C48.0819 93.3904 48.08 93.234 48.0839 93.0466C48.1002 92.2655 48.2729 90.9876 48.6018 89.2128C48.7184 88.6214 48.8965 87.8281 49.1361 86.8329C49.3864 85.8275 49.6414 84.843 49.9013 83.8795C49.946 83.7346 49.9797 83.6155 50.0025 83.5222L50.0367 83.3822C50.0055 83.3816 49.8853 83.3999 49.6761 83.4372C49.4669 83.4745 49.2368 83.5166 48.9858 83.5634C48.735 83.5998 48.5258 83.6371 48.3583 83.6753C47.9398 83.7603 47.6206 83.8265 47.4008 83.874C47.1813 83.9111 47.035 83.9289 46.9621 83.9273C46.8788 83.9256 46.8163 83.9243 46.7747 83.9234L46.6809 83.9215C46.5356 83.8976 46.4171 83.8326 46.3256 83.7265C46.234 83.6204 46.1895 83.5048 46.1922 83.3798C46.1939 83.2965 46.2165 83.2137 46.2599 83.1312C46.2927 83.059 46.346 82.9976 46.42 82.947C46.4838 82.8858 46.579 82.8201 46.7055 82.7498C46.8743 82.6492 47.0587 82.5489 47.2588 82.4489C47.4695 82.3387 47.6221 82.2637 47.7167 82.224C47.8425 82.185 47.9523 82.1664 48.0461 82.1684C48.2335 82.1723 48.3725 82.2534 48.4629 82.4116L48.5078 82.5063L49.0569 82.4084C49.2138 82.3804 49.3758 82.3525 49.5431 82.3248C49.721 82.2868 49.8675 82.2587 49.9825 82.2402L50.0606 82.2419C50.1548 82.223 50.2332 82.209 50.2959 82.1999L50.3743 82.1859C50.3847 82.1861 50.4012 82.1448 50.4238 82.0619C50.457 81.9689 50.4907 81.855 50.5247 81.7202C51.0745 79.8459 51.7551 77.6982 52.5664 75.2772C52.5998 75.1737 52.6391 75.0391 52.6842 74.8733C52.7398 74.7078 52.7955 74.537 52.8512 74.3611L52.917 74.2062L53.2344 73.2282C53.3234 72.9592 53.4069 72.7057 53.4848 72.4677C53.5848 72.1676 53.6738 71.8986 53.7517 71.6606C53.8401 71.4228 53.8901 71.2728 53.9018 71.2105C53.9238 71.1589 53.9404 71.1123 53.9516 71.0709C53.9629 71.0295 53.9739 71.0036 53.9845 70.9934L53.9699 70.9463C53.9599 70.9252 53.9395 70.9039 53.9087 70.8825C53.828 70.7557 53.7891 70.6247 53.7919 70.4893C53.7928 70.4476 53.7933 70.4216 53.7935 70.4112C53.794 70.3904 53.789 70.3798 53.7786 70.3796C53.7682 70.3794 53.7525 70.3791 53.7317 70.3786C53.7211 70.3888 53.674 70.3983 53.5905 70.4069C53.5173 70.4158 53.4181 70.4294 53.2927 70.4476C53.2193 70.4669 53.1409 70.4809 53.0574 70.4895C52.9634 70.498 52.8484 70.5164 52.7124 70.5448C52.2839 70.6088 51.8136 70.6771 51.3015 70.7497C50.3608 70.8967 49.6709 71.0021 49.232 71.0658C48.8034 71.1298 48.4431 71.1743 48.1508 71.1994C47.9421 71.2159 47.7544 71.2224 47.5878 71.2189C47.4107 71.2152 47.2808 71.2021 47.1979 71.1795C46.8668 71.0684 46.7042 70.8722 46.7101 70.591C46.7136 70.4244 46.7685 70.2901 46.8748 70.1881C46.9599 70.1066 47.0915 70.0416 47.2696 69.9932C47.448 69.9344 47.6257 69.9069 47.8027 69.9106C47.8652 69.9119 47.9121 69.9129 47.9433 69.9136C47.985 69.9144 48.0161 69.9203 48.0367 69.9311C48.0677 69.9422 48.1039 69.9586 48.1451 69.9803L48.2687 70.0454L48.5506 70.0201C48.8745 69.9747 49.4546 69.8879 50.2908 69.7596C50.5627 69.7132 50.871 69.6675 51.2157 69.6227C51.613 69.558 52.0103 69.4934 52.4076 69.4288C52.8153 69.3644 53.1393 69.3139 53.3797 69.2773L54.1634 69.1687L54.3421 68.8442C54.4615 68.6175 54.569 68.4583 54.6647 68.3665C54.771 68.2645 54.8922 68.1993 55.0282 68.1709C55.0597 68.1612 55.0911 68.1566 55.1223 68.1573C55.2056 68.159 55.2885 68.1816 55.3709 68.225C55.4844 68.2795 55.5766 68.3543 55.6475 68.4496C55.6879 68.5129 55.7228 68.5866 55.7523 68.6706C55.7818 68.7545 55.796 68.8226 55.7949 68.8746C55.7947 68.8851 55.7945 68.8955 55.7943 68.9059C55.8045 68.9165 55.8147 68.9272 55.8249 68.9378C55.8353 68.938 55.8979 68.9341 56.0126 68.9261C56.1274 68.9181 56.2684 68.9002 56.4357 68.8724C59.8515 68.4543 62.757 68.2703 65.1523 68.3205L65.5741 68.3293C67.76 68.4272 69.4119 68.6546 70.5297 69.0114C70.7881 69.1106 71.0253 69.2249 71.2414 69.3545C71.4577 69.4736 71.6168 69.5864 71.7188 69.6927C71.7693 69.7667 71.8144 69.851 71.8541 69.9456C71.8941 70.0298 71.9134 70.1031 71.912 70.1656C71.911 70.2177 71.905 70.254 71.8941 70.2746C71.8937 70.2954 71.8828 70.316 71.8616 70.3364C71.8297 70.367 71.8032 70.3873 71.7822 70.3973C71.7611 70.4073 71.7298 70.4118 71.6881 70.4109C71.6465 70.4101 71.6049 70.404 71.5635 70.3927C71.5327 70.3712 71.4917 70.3391 71.4405 70.2964C71.3172 70.2104 71.1365 70.1337 70.8983 70.0662C70.6601 69.9987 70.2867 69.9179 69.7781 69.8239C69.3214 69.7414 68.906 69.6754 68.532 69.6259C68.1684 69.5766 67.763 69.5317 67.3158 69.4911C66.9621 69.4628 66.5562 69.4439 66.098 69.4343C65.6504 69.4145 65.3276 69.4025 65.1297 69.3984C64.734 69.3901 64.3902 69.3881 64.0984 69.3924C61.9929 69.4316 59.4411 69.6439 56.4428 70.0291C56.2757 70.0464 56.1295 70.0642 56.004 70.0824C55.7743 70.1089 55.6542 70.122 55.6438 70.1218L55.6275 70.1527C55.6164 70.1837 55.6051 70.2251 55.5936 70.277C55.5711 70.3599 55.5261 70.5152 55.4588 70.743C55.3918 70.9604 55.3192 71.1933 55.241 71.4417C55.1629 71.6901 55.0962 71.8919 55.0408 72.047C55.007 72.1714 54.9567 72.3318 54.8901 72.5284C54.8237 72.7145 54.7626 72.8956 54.7068 73.0715C53.9515 75.3062 53.3898 77.0031 53.0217 78.1624C52.6536 79.3216 52.2627 80.5741 51.849 81.9199L51.8483 81.9511C51.8375 81.9717 51.8319 81.9872 51.8317 81.9977L51.8311 82.0289L51.8936 82.0302C51.9352 82.0311 51.9874 82.027 52.0501 82.0179C52.0813 82.0185 52.1179 82.0141 52.1598 82.0045C52.9422 81.9584 53.7708 81.9445 54.6456 81.9628C55.5206 81.9707 56.2491 82.012 56.831 82.0867C57.5061 82.1842 58.0708 82.3367 58.5249 82.5442C58.8752 82.7287 59.0486 82.9094 59.0449 83.0865C59.0438 83.1385 59.0218 83.1954 58.9788 83.257C58.9365 83.2873 58.8945 83.3021 58.8528 83.3012C58.8216 83.3006 58.7904 83.2999 58.7591 83.2993C58.707 83.2982 58.6395 83.2915 58.5564 83.2794C58.4526 83.2564 58.3436 83.2385 58.2293 83.2257C58.1256 83.2026 57.9905 83.1842 57.8241 83.1703C57.6681 83.1566 57.4444 83.1415 57.153 83.125C56.3205 83.0763 55.6178 83.0511 55.0448 83.0495C54.472 83.0375 53.8989 83.0412 53.3254 83.0604C53.0646 83.0758 52.7933 83.0962 52.5115 83.1215C52.2402 83.1367 52.0055 83.1526 51.8072 83.1693C51.6089 83.186 51.5044 83.1994 51.4938 83.2096C51.4723 83.2404 51.3997 83.4733 51.276 83.9083C51.1627 84.3435 51.0271 84.846 50.8693 85.4157C50.7219 85.9857 50.5969 86.4832 50.4942 86.9082C50.3344 87.5717 50.163 88.2974 49.9798 89.0854C49.7968 89.863 49.6647 90.4489 49.5835 90.8431C49.4556 91.476 49.3544 92.0782 49.28 92.6497C49.2663 92.8057 49.2475 92.9564 49.2236 93.1017C49.1997 93.2471 49.1871 93.351 49.1858 93.4135L49.1506 93.6003L49.2118 93.6641C49.2732 93.7175 49.303 93.7858 49.3013 93.8691C49.3004 93.9108 49.2943 93.9523 49.2831 93.9938C49.2268 94.1906 49.1407 94.3242 49.0246 94.3947C48.9189 94.4654 48.8244 94.4999 48.7411 94.4982C48.6682 94.4966 48.6009 94.4796 48.539 94.4471ZM61.1082 89.0372C60.486 88.8992 60.092 88.5575 59.9263 88.0122C59.7608 87.4566 59.6826 86.96 59.6918 86.5226C59.7014 86.0644 59.7744 85.5658 59.9107 85.0269C60.1696 84.105 60.5839 83.2281 61.1535 82.3961C61.5509 81.8314 61.9075 81.469 62.2234 81.3089C62.2762 81.2787 62.3182 81.2588 62.3497 81.249C62.3812 81.2392 62.4125 81.2347 62.4438 81.2353C62.475 81.236 62.5219 81.237 62.5844 81.2383C62.6989 81.2407 62.782 81.2529 62.8337 81.2748C62.8957 81.2969 62.9572 81.3451 63.0182 81.4193L63.079 81.4987L63.1757 81.3601C63.2944 81.1646 63.4431 81.0271 63.6219 80.9475C63.6851 80.9175 63.7324 80.8977 63.7638 80.8879C63.8057 80.8784 63.8631 80.8744 63.936 80.8759C64.0089 80.8774 64.0661 80.8838 64.1075 80.8951C64.1489 80.9064 64.1954 80.9282 64.2468 80.9605C64.5043 81.1014 64.6813 81.3552 64.7778 81.7218C64.8253 81.9416 64.846 82.1973 64.8399 82.4889C64.8325 82.843 64.7873 83.2588 64.7044 83.7364L64.6513 84.0322L64.7128 84.0804C64.7744 84.1233 64.8722 84.1827 65.006 84.2584C65.1401 84.3237 65.2589 84.3731 65.3624 84.4065C65.4967 84.4615 65.6261 84.5006 65.7506 84.5241C65.8752 84.5475 66.0206 84.5662 66.187 84.5801L66.3589 84.5837C66.8275 84.5935 67.3401 84.4949 67.8967 84.2877C68.0958 84.2294 68.3689 84.1257 68.7159 83.9767C69.063 83.8172 69.3577 83.6776 69.5998 83.5576C69.7682 83.4778 69.8997 83.418 69.9943 83.3783C70.0891 83.3282 70.1628 83.2933 70.2153 83.2736C70.268 83.2434 70.3048 83.2285 70.3256 83.229C70.3571 83.2192 70.3832 83.2146 70.4041 83.215C70.529 83.2176 70.6057 83.2869 70.6341 83.423C70.6333 83.4646 70.6273 83.501 70.6162 83.532C70.6156 83.5632 70.5991 83.6046 70.5667 83.656C70.34 84.0367 69.9574 84.3934 69.4191 84.7259C69.1765 84.8667 68.8766 85.0063 68.5195 85.1447C68.1727 85.2833 67.8422 85.3962 67.5278 85.4834C67.0461 85.5983 66.5918 85.6513 66.1648 85.6424C65.5712 85.6299 65.0269 85.4987 64.532 85.2487C64.4498 85.1949 64.3983 85.1678 64.3775 85.1673C64.3671 85.1671 64.3617 85.1722 64.3615 85.1826C64.3509 85.1928 64.3345 85.2289 64.3124 85.291C64.2902 85.353 64.2626 85.4306 64.2293 85.5237C64.0965 85.896 63.9376 86.2729 63.7524 86.6546C63.578 87.026 63.4098 87.3455 63.2479 87.613C62.6346 88.5378 61.9995 89.0142 61.3425 89.0421L61.1082 89.0372ZM61.5379 87.921C61.8645 87.7507 62.2005 87.3774 62.546 86.8012C62.8915 86.225 63.187 85.5435 63.4327 84.7568L63.5171 84.4617L63.4565 84.3666C63.1622 83.9958 62.9731 83.5699 62.8894 83.0888C62.8808 83.0053 62.8725 82.9009 62.8647 82.7758C62.8673 82.6508 62.8697 82.5362 62.8719 82.4321C62.8743 82.3175 62.8813 82.2343 62.8928 82.1825L62.9094 82.1359L62.7522 82.1795C62.7101 82.1995 62.6733 82.2143 62.6419 82.2241C62.6208 82.2341 62.5943 82.2544 62.5624 82.2849C62.5412 82.3053 62.504 82.341 62.4508 82.392C62.0984 82.8014 61.7802 83.3209 61.4961 83.9505C61.2122 84.5697 61.0065 85.1905 60.8788 85.813C60.8666 85.8961 60.8543 85.9896 60.8417 86.0935C60.8395 86.1976 60.8361 86.3591 60.8315 86.5778C60.828 86.7444 60.8254 86.8694 60.8237 86.9527C60.8219 87.036 60.8257 87.1038 60.835 87.1561C60.8446 87.198 60.8539 87.2503 60.863 87.313C60.96 87.6588 61.0806 87.8697 61.2248 87.9457C61.2556 87.9672 61.2919 87.9783 61.3335 87.9792C61.396 87.9805 61.4642 87.9611 61.5379 87.921ZM69.0244 89.3906C68.766 89.2914 68.6398 89.1012 68.6457 88.82C68.6505 88.5909 68.7696 88.1246 69.0032 87.421C69.0366 87.3175 69.0929 87.1155 69.1721 86.815C69.2516 86.5041 69.3425 86.1413 69.445 85.7267C69.821 84.1926 70.1222 82.9903 70.3489 82.1198C70.5861 81.2392 70.7939 80.5194 70.9723 79.9606C71.039 79.764 71.0887 79.6296 71.1214 79.5573C71.1544 79.4747 71.1974 79.4131 71.2503 79.3725C71.3456 79.3016 71.4453 79.2672 71.5494 79.2694L71.5963 79.2703C71.7213 79.273 71.8296 79.3221 71.9214 79.4178C71.9726 79.4606 72.0082 79.503 72.0281 79.5451C72.0481 79.5872 72.0625 79.6448 72.0714 79.7179C72.0814 79.7389 72.0858 79.7755 72.0847 79.8276C72.0821 79.9525 72.0409 80.1809 71.961 80.5126C71.8685 80.9483 71.6808 81.7049 71.3977 82.7826C71.3864 82.824 71.375 82.8707 71.3635 82.9225C71.3405 83.0262 71.3231 83.1092 71.3114 83.1715C71.2997 83.2338 71.2937 83.2701 71.2935 83.2805L71.3414 83.2346C71.3626 83.2142 71.3893 83.1835 71.4214 83.1425C71.9344 82.5281 72.412 82.111 72.8542 81.891C73.0857 81.7813 73.316 81.7288 73.5451 81.7336C73.7534 81.7379 73.9555 81.7891 74.1514 81.8869C74.2441 81.941 74.3467 82.016 74.4593 82.1122C74.5823 82.2085 74.7613 82.3686 74.9962 82.5923C75.3329 82.9327 75.6252 83.1577 75.8729 83.267C76.1311 83.3766 76.4997 83.4364 76.9788 83.4465C77.2912 83.453 77.5517 83.4533 77.7602 83.4472C77.9689 83.4308 78.204 83.3992 78.4654 83.3526C78.6119 83.3244 78.7321 83.3061 78.826 83.2976C78.9202 83.2788 78.9777 83.2696 78.9985 83.27C79.071 83.2923 79.1223 83.3299 79.1525 83.3826C79.1826 83.4353 79.1974 83.4773 79.1967 83.5086C79.1961 83.5398 79.1849 83.576 79.1632 83.6173C79.1202 83.6789 79.0352 83.7605 78.908 83.862C78.7808 83.9635 78.6434 84.0596 78.4956 84.1503C77.9901 84.4106 77.4196 84.5341 76.7844 84.5208C76.0762 84.5059 75.4959 84.3531 75.0436 84.0623C74.9099 83.9762 74.7714 83.8743 74.628 83.7567C74.495 83.6393 74.301 83.4529 74.0458 83.1975C73.7803 82.9419 73.5955 82.813 73.4913 82.8108C73.4393 82.8097 73.3658 82.8342 73.271 82.8843C73.1868 82.9242 73.1023 82.9798 73.0174 83.0509C72.3819 83.5482 71.7132 84.3833 71.0114 85.5564C70.9463 85.68 70.8651 85.8242 70.7679 85.9888C70.6811 86.1537 70.5997 86.3083 70.5238 86.4526C70.4582 86.5971 70.4199 86.6848 70.4089 86.7159C70.3978 86.7469 70.3698 86.8401 70.3249 86.9954C70.2906 87.1406 70.2452 87.3167 70.1888 87.5239C70.0414 88.0939 69.9234 88.503 69.8349 88.7512C69.7569 88.9892 69.686 89.144 69.622 89.2156C69.5473 89.2973 69.468 89.353 69.384 89.3825C69.3003 89.4016 69.2272 89.4105 69.1647 89.4091C69.1126 89.4081 69.0659 89.4019 69.0244 89.3906ZM77.0342 102.436C76.724 102.326 76.5102 102.087 76.3928 101.719C76.3731 101.667 76.3585 101.62 76.3489 101.578C76.3394 101.536 76.3354 101.479 76.3369 101.406C76.3382 101.343 76.3403 101.244 76.3431 101.109C76.3473 100.911 76.3555 100.765 76.3679 100.672C76.3696 100.589 76.3875 100.485 76.4213 100.36C76.6414 99.3023 77.1202 98.0829 77.8576 96.7022C78.9099 94.7134 80.3051 92.7682 82.0432 90.8667C82.5122 90.366 83.0603 89.8148 83.6876 89.2132L84.3412 88.6018L84.4594 88.1823C84.9749 86.4531 85.321 84.8507 85.4978 83.3749C85.5236 83.1358 85.5386 82.9173 85.5428 82.7194C85.5573 82.5218 85.5656 82.3761 85.5675 82.2823C85.5695 82.1886 85.5658 82.1156 85.5565 82.0633L85.5445 81.8912L84.6513 82.7476L84.6328 82.8879C84.6182 83.0856 84.563 83.2355 84.4671 83.3377C84.3605 83.45 84.2396 83.5048 84.1042 83.502L84.0105 83.5L83.626 83.9452C83.5191 84.0784 83.364 84.2679 83.1609 84.5137C82.9682 84.7597 82.7755 85.0057 82.5828 85.2517C81.8229 86.2152 81.2453 86.9324 80.8499 87.4034C80.4547 87.864 80.0925 88.2471 79.7631 88.5528C79.2738 89.0322 78.8657 89.3623 78.5389 89.543C78.1701 89.7436 77.8346 89.8408 77.5326 89.8345C77.2306 89.8282 76.9621 89.7131 76.7272 89.4894C76.4215 89.16 76.2746 88.7141 76.2863 88.1518C76.2994 87.5269 76.5137 86.75 76.929 85.821C77.7355 84.1291 78.8477 82.7615 80.2657 81.7181C80.9848 81.2122 81.6948 80.8884 82.3959 80.7468C82.5215 80.7182 82.6624 80.7055 82.8186 80.7088L82.9436 80.7114C83.1623 80.716 83.3338 80.7352 83.4581 80.7691C83.8307 80.8915 84.1235 81.0852 84.3368 81.3501L84.4126 81.4611L84.6675 81.232C85.0819 80.8448 85.4454 80.6544 85.7578 80.661C85.7994 80.6618 85.8462 80.668 85.8981 80.6795C86.3235 80.7614 86.5931 81.0744 86.7067 81.6186C86.7351 81.7546 86.7529 81.9008 86.76 82.0573C86.7776 82.2139 86.7836 82.4224 86.7782 82.6828C86.7566 83.7138 86.5681 85.0018 86.2128 86.5468C86.1778 86.7232 86.1486 86.8736 86.1252 86.9982C86.1019 87.1123 86.0902 87.1746 86.09 87.185L86.1854 87.1088C86.2383 87.0683 86.3071 87.0176 86.3917 86.9569C86.8257 86.6326 87.3493 86.258 87.9625 85.8333C88.5757 85.4085 89.1198 85.0448 89.595 84.7422C90.0806 84.4398 90.5496 84.184 91.002 83.9747C91.6335 83.6753 92.1158 83.5291 92.449 83.5361L92.6677 83.5407L92.7289 83.6045C92.7491 83.6362 92.7642 83.6625 92.7742 83.6836C92.7841 83.7046 92.7888 83.7308 92.7881 83.762C92.7868 83.8245 92.7648 83.8813 92.7221 83.9325C92.6795 83.9733 92.6003 84.0238 92.4845 84.0838C92.4738 84.094 92.4633 84.099 92.4529 84.0988C92.3158 84.1793 92.1891 84.2548 92.0731 84.3253C91.9676 84.3856 91.841 84.4611 91.6932 84.5518C91.5561 84.6322 91.366 84.7533 91.123 84.9149C90.6057 85.2375 90.1831 85.5151 89.8553 85.7479C89.5276 85.9703 89.2154 86.2034 88.9186 86.4472C88.8446 86.4977 88.7335 86.5788 88.5853 86.6903C88.4371 86.8018 88.2783 86.9183 88.1091 87.0397C87.76 87.2929 87.3895 87.5717 86.9976 87.876C86.6163 88.1702 86.2879 88.429 86.0124 88.6524C85.7368 88.8759 85.5828 89.0133 85.5505 89.0647C85.5503 89.0751 85.5336 89.1269 85.5004 89.22C85.4672 89.313 85.4284 89.4216 85.3841 89.5457C84.6497 91.7808 83.7006 94.0635 82.537 96.3939C82.5368 96.4043 82.5313 96.4146 82.5207 96.4248C82.4011 96.6619 82.2925 96.8732 82.1948 97.0587C82.0972 97.2442 81.9619 97.4862 81.7889 97.7847C80.5982 99.9165 79.4689 101.352 78.4012 102.09C78.2849 102.171 78.1478 102.246 77.9901 102.316C77.8428 102.385 77.7219 102.435 77.6275 102.464C77.5648 102.473 77.497 102.477 77.4241 102.476L77.3148 102.473C77.2106 102.471 77.1171 102.459 77.0342 102.436ZM77.9171 88.6391C78.3801 88.4196 79.0009 87.8804 79.7795 87.0215C80.174 86.5922 80.8798 85.7266 81.8969 84.4247L83.1006 82.9183C83.1965 82.8161 83.2764 82.7293 83.3404 82.6577C83.4047 82.5757 83.4528 82.5142 83.485 82.4731C83.5171 82.4321 83.5386 82.4013 83.5494 82.3807C83.5709 82.3499 83.5817 82.3293 83.582 82.3189C83.5824 82.2981 83.5827 82.2824 83.5829 82.272C83.555 82.1152 83.4845 81.9991 83.3714 81.9238C83.3098 81.8808 83.2479 81.8535 83.1856 81.8417C83.1338 81.8302 83.0506 81.8233 82.936 81.8209C82.5923 81.8137 82.1943 81.9147 81.7419 82.1241C80.3307 82.8447 79.1431 84.0805 78.1791 85.8315C77.6793 86.8109 77.423 87.6077 77.4101 88.2222L77.4085 88.3003C77.4037 88.5294 77.4372 88.6708 77.509 88.7244C77.5192 88.735 77.5399 88.7406 77.5711 88.7413C77.644 88.7428 77.7594 88.7088 77.9171 88.6391ZM77.6228 101.198C78.4048 100.673 79.309 99.5353 80.3355 97.7856C81.439 95.8395 82.4697 93.6366 83.4277 91.177L83.526 90.9602L83.4466 91.0211C83.3613 91.1131 83.244 91.2409 83.0947 91.4044C82.9456 91.5576 82.791 91.7263 82.6309 91.9105C80.6248 94.171 79.14 96.4113 78.1767 98.6312C77.8368 99.4367 77.6139 100.13 77.508 100.711C77.4958 100.794 77.4888 100.878 77.4871 100.961C77.4747 101.054 77.4679 101.132 77.4666 101.195C77.4653 101.257 77.4698 101.289 77.4802 101.289L77.6228 101.198ZM92.7891 89.6852C92.1553 89.599 91.6719 89.3024 91.3387 88.7953C90.9953 88.2775 90.8321 87.6125 90.8491 86.8002C90.8711 85.7483 91.1699 84.6658 91.7454 83.5526C91.8542 83.3361 91.957 83.1507 92.054 82.9965C92.1617 82.832 92.2849 82.6679 92.4238 82.5041C93.1199 81.6018 93.8235 81.0904 94.5345 80.9698C94.618 80.9612 94.6806 80.9573 94.7223 80.9582C94.7744 80.9592 94.8367 80.9658 94.9094 80.9777C95.5111 81.1049 95.8051 81.4914 95.7916 82.1371C95.7894 82.2412 95.782 82.3452 95.7694 82.4492C95.6772 82.8744 95.4691 83.3545 95.1454 83.8895C94.8322 84.4143 94.4787 84.8758 94.0849 85.2739C93.5747 85.7529 93.1114 85.988 92.6948 85.9793C92.5282 85.9758 92.3727 85.9361 92.2285 85.8601L92.1972 85.8595C92.1766 85.8486 92.1611 85.8431 92.1507 85.8429C92.1403 85.8427 92.1295 85.8581 92.1185 85.8891C92.118 85.9099 92.1118 85.9567 92.0999 86.0293C92.0994 86.0502 92.0937 86.0761 92.0826 86.1071C92.0705 86.1902 92.058 86.2889 92.0452 86.4033C92.043 86.5074 92.0396 86.6689 92.035 86.8876C92.0313 87.0646 92.0286 87.1948 92.0268 87.2781C92.0251 87.3614 92.0289 87.4292 92.0382 87.4815C92.0478 87.5234 92.0571 87.5757 92.0662 87.6384C92.1885 88.2661 92.536 88.5859 93.1088 88.5979C93.4941 88.606 93.9079 88.5 94.3501 88.2801C94.8761 88.0411 95.4785 87.6317 96.1575 87.052C96.2849 86.9401 96.5451 86.7007 96.9383 86.3339C97.3315 85.967 97.7407 85.5797 98.1661 85.1718C98.602 84.7538 98.953 84.4121 99.219 84.1468C99.3147 84.055 99.3839 83.9835 99.4267 83.9323C99.4798 83.8813 99.5222 83.8458 99.5539 83.8256C99.5856 83.8054 99.6119 83.7956 99.6327 83.796L99.6796 83.797C99.742 83.7983 99.7937 83.8202 99.8345 83.8627C99.8854 83.9159 99.9102 83.9789 99.9086 84.0518L99.908 84.0831C99.8965 84.1349 99.8582 84.2227 99.7931 84.3463C99.7386 84.4598 99.6683 84.5834 99.5821 84.717C99.5064 84.8509 99.4361 84.9744 99.3712 85.0877C99.1134 85.4574 98.8245 85.8212 98.5044 86.1791C98.4189 86.2815 98.2697 86.4399 98.0569 86.6542C97.8442 86.8582 97.6209 87.0723 97.387 87.2966C97.1637 87.5107 96.9779 87.6787 96.8295 87.8007C95.4603 89.0014 94.2749 89.633 93.2734 89.6954C93.1898 89.704 93.1324 89.708 93.1012 89.7074C93.07 89.7067 93.0387 89.7061 93.0075 89.7054L92.945 89.7041C92.9033 89.7032 92.8514 89.6969 92.7891 89.6852ZM92.8258 84.9506C92.9416 84.8905 93.0844 84.7893 93.2541 84.647C93.4342 84.5049 93.5991 84.3416 93.7488 84.1572C94.0053 83.85 94.231 83.5213 94.4259 83.1712C94.621 82.8106 94.7421 82.5006 94.7892 82.2411C94.8007 82.1892 94.8068 82.1477 94.8074 82.1164C94.8085 82.0644 94.7988 82.0329 94.7781 82.0221C94.7679 82.0114 94.7524 82.0059 94.7316 82.0055C94.69 82.0046 94.6323 82.019 94.5588 82.0487C94.1487 82.2277 93.7077 82.6404 93.2357 83.2869C93.0423 83.5642 92.9343 83.7494 92.9115 83.8427C92.9108 83.874 92.8995 83.9154 92.8776 83.9671C92.8557 84.0187 92.8286 84.0702 92.7962 84.1216C92.7203 84.2659 92.6707 84.3951 92.6475 84.5092C92.6349 84.6132 92.6281 84.6859 92.6273 84.7276C92.6257 84.8005 92.6348 84.8632 92.6546 84.9157C92.6643 84.9472 92.6796 84.9631 92.7005 84.9636C92.7213 84.964 92.7369 84.9643 92.7473 84.9645C92.7682 84.965 92.7943 84.9603 92.8258 84.9506ZM97.7547 93.6182C97.6926 93.5961 97.6259 93.5478 97.5546 93.4733C97.483 93.4093 97.4271 93.3404 97.387 93.2667C97.3174 93.1089 97.2641 92.9151 97.2272 92.6851C97.2084 92.5909 97.2007 92.4605 97.2042 92.2939C97.2079 92.1168 97.2111 91.9658 97.2137 91.8408L97.2215 91.4659C97.227 91.2056 97.2369 90.9818 97.2512 90.7945C97.4005 89.141 97.7605 87.1221 98.3314 84.7377C98.8346 82.6019 99.3921 80.608 100.004 78.7558C100.06 78.5694 100.105 78.4245 100.138 78.321C100.16 78.2589 100.171 78.2227 100.172 78.2123C100.161 78.2121 100.151 78.2119 100.14 78.2116C100.14 78.2116 100.13 78.2114 100.109 78.211C100.099 78.2108 100.083 78.2104 100.062 78.21C100.052 78.2098 100.036 78.2147 100.015 78.2246C99.9942 78.2242 99.9682 78.2237 99.937 78.223C99.9057 78.2224 99.8692 78.2268 99.8273 78.2363C99.796 78.2357 99.7544 78.2348 99.7023 78.2337C99.6607 78.2329 99.6085 78.237 99.5458 78.2461C99.4937 78.245 99.4311 78.2489 99.358 78.2578C99.2955 78.2565 99.2277 78.2602 99.1546 78.2691C98.9877 78.2761 98.7843 78.2874 98.5444 78.3032C97.0837 78.3977 96.1132 78.4711 95.6329 78.5236C95.3612 78.5595 95.1837 78.5767 95.1004 78.5749C95.0171 78.5732 94.9598 78.572 94.9286 78.5713C94.8453 78.5696 94.7778 78.5577 94.7261 78.5358C94.5096 78.4271 94.4038 78.2582 94.4086 78.0291L94.4092 77.9978C94.4158 77.6854 94.6228 77.5022 95.0302 77.4482C95.2706 77.4116 95.6674 77.373 96.2204 77.3325C96.7737 77.2816 97.3998 77.2374 98.0986 77.1999C98.3802 77.185 98.7035 77.1709 99.0685 77.1577C99.4336 77.1341 99.757 77.1148 100.039 77.0999C100.32 77.085 100.482 77.0779 100.524 77.0788C100.534 77.079 100.544 77.0792 100.555 77.0794C100.565 77.0693 100.576 77.0486 100.587 77.0176C100.598 76.9866 100.615 76.9401 100.637 76.878C100.67 76.8162 100.703 76.7283 100.736 76.6144C101.465 74.6605 102.119 73.2624 102.7 72.4202C103.002 71.9264 103.325 71.6831 103.668 71.6903C103.835 71.6938 103.979 71.7646 104.101 71.9026C104.224 72.0302 104.283 72.2033 104.278 72.422C104.274 72.6407 104.21 72.9572 104.086 73.3713C103.808 74.2303 103.39 75.2791 102.833 76.5177L102.604 76.9973L102.885 77.0032C103.98 76.9637 104.793 76.9442 105.324 76.9449C105.856 76.9456 106.449 76.9529 107.105 76.9666C107.876 76.9932 108.506 77.0272 108.994 77.0687C109.494 77.1 109.967 77.1464 110.414 77.2078C110.58 77.2321 110.704 77.2556 110.787 77.2782C110.881 77.2905 110.943 77.3075 110.974 77.329C111.015 77.3402 111.051 77.3566 111.082 77.3781C111.112 77.4308 111.127 77.4832 111.126 77.5353L111.125 77.5822C111.102 77.665 111.054 77.7213 110.981 77.7511C110.855 77.7797 110.359 77.811 109.494 77.8449C109.306 77.8514 109.04 77.8615 108.696 77.8751C108.362 77.889 108.034 77.9029 107.711 77.917C107.189 77.9373 106.72 77.9535 106.303 77.9657C105.897 77.978 105.287 77.9965 104.473 78.0211C102.972 78.073 102.174 78.1032 102.08 78.1116C102.07 78.1218 102.043 78.1629 102 78.235C101.956 78.307 101.908 78.3997 101.853 78.5132C101.614 78.9771 101.387 79.3786 101.172 79.7179L101.171 79.7336C101.118 79.8054 101.075 79.8722 101.042 79.934C101.02 79.9857 100.993 80.0476 100.96 80.1199C100.938 80.1923 100.909 80.2959 100.875 80.4306C100.081 83.0396 99.3973 85.8332 98.8243 88.8114C98.5328 90.2952 98.3779 91.4745 98.3595 92.3493L98.353 92.6618L98.4304 92.6946C98.5233 92.7383 98.5684 92.8226 98.5658 92.9475C98.5647 92.9996 98.553 93.0619 98.5306 93.1343C98.4419 93.3929 98.303 93.5567 98.114 93.6257C98.0511 93.6452 97.9884 93.6543 97.9259 93.653C97.8738 93.6519 97.8167 93.6403 97.7547 93.6182Z" fill="white"/>
<defs>
<filter id="filter0_dd_730_26230" x="0" y="0" width="152" height="152.001" filterUnits="userSpaceOnUse" color-interpolation-filters="sRGB">
<feFlood flood-opacity="0" result="BackgroundImageFix"/>
<feColorMatrix in="SourceAlpha" type="matrix" values="0 0 0 0 0 0 0 0 0 0 0 0 0 0 0 0 0 0 127 0" result="hardAlpha"/>
<feMorphology radius="4" operator="erode" in="SourceAlpha" result="effect1_dropShadow_730_26230"/>
<feOffset dy="4"/>
<feGaussianBlur stdDeviation="3"/>
<feComposite in2="hardAlpha" operator="out"/>
<feColorMatrix type="matrix" values="0 0 0 0 0 0 0 0 0 0 0 0 0 0 0 0 0 0 0.1 0"/>
<feBlend mode="normal" in2="BackgroundImageFix" result="effect1_dropShadow_730_26230"/>
<feColorMatrix in="SourceAlpha" type="matrix" values="0 0 0 0 0 0 0 0 0 0 0 0 0 0 0 0 0 0 127 0" result="hardAlpha"/>
<feMorphology radius="3" operator="erode" in="SourceAlpha" result="effect2_dropShadow_730_26230"/>
<feOffset dy="10"/>
<feGaussianBlur stdDeviation="7.5"/>
<feComposite in2="hardAlpha" operator="out"/>
<feColorMatrix type="matrix" values="0 0 0 0 0 0 0 0 0 0 0 0 0 0 0 0 0 0 0.1 0"/>
<feBlend mode="normal" in2="effect1_dropShadow_730_26230" result="effect2_dropShadow_730_26230"/>
<feBlend mode="normal" in="SourceGraphic" in2="effect2_dropShadow_730_26230" result="shape"/>
</filter>
</defs>
</svg>
