<svg width="96" height="26" viewBox="0 0 96 26" fill="none" xmlns="http://www.w3.org/2000/svg">
<path d="M5.59303 25.1231C4.97179 25.1156 4.41759 24.9544 3.93044 24.6395C3.44329 24.3246 2.93065 24.0009 2.39252 23.6686C2.03519 23.3469 1.74646 22.9965 1.52632 22.6175C1.30618 22.2385 1.11945 21.7326 0.96612 21.0998C0.866342 20.7245 0.84122 20.2451 0.890756 19.6618C0.940291 19.0784 1.0395 18.4874 1.18837 17.8887C1.33725 17.2901 1.48215 16.8069 1.62309 16.439C1.83346 15.8672 2.10638 15.2471 2.44185 14.5786C2.77733 13.9101 3.11437 13.2716 3.45299 12.6631C3.7916 12.0545 4.06134 11.5647 4.26219 11.1937C4.39468 11.0466 4.45566 10.9683 4.44515 10.9588C4.43464 10.9493 4.42939 10.9446 4.42939 10.9446C4.42415 10.8447 4.51566 10.5846 4.70392 10.1642C4.89217 9.74374 5.05782 9.36955 5.20085 9.04162C5.48369 8.70636 5.63985 8.43782 5.66933 8.236C5.69881 8.03418 5.66047 7.87597 5.55433 7.76136C5.5102 7.68357 5.57278 7.54009 5.74206 7.33095C5.91135 7.1218 6.16894 6.87799 6.51484 6.5995C6.86074 6.32102 7.25657 6.03992 7.70233 5.7562C8.16179 5.3516 8.61542 5.12254 9.06324 5.06903C9.51105 5.01552 9.78066 5.09652 9.87206 5.31203C9.8752 5.37195 9.99083 5.38091 10.2189 5.33892C10.4471 5.29692 10.7141 5.23286 11.02 5.14673C11.3259 5.0606 11.5976 4.99128 11.8352 4.93878C11.9288 4.81371 12.1585 4.70654 12.5243 4.61727C12.8902 4.528 13.3212 4.44033 13.8173 4.35424C14.078 4.36061 14.3329 4.35225 14.5821 4.32918C14.8312 4.30611 15.0401 4.28014 15.2089 4.25127C15.3776 4.2224 15.4619 4.20797 15.4619 4.20797C15.5997 4.1607 15.7655 4.17203 15.9594 4.24198C16.1533 4.31193 16.3396 4.52247 16.5182 4.8736C16.6769 5.22578 16.6461 5.49777 16.4258 5.68956C16.2055 5.88135 15.6886 6.04863 14.8749 6.19141C14.28 6.3027 13.7641 6.39483 13.3273 6.46778C12.8905 6.54075 12.4343 6.62474 11.9586 6.71976C11.4829 6.81479 10.8997 6.96051 10.2091 7.15693C9.715 7.28296 9.31158 7.41926 8.99882 7.56583C8.68606 7.7124 8.41639 7.91679 8.1898 8.17901C7.96321 8.44123 7.71216 8.80987 7.43665 9.28494C7.30207 9.39213 7.13593 9.66119 6.93821 10.0921C6.74049 10.5231 6.54278 10.954 6.34506 11.3849C5.82665 12.1932 5.37764 12.8926 4.99803 13.4833C4.61843 14.074 4.47118 14.4172 4.55631 14.5129C4.55631 14.5129 4.66773 14.5371 4.89057 14.5855C5.11341 14.6339 5.26477 14.656 5.34466 14.6518C5.53915 14.5415 5.78015 14.4587 6.06766 14.4036C6.35517 14.3485 6.58776 14.2962 6.76542 14.2469C7.98697 13.8624 8.94755 13.5617 9.64716 13.3448C10.3468 13.1279 10.879 12.9648 11.2437 12.8556C11.6085 12.7463 11.8903 12.6765 12.0889 12.6461C12.357 12.4117 12.6296 12.3574 12.9065 12.4831C13.1835 12.6087 13.4097 12.8172 13.5852 13.1084C13.6966 13.3229 13.7115 13.5123 13.63 13.6768C13.5485 13.8413 13.3072 14.0142 12.9061 14.1954C12.5051 14.3767 11.9109 14.5981 11.1235 14.8596C10.3361 15.1212 9.30269 15.4658 8.02331 15.8933C6.94156 16.2704 6.01279 16.5094 5.237 16.6101C4.46121 16.7108 4.08282 16.5604 4.10183 16.1589C3.95784 16.0863 3.80802 16.1893 3.65239 16.4678C3.49675 16.7464 3.35108 17.1195 3.21537 17.5872C3.07967 18.055 2.9705 18.5514 2.88786 19.0764C2.80523 19.6015 2.7607 20.0895 2.7543 20.5404C2.74789 20.9914 2.79039 21.3246 2.88179 21.5401C3.06565 21.9911 3.29446 22.3446 3.56824 22.6007C3.84201 22.8567 4.32367 23.0668 5.0132 23.2309C5.4137 23.2299 5.80474 23.2395 6.18631 23.2595C6.56788 23.2796 6.99311 23.1772 7.46198 22.9524C8.6299 22.6909 9.54763 22.4325 10.2152 22.1772C10.8827 21.9219 11.2644 21.7517 11.36 21.6666C11.5156 21.5783 11.6181 21.5279 11.6675 21.5153C11.7169 21.5027 11.7916 21.4938 11.8914 21.4885C11.8368 21.5915 11.862 21.5952 11.9671 21.4996C12.0723 21.4039 12.2195 21.251 12.4087 21.0408C12.618 20.8296 12.8976 20.6247 13.2477 20.4261C13.5978 20.2275 13.915 20.0707 14.1994 19.9556C14.4838 19.8406 14.6385 19.8325 14.6637 19.9313C14.794 20.1247 14.7885 20.4004 14.647 20.7583C14.5055 21.1162 14.2358 21.5109 13.8379 21.9423C13.4399 22.3737 12.9213 22.7964 12.2821 23.2104C11.2529 23.8251 10.1251 24.2798 8.89884 24.5744C7.67258 24.869 6.57064 25.0519 5.59303 25.1231ZM19.3128 23.8033C18.9249 23.6634 18.5542 23.4675 18.2005 23.2157C17.8468 22.9639 17.6153 22.7507 17.5061 22.5762C17.4966 22.3964 17.5201 22.27 17.5763 22.197C17.6326 22.1239 17.8058 22.0848 18.0959 22.0796C18.386 22.0744 18.8627 22.0945 19.526 22.1399C19.7657 22.1273 20.0642 22.0916 20.4216 22.0328C20.779 21.974 21.1104 21.8966 21.4158 21.8005C21.7212 21.7044 21.8907 21.5953 21.9244 21.4734C22.0243 21.4682 22.0424 21.4322 21.9788 21.3654C21.9152 21.2987 21.8414 21.2274 21.7573 21.1517C21.6775 21.1559 21.5857 21.1257 21.4822 21.061C21.3787 20.9963 21.287 20.9661 21.2071 20.9703C21.2019 20.8704 21.101 20.7605 20.9044 20.6407C20.7079 20.5208 20.5077 20.4261 20.3037 20.3567C19.8455 20.0202 19.449 19.7156 19.1143 19.4427C18.7795 19.1699 18.6495 18.9814 18.7242 18.8773C18.72 18.7975 18.7176 18.7525 18.7171 18.7425C18.7166 18.7325 18.7163 18.7276 18.7163 18.7276C18.5765 18.7349 18.4112 18.5433 18.2205 18.1527C18.0298 17.7622 17.9261 17.4071 17.9094 17.0875C17.8968 16.8479 17.9507 16.5396 18.0712 16.1628C18.1916 15.786 18.3612 15.3916 18.58 14.9796C18.7987 14.5675 19.0311 14.2249 19.2771 13.9517C19.6188 13.5933 20.0491 13.2052 20.568 12.7875C21.0868 12.3698 21.6028 11.9923 22.1158 11.6549C22.6289 11.3176 23.0625 11.0896 23.4168 10.9709C23.769 10.8123 24.0999 10.7248 24.4094 10.7086C24.719 10.6924 24.9973 10.7479 25.2443 10.8751C25.4492 10.9645 25.6416 11.0997 25.8213 11.2805C26.001 11.4613 26.1607 11.6432 26.3005 11.8262C26.4403 12.0091 26.5338 12.1694 26.5811 12.3071C26.5936 12.5468 26.5875 12.8125 26.5628 13.1042C26.538 13.3959 26.4964 13.6534 26.438 13.8768C26.3796 14.1001 26.2805 14.2155 26.1407 14.2228C26.1407 14.2228 26.116 14.2291 26.0666 14.2417C26.0172 14.2543 25.9951 14.3106 26.0003 14.4104C26.0108 14.6101 25.8731 14.8477 25.5871 15.123C25.2212 15.4026 24.8998 15.5746 24.6228 15.6392C24.3458 15.7038 24.1705 15.6078 24.097 15.3513C24.0329 15.2746 23.9893 15.2068 23.9662 15.1479C23.943 15.089 23.8915 15.0617 23.8116 15.0659C23.8116 15.0659 23.7801 15.0375 23.7171 14.9807C23.654 14.9239 23.6188 14.8256 23.6115 14.6858C23.6073 14.6059 23.6333 14.5295 23.6896 14.4564C23.7458 14.3834 23.774 14.3469 23.774 14.3469C23.8738 14.3416 23.9976 14.22 24.1454 13.9819C24.2931 13.7439 24.4248 13.4866 24.5405 13.2102C24.6562 12.9337 24.7114 12.7456 24.7062 12.6457C24.6999 12.5259 24.6813 12.4568 24.6503 12.4384C24.6193 12.42 24.5239 12.415 24.3641 12.4233C24.0908 12.5578 23.7596 12.7354 23.3706 12.9561C22.9816 13.1767 22.6174 13.3911 22.2778 13.5991C21.9382 13.8072 21.6927 13.9953 21.5413 14.1634C21.4687 14.3074 21.4233 14.3949 21.4049 14.4259C21.3865 14.457 21.3373 14.4746 21.2574 14.4787C21.2532 14.3988 21.1902 14.4372 21.0682 14.5938C20.9462 14.7504 20.7972 14.9635 20.621 15.2331C20.4449 15.5027 20.2785 15.7667 20.1218 16.0253C19.9651 16.2838 19.85 16.4751 19.7764 16.5992C19.7385 16.6412 19.6996 16.7584 19.6596 16.9507C19.6196 17.1431 19.6038 17.3192 19.6122 17.479C19.5449 17.7228 19.5635 17.8871 19.668 17.9717C19.7726 18.0564 20.002 18.2296 20.3562 18.4914C21.0824 18.9741 21.6542 19.3747 22.0714 19.6933C22.4887 20.0119 22.8029 20.2758 23.0142 20.485C23.2254 20.6943 23.3557 20.8877 23.4051 21.0654C23.796 21.6457 23.9299 22.0993 23.8069 22.4262C23.6838 22.7531 23.3589 23.0505 22.8322 23.3184C22.6377 23.4288 22.3124 23.5259 21.8561 23.6099C21.3999 23.6939 20.9324 23.7535 20.4536 23.7886C19.9747 23.8237 19.5945 23.8286 19.3128 23.8033ZM30.5269 22.8251C30.0297 22.8912 29.5538 22.8861 29.0992 22.8098C28.6446 22.7334 28.2559 22.5786 27.9333 22.3451C27.6106 22.1117 27.3799 21.8184 27.2413 21.4651C27.0868 21.1929 27.0067 21.0018 27.0009 20.8919C26.9952 20.7821 27.0601 20.6836 27.1957 20.5963C27.3555 20.588 27.5027 20.6253 27.6372 20.7084C27.7717 20.7915 27.9515 20.8772 28.1764 20.9655C28.4896 21.2095 28.8614 21.3302 29.2919 21.3276C29.7223 21.3251 30.1131 21.2345 30.4643 21.0559C30.8154 20.8773 31.0047 20.6671 31.032 20.4253C31.0279 20.3454 30.9906 20.2072 30.9202 20.0106C30.8498 19.814 30.7689 19.608 30.6775 19.3925C30.0985 18.6618 29.6645 17.9285 29.3756 17.1926C29.0867 16.4567 28.9297 15.8491 28.9045 15.3697C28.8857 15.0102 28.9754 14.62 29.1736 14.1991C29.3719 13.7781 29.6534 13.4179 30.0182 13.1184C30.3579 12.72 30.7395 12.3596 31.1632 12.037C31.5869 11.7143 32.0177 11.4314 32.4556 11.1882C32.8934 10.9449 33.2895 10.7639 33.6438 10.6452C33.8635 10.6337 34.1546 10.6485 34.5173 10.6896C34.8799 10.7307 35.1333 10.7875 35.2773 10.86C35.5011 10.9284 35.7221 11.1321 35.9401 11.4712C36.1582 11.8102 36.2761 12.1495 36.2939 12.4891C36.3012 12.6289 36.2707 12.8107 36.2023 13.0346C36.134 13.2585 36.0177 13.5249 35.8537 13.8339C35.7853 14.0578 35.7062 14.2673 35.6162 14.4622C35.5263 14.6572 35.4835 14.7946 35.4876 14.8745C35.3993 15.0995 35.27 15.2114 35.0997 15.2103C34.9294 15.2092 34.7549 15.1282 34.5763 14.9674C34.3976 14.8065 34.252 14.6088 34.1396 14.3744C34.044 14.079 34.0012 13.8359 34.0113 13.6451C34.0213 13.4543 34.0905 13.2454 34.2188 13.0184C34.4269 12.7872 34.5289 12.6316 34.5248 12.5517C34.5206 12.4718 34.4086 12.4377 34.1889 12.4492C34.0491 12.4565 33.7989 12.5547 33.4383 12.7439C33.0777 12.933 32.6998 13.1731 32.3045 13.4642C31.9092 13.7553 31.5696 14.0585 31.2857 14.3738C30.925 14.7531 30.714 15.0246 30.6524 15.188C30.5909 15.3515 30.569 15.6029 30.5868 15.9425C30.6015 16.2221 30.6847 16.5682 30.8365 16.9808C30.9883 17.3935 31.1378 17.666 31.2849 17.7985C31.2849 17.7985 31.3619 17.9296 31.5158 18.1919C31.6698 18.4542 31.8544 18.73 32.0699 19.0191C32.7161 20.267 32.914 21.1779 32.6637 21.7517C32.4134 22.3256 31.7011 22.6834 30.5269 22.8251ZM43.1288 21.3835C42.7282 21.765 42.2548 22.0001 41.7087 22.0888C41.1626 22.1775 40.6239 22.1206 40.0926 21.9182C39.5613 21.7157 39.1133 21.3837 38.7486 20.9222C38.3861 20.5005 38.1399 20.0078 38.0102 19.4438C37.8805 18.8798 37.8316 18.1363 37.8633 17.2134C37.8824 16.4313 38.091 15.6343 38.489 14.8224C38.8871 14.0104 39.3845 13.2784 39.9811 12.6263C40.5778 11.9742 41.1795 11.512 41.7861 11.2399C42.0752 11.0245 42.3249 10.9163 42.5351 10.9153C42.7453 10.9143 43.0712 10.9222 43.5127 10.9391C43.9752 10.975 44.3244 11.0468 44.5604 11.1546C44.7964 11.2624 44.9895 11.4125 45.1398 11.6049C45.455 11.8888 45.6702 12.1729 45.7853 12.4573C45.9003 12.7416 45.9651 13.0236 45.9798 13.3033C45.9229 13.7468 45.6563 14.2965 45.18 14.9524C44.7037 15.6082 44.0665 16.1573 43.2686 16.5997C42.8365 16.7625 42.3603 16.8475 41.84 16.8548C41.3197 16.862 40.8834 16.7547 40.5313 16.5328C40.1435 16.3929 39.8951 16.431 39.7863 16.647C39.6775 16.863 39.594 17.373 39.536 18.1772C39.4959 18.9403 39.5849 19.4914 39.8029 19.8305C40.021 20.1695 40.3013 20.3601 40.644 20.4022C41.0476 20.4612 41.3651 20.4996 41.5964 20.5176C41.8276 20.5355 42.1078 20.4357 42.4368 20.2182C42.7459 20.0017 42.9396 19.8764 43.018 19.8422C43.0963 19.8081 43.1591 19.7647 43.2064 19.7122C43.2537 19.6596 43.372 19.5283 43.5613 19.3181C43.6938 19.1709 43.7981 19.0603 43.8743 18.9862C43.9506 18.9121 44.0386 18.8725 44.1385 18.8673C44.2383 18.862 44.3306 18.9022 44.4152 18.9879C44.4998 19.0736 44.5831 19.1344 44.665 19.1701C44.8648 19.1596 44.916 19.2771 44.8187 19.5226C44.7214 19.768 44.5216 20.0638 44.2193 20.4101C43.917 20.7564 43.5535 21.0809 43.1288 21.3835ZM42.766 15.0338C42.9804 14.9225 43.2025 14.7656 43.4322 14.5633C43.662 14.361 43.8557 14.1406 44.0134 13.902C44.1712 13.6634 44.2458 13.4642 44.2375 13.3044C44.2228 13.0248 44.0807 12.797 43.8111 12.6208C43.5415 12.4447 43.1507 12.4401 42.6388 12.6072C42.4222 12.6786 42.1802 12.8365 41.9126 13.0808C41.645 13.3252 41.3937 13.5937 41.1587 13.8864C40.9237 14.1791 40.7371 14.4392 40.5988 14.6667C40.4605 14.8943 40.4124 15.027 40.4544 15.0648C40.5196 15.1616 40.6933 15.2276 40.9755 15.2628C41.2577 15.2981 41.5731 15.2966 41.9216 15.2583C42.27 15.22 42.5515 15.1452 42.766 15.0338ZM49.0165 20.8046C48.9367 20.8088 48.8189 20.7599 48.6634 20.6579C48.5078 20.5559 48.388 20.467 48.3039 20.3913C48.1558 20.2389 48.0625 20.0836 48.0242 19.9253C47.9858 19.7671 47.952 19.4084 47.9227 18.8492C47.8892 18.2101 47.9827 17.5092 48.2031 16.7466C48.4234 15.984 48.8076 14.9075 49.3556 13.5169L50.2343 11.3679C50.3059 11.204 50.3745 11.0802 50.4402 10.9967C50.5059 10.9131 50.5666 10.8298 50.6224 10.7468C50.7023 10.7426 50.7722 10.7389 50.8321 10.7358C50.892 10.7326 50.922 10.7311 50.922 10.7311C51.0817 10.7227 51.2465 10.8092 51.4162 10.9906C51.5859 11.1719 51.7165 11.3704 51.8079 11.5859C51.8215 11.8455 51.8007 12.117 51.7454 12.4003C51.6902 12.6835 51.4675 13.1158 51.0774 13.697C50.9491 13.924 50.7837 14.3032 50.5812 14.8345C50.3788 15.3659 50.2475 15.8234 50.1875 16.207C50.1686 16.228 50.1331 16.315 50.081 16.468C50.029 16.6209 49.9727 16.7891 49.9122 16.9725C49.8517 17.1559 49.7857 17.3296 49.7142 17.4936L49.599 18.1605L51.4979 15.9881C52.3874 15.0002 53.1113 14.2914 53.6696 13.8616C54.2278 13.4318 54.6783 13.2379 55.021 13.28C55.3636 13.3222 55.6674 13.5766 55.9322 14.0434C56.0835 14.2558 56.1986 14.445 56.2774 14.6111C56.3562 14.7772 56.4129 14.9996 56.4475 15.2781C56.4821 15.5567 56.4841 15.9772 56.4535 16.5395L56.5509 18.397C56.8463 18.3014 57.082 18.2139 57.2581 18.1346C57.4342 18.0553 57.62 17.9705 57.8156 17.8801C57.9911 17.7908 58.1969 17.7049 58.4329 17.6224C58.6689 17.54 58.9662 17.4793 59.3246 17.4405C59.3182 17.7012 59.2428 17.9805 59.0982 18.2785C58.9536 18.5765 58.7682 18.8616 58.5422 19.1338C58.3161 19.406 58.0625 19.6296 57.7812 19.8045C57.5 19.9795 57.2196 20.0743 56.94 20.0889C56.6803 20.1026 56.3839 19.9879 56.0507 19.745C55.7176 19.5021 55.4727 19.2246 55.3161 18.9123C55.2247 18.6968 55.1672 18.4595 55.1437 18.2004C55.1201 17.9413 55.0899 17.4622 55.0533 16.7631L54.9952 15.6546C54.9785 15.3351 54.8786 15.2452 54.6957 15.385C54.5128 15.5247 54.364 15.6477 54.2494 15.7538C53.9634 16.0292 53.6645 16.3452 53.3528 16.702C53.041 17.0588 52.7248 17.4259 52.4041 17.8032C51.5356 18.81 50.8088 19.5591 50.2237 20.0504C49.6386 20.5417 49.2362 20.7931 49.0165 20.8046ZM63.4849 21.1579C63.2631 21.1294 63.0324 21.0264 62.7927 20.8487C62.5531 20.671 62.3419 20.4617 62.159 20.221C61.9762 19.9802 61.8496 19.7616 61.7792 19.565C61.7771 19.525 61.7495 19.4764 61.6964 19.4191C61.6433 19.3618 61.6168 19.3331 61.6168 19.3331C61.5338 19.2774 61.475 19.0151 61.4404 18.5463C61.4058 18.0775 61.4033 17.5519 61.4329 16.9695C61.4624 16.3872 61.5082 15.9242 61.5703 15.5804C61.6535 15.2556 61.7805 14.8134 61.9514 14.2537C62.1224 13.694 62.2662 13.1907 62.383 12.744L63.1008 10.964L61.8852 10.6973C61.7433 10.6646 61.6243 10.5908 61.5281 10.4756C61.432 10.3605 61.3818 10.263 61.3776 10.1831C61.3692 10.0233 61.4489 9.8239 61.6166 9.58479C61.7843 9.34569 61.9081 9.22404 61.988 9.21985C62.0889 9.23459 62.2742 9.2349 62.5438 9.22077C62.8135 9.20663 63.0776 9.18278 63.3362 9.1492C63.5948 9.11562 63.7535 9.08727 63.8124 9.06416C63.8902 9.02003 63.9672 8.96092 64.0434 8.88683C64.1196 8.81273 64.1741 8.70474 64.2067 8.56284C64.295 8.3379 64.3742 8.12847 64.4441 7.93455C64.5141 7.74062 64.6127 7.52016 64.7399 7.27316C64.8661 7.00619 64.9695 6.78047 65.0499 6.59601C65.1304 6.41155 65.2621 6.1543 65.4451 5.82427C65.5376 5.67923 65.6385 5.5037 65.7479 5.2977C65.8573 5.09169 65.9982 4.91407 66.1706 4.76485C66.342 4.59564 66.5228 4.51107 66.7131 4.51111C66.9033 4.51115 67.1551 4.63314 67.4683 4.87709C67.6385 5.06844 67.7362 5.21352 67.7614 5.31234C67.7866 5.41115 67.7167 5.60508 67.5516 5.89412C67.4096 6.24203 67.2427 6.59124 67.0507 6.94177C66.8588 7.29229 66.6819 7.64203 66.5199 7.99099C66.2234 8.44713 66.1766 8.69993 66.3794 8.74938C66.5823 8.79883 67.1394 8.72958 68.0508 8.54162C68.6248 8.4114 69.0456 8.41439 69.313 8.55057C69.5805 8.68676 69.7432 8.92357 69.8009 9.26102C69.8859 9.73722 69.8512 10.0294 69.6966 10.1377C69.5421 10.2459 69.0853 10.3199 68.3264 10.3597C67.8512 10.4647 67.4441 10.5311 67.1051 10.5589C66.7661 10.5867 66.5167 10.6047 66.3569 10.6131C66.0983 10.6467 65.9291 10.6656 65.8492 10.6698C65.7693 10.6739 65.6505 10.7002 65.4928 10.7485C65.3352 10.7968 65.2237 10.8678 65.1585 10.9613C65.0933 11.0548 65.025 11.1836 64.9535 11.3476C64.8777 11.4316 64.7689 11.6476 64.6269 11.9955C64.4849 12.3435 64.3046 12.7234 64.0858 13.1354C63.8502 13.9889 63.6542 14.8353 63.4979 15.6747C63.3416 16.514 63.224 17.3263 63.145 18.1115C63.0912 18.615 63.1193 18.959 63.2291 19.1435C63.3389 19.328 63.6046 19.4292 64.0261 19.4472C64.2468 19.4557 64.6011 19.4321 65.0888 19.3765C65.5766 19.3209 65.9582 19.2458 66.2336 19.1513C66.4481 19.0399 66.6723 18.923 66.9062 18.8006C67.1401 18.6782 67.3538 18.5518 67.5472 18.4215C67.7217 18.3122 67.896 18.198 68.07 18.0787C68.244 17.9594 68.331 17.8998 68.331 17.8998C68.4225 17.7348 68.5297 17.6791 68.6527 17.7327C68.7757 17.7864 68.8834 17.9309 68.9758 18.1664C68.9884 18.4061 68.9515 18.6583 68.8653 18.9232C68.779 19.1881 68.4258 19.517 67.8055 19.91C66.936 20.5164 66.1297 20.8941 65.3865 21.0432C64.6433 21.1923 64.0094 21.2305 63.4849 21.1579ZM72.4948 19.9647C72.1931 19.9405 71.9272 19.7391 71.6971 19.3606C71.4669 18.9821 71.3235 18.6342 71.2668 18.3167C71.2784 18.1559 71.2914 17.9249 71.3056 17.6237C71.3199 17.3226 71.3386 17.0112 71.3618 16.6895C71.4218 16.3058 71.5073 15.8357 71.6184 15.2791C71.7294 14.7226 71.8451 14.1607 71.9656 13.5937C72.0861 13.0266 72.1958 12.5402 72.2947 12.1344C72.3936 11.7287 72.4609 11.4848 72.4967 11.4029C72.5882 11.2378 72.7459 11.1895 72.9697 11.2579C73.1936 11.3263 73.3797 11.4367 73.5279 11.5892C73.6561 11.7427 73.7409 11.9285 73.7824 12.1466C73.8238 12.3647 73.8106 12.6859 73.7427 13.11C73.6748 13.5341 73.5425 14.1619 73.3458 14.9933C73.1679 15.8038 73.0369 16.4565 72.9527 16.9516C72.8685 17.4467 72.8505 17.9633 72.8988 18.5016C72.8545 19.1848 72.8163 19.6024 72.7842 19.7543C72.7521 19.9062 72.6556 19.9763 72.4948 19.9647ZM75.3136 7.83054C75.2368 7.89465 75.1632 7.92354 75.0928 7.91721C75.0224 7.91089 74.9047 7.86199 74.7397 7.7705C74.5988 7.75785 74.4191 7.67214 74.2005 7.51336C73.9819 7.35459 73.7927 7.18425 73.6329 7.00236C73.4732 6.82048 73.3923 6.70956 73.3902 6.66961C73.3598 6.47093 73.3614 6.2155 73.3951 5.90331C73.4288 5.59111 73.519 5.306 73.6657 5.04797C73.8124 4.78994 74.035 4.64309 74.3336 4.60741C74.4134 4.60323 74.4839 4.60955 74.5448 4.62638C74.6058 4.64321 74.7892 4.7037 75.0951 4.80783C75.2706 5.09905 75.4479 5.42522 75.627 5.78633C75.8062 6.14745 75.8949 6.5033 75.8933 6.85387C75.8916 7.20443 75.6984 7.52999 75.3136 7.83054ZM78.4535 19.5923C78.2159 19.6448 77.9541 19.6185 77.6682 19.5133C77.3823 19.4081 77.1288 19.2512 76.9076 19.0425C76.6863 18.8338 76.5395 18.6112 76.467 18.3746C76.3651 17.9594 76.3926 17.4322 76.5493 16.7932C76.7061 16.1541 76.9507 15.4703 77.283 14.7419C77.6153 14.0136 77.9989 13.3075 78.4337 12.6238C78.8685 11.9401 79.3278 11.3403 79.8114 10.8242C80.2951 10.3082 80.7519 9.94883 81.1819 9.74604C81.3943 9.59472 81.564 9.49069 81.6912 9.43396C81.8185 9.37722 81.958 9.3649 82.1099 9.397C82.2618 9.42909 82.4917 9.51718 82.7997 9.66126C83.0835 9.7265 83.2979 9.80538 83.4429 9.89792C83.588 9.99045 83.7782 10.1808 84.0136 10.4688C84.1891 10.7601 84.3246 11.0534 84.4202 11.3488C84.5158 11.6442 84.6035 11.98 84.6833 12.3564C84.8692 12.8473 84.9462 13.1687 84.9141 13.3206C84.882 13.4725 84.8281 13.5905 84.7524 13.6746C84.6031 13.8827 84.5684 13.9846 84.6482 13.9804C84.6482 13.9804 84.6451 14.0156 84.6388 14.0861C84.6324 14.1565 84.593 14.2637 84.5204 14.4077C84.4037 14.8544 84.3226 15.3143 84.2773 15.7873C84.232 16.2603 84.2571 16.6446 84.3527 16.94C84.5355 17.371 84.8387 17.6154 85.2624 17.6734C85.686 17.7313 86.106 17.529 86.5223 17.0666C86.7337 16.8953 86.9358 16.7395 87.1287 16.5992C87.3216 16.4589 87.4223 16.4687 87.4306 16.6284C87.4306 16.6284 87.4619 16.6518 87.5244 16.6986C87.587 16.7454 87.6582 16.7667 87.7381 16.7625C87.8379 16.7573 87.905 16.7938 87.9391 16.8722C87.9732 16.9505 87.9787 17.0553 87.9556 17.1867C87.9324 17.3181 87.8751 17.4663 87.7836 17.6313C87.4997 17.9466 87.3604 18.1542 87.3656 18.2541C87.3656 18.2541 87.3325 18.2909 87.2663 18.3644C87.2 18.438 87.0907 18.5489 86.9382 18.6971C86.5902 18.9356 86.1416 19.0693 85.5924 19.098C85.0431 19.1268 84.613 19.0392 84.3019 18.8352C83.9907 18.6312 83.7004 18.346 83.4309 17.9796C83.1613 17.6132 82.9793 17.2923 82.8847 17.0169L82.7192 16.7252L81.8803 17.3399C81.6721 17.5711 81.4484 17.7931 81.2092 18.0059C80.97 18.2187 80.8126 18.3672 80.7369 18.4513C80.6811 18.5343 80.6199 18.6076 80.5531 18.6712C80.4864 18.7348 80.413 18.7687 80.3331 18.7728C80.2533 18.777 80.1834 18.7807 80.1234 18.7838C80.0635 18.787 80.0336 18.7885 80.0336 18.7885C80.0377 18.8684 79.9481 18.9733 79.7646 19.103C79.5812 19.2328 79.3667 19.3442 79.1213 19.4372C78.8758 19.5302 78.6532 19.5819 78.4535 19.5923ZM78.0691 17.9903C78.1889 17.984 78.3987 17.8779 78.6983 17.6719C78.9979 17.4659 79.3357 17.2229 79.7115 16.9429C80.0874 16.6628 80.4233 16.3848 80.7193 16.109C81.0152 15.8331 81.2195 15.6221 81.332 15.476C81.4077 15.392 81.5304 15.2503 81.7002 15.0512C81.8701 14.852 82.0212 14.6789 82.1537 14.5317C82.5858 13.9884 82.8753 13.3974 83.0221 12.7589C83.1689 12.1203 83.123 11.627 82.8844 11.279C82.793 11.0635 82.6869 10.9489 82.566 10.9352C82.4451 10.9215 82.1991 11.0045 81.828 11.1842C81.5957 11.3366 81.315 11.6166 80.9859 12.0244C80.6567 12.4322 80.3108 12.901 79.948 13.4307C79.5853 13.9604 79.2482 14.5038 78.937 15.0608C78.6257 15.6179 78.3722 16.1318 78.1766 16.6027C77.981 17.0736 77.89 17.4389 77.9036 17.6985C77.9078 17.7784 77.9364 17.847 77.9895 17.9043C78.0425 17.9616 78.0691 17.9903 78.0691 17.9903ZM89.3365 18.6014C89.1305 18.492 88.9744 18.3801 88.8683 18.2654C88.7621 18.1508 88.7033 17.9837 88.6918 17.764C88.6761 17.4644 88.6996 17.1477 88.7622 16.814C88.8248 16.4803 88.8877 16.1515 88.9508 15.8278C88.9719 15.4662 89.0077 15.0988 89.0583 14.7257C89.1088 14.3525 89.2256 14.0009 89.4086 13.6709C89.5885 12.9004 89.7787 12.1344 89.9791 11.3729C90.1795 10.6113 90.3487 9.8264 90.4865 9.01808C90.7075 8.26549 90.9078 7.59908 91.0877 7.01887C91.2676 6.43866 91.4943 5.70079 91.7678 4.80525C91.9214 4.29651 92.0482 3.75413 92.1482 3.17811C92.2482 2.60209 92.4259 2.07706 92.6815 1.60304C92.7919 1.41701 92.8786 1.25725 92.9417 1.12376C93.0048 0.990275 93.0732 0.861522 93.1468 0.7375C93.1626 0.656562 93.2249 0.603229 93.3337 0.5775C93.4425 0.55177 93.5678 0.555214 93.7098 0.587832C93.8517 0.62045 93.9652 0.684597 94.0503 0.780273C94.1092 0.75716 94.1869 0.80816 94.2836 0.933272C94.3803 1.05838 94.4728 1.19874 94.561 1.35433C94.6493 1.50992 94.6866 1.64816 94.6729 1.76904C94.6771 1.84894 94.6679 1.95957 94.6452 2.10095C94.6226 2.24233 94.5745 2.37503 94.5009 2.49905C94.4252 2.58313 94.3563 2.70189 94.2942 2.85535C94.2322 3.00881 94.138 3.21902 94.0118 3.486C93.9456 3.74983 93.8895 4.01813 93.8437 4.2909C93.7979 4.56367 93.7309 4.81252 93.6425 5.03745C93.5752 5.28131 93.4924 5.51596 93.394 5.74142C93.2957 5.96688 93.2302 6.15056 93.1976 6.29246C93.0819 6.75915 92.9406 7.21717 92.7739 7.66651C92.6072 8.11585 92.467 8.59385 92.3534 9.10049C92.2387 9.58716 92.1248 10.0888 92.0117 10.6054C91.8986 11.1221 91.7242 11.6169 91.4887 12.0898C91.3604 12.3169 91.2752 12.6017 91.233 12.9444C91.1909 13.2871 91.1488 13.6297 91.1067 13.9724C91.0057 14.3382 90.9184 14.6782 90.8447 14.9925C90.7711 15.3068 90.7363 15.5039 90.7405 15.5838C90.6437 16.0295 90.5816 16.4683 90.5542 16.9003C90.5267 17.3324 90.4415 17.7124 90.2985 18.0403C90.289 18.2411 90.2574 18.4029 90.2037 18.5259C90.1501 18.6489 90.0537 18.719 89.9144 18.7363C89.7751 18.7537 89.5825 18.7087 89.3365 18.6014Z" fill="#FF6D51"/>
</svg>
