<svg width="135" height="29" viewBox="0 0 135 29" fill="none" xmlns="http://www.w3.org/2000/svg">
<g clip-path="url(#clip0_705_25072)">
<path d="M16.2701 4.56114C14.6395 3.01687 12.7431 2.08312 10.5631 2.0113C6.5753 1.86764 3.43824 4.14814 2.44573 8.00882C1.5241 11.6002 2.51662 14.7785 4.76751 17.5977C5.26376 18.2082 5.79547 18.7828 6.3449 19.3395C7.1779 20.2014 7.92229 21.0813 8.41855 22.2484C9.55285 24.9779 12.9558 26.0193 15.6675 24.6008C16.1283 24.3494 16.5005 24.3314 16.9613 24.6008C19.3185 25.8937 22.4024 25.2113 23.5722 22.8051C24.5115 20.8658 25.9826 19.5011 27.3295 17.9748C29.0842 15.9816 30.2007 13.7011 30.4134 11.0076C30.4134 10.8101 30.5198 10.5407 30.6616 10.433C31.3351 9.93018 32.0263 9.46331 32.7707 8.94257C32.7707 9.82244 32.8415 10.7562 32.7707 11.672C32.3985 15.6763 30.3071 18.8008 27.6131 21.5841C25.2736 23.9902 22.7569 26.145 19.9034 27.9228C17.7943 29.2336 15.7384 29.4311 13.5052 28.2101C10.1909 26.3964 7.31969 24.0441 4.78523 21.2608C3.26101 19.5909 1.87857 17.8132 1.02784 15.6763C-0.248249 12.3902 -0.425484 9.05031 1.02784 5.80015C2.48117 2.47817 5.17515 0.718417 8.64896 0.125848C11.2011 -0.305112 13.5406 0.341328 15.6675 1.83173C15.9865 2.06517 16.2346 2.11904 16.6068 1.86764C19.5312 -0.161459 22.6505 -0.556505 25.9648 0.826157C26.0534 0.862071 26.1421 0.880027 26.2307 0.897984C26.3016 0.915941 26.3547 0.933897 26.4256 0.969811C25.8762 1.40077 25.3622 1.83173 24.8305 2.22678C24.7065 2.31656 24.4938 2.37043 24.3343 2.35247C20.6655 1.68808 19.2653 2.06517 16.2701 4.56114Z" fill="#D8E592"/>
<path d="M22.9874 18.7107C21.924 16.0891 20.0807 14.1857 17.5108 13.0544C16.6778 12.6953 15.8271 12.7312 14.9764 13.0544C13.1508 13.7906 11.7507 15.0655 10.5455 16.5919C9.73021 17.6333 9.09216 18.7467 9.09216 20.1293C9.09216 21.7993 10.191 23.2717 11.7684 23.7207C12.8673 24.0439 13.9484 23.972 15.0118 23.577C15.8625 23.2538 16.6778 23.1999 17.5463 23.5411C17.8653 23.6668 18.2198 23.7207 18.5742 23.7925C20.1162 24.1157 21.4632 23.7566 22.5089 22.5176C23.4837 21.3683 23.5191 20.0395 22.9874 18.7107Z" fill="#105129"/>
<path d="M26.7756 13.7449C27.3208 12.173 26.6772 10.5123 25.3381 10.0356C23.9991 9.55891 22.4716 10.4467 21.9265 12.0186C21.3813 13.5905 22.0249 15.2512 23.364 15.7279C24.7031 16.2046 26.2305 15.3168 26.7756 13.7449Z" fill="#009345"/>
<path d="M21.8012 10.0964C22.3463 8.52457 21.7027 6.86387 20.3636 6.38717C19.0246 5.91048 17.4971 6.79829 16.952 8.37017C16.4068 9.94205 17.0504 11.6027 18.3895 12.0794C19.7286 12.5561 21.256 11.6683 21.8012 10.0964Z" fill="#009345"/>
<path d="M8.94444 15.6465C10.2835 15.1698 10.9271 13.5091 10.382 11.9372C9.83682 10.3654 8.30937 9.47755 6.97031 9.95424C5.63124 10.4309 4.98764 12.0916 5.53278 13.6635C6.07792 15.2354 7.60537 16.1232 8.94444 15.6465Z" fill="#009345"/>
<path d="M13.9215 12.0074C15.2606 11.5307 15.9042 9.86996 15.359 8.29808C14.8139 6.7262 13.2864 5.83839 11.9474 6.31508C10.6083 6.79178 9.96469 8.45248 10.5098 10.0244C11.055 11.5962 12.5824 12.4841 13.9215 12.0074Z" fill="#009345"/>
<path d="M33.8696 5.33329C33.8696 5.33329 33.8696 5.27942 33.8696 5.24351C34.0114 4.02246 33.1075 2.83732 31.8669 2.69366C30.9453 2.58592 30.0945 3.08871 29.6337 3.80698C29.3679 2.99893 28.6412 2.29862 27.7196 2.19088C26.4612 2.04722 25.3269 2.98097 25.1851 4.20202C25.1851 4.23794 25.1851 4.25589 25.1851 4.29181C25.1851 4.29181 24.8838 5.72834 26.3017 7.50605C26.9398 8.33205 27.6664 9.12215 28.8893 10.3971C30.3604 9.46333 31.2466 8.8528 32.0618 8.20636C33.8519 6.80574 33.8874 5.33329 33.8874 5.33329H33.8696Z" fill="#EC1C24"/>
<path d="M46.028 2.10107H47.4104C48.013 2.10107 48.4915 2.5859 48.4915 3.19643V17.4181C48.4915 18.4596 48.5624 19.3036 48.7042 19.9679C48.846 20.6323 49.0764 21.1531 49.4309 21.5302C49.7676 21.9073 50.2639 22.1766 50.8842 22.3203C51.2564 22.4101 51.6995 22.4819 52.1958 22.5178C52.7629 22.5537 53.206 23.0385 53.206 23.6311V24.8881C53.206 25.5166 52.692 26.0373 52.0717 25.9834C49.7854 25.8398 48.0662 25.2113 46.9319 24.1159C45.6026 22.841 44.9468 20.8478 44.9468 18.1005V3.21439C44.9468 2.60386 45.4254 2.11903 46.028 2.11903V2.10107Z" fill="#105129"/>
<path d="M52.1426 26.3426C52.1426 26.3426 52.0894 26.3426 52.054 26.3426C49.6967 26.181 47.9067 25.5346 46.7192 24.3854C45.3367 23.0566 44.6278 20.9557 44.6278 18.1365V3.21447C44.6278 2.42438 45.2659 1.7959 46.028 1.7959H47.4104C48.1902 1.7959 48.8106 2.44234 48.8106 3.21447V17.4361C48.8106 18.4417 48.8814 19.2857 49.0055 19.9321C49.1296 20.5426 49.3423 21.0095 49.6436 21.3507C49.9449 21.6739 50.3702 21.9074 50.9374 22.051C51.2918 22.1408 51.7172 22.2126 52.1957 22.2306C52.9401 22.2844 53.5073 22.9129 53.5073 23.6671V24.9241C53.5073 25.3191 53.3478 25.6962 53.0642 25.9656C52.7983 26.217 52.4793 26.3426 52.1249 26.3426H52.1426ZM46.028 2.42438C45.6026 2.42438 45.2659 2.76556 45.2659 3.19652V18.1185C45.2659 20.7402 45.9039 22.6974 47.1445 23.8826C48.2257 24.9241 49.8917 25.5166 52.0894 25.6603C52.3021 25.6603 52.497 25.6064 52.6388 25.4628C52.7983 25.3191 52.887 25.1036 52.887 24.8882V23.6312C52.887 23.2182 52.5679 22.877 52.1603 22.8411C51.6463 22.8052 51.1855 22.7334 50.7956 22.6436C50.1221 22.482 49.5727 22.1767 49.1827 21.7457C48.7928 21.3327 48.527 20.7402 48.3852 20.0219C48.2434 19.3396 48.1725 18.4597 48.1725 17.4002V3.21447C48.1725 2.78351 47.8358 2.44234 47.4104 2.44234H46.028V2.42438Z" fill="#11512A"/>
<path d="M55.8468 9.10449H57.1761C57.7964 9.10449 58.2927 9.49954 58.2927 9.98437V24.9602C58.2927 25.445 57.7964 25.8401 57.1761 25.8401H55.8468C55.2265 25.8401 54.7302 25.445 54.7302 24.9602V9.98437C54.7302 9.49954 55.2265 9.10449 55.8468 9.10449Z" fill="#105129"/>
<path d="M57.1761 26.1633H55.8468C55.0492 26.1633 54.4112 25.6246 54.4112 24.9602V9.98435C54.4112 9.31995 55.0492 8.78125 55.8468 8.78125H57.1761C57.9736 8.78125 58.6117 9.31995 58.6117 9.98435V24.9602C58.6117 25.6246 57.9736 26.1633 57.1761 26.1633ZM55.8468 9.42769C55.4214 9.42769 55.0492 9.67908 55.0492 9.96639V24.9422C55.0492 25.2475 55.4037 25.4989 55.8468 25.4989H57.1761C57.6014 25.4989 57.9736 25.2475 57.9736 24.9422V9.98435C57.9736 9.67908 57.6191 9.44565 57.1761 9.44565H55.8468V9.42769Z" fill="#11512A"/>
<path d="M62.1209 2.10107H63.5034C64.106 2.10107 64.5845 2.5859 64.5845 3.19643V17.4181C64.5845 18.4596 64.6554 19.3036 64.7972 19.9679C64.939 20.6323 65.1694 21.1531 65.5238 21.5302C65.8606 21.9073 66.3569 22.1766 66.9772 22.3203C67.3494 22.4101 67.7925 22.4819 68.2887 22.5178C68.8559 22.5537 69.299 23.0385 69.299 23.6311V24.8881C69.299 25.5166 68.785 26.0373 68.1646 25.9834C65.8783 25.8398 64.1591 25.2113 63.0248 24.1159C61.6956 22.841 61.0398 20.8478 61.0398 18.1005V3.21439C61.0398 2.60386 61.5183 2.11903 62.1209 2.11903V2.10107Z" fill="#105129"/>
<path d="M68.2355 26.3426C68.2355 26.3426 68.1824 26.3426 68.1469 26.3426C65.7897 26.181 63.9996 25.5346 62.8121 24.3854C61.4297 23.0566 60.7208 20.9557 60.7208 18.1365V3.21447C60.7208 2.42438 61.3588 1.7959 62.1209 1.7959H63.5034C64.2832 1.7959 64.9035 2.44234 64.9035 3.21447V17.4361C64.9035 18.4417 64.9744 19.2857 65.0985 19.9321C65.2225 20.5426 65.4352 21.0095 65.7365 21.3507C66.0378 21.6739 66.4632 21.9074 67.0303 22.051C67.3848 22.1408 67.8102 22.2126 68.2887 22.2306C69.0331 22.2844 69.6002 22.9129 69.6002 23.6671V24.9241C69.6002 25.3191 69.4407 25.6962 69.1572 25.9656C68.8913 26.217 68.5723 26.3426 68.2178 26.3426H68.2355ZM62.1209 2.42438C61.6956 2.42438 61.3588 2.76556 61.3588 3.19652V18.1185C61.3588 20.7402 61.9969 22.6974 63.2375 23.8826C64.3186 24.9241 65.9847 25.5166 68.1824 25.6603C68.3951 25.6603 68.59 25.6064 68.7318 25.4628C68.8913 25.3191 68.9799 25.1036 68.9799 24.8882V23.6312C68.9799 23.2182 68.6609 22.877 68.2533 22.8411C67.7393 22.8052 67.2785 22.7334 66.8886 22.6436C66.2151 22.482 65.6656 22.1767 65.2757 21.7457C64.8858 21.3327 64.6199 20.7402 64.4782 20.0219C64.3364 19.3396 64.2655 18.4597 64.2655 17.4002V3.21447C64.2655 2.78351 63.9287 2.44234 63.5034 2.44234H62.1209V2.42438Z" fill="#11512A"/>
<path d="M71.9397 9.10449H73.269C73.8893 9.10449 74.3856 9.49954 74.3856 9.98437V24.9602C74.3856 25.445 73.8893 25.8401 73.269 25.8401H71.9397C71.3194 25.8401 70.8231 25.445 70.8231 24.9602V9.98437C70.8231 9.49954 71.3194 9.10449 71.9397 9.10449Z" fill="#105129"/>
<path d="M73.2867 26.1633H71.9575C71.1599 26.1633 70.5219 25.6246 70.5219 24.9602V9.98435C70.5219 9.31995 71.1599 8.78125 71.9575 8.78125H73.2867C74.0843 8.78125 74.7223 9.31995 74.7223 9.98435V24.9602C74.7223 25.6246 74.0843 26.1633 73.2867 26.1633ZM71.9575 9.42769C71.5321 9.42769 71.1599 9.67908 71.1599 9.96639V24.9422C71.1599 25.2475 71.5144 25.4989 71.9575 25.4989H73.2867C73.7121 25.4989 74.0843 25.2475 74.0843 24.9422V9.98435C74.0843 9.67908 73.7298 9.44565 73.2867 9.44565H71.9575V9.42769Z" fill="#11512A"/>
<path d="M79.5254 9.94824H80.323L82.2726 14.2578L84.2044 9.94824H85.002L82.3257 15.856H82.1839L79.5077 9.94824H79.5254Z" fill="#009345"/>
<path d="M82.5562 16.1792H82.0067L79.0292 9.625H80.5357L82.2903 13.4677L84.0095 9.625H85.516L82.5562 16.1792ZM80.0217 10.2714L82.2726 15.2275L84.5057 10.2714H84.4171L82.2726 15.03L80.1103 10.2714H80.0217Z" fill="#0A9447"/>
<path d="M91.347 13.8988L91.985 14.24C91.7723 14.653 91.5419 14.9942 91.2584 15.2456C90.9748 15.4969 90.6735 15.6945 90.3367 15.8202C90 15.9459 89.6101 16.0177 89.1847 16.0177C88.2276 16.0177 87.4833 15.6945 86.9516 15.066C86.4198 14.4375 86.154 13.7192 86.154 12.9291C86.154 12.175 86.3844 11.5106 86.8275 10.918C87.3946 10.1638 88.1745 9.80469 89.1315 9.80469C90.0886 9.80469 90.9216 10.1818 91.5065 10.9539C91.9319 11.4926 92.1445 12.175 92.1445 12.9651H86.8984C86.8984 13.6474 87.1288 14.222 87.5542 14.653C87.9795 15.0839 88.4935 15.3174 89.0961 15.3174C89.3974 15.3174 89.681 15.2635 89.9645 15.1558C90.2481 15.048 90.4785 14.9044 90.6735 14.7428C90.8684 14.5812 91.0811 14.2939 91.3115 13.8988H91.347ZM91.347 12.3007C91.2406 11.8877 91.0989 11.5644 90.9039 11.331C90.7089 11.0976 90.4608 10.9 90.1418 10.7384C89.8228 10.5948 89.5037 10.523 89.1493 10.523C88.5821 10.523 88.0859 10.7025 87.6782 11.0796C87.3769 11.349 87.1465 11.762 87.0047 12.3007H91.347Z" fill="#009345"/>
<path d="M89.1847 16.3228C88.139 16.3228 87.306 15.9637 86.7034 15.2634C86.1186 14.581 85.8173 13.7909 85.8173 12.9111C85.8173 12.0851 86.0654 11.3488 86.5617 10.7024C87.1997 9.87638 88.0682 9.46338 89.1316 9.46338C90.195 9.46338 91.1166 9.89434 91.7724 10.7383C92.2332 11.3309 92.4813 12.0851 92.4813 12.9649V13.2881H87.2529C87.3238 13.7371 87.4833 14.1142 87.7846 14.4194C88.139 14.7965 88.5821 14.9761 89.0961 14.9761C89.362 14.9761 89.6101 14.9222 89.8582 14.8324C90.1064 14.7426 90.3013 14.6169 90.4785 14.4733C90.6558 14.3296 90.833 14.0603 91.0457 13.7191L91.2052 13.4498L92.3927 14.0782L92.2509 14.3655C92.0205 14.8145 91.7546 15.1736 91.4711 15.4609C91.1698 15.7482 90.833 15.9637 90.4431 16.1073C90.0709 16.251 89.6455 16.3228 89.167 16.3228H89.1847ZM89.1493 10.1098C88.2808 10.1098 87.6073 10.433 87.0934 11.0974C86.6857 11.6361 86.473 12.2107 86.473 12.8931C86.473 13.6114 86.7034 14.2398 87.1997 14.8145C87.6782 15.3711 88.334 15.6405 89.1847 15.6405C89.5746 15.6405 89.9291 15.5866 90.2304 15.4609C90.5317 15.3532 90.7976 15.1736 91.0457 14.9402C91.2229 14.7785 91.3825 14.5631 91.542 14.3117L91.4711 14.2758C91.2761 14.5631 91.0989 14.7785 90.9216 14.9402C90.6912 15.1377 90.4254 15.2993 90.1064 15.425C89.7873 15.5507 89.4683 15.6046 89.1316 15.6046C88.4226 15.6046 87.8377 15.3532 87.3415 14.8504C86.8629 14.3476 86.6148 13.7191 86.5971 12.947V12.6058H91.8255C91.7724 12.0132 91.5951 11.5284 91.2584 11.1154C90.7267 10.433 90.0355 10.0919 89.1316 10.0919L89.1493 10.1098ZM91.7546 12.6238H86.5617L86.6857 12.2107C86.863 11.6182 87.1111 11.1513 87.4655 10.8281C87.9441 10.3971 88.5112 10.1816 89.1493 10.1816C89.5392 10.1816 89.9291 10.2714 90.2836 10.433C90.6381 10.5946 90.9394 10.8281 91.152 11.1154C91.3647 11.4027 91.542 11.7618 91.6483 12.2107L91.7546 12.6238ZM87.4478 11.9773H90.9039C90.833 11.7977 90.7444 11.6541 90.6558 11.5284C90.4963 11.3309 90.2836 11.1693 90.0177 11.0256C89.7519 10.8999 89.4506 10.8281 89.167 10.8281C88.6708 10.8281 88.2631 10.9897 87.9086 11.3129C87.7314 11.4745 87.5896 11.69 87.4655 11.9594L87.4478 11.9773Z" fill="#0A9447"/>
<path d="M94.5018 7.75732H95.2462V9.94804H96.4336V10.6124H95.2462V15.8558H94.5018V10.6124H93.4738V9.94804H94.5018V7.75732Z" fill="#009345"/>
<path d="M95.5652 16.179H94.1651V10.9356H93.1371V9.62479H94.1651V7.43408H95.5652V9.62479H96.7527V10.9356H95.5652V16.179ZM94.8208 15.5325H94.9272V10.2892V8.09848H94.8208V10.2892V15.5325Z" fill="#0A9447"/>
<path d="M102.743 13.8988L103.381 14.24C103.169 14.653 102.938 14.9942 102.655 15.2456C102.371 15.4969 102.07 15.6945 101.733 15.8202C101.396 15.9459 101.006 16.0177 100.581 16.0177C99.6239 16.0177 98.8795 15.6945 98.3478 15.066C97.8161 14.4375 97.5502 13.7192 97.5502 12.9291C97.5502 12.175 97.7806 11.5106 98.2237 10.918C98.7909 10.1638 99.5707 9.80469 100.528 9.80469C101.485 9.80469 102.318 10.1818 102.903 10.9539C103.328 11.4926 103.541 12.175 103.541 12.9651H98.2946C98.2946 13.6474 98.525 14.222 98.9504 14.653C99.3758 15.0839 99.8897 15.3174 100.492 15.3174C100.794 15.3174 101.077 15.2635 101.361 15.1558C101.644 15.048 101.875 14.9044 102.07 14.7428C102.265 14.5812 102.477 14.2939 102.708 13.8988H102.743ZM102.743 12.3007C102.637 11.8877 102.495 11.5644 102.3 11.331C102.105 11.0976 101.857 10.9 101.538 10.7384C101.219 10.5948 100.9 10.523 100.546 10.523C99.9784 10.523 99.4821 10.7025 99.0745 11.0796C98.7732 11.349 98.5427 11.762 98.401 12.3007H102.743Z" fill="#009345"/>
<path d="M100.581 16.3228C99.5353 16.3228 98.7023 15.9637 98.0997 15.2634C97.5148 14.581 97.2135 13.7909 97.2135 12.9111C97.2135 12.0851 97.4616 11.3488 97.9579 10.7024C98.5959 9.87638 99.4644 9.46338 100.528 9.46338C101.591 9.46338 102.513 9.89434 103.169 10.7383C103.629 11.3309 103.878 12.0851 103.878 12.9649V13.2881H98.6491C98.72 13.7371 98.8795 14.1142 99.1808 14.4194C99.5353 14.7965 99.9784 14.9761 100.492 14.9761C100.758 14.9761 101.006 14.9222 101.254 14.8324C101.503 14.7426 101.698 14.6169 101.875 14.4733C102.052 14.3296 102.229 14.0603 102.442 13.7191L102.601 13.4498L103.789 14.0782L103.647 14.3655C103.417 14.8145 103.151 15.1736 102.867 15.4609C102.566 15.7482 102.229 15.9637 101.839 16.1073C101.467 16.251 101.042 16.3228 100.563 16.3228H100.581ZM100.546 10.1098C99.6771 10.1098 99.0036 10.433 98.4896 11.0974C98.082 11.6361 97.8693 12.2107 97.8693 12.8931C97.8693 13.6114 98.0997 14.2398 98.5959 14.8145C99.0745 15.3711 99.7302 15.6405 100.581 15.6405C100.971 15.6405 101.325 15.5866 101.627 15.4609C101.928 15.3532 102.194 15.1736 102.442 14.9402C102.619 14.7785 102.779 14.5631 102.938 14.3117L102.867 14.2758C102.672 14.5631 102.495 14.7785 102.318 14.9402C102.087 15.1377 101.822 15.2993 101.503 15.425C101.184 15.5507 100.865 15.6046 100.528 15.6046C99.8189 15.6046 99.234 15.3532 98.7377 14.8504C98.2592 14.3476 98.0111 13.7191 97.9933 12.947V12.6058H103.222C103.169 12.0132 102.991 11.5284 102.655 11.1154C102.123 10.433 101.432 10.0919 100.528 10.0919L100.546 10.1098ZM103.151 12.6238H97.9579L98.082 12.2107C98.2592 11.6182 98.5073 11.1513 98.8618 10.8281C99.3403 10.3971 99.9075 10.1816 100.546 10.1816C100.935 10.1816 101.325 10.2714 101.68 10.433C102.034 10.5946 102.336 10.8281 102.548 11.1154C102.761 11.4027 102.938 11.7618 103.045 12.2107L103.151 12.6238ZM98.8441 11.9773H102.3C102.229 11.7977 102.141 11.6541 102.052 11.5284C101.893 11.3309 101.68 11.1693 101.414 11.0256C101.148 10.8999 100.847 10.8281 100.563 10.8281C100.067 10.8281 99.6593 10.9897 99.3049 11.3129C99.1276 11.4745 98.9859 11.69 98.8618 11.9594L98.8441 11.9773Z" fill="#0A9447"/>
<path d="M104.959 9.94785H105.721V10.8098C105.951 10.4686 106.182 10.2172 106.447 10.0556C106.696 9.89398 106.961 9.8042 107.245 9.8042C107.458 9.8042 107.67 9.87603 107.901 10.0017L107.511 10.6482C107.351 10.5763 107.227 10.5404 107.121 10.5404C106.873 10.5404 106.625 10.6482 106.394 10.8457C106.164 11.0612 105.987 11.3844 105.863 11.8153C105.774 12.1565 105.721 12.8389 105.721 13.8624V15.8556H104.959V9.94785Z" fill="#009345"/>
<path d="M106.04 16.1789H104.622V9.62474H106.04V9.94795C106.04 9.94795 106.182 9.82226 106.27 9.76839C106.82 9.40926 107.405 9.33743 108.06 9.69656L108.362 9.85817L107.653 11.0254L107.405 10.9176C107.245 10.8458 107.174 10.8458 107.139 10.8458C106.961 10.8458 106.802 10.9176 106.625 11.0792C106.447 11.2408 106.288 11.5102 106.182 11.8873C106.128 12.1028 106.058 12.6055 106.058 13.8445V16.161L106.04 16.1789ZM105.278 15.5325H105.402V13.8625C105.402 12.8031 105.455 12.1028 105.561 11.7257C105.561 11.6718 105.597 11.6179 105.614 11.582L105.42 11.8693V10.2712H105.295V15.5325H105.278ZM107.245 10.1275C107.05 10.1275 106.855 10.1814 106.66 10.3071C106.891 10.2173 107.103 10.1814 107.369 10.2532L107.422 10.1634C107.422 10.1634 107.298 10.1455 107.227 10.1455L107.245 10.1275Z" fill="#0A9447"/>
<path d="M109.071 7.50586C109.248 7.50586 109.39 7.55973 109.514 7.68543C109.638 7.81112 109.691 7.95478 109.691 8.13434C109.691 8.31391 109.638 8.45756 109.514 8.5653C109.39 8.691 109.248 8.74487 109.071 8.74487C108.893 8.74487 108.752 8.691 108.645 8.5653C108.521 8.43961 108.468 8.29595 108.468 8.13434C108.468 7.97273 108.521 7.81112 108.645 7.68543C108.769 7.55973 108.911 7.50586 109.071 7.50586ZM108.698 9.93001H109.443V15.8377H108.698V9.93001Z" fill="#009345"/>
<path d="M109.779 16.179H108.379V9.62477H109.779V16.179ZM109.035 15.5325H109.141V10.2712H109.035V15.5325ZM109.088 9.10403C108.84 9.10403 108.61 9.01424 108.432 8.81672C108.255 8.63715 108.167 8.40372 108.167 8.15233C108.167 7.90093 108.255 7.6675 108.45 7.46997C108.805 7.09288 109.425 7.11084 109.779 7.46997C109.957 7.64954 110.063 7.88298 110.063 8.15233C110.063 8.42168 109.974 8.63715 109.779 8.81672C109.602 8.99629 109.372 9.10403 109.106 9.10403H109.088ZM109.088 7.84706C109.088 7.84706 108.946 7.88298 108.876 7.93685C108.822 7.99072 108.787 8.06254 108.787 8.15233C108.787 8.24211 108.822 8.29598 108.876 8.36781C109 8.4935 109.177 8.4935 109.283 8.36781C109.336 8.31394 109.372 8.24211 109.372 8.15233C109.372 8.06254 109.336 7.99072 109.283 7.93685C109.23 7.88298 109.159 7.84706 109.071 7.84706H109.088Z" fill="#0A9447"/>
<path d="M111.286 9.94774H112.03V11.0072C112.332 10.5942 112.668 10.3069 113.023 10.0914C113.377 9.87592 113.785 9.78613 114.21 9.78613C114.636 9.78613 115.026 9.89387 115.362 10.1273C115.699 10.3428 115.947 10.6481 116.107 11.0251C116.266 11.4022 116.355 11.9948 116.355 12.8029V15.8375H115.61V13.0183C115.61 12.336 115.575 11.8871 115.522 11.6536C115.433 11.2586 115.274 10.9713 115.026 10.7737C114.777 10.5762 114.458 10.4864 114.069 10.4864C113.608 10.4864 113.2 10.6301 112.846 10.9354C112.491 11.2406 112.243 11.6177 112.137 12.0666C112.066 12.3539 112.03 12.8926 112.03 13.6648V15.8375H111.286V9.92979V9.94774Z" fill="#009345"/>
<path d="M116.692 16.1788H115.291V13.0364C115.291 12.2283 115.256 11.8871 115.221 11.7435C115.15 11.4203 115.026 11.1868 114.831 11.0432C114.636 10.8995 114.388 10.8097 114.069 10.8097C113.696 10.8097 113.36 10.9354 113.058 11.1868C112.757 11.4562 112.544 11.7615 112.456 12.1565C112.42 12.3361 112.367 12.7491 112.367 13.6828V16.1788H110.967V9.62461H112.367V10.1813C112.527 10.0376 112.704 9.91192 112.881 9.82213C113.289 9.5887 113.75 9.48096 114.228 9.48096C114.707 9.48096 115.167 9.60665 115.557 9.876C115.947 10.1274 116.231 10.4865 116.426 10.9354C116.603 11.3664 116.692 11.9769 116.692 12.8389V16.1967V16.1788ZM115.947 15.5323H116.054V12.8209C116.054 12.0667 115.983 11.5101 115.841 11.1689C115.699 10.8457 115.504 10.5943 115.221 10.4147C114.937 10.2172 114.618 10.1274 114.228 10.1274C113.962 10.1274 113.714 10.1633 113.466 10.2531C113.661 10.1992 113.856 10.1633 114.069 10.1633C114.529 10.1633 114.937 10.289 115.238 10.5224C115.54 10.7738 115.752 11.133 115.859 11.5819C115.912 11.8333 115.947 12.3002 115.947 13.0184V15.5144V15.5323ZM111.605 15.5323H111.711V13.7008C111.711 12.8927 111.747 12.3361 111.835 12.0128C111.871 11.9051 111.889 11.7974 111.942 11.6896L111.729 11.9769V10.271H111.623V15.5323H111.605Z" fill="#0A9447"/>
<path d="M124.065 9.94823V15.856H123.32V14.8324C123.001 15.2275 122.647 15.5148 122.257 15.7123C121.867 15.9098 121.442 15.9996 120.981 15.9996C120.148 15.9996 119.456 15.6944 118.872 15.0838C118.287 14.4733 118.003 13.7371 118.003 12.8752C118.003 12.0132 118.304 11.295 118.889 10.6845C119.474 10.0739 120.183 9.78662 121.016 9.78662C121.495 9.78662 121.92 9.89436 122.31 10.0919C122.7 10.2894 123.037 10.6126 123.338 11.0256V9.94823H124.082H124.065ZM121.069 10.5228C120.644 10.5228 120.272 10.6306 119.917 10.8281C119.563 11.0436 119.279 11.3309 119.067 11.708C118.854 12.0851 118.748 12.4801 118.748 12.8931C118.748 13.3061 118.854 13.7012 119.067 14.0783C119.279 14.4554 119.563 14.7606 119.917 14.9581C120.272 15.1736 120.662 15.2814 121.052 15.2814C121.442 15.2814 121.849 15.1736 122.221 14.9581C122.594 14.7427 122.877 14.4733 123.072 14.1142C123.267 13.755 123.373 13.36 123.373 12.9111C123.373 12.2287 123.143 11.6541 122.7 11.2052C122.257 10.7383 121.707 10.5228 121.052 10.5228H121.069Z" fill="#009345"/>
<path d="M120.981 16.3228C120.077 16.3228 119.279 15.9816 118.641 15.3172C118.003 14.6529 117.666 13.8268 117.666 12.8751C117.666 11.9234 118.003 11.1333 118.641 10.469C119.297 9.80456 120.077 9.46338 120.998 9.46338C121.53 9.46338 122.009 9.57112 122.452 9.80456C122.647 9.9123 122.824 10.038 123.001 10.1816V9.60703H124.384V16.1612H123.001V15.6046C122.806 15.7662 122.611 15.8919 122.399 15.9816C121.956 16.1971 121.477 16.3049 120.981 16.3049V16.3228ZM120.998 10.1098C120.254 10.1098 119.634 10.3792 119.102 10.9179C118.57 11.4566 118.304 12.103 118.304 12.8751C118.304 13.6473 118.553 14.3117 119.084 14.8683C119.616 15.407 120.219 15.6764 120.963 15.6764C121.371 15.6764 121.761 15.5866 122.097 15.425C122.168 15.3891 122.221 15.3532 122.292 15.3172C121.477 15.7482 120.52 15.7482 119.722 15.2813C119.315 15.0479 118.996 14.7067 118.765 14.2758C118.535 13.8448 118.411 13.3959 118.411 12.929C118.411 12.4621 118.535 11.9953 118.765 11.5823C118.996 11.1513 119.332 10.8281 119.722 10.5767C120.13 10.3433 120.573 10.2176 121.034 10.2176C121.583 10.2176 122.062 10.3612 122.487 10.6485C122.363 10.5587 122.257 10.469 122.115 10.4151C121.778 10.2355 121.388 10.1457 120.963 10.1457L120.998 10.1098ZM123.639 15.5148H123.728V10.2535H123.639V12.0312L123.48 11.7977C123.622 12.1389 123.692 12.516 123.692 12.9111C123.692 13.3959 123.586 13.8448 123.373 14.2398L123.639 13.8987V15.4968V15.5148ZM121.052 10.846C120.697 10.846 120.36 10.9358 120.059 11.1154C119.758 11.295 119.51 11.5464 119.332 11.8696C119.155 12.1928 119.067 12.534 119.067 12.9111C119.067 13.2881 119.155 13.6114 119.332 13.9525C119.51 14.2758 119.758 14.5272 120.059 14.7247C120.679 15.1018 121.406 15.0838 122.044 14.7247C122.363 14.5451 122.594 14.3117 122.771 14.0064C122.948 13.7011 123.019 13.342 123.019 12.9649C123.019 12.3724 122.824 11.8875 122.452 11.4745C122.062 11.0795 121.601 10.882 121.034 10.882L121.052 10.846Z" fill="#0A9447"/>
<path d="M125.748 9.94785H126.51V10.8098C126.741 10.4686 126.971 10.2172 127.237 10.0556C127.485 9.89398 127.751 9.8042 128.035 9.8042C128.247 9.8042 128.46 9.87603 128.69 10.0017L128.301 10.6482C128.141 10.5763 128.017 10.5404 127.911 10.5404C127.662 10.5404 127.414 10.6482 127.184 10.8457C126.954 11.0612 126.776 11.3844 126.652 11.8153C126.564 12.1565 126.51 12.8389 126.51 13.8624V15.8556H125.748V9.94785Z" fill="#009345"/>
<path d="M126.829 16.1789H125.412V9.62474H126.829V9.94795C126.829 9.94795 126.971 9.82226 127.06 9.76839C127.609 9.40926 128.194 9.33743 128.85 9.69656L129.151 9.85817L128.442 11.0254L128.194 10.9176C128.035 10.8458 127.964 10.8458 127.928 10.8458C127.751 10.8458 127.592 10.9176 127.414 11.0792C127.237 11.2408 127.078 11.5102 126.971 11.8873C126.918 12.1028 126.847 12.6055 126.847 13.8445V16.161L126.829 16.1789ZM126.067 15.5325H126.191V13.8625C126.191 12.8031 126.245 12.1028 126.351 11.7257C126.351 11.6718 126.386 11.6179 126.404 11.582L126.209 11.8693V10.2712H126.085V15.5325H126.067ZM128.035 10.1275C127.84 10.1275 127.645 10.1814 127.45 10.3071C127.68 10.2173 127.893 10.1814 128.159 10.2532L128.212 10.1634C128.212 10.1634 128.088 10.1455 128.017 10.1455L128.035 10.1275Z" fill="#0A9447"/>
<path d="M128.974 9.94824H129.772L131.774 14.4913L133.724 9.94824H134.522L131.048 18.0108H130.25L131.367 15.4071L128.974 9.94824Z" fill="#009345"/>
<path d="M131.243 18.334H129.754L131.012 15.407L128.478 9.625H129.967L131.757 13.6832L133.494 9.625H135L131.243 18.3519V18.334ZM130.729 17.6875H130.817L134.008 10.2714H133.919L131.774 15.2993L129.559 10.2714H129.47L131.721 15.407L130.746 17.6875H130.729Z" fill="#0A9447"/>
<path d="M80.0748 17.6693H80.8192V21.0093C81.1205 20.5963 81.4573 20.309 81.8295 20.0935C82.2016 19.878 82.5916 19.7882 83.0169 19.7882C83.4423 19.7882 83.8322 19.8959 84.169 20.1294C84.5057 20.3449 84.7538 20.6501 84.9133 21.0272C85.0729 21.4043 85.1615 21.9969 85.1615 22.8049V25.8396H84.4171V23.0204C84.4171 22.3381 84.3816 21.8891 84.3285 21.6557C84.2399 21.2607 84.0626 20.9733 83.8145 20.7758C83.5664 20.5783 83.2473 20.4885 82.8574 20.4885C82.3966 20.4885 81.989 20.6322 81.6345 20.9374C81.28 21.2427 81.0319 21.6198 80.9256 22.0687C80.8547 22.356 80.8192 22.8947 80.8192 23.6668V25.8396H80.0748V17.6514V17.6693Z" fill="#009345"/>
<path d="M85.4805 26.1809H84.0803V23.0385C84.0803 22.2304 84.0449 21.8892 84.0094 21.7456C83.9386 21.4224 83.7968 21.1889 83.6195 21.0453C83.4246 20.9016 83.1764 20.8118 82.8574 20.8118C82.4852 20.8118 82.1485 20.9375 81.8472 21.1889C81.5459 21.4583 81.3332 21.7635 81.2446 22.1586C81.2091 22.3381 81.156 22.7511 81.156 23.6849V26.1809H79.7558V17.3462H81.156V20.1833C81.3155 20.0397 81.4927 19.914 81.6877 19.8063C82.5207 19.3394 83.6018 19.3394 84.3639 19.8601C84.7538 20.1115 85.0374 20.4707 85.2324 20.9016C85.4096 21.3326 85.4982 21.9431 85.4982 22.805V26.1629L85.4805 26.1809ZM84.7361 25.5344H84.8424V22.823C84.8424 22.0688 84.7716 21.5121 84.6298 21.171C84.488 20.8477 84.293 20.5963 84.0094 20.4168C83.7259 20.2193 83.4068 20.1295 83.0169 20.1295C82.7688 20.1295 82.5207 20.1654 82.2903 20.2552C82.4852 20.2013 82.6625 20.1833 82.8751 20.1833C83.3359 20.1833 83.7436 20.309 84.0449 20.5425C84.3462 20.7939 84.5589 21.135 84.6652 21.6019C84.7184 21.8533 84.7538 22.3202 84.7538 23.0385V25.5344H84.7361ZM80.3938 25.5344H80.5002V23.7028C80.5002 22.8948 80.5356 22.3381 80.6243 22.0149C80.6597 21.9072 80.6951 21.7994 80.7306 21.6917L80.5002 21.997V18.0106H80.3938V25.5524V25.5344Z" fill="#0A9447"/>
<path d="M89.805 19.8062C90.7089 19.8062 91.4533 20.1294 92.0382 20.7938C92.5699 21.3863 92.8358 22.1046 92.8358 22.9306C92.8358 23.7566 92.5522 24.4749 91.985 25.0854C91.4179 25.6959 90.6912 26.0192 89.805 26.0192C88.9189 26.0192 88.1745 25.7139 87.6073 25.0854C87.0402 24.4749 86.7566 23.7387 86.7566 22.9306C86.7566 22.1226 87.0224 21.4043 87.5542 20.7938C88.139 20.1294 88.8834 19.8062 89.7873 19.8062H89.805ZM89.805 20.5424C89.1847 20.5424 88.653 20.7758 88.1922 21.2427C87.7314 21.7096 87.5187 22.2662 87.5187 22.9306C87.5187 23.3616 87.625 23.7566 87.82 24.1337C88.015 24.5108 88.2985 24.7801 88.653 24.9956C89.0075 25.1932 89.3797 25.3009 89.805 25.3009C90.2304 25.3009 90.6026 25.1932 90.9571 24.9956C91.3115 24.7981 91.5774 24.5108 91.7901 24.1337C92.0028 23.7566 92.0914 23.3616 92.0914 22.9306C92.0914 22.2662 91.861 21.7096 91.4179 21.2427C90.9748 20.7758 90.4254 20.5424 89.805 20.5424Z" fill="#009345"/>
<path d="M89.805 26.3424C88.8302 26.3424 87.9972 26.0012 87.3769 25.3188C86.7566 24.6365 86.4376 23.8464 86.4376 22.9306C86.4376 22.0148 86.7389 21.2427 87.3237 20.5783C87.9795 19.842 88.8125 19.4829 89.805 19.4829C90.7975 19.4829 91.6306 19.86 92.2686 20.5783C92.8535 21.2427 93.1548 22.0328 93.1548 22.9306C93.1548 23.8284 92.8357 24.6365 92.2154 25.3188C91.5951 26.0012 90.7798 26.3424 89.7873 26.3424H89.805ZM89.805 20.1293C88.9897 20.1293 88.334 20.4167 87.8023 21.0092C87.3237 21.5479 87.0756 22.1764 87.0756 22.9126C87.0756 23.6489 87.3237 24.2953 87.8377 24.852C88.3517 25.4086 88.9897 25.678 89.7873 25.678C90.5849 25.678 91.2229 25.4086 91.7369 24.852C92.2509 24.2953 92.499 23.6489 92.499 22.9126C92.499 22.1764 92.2686 21.5479 91.7723 20.9913C91.2406 20.3987 90.5849 20.1114 89.7696 20.1114L89.805 20.1293ZM89.805 25.6241C89.3265 25.6241 88.9011 25.5163 88.4935 25.2829C88.1036 25.0495 87.7845 24.7263 87.5364 24.2953C87.306 23.8823 87.1819 23.4154 87.1819 22.9485C87.1819 22.1944 87.4301 21.5479 87.9441 21.0272C88.458 20.4885 89.0784 20.2371 89.7873 20.2371C90.4962 20.2371 91.1166 20.5064 91.6306 21.0272C92.1445 21.5479 92.3927 22.1944 92.3927 22.9485C92.3927 23.4334 92.2686 23.8823 92.0382 24.2953C91.8078 24.7083 91.4888 25.0495 91.0811 25.2829C90.6912 25.5163 90.2481 25.6241 89.7696 25.6241H89.805ZM89.805 20.8835C89.2733 20.8835 88.8125 21.0811 88.4226 21.4941C88.0327 21.9071 87.8377 22.3739 87.8377 22.9665C87.8377 23.3436 87.9263 23.6848 88.1036 24.008C88.2808 24.3312 88.5112 24.5646 88.8125 24.7442C89.4151 25.0854 90.1772 25.0854 90.7798 24.7442C91.0811 24.5646 91.3115 24.3312 91.4888 24.008C91.666 23.6848 91.7546 23.3436 91.7546 22.9665C91.7546 22.3919 91.5597 21.9071 91.1697 21.4941C90.7798 21.0811 90.3367 20.8835 89.7873 20.8835H89.805Z" fill="#0A9447"/>
<path d="M97.4439 20.5967L96.9653 21.0995C96.5577 20.7044 96.1678 20.5069 95.7956 20.5069C95.5475 20.5069 95.3348 20.5967 95.1753 20.7583C94.998 20.9199 94.9094 21.1174 94.9094 21.3329C94.9094 21.5304 94.9803 21.71 95.1221 21.8896C95.2639 22.0691 95.5652 22.2667 96.026 22.518C96.5932 22.8054 96.9653 23.0927 97.1603 23.362C97.3553 23.6314 97.4616 23.9546 97.4616 24.2958C97.4616 24.7806 97.3021 25.1936 96.9653 25.5348C96.6286 25.8759 96.2032 26.0376 95.707 26.0376C95.3702 26.0376 95.0512 25.9657 94.7499 25.8221C94.4486 25.6784 94.1828 25.4629 93.9878 25.2115L94.4663 24.6728C94.8562 25.1038 95.2639 25.3372 95.6893 25.3372C95.9906 25.3372 96.2387 25.2475 96.4514 25.0499C96.664 24.8524 96.7704 24.619 96.7704 24.3676C96.7704 24.1521 96.6995 23.9546 96.5577 23.793C96.4159 23.6314 96.0969 23.4159 95.6184 23.1645C95.0867 22.8951 94.7322 22.6258 94.5372 22.3564C94.3423 22.0871 94.2536 21.7818 94.2536 21.4406C94.2536 20.9917 94.4132 20.6146 94.7145 20.3273C95.0158 20.04 95.4057 19.8784 95.8665 19.8784C96.3982 19.8784 96.9476 20.1478 97.4793 20.6685L97.4439 20.5967Z" fill="#009345"/>
<path d="M95.6715 26.3426C95.2816 26.3426 94.9094 26.2528 94.5726 26.0912C94.2182 25.9296 93.9346 25.6782 93.7042 25.3909L93.5447 25.1754L94.4309 24.1519L94.679 24.4213C94.998 24.7984 95.317 24.96 95.6538 24.96C95.8665 24.96 96.0614 24.8881 96.2032 24.7445C96.345 24.6188 96.4159 24.4751 96.4159 24.2956C96.4159 24.1519 96.3804 24.0442 96.2741 23.9185C96.2209 23.8466 96.026 23.685 95.4234 23.3618C94.8385 23.0566 94.4486 22.7692 94.2359 22.446C94.0055 22.1228 93.8991 21.7457 93.8991 21.3327C93.8991 20.794 94.0764 20.3451 94.4486 19.986C94.8031 19.6268 95.2639 19.4473 95.8133 19.4473C96.4336 19.4473 97.0539 19.7525 97.6565 20.3451L97.8869 20.5785L96.9653 21.5482L96.7349 21.3148C96.2032 20.794 95.6892 20.6683 95.3702 20.9736C95.2639 21.0813 95.2107 21.1711 95.2107 21.2968C95.2107 21.4045 95.2639 21.5302 95.3525 21.638C95.4234 21.7278 95.6006 21.8894 96.15 22.1767C96.7526 22.4999 97.1603 22.8052 97.3907 23.1104C97.6388 23.4516 97.7452 23.8287 97.7452 24.2417C97.7452 24.8163 97.5502 25.3011 97.1426 25.7141C96.7526 26.1092 96.2387 26.3067 95.6538 26.3067L95.6715 26.3426ZM94.3777 25.1754C94.5195 25.3011 94.6613 25.4089 94.8385 25.4987C95.1043 25.6244 95.3702 25.6962 95.6715 25.6962C96.0969 25.6962 96.4336 25.5705 96.6995 25.2832C96.983 25.0138 97.1071 24.6727 97.1071 24.2776C97.1071 24.0083 97.0362 23.7569 96.8767 23.5414C96.7704 23.3798 96.4868 23.1284 95.8487 22.7872C95.3525 22.5179 95.0157 22.3024 94.8385 22.0869C94.6435 21.8535 94.5549 21.6021 94.5549 21.3327C94.5549 21.0275 94.679 20.7401 94.9271 20.5247C95.4411 20.0398 96.2209 20.0937 96.9299 20.6683L96.9653 20.6324C96.5754 20.3092 96.1855 20.1476 95.8133 20.1476C95.4411 20.1476 95.1398 20.2553 94.8917 20.5067C94.6613 20.7401 94.5372 21.0275 94.5372 21.3866C94.5372 21.6559 94.6081 21.9073 94.7676 22.1228C94.8739 22.2844 95.1398 22.5179 95.7247 22.8411C96.2741 23.1284 96.5931 23.3439 96.7704 23.5414C96.9653 23.7748 97.0539 24.0442 97.0539 24.3315C97.0539 24.6906 96.9121 24.9959 96.6286 25.2652C96.3627 25.5166 96.026 25.6423 95.6361 25.6423C95.2107 25.6423 94.803 25.4807 94.4309 25.1395L94.3777 25.2114V25.1754Z" fill="#0A9447"/>
<path d="M99.0567 19.9497H99.8011V21.0271C100.102 20.6141 100.439 20.3088 100.829 20.0933C101.219 19.8958 101.644 19.7881 102.123 19.7881C102.956 19.7881 103.665 20.0933 104.25 20.6859C104.835 21.2964 105.136 22.0147 105.136 22.8766C105.136 23.7385 104.852 24.4748 104.267 25.0853C103.683 25.6958 102.974 26.0011 102.158 26.0011C101.698 26.0011 101.272 25.9113 100.882 25.7138C100.492 25.5163 100.138 25.229 99.8365 24.8339V28.0122H99.0921V19.9497H99.0567ZM102.052 20.5243C101.396 20.5243 100.865 20.7577 100.421 21.2067C99.9783 21.6735 99.7479 22.2302 99.7479 22.9125C99.7479 23.3615 99.8543 23.7565 100.049 24.1156C100.244 24.4748 100.528 24.7621 100.9 24.9596C101.272 25.1751 101.662 25.2828 102.07 25.2828C102.477 25.2828 102.85 25.1751 103.204 24.9596C103.558 24.7441 103.842 24.4568 104.055 24.0797C104.267 23.7026 104.374 23.3076 104.374 22.8946C104.374 22.4816 104.267 22.0865 104.055 21.7094C103.842 21.3324 103.558 21.0451 103.222 20.8296C102.867 20.6141 102.477 20.5243 102.07 20.5243H102.052Z" fill="#009345"/>
<path d="M100.12 28.3535H98.72V19.6266H100.12V20.2012C100.297 20.0575 100.475 19.9318 100.67 19.8241C101.095 19.5906 101.591 19.4829 102.105 19.4829C103.027 19.4829 103.807 19.8241 104.462 20.4885C105.118 21.1529 105.437 21.9609 105.437 22.8947C105.437 23.8284 105.118 24.6724 104.462 25.3368C103.824 26.0012 103.027 26.3424 102.123 26.3424C101.609 26.3424 101.13 26.2346 100.705 26.0191C100.492 25.9114 100.297 25.7857 100.12 25.642V28.3535ZM99.3757 27.7071H99.4821V23.9541L99.7302 24.2594C99.5353 23.8643 99.4289 23.4334 99.4289 22.9485C99.4289 22.5535 99.4998 22.1764 99.6416 21.8352L99.4821 22.0507V20.291H99.3757V27.7071ZM100.811 25.3368C100.811 25.3368 100.935 25.4086 101.006 25.4445C101.343 25.6241 101.733 25.6959 102.141 25.6959C102.885 25.6959 103.505 25.4266 104.019 24.8879C104.551 24.3312 104.799 23.6848 104.799 22.8947C104.799 22.1046 104.533 21.4941 104.002 20.9374C103.47 20.3987 102.85 20.1293 102.105 20.1293C101.68 20.1293 101.308 20.2191 100.971 20.3987C100.865 20.4526 100.758 20.5244 100.652 20.5962C101.059 20.3269 101.52 20.2012 102.034 20.2012C102.513 20.2012 102.956 20.3269 103.346 20.5603C103.753 20.7937 104.072 21.1349 104.303 21.5659C104.533 21.9968 104.657 22.4458 104.657 22.9126C104.657 23.3795 104.533 23.8464 104.303 24.2594C104.072 24.6903 103.736 25.0315 103.346 25.265C102.566 25.7318 101.609 25.7498 100.794 25.3188L100.811 25.3368ZM102.052 20.8835C101.485 20.8835 101.024 21.0811 100.652 21.4761C100.262 21.8711 100.085 22.356 100.085 22.9665C100.085 23.3615 100.173 23.7027 100.333 24.008C100.51 24.3133 100.74 24.5467 101.059 24.7263C101.698 25.0854 102.424 25.1033 103.045 24.7263C103.346 24.5467 103.594 24.2953 103.771 23.9541C103.948 23.6129 104.037 23.2897 104.037 22.9126C104.037 22.5355 103.948 22.2123 103.771 21.8711C103.594 21.5479 103.346 21.2965 103.045 21.117C102.743 20.9374 102.406 20.8476 102.052 20.8476V20.8835Z" fill="#0A9447"/>
<path d="M107.068 17.5259C107.245 17.5259 107.387 17.5797 107.511 17.7054C107.635 17.8311 107.688 17.9748 107.688 18.1544C107.688 18.3339 107.635 18.4776 107.511 18.5853C107.387 18.711 107.245 18.7649 107.068 18.7649C106.891 18.7649 106.749 18.711 106.642 18.5853C106.518 18.4596 106.465 18.316 106.465 18.1544C106.465 17.9928 106.518 17.8311 106.642 17.7054C106.766 17.5797 106.908 17.5259 107.068 17.5259ZM106.696 19.95H107.44V25.8578H106.696V19.95Z" fill="#009345"/>
<path d="M107.759 26.1809H106.359V19.6267H107.759V26.1809ZM107.015 25.5345H107.121V20.2732H107.015V25.5345ZM107.068 19.106C106.82 19.106 106.589 19.0162 106.412 18.8187C106.235 18.6391 106.146 18.4057 106.146 18.1543C106.146 17.9029 106.235 17.6694 106.43 17.4719C106.784 17.0948 107.404 17.1128 107.759 17.4719C107.936 17.6515 108.043 17.8849 108.043 18.1543C108.043 18.4236 107.954 18.6391 107.759 18.8187C107.582 18.9982 107.351 19.106 107.085 19.106H107.068ZM107.068 17.849C107.068 17.849 106.926 17.8849 106.855 17.9388C106.802 17.9927 106.766 18.0645 106.766 18.1543C106.766 18.2441 106.802 18.2979 106.855 18.3698C106.979 18.4955 107.156 18.4955 107.263 18.3698C107.316 18.3159 107.351 18.2441 107.351 18.1543C107.351 18.0645 107.316 17.9927 107.263 17.9388C107.21 17.8849 107.139 17.849 107.05 17.849H107.068Z" fill="#0A9447"/>
<path d="M109.921 17.7593H110.666V19.95H111.853V20.6144H110.666V25.8577H109.921V20.6144H108.893V19.95H109.921V17.7593Z" fill="#009345"/>
<path d="M111.002 26.1809H109.602V20.9376H108.574V19.6267H109.602V17.436H111.002V19.6267H112.19V20.9376H111.002V26.1809ZM110.258 25.5345H110.364V20.2911V18.1004H110.258V20.2911V25.5345Z" fill="#0A9447"/>
<path d="M119.067 19.9497V25.8574H118.322V24.8339C118.003 25.229 117.649 25.5163 117.259 25.7138C116.869 25.9113 116.443 26.0011 115.983 26.0011C115.15 26.0011 114.458 25.6958 113.874 25.0853C113.289 24.4748 113.005 23.7385 113.005 22.8766C113.005 22.0147 113.306 21.2964 113.891 20.6859C114.476 20.0754 115.185 19.7881 116.018 19.7881C116.497 19.7881 116.922 19.8958 117.312 20.0933C117.702 20.2909 118.039 20.6141 118.34 21.0271V19.9497H119.084H119.067ZM116.071 20.5243C115.646 20.5243 115.274 20.632 114.919 20.8296C114.565 21.0451 114.281 21.3324 114.069 21.7094C113.856 22.0865 113.75 22.4816 113.75 22.8946C113.75 23.3076 113.856 23.7026 114.069 24.0797C114.281 24.4568 114.565 24.7621 114.919 24.9596C115.274 25.1751 115.664 25.2828 116.054 25.2828C116.443 25.2828 116.851 25.1751 117.223 24.9596C117.596 24.7441 117.879 24.4748 118.074 24.1156C118.269 23.7565 118.375 23.3615 118.375 22.9125C118.375 22.2302 118.145 21.6556 117.702 21.2067C117.259 20.7398 116.709 20.5243 116.054 20.5243H116.071Z" fill="#009345"/>
<path d="M116 26.3424C115.096 26.3424 114.299 26.0012 113.661 25.3368C113.023 24.6724 112.686 23.8464 112.686 22.8947C112.686 21.943 113.023 21.1529 113.661 20.4885C114.317 19.8241 115.096 19.4829 116.018 19.4829C116.55 19.4829 117.028 19.5906 117.471 19.8241C117.666 19.9318 117.844 20.0575 118.021 20.2012V19.6266H119.403V26.1807H118.021V25.6241C117.826 25.7857 117.631 25.9114 117.418 26.0012C116.975 26.2167 116.497 26.3244 116 26.3244V26.3424ZM116.018 20.1293C115.274 20.1293 114.653 20.3987 114.122 20.9374C113.59 21.4761 113.324 22.1225 113.324 22.8947C113.324 23.6668 113.572 24.3312 114.104 24.8879C114.636 25.4266 115.238 25.6959 115.983 25.6959C116.39 25.6959 116.78 25.6061 117.117 25.4445C117.188 25.4086 117.241 25.3727 117.312 25.3368C116.497 25.7677 115.54 25.7677 114.742 25.3009C114.334 25.0674 114.015 24.7263 113.785 24.2953C113.555 23.8643 113.43 23.4154 113.43 22.9485C113.43 22.4817 113.555 22.0148 113.785 21.6018C114.015 21.1708 114.352 20.8476 114.742 20.5962C115.15 20.3628 115.593 20.2371 116.054 20.2371C116.603 20.2371 117.082 20.3807 117.507 20.668C117.383 20.5783 117.276 20.4885 117.135 20.4346C116.798 20.255 116.408 20.1653 115.983 20.1653L116.018 20.1293ZM118.659 25.5343H118.748V20.273H118.659V22.0507L118.499 21.8173C118.641 22.1585 118.712 22.5355 118.712 22.9306C118.712 23.4154 118.606 23.8643 118.393 24.2594L118.659 23.9182V25.5163V25.5343ZM116.071 20.8656C115.717 20.8656 115.38 20.9554 115.079 21.1349C114.777 21.3145 114.529 21.5659 114.352 21.8891C114.175 22.2123 114.086 22.5535 114.086 22.9306C114.086 23.3077 114.175 23.6309 114.352 23.9721C114.529 24.2953 114.777 24.5467 115.079 24.7442C115.699 25.1213 116.426 25.1033 117.064 24.7442C117.383 24.5646 117.613 24.3312 117.79 24.0259C117.968 23.7207 118.039 23.3615 118.039 22.9845C118.039 22.3919 117.844 21.9071 117.471 21.4941C117.082 21.099 116.621 20.9015 116.054 20.9015L116.071 20.8656Z" fill="#0A9447"/>
<path d="M120.927 17.6694H121.672V25.8577H120.927V17.6694Z" fill="#009345"/>
<path d="M121.991 26.1809H120.591V17.3462H121.991V26.1809ZM121.247 25.5344H121.353V17.9926H121.247V25.5344Z" fill="#0A9447"/>
<path d="M56.5203 7.32644C57.597 7.32644 58.4699 6.4421 58.4699 5.35121C58.4699 4.26032 57.597 3.37598 56.5203 3.37598C55.4435 3.37598 54.5707 4.26032 54.5707 5.35121C54.5707 6.4421 55.4435 7.32644 56.5203 7.32644Z" fill="#009345"/>
<path d="M56.5203 7.95499C55.1024 7.95499 53.9504 6.78781 53.9504 5.35127C53.9504 3.91474 55.1024 2.74756 56.5203 2.74756C57.9382 2.74756 59.0902 3.91474 59.0902 5.35127C59.0902 6.78781 57.9382 7.95499 56.5203 7.95499ZM56.5203 3.98657C55.7759 3.98657 55.1733 4.59709 55.1733 5.35127C55.1733 6.10545 55.7759 6.71598 56.5203 6.71598C57.2647 6.71598 57.8673 6.10545 57.8673 5.35127C57.8673 4.59709 57.2647 3.98657 56.5203 3.98657Z" fill="#0A9447"/>
<path d="M72.6132 7.32644C73.69 7.32644 74.5628 6.4421 74.5628 5.35121C74.5628 4.26032 73.69 3.37598 72.6132 3.37598C71.5365 3.37598 70.6636 4.26032 70.6636 5.35121C70.6636 6.4421 71.5365 7.32644 72.6132 7.32644Z" fill="#009345"/>
<path d="M72.6132 7.95499C71.1954 7.95499 70.0433 6.78781 70.0433 5.35127C70.0433 3.91474 71.1954 2.74756 72.6132 2.74756C74.0311 2.74756 75.1831 3.91474 75.1831 5.35127C75.1831 6.78781 74.0311 7.95499 72.6132 7.95499ZM72.6132 3.98657C71.8689 3.98657 71.2663 4.59709 71.2663 5.35127C71.2663 6.10545 71.8689 6.71598 72.6132 6.71598C73.3576 6.71598 73.9602 6.10545 73.9602 5.35127C73.9602 4.59709 73.3576 3.98657 72.6132 3.98657Z" fill="#0A9447"/>
</g>
<defs>
<clipPath id="clip0_705_25072">
<rect width="135" height="29" fill="white"/>
</clipPath>
</defs>
</svg>
