<svg width="49" height="27" viewBox="0 0 49 27" fill="none" xmlns="http://www.w3.org/2000/svg">
<path d="M-0.000184715 21.5464L0.310917 18.4118C0.452477 16.9855 1.29745 15.897 2.84583 15.1462C4.39421 14.3955 6.36254 14.1386 8.7508 14.3756C9.18202 14.4184 9.59583 14.4679 9.99222 14.524C10.3886 14.5801 10.766 14.6594 11.1243 14.7619C10.5907 15.4124 10.17 16.1076 9.86211 16.8475C9.5542 17.5873 9.3591 18.3719 9.27679 19.2012L8.95581 22.4353L-0.000184715 21.5464ZM11.9411 22.7316L12.2621 19.4975C12.3675 18.436 12.754 17.4946 13.4217 16.6732C14.0895 15.8518 14.987 15.162 16.1143 14.604C17.2415 14.0459 18.5597 13.6743 20.0687 13.4891C21.5777 13.3039 23.1946 13.2969 24.9195 13.4681C26.6775 13.6425 28.2781 13.9689 29.7213 14.4471C31.1644 14.9253 32.3838 15.5488 33.3794 16.3175C34.375 17.0863 35.1112 17.9381 35.5878 18.8731C36.0645 19.8081 36.2501 20.8063 36.1448 21.8678L35.8238 25.1019L11.9411 22.7316ZM38.8091 25.3982L39.1301 22.1641C39.2157 21.3016 39.1886 20.4782 39.0487 19.6939C38.9088 18.9096 38.6562 18.1644 38.2908 17.4581C38.6622 17.428 39.0395 17.4236 39.4226 17.4449C39.8057 17.4661 40.1963 17.4965 40.5944 17.536C42.9826 17.7731 44.8629 18.4035 46.2351 19.4274C47.6074 20.4512 48.2211 21.6929 48.0762 23.1524L47.7651 26.287L38.8091 25.3982ZM8.94833 12.3854C7.85371 12.2768 6.95533 11.794 6.25319 10.9372C5.55105 10.0803 5.2543 9.10454 5.36294 8.00992C5.47487 6.88213 5.95844 5.97545 6.81366 5.2899C7.66889 4.60434 8.64381 4.31589 9.73843 4.42452C10.8662 4.53646 11.7737 5.01174 12.4609 5.85038C13.1481 6.68901 13.4358 7.67223 13.3238 8.80002C13.2152 9.89464 12.7407 10.7938 11.9004 11.4976C11.0602 12.2014 10.0761 12.4973 8.94833 12.3854ZM40.7919 15.5458C39.6973 15.4372 38.7989 14.9544 38.0967 14.0976C37.3946 13.2407 37.0979 12.2649 37.2065 11.1703C37.3184 10.0425 37.802 9.13585 38.6572 8.4503C39.5124 7.76475 40.4874 7.47629 41.582 7.58493C42.7098 7.69686 43.6173 8.17214 44.3045 9.01078C44.9917 9.84941 45.2793 10.8326 45.1674 11.9604C45.0587 13.055 44.5843 13.9542 43.744 14.658C42.9037 15.3618 41.9197 15.6577 40.7919 15.5458ZM25.0676 11.9754C23.4091 11.8108 22.057 11.0904 21.0112 9.81421C19.9655 8.53802 19.5249 7.07067 19.6895 5.41215C19.8574 3.72046 20.5787 2.36004 21.8532 1.33088C23.1277 0.30173 24.5943 -0.130545 26.2528 0.0340592C27.9445 0.201956 29.3057 0.914881 30.3365 2.17284C31.3673 3.43079 31.7988 4.90561 31.6309 6.5973C31.4663 8.25582 30.7542 9.60877 29.4946 10.6562C28.235 11.7035 26.7593 12.1433 25.0676 11.9754Z" fill="#064E3B"/>
</svg>
