<svg width="245" height="245" viewBox="0 0 245 245" fill="none" xmlns="http://www.w3.org/2000/svg">
<g clip-path="url(#clip0_79_370)">
<path d="M195.096 86.9994C175.651 46.7719 127.277 29.9242 87.0493 49.3691C46.8218 68.8139 29.9741 117.188 49.4189 157.415C68.8638 197.643 117.238 214.491 157.465 195.046C197.693 175.601 214.54 127.227 195.096 86.9994Z" fill="#FFF6E8" stroke="#EAC213" stroke-width="6" stroke-miterlimit="10"/>
<path d="M74.5312 167.702C74.8742 167.377 75.286 167.221 75.7664 167.234C76.2468 167.247 76.6496 167.425 76.9748 167.768C77.2946 168.105 77.4481 168.511 77.4354 168.986C77.4199 169.464 77.2392 169.867 76.8933 170.194C76.5474 170.522 76.1398 170.68 75.6704 170.667C75.1955 170.655 74.7968 170.478 74.4743 170.138C74.1465 169.792 73.9889 169.382 74.0016 168.907C74.0088 168.432 74.1853 168.03 74.5312 167.702Z" fill="#204E1C"/>
<path d="M64.7661 145.354L61.627 146.561L62.3906 148.547L65.5297 147.339L66.1502 148.953L58.7727 151.79L58.1522 150.177L61.0562 149.06L60.2926 147.075L57.3887 148.192L56.7682 146.578L64.1456 143.741L64.7661 145.354Z" fill="#204E1C"/>
<path d="M62.0395 137.582L54.2524 138.938L53.2794 133.351L54.5955 133.121L55.272 137.006L57.1423 136.681L56.5271 133.148L57.8432 132.919L58.4584 136.451L60.4268 136.109L59.7091 131.987L61.0253 131.758L62.0395 137.582Z" fill="#204E1C"/>
<path d="M60.338 119.239L60.301 120.961L58.3562 121.458L58.2988 124.13L60.2203 124.71L60.1832 126.438L52.3365 123.673L52.3799 121.658L60.338 119.239ZM53.4243 122.689C53.5877 122.723 53.8325 122.787 54.1587 122.88C54.4811 122.969 55.4302 123.255 57.0061 123.739L57.0479 121.794C55.4291 122.216 54.4606 122.465 54.1425 122.54C53.8245 122.611 53.5851 122.661 53.4243 122.689Z" fill="#204E1C"/>
<path d="M60.795 113.142L53.0742 111.448L53.4446 109.76L59.8604 111.167L60.6338 107.642L61.9387 107.928L60.795 113.142Z" fill="#204E1C"/>
<path d="M58.9732 95.8287L64.9921 98.4586L64.3 100.042L58.2811 97.4126L57.3287 99.5925L56.1045 99.0576L58.7015 93.1139L59.9257 93.6488L58.9732 95.8287Z" fill="#204E1C"/>
<path d="M70.8065 87.6488L68.0461 85.7273L66.831 87.473L69.5913 89.3945L68.6038 90.8131L62.1165 86.2973L63.104 84.8786L65.6576 86.6562L66.8727 84.9105L64.3192 83.133L65.3067 81.7143L71.794 86.2302L70.8065 87.6488Z" fill="#204E1C"/>
<path d="M76.0493 76.1608L78.3176 78.4992L77.0811 79.6986L74.8128 77.3602L69.6261 75.918L70.9257 74.6574L74.4965 75.8139L73.466 72.1933L74.7656 70.9326L76.0493 76.1608Z" fill="#204E1C"/>
<path d="M98.2764 59.2358C98.47 59.7222 98.5297 60.1945 98.4556 60.6528C98.3801 61.1075 98.1715 61.5184 97.8299 61.8856C97.4919 62.2513 97.0308 62.5504 96.4464 62.7829L95.3739 63.2096L96.4051 65.8011L94.799 66.4401L91.8767 59.0959L94.49 58.0561C95.4227 57.6849 96.211 57.6004 96.8548 57.8025C97.5007 57.9995 97.9746 58.4773 98.2764 59.2358ZM96.6703 59.9064C96.5129 59.5108 96.2812 59.2772 95.9753 59.2056C95.6715 59.1289 95.2818 59.1851 94.8064 59.3743L93.9789 59.7036L94.8822 61.9738L95.7533 61.6272C96.2324 61.4366 96.5436 61.1992 96.687 60.9151C96.829 60.6274 96.8234 60.2912 96.6703 59.9064Z" fill="#204E1C"/>
<path d="M106.139 62.1929L104.696 54.4214L110.273 53.3861L110.517 54.6996L106.64 55.4194L106.986 57.286L110.512 56.6314L110.756 57.9449L107.23 58.5994L107.595 60.5639L111.708 59.8002L111.952 61.1137L106.139 62.1929Z" fill="#204E1C"/>
<path d="M121.784 53.6949L121.717 60.2629L119.989 60.2453L120.055 53.6773L117.677 53.6532L117.69 52.3173L124.176 52.3832L124.163 53.7191L121.784 53.6949Z" fill="#204E1C"/>
<path d="M136.501 59.5696C136.348 60.304 135.947 60.8232 135.298 61.1273C134.653 61.4283 133.831 61.4752 132.833 61.2681C131.934 61.0816 131.241 60.7403 130.753 60.2442C130.266 59.7481 130.017 59.1219 130.006 58.3657L131.685 58.4927C131.699 58.8705 131.823 59.1935 132.059 59.4618C132.295 59.7263 132.656 59.9089 133.142 60.0097C133.647 60.1145 134.036 60.1115 134.311 60.0009C134.589 59.891 134.763 59.6659 134.834 59.3255C134.886 59.0731 134.823 58.8386 134.645 58.622C134.467 58.4016 134.184 58.1993 133.795 58.0149C133.014 57.6454 132.468 57.3526 132.158 57.1367C131.853 56.9177 131.617 56.6953 131.453 56.4697C131.288 56.244 131.176 55.9973 131.116 55.7295C131.06 55.4587 131.064 55.1703 131.128 54.8643C131.267 54.1949 131.644 53.7208 132.261 53.4417C132.881 53.1635 133.631 53.1157 134.511 53.2982C135.367 53.476 136.001 53.785 136.413 54.2255C136.825 54.662 137.028 55.2507 137.022 55.9915L135.346 55.8174C135.323 55.0825 134.95 54.6401 134.227 54.4901C133.822 54.406 133.496 54.4182 133.25 54.5268C133.005 54.6315 132.853 54.8254 132.794 55.1084C132.756 55.2958 132.775 55.4633 132.852 55.611C132.93 55.7548 133.047 55.889 133.205 56.0134C133.367 56.1349 133.707 56.3231 134.225 56.5781C134.907 56.9032 135.419 57.2149 135.76 57.5131C136.102 57.8074 136.331 58.1262 136.448 58.4695C136.564 58.8128 136.582 59.1795 136.501 59.5696Z" fill="#204E1C"/>
<path d="M146.073 62.3295L144.832 61.8044L146.766 56.7505L148.353 57.4218L146.073 62.3295ZM143.687 64.0301L144.303 62.5731L145.857 63.2307L145.241 64.6876L143.687 64.0301Z" fill="#204E1C"/>
<path d="M168.823 75.5877C168.487 75.9207 168.079 76.0863 167.599 76.0845C167.118 76.0828 166.711 75.9142 166.378 75.5787C166.051 75.2488 165.888 74.8463 165.89 74.3712C165.894 73.8934 166.066 73.4866 166.404 73.1509C166.742 72.8151 167.146 72.6481 167.616 72.6499C168.091 72.6516 168.493 72.8189 168.824 73.1515C169.159 73.4898 169.326 73.8964 169.325 74.3715C169.328 74.8466 169.161 75.252 168.823 75.5877Z" fill="#204E1C"/>
<path d="M182.754 109.179L186.053 108.526L185.64 106.439L182.341 107.093L182.005 105.398L189.758 103.861L190.094 105.557L187.042 106.161L187.456 108.248L190.508 107.643L190.844 109.339L183.09 110.875L182.754 109.179Z" fill="#204E1C"/>
<path d="M184.128 123.695L184.126 121.973L186.058 121.43L186.054 118.758L184.119 118.223L184.116 116.494L192.025 119.076L192.028 121.092L184.128 123.695ZM190.96 120.086C190.796 120.055 190.55 119.997 190.222 119.911C189.897 119.83 188.942 119.566 187.355 119.119L187.358 121.065C188.967 120.605 189.929 120.334 190.246 120.251C190.562 120.173 190.8 120.118 190.96 120.086Z" fill="#204E1C"/>
<path d="M188.082 136.183C187.568 136.083 187.139 135.878 186.793 135.568C186.451 135.259 186.219 134.861 186.094 134.375C185.97 133.893 185.967 133.343 186.088 132.726L186.308 131.593L183.571 131.059L183.902 129.363L191.66 130.875L191.122 133.636C190.93 134.621 190.575 135.33 190.056 135.762C189.541 136.199 188.883 136.34 188.082 136.183ZM188.386 134.47C188.804 134.551 189.126 134.483 189.352 134.264C189.58 134.05 189.744 133.692 189.842 133.189L190.012 132.315L187.614 131.848L187.435 132.768C187.336 133.274 187.367 133.664 187.529 133.938C187.694 134.213 187.98 134.39 188.386 134.47Z" fill="#204E1C"/>
<path d="M184.117 148.704C183.633 148.505 183.251 148.22 182.973 147.849C182.698 147.479 182.547 147.043 182.52 146.543C182.491 146.045 182.596 145.506 182.835 144.924L183.272 143.856L180.691 142.799L181.346 141.199L188.661 144.195L187.595 146.798C187.215 147.727 186.728 148.353 186.136 148.676C185.545 149.004 184.873 149.013 184.117 148.704ZM184.749 147.082C185.143 147.243 185.472 147.239 185.736 147.068C186.003 146.903 186.233 146.584 186.427 146.11L186.764 145.286L184.503 144.36L184.148 145.227C183.952 145.705 183.907 146.093 184.012 146.394C184.12 146.696 184.366 146.925 184.749 147.082Z" fill="#204E1C"/>
<path d="M177.241 157.123L174.523 155.325L175.474 153.889L178.191 155.686L183.566 155.982L182.567 157.492L178.832 157.128L180.615 160.443L179.616 161.954L177.241 157.123Z" fill="#204E1C"/>
<path d="M157.995 172.734L159.442 171.747L166.142 176.745L164.651 177.762L160.965 174.78C160.684 174.555 160.272 174.207 159.728 173.737L159.91 174.222L160.258 175.262L161.694 179.779L160.217 180.786L157.995 172.734Z" fill="#204E1C"/>
<path d="M150.909 177.282L154.004 184.555L148.785 186.776L148.262 185.547L151.89 184.003L151.147 182.256L147.847 183.66L147.324 182.43L150.624 181.027L149.842 179.188L145.992 180.826L145.469 179.597L150.909 177.282Z" fill="#204E1C"/>
<path d="M137.458 188.959L136.106 182.532L137.798 182.176L139.149 188.604L141.477 188.114L141.752 189.421L135.405 190.756L135.13 189.449L137.458 188.959Z" fill="#204E1C"/>
<path d="M121.845 186.4C121.835 185.65 122.114 185.057 122.682 184.619C123.247 184.186 124.039 183.962 125.058 183.948C125.976 183.936 126.727 184.119 127.31 184.498C127.893 184.877 128.272 185.434 128.446 186.17L126.779 186.41C126.685 186.044 126.493 185.755 126.205 185.544C125.917 185.337 125.525 185.237 125.029 185.244C124.513 185.251 124.134 185.338 123.89 185.505C123.642 185.673 123.521 185.93 123.525 186.278C123.529 186.536 123.641 186.751 123.862 186.924C124.083 187.101 124.404 187.237 124.823 187.333C125.665 187.524 126.262 187.692 126.611 187.836C126.957 187.984 127.235 188.15 127.444 188.334C127.654 188.519 127.817 188.736 127.934 188.984C128.046 189.236 128.105 189.519 128.109 189.831C128.118 190.515 127.852 191.06 127.311 191.465C126.766 191.871 126.044 192.08 125.145 192.092C124.271 192.104 123.585 191.94 123.088 191.599C122.591 191.262 122.265 190.731 122.111 190.007L123.784 189.814C123.966 190.526 124.426 190.878 125.164 190.868C125.578 190.862 125.893 190.779 126.11 190.62C126.327 190.465 126.433 190.243 126.429 189.954C126.426 189.762 126.372 189.603 126.264 189.475C126.157 189.352 126.013 189.246 125.832 189.159C125.647 189.076 125.275 188.965 124.714 188.828C123.978 188.659 123.41 188.465 123.013 188.248C122.616 188.035 122.323 187.773 122.135 187.463C121.947 187.153 121.851 186.799 121.845 186.4Z" fill="#204E1C"/>
<path d="M111.859 185.781L113.184 186.024L112.394 191.377L110.7 191.067L111.859 185.781ZM113.819 183.603L113.534 185.159L111.874 184.855L112.159 183.298L113.819 183.603Z" fill="#204E1C"/>
<path d="M142.362 78.4344C118.184 67.3283 89.5818 77.9245 78.4758 102.102C67.3698 126.279 77.966 154.881 102.143 165.987C126.32 177.094 154.923 166.497 166.029 142.32C177.135 118.143 166.539 89.5404 142.362 78.4344Z" fill="#FFDD00"/>
<path d="M102.637 130.847C105.124 133.035 105.378 136.834 103.186 139.332C100.998 141.82 97.1991 142.073 94.7007 139.881C92.2131 137.693 91.9597 133.895 94.1516 131.396C96.3397 128.909 100.138 128.655 102.637 130.847Z" fill="#204E1C"/>
<path d="M135.193 93.8047C137.681 95.9928 137.934 99.7914 135.743 102.29C133.555 104.777 129.756 105.031 127.257 102.839C124.77 100.651 124.516 96.8522 126.708 94.3538C128.896 91.8662 132.695 91.6128 135.193 93.8047Z" fill="#204E1C"/>
<path d="M138.234 136.358C132.589 142.782 122.767 143.411 116.342 137.766L118.107 135.762C123.426 140.44 131.552 139.911 136.23 134.592C140.908 129.274 140.379 121.147 135.06 116.47L136.825 114.465C143.25 120.11 143.879 129.933 138.234 136.358Z" fill="#204E1C"/>
<path d="M140.687 114.901C138.256 117.668 134.026 117.941 131.26 115.51L133.025 113.505C134.686 114.969 137.219 114.796 138.679 113.146L140.683 114.912L140.687 114.901Z" fill="#204E1C"/>
<path d="M117.387 141.416L115.382 139.651C116.846 137.991 116.673 135.457 115.023 133.997L116.789 131.993C119.555 134.423 119.828 138.653 117.397 141.42L117.387 141.416Z" fill="#204E1C"/>
</g>
<defs>
<clipPath id="clip0_79_370">
<rect width="191.919" height="191.896" fill="white" transform="translate(0 181.241) rotate(-70.7978)"/>
</clipPath>
</defs>
</svg>
