<svg width="33" height="40" viewBox="0 0 33 40" fill="none" xmlns="http://www.w3.org/2000/svg">
<path d="M12.5255 26.7891L18.5161 27.1258L18.7966 22.1337L23.7888 22.4143L24.1254 16.4237L19.1333 16.1432L19.4139 11.151L13.4233 10.8144L13.1428 15.8065L8.15064 15.5259L7.81397 21.5165L12.8061 21.797L12.5255 26.7891ZM14.7914 39.937C10.2308 38.5122 6.56097 35.6434 3.78192 31.3307C1.00287 27.018 -0.2445 22.3322 0.0397998 17.2736L0.724364 5.09278L17.0358 2.31862e-05L32.6739 6.88836L31.9894 19.0691C31.7051 24.1278 29.9405 28.6443 26.6958 32.6185C23.451 36.5926 19.4829 39.0322 14.7914 39.937Z" fill="#7D562D"/>
</svg>
