<svg width="42" height="43" viewBox="0 0 42 43" fill="none" xmlns="http://www.w3.org/2000/svg">
<g clip-path="url(#clip0_1902_4895)">
<path d="M32.1562 0H9.84375C4.4072 0 0 4.51213 0 10.0781V32.9219C0 38.4879 4.4072 43 9.84375 43H32.1562C37.5928 43 42 38.4879 42 32.9219V10.0781C42 4.51213 37.5928 0 32.1562 0Z" fill="url(#paint0_radial_1902_4895)"/>
<path d="M32.1562 0H9.84375C4.4072 0 0 4.51213 0 10.0781V32.9219C0 38.4879 4.4072 43 9.84375 43H32.1562C37.5928 43 42 38.4879 42 32.9219V10.0781C42 4.51213 37.5928 0 32.1562 0Z" fill="url(#paint1_radial_1902_4895)"/>
<path d="M21.0015 4.70312C16.5459 4.70312 15.9866 4.72311 14.2367 4.80458C12.4901 4.88655 11.2978 5.16957 10.2547 5.58496C9.17552 6.01395 8.26022 6.5879 7.34836 7.52181C6.43568 8.45555 5.87508 9.39264 5.45475 10.497C5.04788 11.5653 4.7711 12.7865 4.69252 14.5738C4.61426 16.3655 4.59375 16.9383 4.59375 21.5002C4.59375 26.062 4.61344 26.6328 4.69284 28.4243C4.77323 30.2125 5.04968 31.4332 5.45508 32.5011C5.87442 33.606 6.43502 34.5431 7.34721 35.4767C8.25891 36.4111 9.17421 36.9864 10.2526 37.4154C11.2965 37.8308 12.4889 38.1138 14.2352 38.1958C15.9853 38.2772 16.5441 38.2972 20.9995 38.2972C25.4556 38.2972 26.0131 38.2772 27.763 38.1958C29.5096 38.1138 30.7031 37.8308 31.7471 37.4154C32.8258 36.9864 33.7398 36.4111 34.6513 35.4767C35.564 34.5431 36.1244 33.606 36.5449 32.5016C36.9482 31.4332 37.2251 30.2122 37.3072 28.4247C37.3857 26.6331 37.4062 26.062 37.4062 21.5002C37.4062 16.9383 37.3857 16.3659 37.3072 14.5741C37.2251 12.7859 36.9482 11.5655 36.5449 10.4975C36.1244 9.39264 35.564 8.45555 34.6513 7.52181C33.7388 6.58757 32.8261 6.01362 31.7461 5.58513C30.7002 5.16957 29.5073 4.88638 27.7607 4.80458C26.0106 4.72311 25.4535 4.70312 20.9964 4.70312H21.0015ZM19.5297 7.73009C19.9666 7.72942 20.454 7.73009 21.0015 7.73009C25.3821 7.73009 25.9012 7.74621 27.6311 7.82667C29.2307 7.90159 30.0989 8.17521 30.6772 8.40516C31.4429 8.70952 31.9887 9.0735 32.5626 9.66156C33.1369 10.2495 33.4922 10.8093 33.7903 11.5932C34.0149 12.1845 34.2825 13.0733 34.3553 14.711C34.4339 16.4818 34.451 17.0136 34.451 21.4963C34.451 25.9791 34.4339 26.511 34.3553 28.2816C34.2822 29.9193 34.0149 30.8082 33.7903 31.3996C33.493 32.1835 33.1369 32.7416 32.5626 33.3292C31.9884 33.9171 31.4432 34.2809 30.6772 34.5854C30.0996 34.8164 29.2307 35.0893 27.6311 35.1643C25.9015 35.2447 25.3821 35.2622 21.0015 35.2622C16.6207 35.2622 16.1014 35.2447 14.372 35.1643C12.7724 35.0887 11.9042 34.8151 11.3254 34.5851C10.5599 34.2806 10.0129 33.9168 9.43868 33.3289C8.86446 32.741 8.5091 32.1825 8.211 31.3982C7.9864 30.8068 7.71881 29.9179 7.64597 28.2802C7.56738 26.5095 7.55163 25.9777 7.55163 21.4921C7.55163 17.0065 7.56738 16.4776 7.64597 14.7068C7.71914 13.0691 7.9864 12.1803 8.211 11.5882C8.50845 10.8043 8.86446 10.2444 9.43884 9.65652C10.0132 9.06863 10.5599 8.70464 11.3256 8.39961C11.9039 8.16866 12.7724 7.89571 14.372 7.82046C15.8855 7.75041 16.472 7.72942 19.5297 7.72589V7.73009ZM29.7591 10.519C28.6722 10.519 27.7904 11.421 27.7904 12.534C27.7904 13.6468 28.6722 14.5496 29.7591 14.5496C30.846 14.5496 31.7279 13.6468 31.7279 12.534C31.7279 11.4212 30.846 10.5184 29.7591 10.5184V10.519ZM21.0015 12.8741C16.3487 12.8741 12.5762 16.7364 12.5762 21.5002C12.5762 26.2639 16.3487 30.1244 21.0015 30.1244C25.6545 30.1244 29.4256 26.2639 29.4256 21.5002C29.4256 16.7366 25.6541 12.8741 21.0011 12.8741H21.0015ZM21.0015 15.9011C24.0217 15.9011 26.4703 18.4077 26.4703 21.5002C26.4703 24.5923 24.0217 27.0992 21.0015 27.0992C17.9813 27.0992 15.5328 24.5923 15.5328 21.5002C15.5328 18.4077 17.9811 15.9011 21.0015 15.9011Z" fill="white"/>
</g>
<defs>
<radialGradient id="paint0_radial_1902_4895" cx="0" cy="0" r="1" gradientUnits="userSpaceOnUse" gradientTransform="translate(11.1562 46.3118) rotate(-90) scale(42.6162 38.7146)">
<stop stop-color="#FFDD55"/>
<stop offset="0.1" stop-color="#FFDD55"/>
<stop offset="0.5" stop-color="#FF543E"/>
<stop offset="1" stop-color="#C837AB"/>
</radialGradient>
<radialGradient id="paint1_radial_1902_4895" cx="0" cy="0" r="1" gradientTransform="matrix(3.65227 18.6791 -75.2052 15.4132 -7.03514 3.09761)" gradientUnits="userSpaceOnUse">
<stop stop-color="#3771C8"/>
<stop offset="0.128" stop-color="#3771C8"/>
<stop offset="1" stop-color="#6600FF" stop-opacity="0"/>
</radialGradient>
<clipPath id="clip0_1902_4895">
<rect width="42" height="43" fill="white"/>
</clipPath>
</defs>
</svg>
