<svg width="163" height="36" viewBox="0 0 163 36" fill="none" xmlns="http://www.w3.org/2000/svg">
<path d="M3.05753 34.4356C2.86579 34.4457 2.64192 34.3012 2.38592 34.0022C2.12992 33.7032 2.00637 33.4092 2.01526 33.1204C2.01913 32.7357 2.0981 32.1788 2.25215 31.4497C2.40621 30.7206 2.5836 29.9783 2.78433 29.2228C2.98507 28.4673 3.17 27.8688 3.33913 27.4273C3.4149 27.0388 3.48688 26.6926 3.55506 26.3886C3.62324 26.0846 3.66681 25.884 3.68575 25.7869C3.75263 25.6873 3.85328 25.4297 3.98772 25.014C4.12215 24.5984 4.22725 24.1964 4.30302 23.8079C4.34091 23.6136 4.42361 23.2428 4.55114 22.6954C4.67866 22.148 4.83743 21.5088 5.02743 20.7778C5.21744 20.0469 5.40807 19.3279 5.59934 18.6209C5.7906 17.914 5.9563 17.2924 6.09643 16.7564C6.23657 16.2203 6.32621 15.8671 6.36535 15.6968C6.54201 15.3992 6.67137 15.116 6.75342 14.8474C6.83548 14.5787 6.88597 14.3958 6.90492 14.2987C7.04369 14.1953 7.12098 14.0651 7.13679 13.908C7.15259 13.751 7.15798 13.6245 7.15296 13.5286C7.14667 13.4088 7.18359 13.3107 7.26371 13.2344C7.34383 13.1581 7.38137 13.0721 7.37635 12.9762C7.46845 12.8993 7.5224 12.7823 7.5382 12.6252C7.55401 12.4682 7.61869 12.3266 7.73224 12.2005L7.87996 11.5799L9.99917 11.4328C9.96631 11.7229 9.91293 12.0802 9.83905 12.5047C9.76516 12.9291 9.56668 13.4983 9.24359 14.2122C9.14888 14.6978 9.03368 15.1364 8.89799 15.5281C8.7623 15.9197 8.70958 16.1748 8.73983 16.2934C8.6944 16.3438 8.6051 16.5888 8.47193 17.0284C8.33875 17.468 8.18663 18.0047 8.01557 18.6385C7.8445 19.2723 7.67344 19.9061 7.50238 20.54C7.33132 21.1738 7.18014 21.7285 7.04884 22.204C6.91755 22.6795 6.83108 22.9784 6.78942 23.1008C6.61778 23.4943 6.4316 24.0688 6.23086 24.8244C6.03013 25.5799 5.72338 26.6054 5.31061 27.9008C5.13897 28.2943 4.93544 28.8817 4.70001 29.6631C4.46458 30.4445 4.27931 31.1512 4.1442 31.7831C3.92955 32.7317 3.77803 33.3945 3.68964 33.7717C3.60126 34.1488 3.52206 34.3572 3.45204 34.3969C3.38203 34.4367 3.25052 34.4496 3.05753 34.4356ZM2.22221 12.994C1.55239 13.0531 1.05319 13.0432 0.724607 12.9643C0.396027 12.8854 0.269623 12.6517 0.345394 12.2632C0.402223 11.9718 0.546704 11.7479 0.778839 11.5916C1.01097 11.4352 1.35284 11.3092 1.80445 11.2134C2.06558 11.1516 2.40397 11.0738 2.81963 10.9799C3.23528 10.8861 3.63296 10.7931 4.01267 10.7011C4.79856 10.5638 5.44727 10.4457 5.95879 10.3468C6.47032 10.2479 7.00045 10.16 7.54918 10.0832C8.09791 10.0064 8.79044 9.922 9.62678 9.8301C10.3193 9.74574 10.9103 9.67271 11.3997 9.61101C11.8892 9.54931 12.1339 9.51846 12.1339 9.51846C12.2058 9.51469 12.4587 9.52547 12.8926 9.5508C13.3266 9.57612 13.7971 9.61155 14.3041 9.65707C14.8112 9.7026 15.1871 9.76701 15.4318 9.85032C15.9893 9.94127 16.3996 10.088 16.6625 10.2905C16.9255 10.493 17.1156 10.7955 17.2328 11.1979C17.3198 11.4817 17.3289 11.6555 17.2601 11.7192C17.1914 11.7829 17.0636 11.8677 16.8769 11.9736C16.3344 12.1703 15.9314 12.2755 15.6678 12.2893C15.4041 12.3031 15.1014 12.2589 14.7596 12.1567C14.6335 12.0431 14.49 11.9425 14.3292 11.8548C14.1684 11.7671 13.9007 11.703 13.526 11.6625C13.1514 11.6221 12.5674 11.5986 11.7739 11.5921C11.1066 11.6992 10.5213 11.7659 10.018 11.7923C9.5147 11.8187 9.26619 11.8918 9.27247 12.0116L7.15703 12.2307L5.40487 12.5027C5.16645 12.5393 4.83248 12.5868 4.40296 12.6454C3.97343 12.7039 3.55589 12.7618 3.15034 12.8192C2.74478 12.8765 2.4354 12.9347 2.22221 12.994ZM17.2172 30.1607C17.0507 30.1935 16.8766 30.1966 16.695 30.1701C16.5133 30.1435 16.3355 30.0747 16.1615 29.9637C15.9597 29.782 15.82 29.6391 15.7424 29.535C15.6649 29.431 15.6378 29.2581 15.6612 29.0166C15.6846 28.775 15.743 28.3995 15.8365 27.8899C15.9362 27.5001 16.0521 26.9593 16.184 26.2675C16.316 25.5756 16.4603 24.8891 16.6168 24.208C16.6686 23.8207 16.7498 23.4199 16.8602 23.0056C16.9707 22.5912 17.0887 22.2065 17.2143 21.8515C17.3399 21.4964 17.4336 21.2211 17.4955 21.0256C17.6521 20.3445 17.807 19.7476 17.9604 19.2348C18.1138 18.7221 18.305 18.1293 18.5341 17.4564C18.7632 16.7835 19.0406 15.8857 19.3663 14.7631C19.8182 13.2975 20.1622 12.1799 20.3983 11.4105C20.6343 10.6411 20.8091 10.0792 20.9228 9.72477C21.0364 9.37034 21.1121 9.096 21.15 8.90175C21.1399 8.71001 21.1863 8.56339 21.2892 8.46187C21.392 8.36035 21.5273 8.30519 21.6951 8.2964C22.0306 8.27881 22.3087 8.42646 22.5294 8.73934C22.7501 9.05222 22.896 9.4291 22.9672 9.86998C23.0383 10.3109 22.9881 10.7281 22.8165 11.1216C22.4782 12.0045 22.1245 13.0504 21.7552 14.2594C21.386 15.4684 21.0275 16.6528 20.6797 17.8126C20.3319 18.9724 19.999 19.9571 19.681 20.7669C19.686 20.8628 19.6588 21.0324 19.5995 21.2759C19.5401 21.5193 19.4676 21.7394 19.3817 21.9362C19.2959 22.1329 19.2155 22.3174 19.1404 22.4896C19.0653 22.6617 19.0277 22.7478 19.0277 22.7478C19.0328 22.8437 19.0062 23.0253 18.9481 23.2927C18.8901 23.5601 18.8111 23.8887 18.7114 24.2785C18.6306 24.5711 18.5362 24.9485 18.4283 25.4108C18.3203 25.8731 18.2505 26.2613 18.2189 26.5754C18.3275 26.3534 18.5622 26.0167 18.923 25.5651C19.2839 25.1136 19.6239 24.7233 19.9431 24.3942C20.309 24.0385 20.721 23.6444 21.179 23.2119C21.637 22.7793 22.0047 22.4596 22.2823 22.2528C22.5598 22.046 22.8084 21.8587 23.0279 21.691C23.2474 21.5233 23.3572 21.4394 23.3572 21.4394C23.3522 21.3436 23.3913 21.2874 23.4745 21.2711C23.5578 21.2547 23.6474 21.244 23.7432 21.2389C23.8391 21.2339 23.8924 21.2191 23.9031 21.1945C23.9138 21.1699 23.9167 21.1097 23.9117 21.0138C23.9054 20.894 24.0376 20.7789 24.3082 20.6686C24.5787 20.5583 24.8982 20.4634 25.2666 20.384C25.6349 20.3047 25.9389 20.2587 26.1786 20.2461C26.4662 20.2311 26.697 20.279 26.8711 20.3901C27.0451 20.5011 27.2747 20.7535 27.5596 21.1471C27.8674 21.5155 28.0773 21.9671 28.1894 22.502C28.3016 23.0368 28.2768 23.5969 28.1153 24.1822C28.1253 24.3739 28.1095 24.6451 28.0678 24.9958C28.0261 25.3464 28.0153 25.7135 28.0354 26.097L27.8799 27.2587L28.4552 27.2286C28.6469 27.2185 28.8282 27.239 28.9991 27.2902C29.17 27.3413 29.2555 27.3669 29.2555 27.3669C29.3564 27.4577 29.457 27.5426 29.5572 27.6214C29.6575 27.7003 29.7556 27.7372 29.8514 27.7322C30.139 27.7171 30.2529 27.8253 30.1929 28.0567C30.1329 28.2882 29.9642 28.5073 29.6866 28.7141C29.1315 29.1278 28.6202 29.3468 28.1529 29.3713C27.6855 29.3958 27.2501 29.2264 26.8465 28.863C26.4417 28.4756 26.1781 28.0328 26.0559 27.5345C25.9336 27.0363 25.9483 26.3986 26.0998 25.6216C26.1404 24.562 26.1538 23.7863 26.1401 23.2943C26.1263 22.8024 25.9876 22.5633 25.724 22.5771C25.4843 22.5897 25.0734 22.7734 24.4911 23.1284C23.9089 23.4834 23.2608 23.9559 22.5467 24.5461C21.8326 25.1363 21.1336 25.7858 20.4498 26.4945C19.7659 27.2033 19.2032 27.9297 18.7615 28.6739C18.4927 29.0484 18.2338 29.3805 17.9846 29.6699C17.7354 29.9593 17.4796 30.1229 17.2172 30.1607ZM38.9672 29.7058C38.4865 30.1636 37.9185 30.4457 37.2632 30.5521C36.6078 30.6586 35.9614 30.5903 35.3238 30.3474C34.6862 30.1044 34.1486 29.706 33.711 29.1521C33.276 28.6462 32.9806 28.0548 32.825 27.3781C32.6693 26.7013 32.6106 25.8091 32.6487 24.7016C32.6716 23.7631 32.9219 22.8067 33.3995 21.8324C33.8772 20.8581 34.474 19.9796 35.1901 19.1971C35.9061 18.4145 36.628 17.86 37.356 17.5334C37.7029 17.2749 38.0025 17.1451 38.2548 17.1439C38.5071 17.1426 38.8981 17.1522 39.4279 17.1725C39.9829 17.2155 40.402 17.3017 40.6852 17.4311C40.9683 17.5604 41.2001 17.7405 41.3804 17.9714C41.7587 18.3121 42.0169 18.653 42.155 18.9943C42.293 19.3355 42.3709 19.6739 42.3884 20.0094C42.3202 20.5417 42.0003 21.2014 41.4287 21.9884C40.8571 22.7754 40.0925 23.4343 39.135 23.9651C38.6165 24.1605 38.0451 24.2626 37.4207 24.2713C36.7963 24.28 36.2728 24.1512 35.8503 23.8849C35.3849 23.7171 35.0869 23.7627 34.9562 24.0219C34.8256 24.2811 34.7255 24.8932 34.6559 25.8582C34.6078 26.7739 34.7146 27.4352 34.9762 27.8421C35.2379 28.249 35.5743 28.4777 35.9855 28.5282C36.4699 28.599 36.8508 28.6451 37.1283 28.6666C37.4058 28.6881 37.742 28.5684 38.1369 28.3073C38.5078 28.0476 38.7402 27.8972 38.8342 27.8562C38.9282 27.8152 39.0036 27.7632 39.0604 27.7002C39.1172 27.6371 39.2591 27.4795 39.4862 27.2272C39.6452 27.0507 39.7704 26.9179 39.8619 26.829C39.9534 26.7401 40.059 26.6925 40.1788 26.6862C40.2987 26.68 40.4094 26.7282 40.5109 26.8311C40.6124 26.9339 40.7124 27.0068 40.8107 27.0497C41.0504 27.0371 41.1119 27.1781 40.9951 27.4726C40.8784 27.7671 40.6386 28.1221 40.2759 28.5377C39.9131 28.9533 39.4769 29.3426 38.9672 29.7058ZM38.5318 22.0861C38.7892 21.9525 39.0557 21.7643 39.3314 21.5215C39.6071 21.2788 39.8395 21.0142 40.0288 20.7279C40.2181 20.4416 40.3077 20.2026 40.2976 20.0109C40.2801 19.6753 40.1095 19.4019 39.786 19.1905C39.4625 18.9792 38.9936 18.9737 38.3792 19.1741C38.1194 19.2598 37.8289 19.4493 37.5078 19.7425C37.1867 20.0357 36.8851 20.3579 36.6031 20.7092C36.3211 21.0604 36.0972 21.3726 35.9312 21.6456C35.7653 21.9187 35.7075 22.0779 35.758 22.1234C35.8362 22.2394 36.0446 22.3186 36.3833 22.361C36.722 22.4033 37.1004 22.4015 37.5185 22.3555C37.9367 22.3096 38.2745 22.2198 38.5318 22.0861ZM58.7604 31.1198C58.1889 31.2219 57.7534 31.2808 57.4538 31.2965C57.1542 31.3122 56.8767 31.2907 56.6213 31.2319C56.3659 31.1732 56.0313 31.0946 55.6176 30.9961C55.2707 30.798 54.9784 30.6091 54.7407 30.4293C54.503 30.2495 54.3217 30.1148 54.1968 30.0252C54.1905 29.9053 54.1555 29.811 54.0919 29.7423C54.0282 29.6735 53.9963 29.6391 53.9963 29.6391C53.9005 29.6442 53.8116 29.4385 53.7297 29.0222C53.6478 28.606 53.5978 28.1099 53.5796 27.5341C53.5614 26.9582 53.5691 26.4171 53.6027 25.9106C53.6362 25.4042 53.6965 25.0646 53.7836 24.8918C53.7773 24.7719 53.7994 24.6206 53.8499 24.4377C53.9004 24.2548 53.9225 24.1034 53.9162 23.9836C53.8949 23.5761 53.9441 23.3693 54.064 23.363C54.064 23.363 54.0936 23.3554 54.1529 23.3403C54.2122 23.3252 54.2399 23.2817 54.2362 23.2098C54.2286 23.066 54.2662 22.8657 54.3489 22.609C54.4316 22.3524 54.4912 22.1149 54.5279 21.8967C54.6364 21.6747 54.7667 21.2954 54.9188 20.7587C55.071 20.222 55.219 19.7216 55.3629 19.2574C55.4551 18.7238 55.5952 18.1878 55.7833 17.6492C55.9713 17.1106 56.1052 16.683 56.1847 16.3664C56.4901 15.7736 56.6352 15.3334 56.6202 15.0458C56.6593 14.8755 56.8023 14.5075 57.049 13.9419C57.2957 13.3762 57.5854 12.7121 57.9179 11.9496C58.2505 11.1872 58.5944 10.4121 58.9496 9.62446C59.3049 8.83679 59.6292 8.14687 59.9226 7.5547C60.2161 6.96253 60.441 6.5542 60.5975 6.3297C60.9558 5.83027 61.2277 5.5156 61.4132 5.38572C61.5986 5.25584 61.7992 5.18524 62.0149 5.17394C62.1373 5.21559 62.2927 5.31559 62.4813 5.47394C62.6698 5.63229 62.853 5.80294 63.0308 5.98588C63.2086 6.16883 63.3133 6.33157 63.3448 6.47412C63.3473 6.52205 63.2609 6.70683 63.0854 7.02845C62.91 7.35007 62.6886 7.71016 62.4211 8.1087C62.1536 8.50725 61.8955 8.85723 61.647 9.15866C61.5801 9.25829 61.5425 9.34438 61.5343 9.41691C61.5261 9.48944 61.522 9.5257 61.522 9.5257C61.522 9.5257 61.4513 9.66759 61.31 9.95138C61.1686 10.2352 61.0005 10.5804 60.8055 10.9872C60.6105 11.394 60.4386 11.7815 60.2896 12.1498C60.1407 12.5181 60.0587 12.7868 60.0435 12.9558C59.9085 13.1311 59.7286 13.483 59.504 14.0115C59.2793 14.5399 59.0626 15.1041 58.8537 15.7038C58.6448 16.3036 58.4558 16.8242 58.2866 17.2656C58.1175 17.7071 58.0102 17.953 57.9648 18.0035C57.9711 18.1233 57.9711 18.2375 57.9647 18.346C57.9584 18.4544 57.9104 18.5711 57.8209 18.696C57.7577 18.8675 57.6517 19.2516 57.5027 19.8482C57.3537 20.4448 57.1398 21.0629 56.8609 21.7023C56.7308 22.4301 56.5604 23.0759 56.3496 23.6398C56.1388 24.2036 55.9766 24.5485 55.8631 24.6746C55.7798 24.9193 55.7391 25.0597 55.7409 25.0956C55.7428 25.1316 55.7911 25.135 55.8857 25.106C55.9992 24.9799 56.0582 24.9588 56.0626 25.0427C56.067 25.1266 56.0143 25.2675 55.9045 25.4655C55.8212 25.7102 55.7518 25.9903 55.6962 26.3056C55.6406 26.6209 55.6216 26.9464 55.6392 27.2819C55.7299 28.0943 55.878 28.6273 56.0835 28.8809C56.2891 29.1345 56.6908 29.2336 57.2887 29.1782C58.1011 29.0876 58.8517 28.9641 59.5404 28.8078C60.2292 28.6516 60.7868 28.5142 61.2132 28.3957C61.9903 28.0906 62.6727 27.9287 63.2605 27.9099C63.8484 27.8911 64.2703 28.0312 64.5263 28.3302C64.6814 28.5384 64.7741 28.7018 64.8043 28.8204C64.8345 28.9389 64.8528 29.0582 64.8591 29.178C64.7922 29.2776 64.5178 29.4302 64.0359 29.6357C63.554 29.8412 62.9822 30.0514 62.3206 30.2663C61.6589 30.4813 61.0017 30.6659 60.3489 30.8203C59.696 30.9747 59.1665 31.0745 58.7604 31.1198ZM70.144 28.2161C69.782 28.187 69.4629 27.9454 69.1867 27.4912C68.9106 27.037 68.7385 26.6195 68.6705 26.2385C68.6844 26.0455 68.6999 25.7683 68.717 25.4069C68.7341 25.0455 68.7566 24.6718 68.7844 24.2858C68.8564 23.8254 68.9591 23.2613 69.0923 22.5934C69.2255 21.9255 69.3644 21.2513 69.509 20.5708C69.6536 19.8903 69.7852 19.3066 69.9039 18.8198C70.0226 18.3329 70.1034 18.0403 70.1463 17.9419C70.2561 17.7439 70.4453 17.6859 70.714 17.7679C70.9826 17.85 71.2059 17.9825 71.3837 18.1654C71.5375 18.3496 71.6393 18.5726 71.6891 18.8344C71.7389 19.0961 71.723 19.4815 71.6416 19.9904C71.5601 20.4994 71.4013 21.2527 71.1652 22.2505C70.9518 23.223 70.7946 24.0063 70.6935 24.6004C70.5925 25.1945 70.5709 25.8144 70.6288 26.4603C70.5756 27.2802 70.5298 27.7813 70.4913 27.9636C70.4527 28.1458 70.337 28.23 70.144 28.2161ZM73.5266 13.6551C73.4345 13.732 73.3462 13.7667 73.2616 13.7591C73.1771 13.7515 73.0359 13.6928 72.8379 13.583C72.6688 13.5679 72.4531 13.465 72.1908 13.2745C71.9285 13.0839 71.7015 12.8795 71.5098 12.6613C71.3181 12.443 71.221 12.3099 71.2185 12.262C71.182 12.0236 71.1839 11.717 71.2244 11.3424C71.2648 10.9678 71.3731 10.6256 71.5491 10.316C71.7251 10.0064 71.9923 9.83015 72.3505 9.78734C72.4464 9.78231 72.5309 9.7899 72.6041 9.8101C72.6772 9.8303 72.8973 9.90288 73.2644 10.0278C73.475 10.3773 73.6877 10.7687 73.9027 11.202C74.1177 11.6354 74.2242 12.0624 74.2222 12.4831C74.2202 12.9038 73.9883 13.2944 73.5266 13.6551ZM75.6143 27.3526C75.3671 27.2214 75.1798 27.087 75.0524 26.9495C74.9251 26.8119 74.8545 26.6114 74.8406 26.3477C74.8218 25.9882 74.85 25.6082 74.9251 25.2077C75.0002 24.8073 75.0757 24.4128 75.1515 24.0243C75.1768 23.5903 75.2198 23.1495 75.2804 22.7017C75.3411 22.2539 75.4812 21.832 75.7008 21.436C75.9167 20.5114 76.1449 19.5922 76.3854 18.6784C76.6259 17.7645 76.8289 16.8226 76.9943 15.8526C77.2594 14.9495 77.4999 14.1498 77.7158 13.4536C77.9316 12.7573 78.2036 11.8719 78.5319 10.7972C78.7162 10.1867 78.8683 9.53588 78.9883 8.84465C79.1083 8.15342 79.3216 7.5234 79.6283 6.95457C79.7607 6.73133 79.8649 6.53962 79.9406 6.37943C80.0163 6.21925 80.0983 6.06475 80.1867 5.91592C80.2056 5.81879 80.2804 5.75479 80.4109 5.72392C80.5415 5.69304 80.6919 5.69718 80.8622 5.73632C81.0325 5.77546 81.1687 5.85244 81.2708 5.96725C81.3415 5.93951 81.4348 6.00071 81.5508 6.15085C81.6668 6.30098 81.7778 6.4694 81.8837 6.65612C81.9896 6.84283 82.0344 7.00871 82.018 7.15377C82.023 7.24964 82.0119 7.3824 81.9848 7.55206C81.9576 7.72171 81.8998 7.88095 81.8115 8.02978C81.7207 8.13067 81.638 8.27319 81.5636 8.45734C81.4891 8.64149 81.3761 8.89375 81.2247 9.21411C81.1452 9.53071 81.0779 9.85267 81.023 10.18C80.968 10.5073 80.8875 10.8059 80.7815 11.0759C80.7007 11.3685 80.6013 11.6501 80.4833 11.9206C80.3653 12.1912 80.2868 12.4116 80.2476 12.5819C80.1087 13.1419 79.9393 13.6915 79.7392 14.2307C79.5392 14.7699 79.3709 15.3435 79.2346 15.9515C79.097 16.5355 78.9603 17.1375 78.8245 17.7574C78.6888 18.3774 78.4796 18.9712 78.1969 19.5387C78.0429 19.8112 77.9407 20.153 77.8901 20.5642C77.8396 20.9754 77.789 21.3866 77.7385 21.7978C77.6173 22.2368 77.5125 22.6448 77.4241 23.0219C77.3357 23.3991 77.2941 23.6356 77.2991 23.7315C77.1829 24.2663 77.1084 24.7929 77.0755 25.3113C77.0426 25.8298 76.9403 26.2857 76.7686 26.6793C76.7572 26.9202 76.7193 27.1144 76.655 27.262C76.5906 27.4096 76.4749 27.4938 76.3077 27.5145C76.1406 27.5353 75.9094 27.4813 75.6143 27.3526ZM81.794 26.9566C81.6982 26.9617 81.5828 26.9377 81.4478 26.8847C81.3128 26.8317 81.2454 26.8051 81.2454 26.8051C81.2403 26.7093 81.2041 26.591 81.1366 26.4504C81.0692 26.3097 81.033 26.1914 81.0279 26.0956C80.8551 26.0085 80.7539 25.9116 80.7243 25.805C80.6947 25.6985 80.7209 25.5108 80.803 25.2422C80.9342 24.995 81.1055 24.5954 81.3169 24.0436C81.5283 23.4918 81.7492 22.8914 81.9796 22.2425C82.2099 21.5935 82.4286 20.9512 82.6356 20.3155C82.8426 19.6798 83.0184 19.1358 83.1629 18.6837C83.3075 18.2315 83.3892 17.9568 83.4082 17.8597C83.4031 17.7638 83.4328 17.6421 83.4972 17.4945C83.5615 17.347 83.6391 17.2227 83.73 17.1218C83.9129 16.944 84.1157 16.9154 84.3383 17.0359C84.5609 17.1564 84.758 17.3624 84.9295 17.6538C85.101 17.9452 85.1961 18.2707 85.215 18.6302C85.2238 18.798 85.1262 19.2297 84.9223 19.9253C84.7185 20.6209 84.4433 21.4464 84.0968 22.4019C83.7504 23.3573 83.3626 24.3269 82.9335 25.3108C82.6104 26.0246 82.4056 26.474 82.3192 26.6587C82.2327 26.8435 82.0577 26.9428 81.794 26.9566ZM86.3647 13.0544C86.0771 13.0694 85.7656 12.9716 85.4301 12.7609C85.0946 12.5502 84.8039 12.277 84.558 11.9414C84.3121 11.6058 84.1797 11.2583 84.1609 10.8988C84.1546 10.7789 84.2177 10.6074 84.3502 10.3841C84.4827 10.1609 84.6152 9.93766 84.7477 9.71442C84.8802 9.49118 84.9452 9.35559 84.9427 9.30766C85.1344 9.29761 85.2845 9.29575 85.393 9.30208C85.5015 9.30841 85.6421 9.35512 85.8149 9.44219C86.11 10.0276 86.4653 10.5016 86.8808 10.8644C87.2964 11.2271 87.5111 11.5403 87.5249 11.8039C87.5525 12.3312 87.5218 12.6633 87.4329 12.8001C87.3439 12.937 86.9879 13.0217 86.3647 13.0544ZM116.461 28.7808C116.219 28.7454 116.028 28.6653 115.89 28.5404C115.751 28.4155 115.647 28.1506 115.578 27.7456C115.462 27.3672 115.38 26.7226 115.332 25.8118C115.284 24.9011 115.274 23.9042 115.302 22.8213C115.329 21.7384 115.355 20.7397 115.379 19.8252C115.482 19.5073 115.513 19.1812 115.472 18.847C115.43 18.5127 115.383 18.2989 115.33 18.2055C115.324 18.0857 115.322 17.9356 115.324 17.7552C115.327 17.5748 115.374 17.4342 115.465 17.3333C115.453 17.1176 115.441 16.8779 115.427 16.6143C115.413 16.3506 115.424 16.1097 115.461 15.8915C115.57 15.6695 115.646 15.4011 115.689 15.0864C115.733 14.7717 115.737 14.5071 115.702 14.2927C115.78 13.9521 115.849 13.6541 115.907 13.3987C115.966 13.1433 115.993 12.9676 115.988 12.8718C115.958 12.7532 115.937 12.586 115.925 12.3703C115.914 12.1546 115.881 11.9761 115.825 11.8349C115.928 11.493 116.012 11.038 116.078 10.4697C116.145 9.90149 116.195 9.38212 116.231 8.91162C116.266 8.44112 116.284 8.20587 116.284 8.20587C116.284 8.20587 116.166 8.36226 115.93 8.67504C115.694 8.98781 115.386 9.41852 115.006 9.96715C114.627 10.5158 114.215 11.1502 113.772 11.8703C113.158 12.984 112.606 13.9262 112.118 14.6968C111.63 15.4674 111.187 16.1936 110.79 16.8753C110.393 17.557 110.036 18.3027 109.718 19.1125C109.705 19.3294 109.577 19.6306 109.333 20.0159C109.088 20.4012 108.834 20.8171 108.569 21.2636C108.357 21.8034 108.142 22.1692 107.923 22.3608C107.705 22.5525 107.442 22.6925 107.134 22.7807C106.42 22.9143 105.865 22.6429 105.469 21.9667C105.073 21.2905 104.756 20.0574 104.518 18.2674C104.344 17.6998 104.211 17.1059 104.119 16.4859C104.026 15.8659 103.951 15.4613 103.893 15.2721C103.923 14.934 103.933 14.555 103.923 14.1349C103.913 13.7149 103.894 13.3434 103.865 13.0204C103.836 12.6975 103.822 12.536 103.822 12.536C103.822 12.536 103.737 12.6426 103.568 12.8558C103.399 13.0689 103.225 13.3123 103.047 13.586C103.039 13.8749 102.994 14.1656 102.913 14.4582C102.832 14.7509 102.758 14.947 102.691 15.0466C102.583 15.2686 102.432 15.7151 102.239 16.3861C102.046 17.0572 101.812 17.7604 101.538 18.4957C101.301 19.4695 101.106 20.2127 100.952 20.7254C100.799 21.2382 100.67 21.6475 100.566 21.9533C100.462 22.2592 100.346 22.5717 100.219 22.8908C100.091 23.2099 99.9339 23.6507 99.7471 24.2133C99.5565 24.7039 99.3858 25.2296 99.2349 25.7903C99.084 26.3509 98.9525 26.7063 98.8402 26.8564C98.7973 26.9548 98.6897 27.1947 98.5174 27.5763C98.3451 27.9578 98.2079 28.3195 98.1056 28.6613C97.8053 29.35 97.5384 29.7605 97.305 29.8929C97.0716 30.0253 96.7052 29.9123 96.2057 29.554C95.7391 29.3621 95.508 29.0798 95.5125 28.7071C95.517 28.3343 95.706 27.8137 96.0795 27.1453C96.2449 26.6319 96.5131 26.017 96.8841 25.3006C97.2551 24.5842 97.5479 23.9801 97.7624 23.4882C97.7334 23.3936 97.8433 22.9672 98.0919 22.2092C98.3406 21.4511 98.6189 20.5713 98.9269 19.5698C99.2614 18.615 99.5682 17.7037 99.8471 16.8359C100.126 15.9682 100.358 15.235 100.543 14.6365C100.728 14.038 100.83 13.7022 100.851 13.629C100.846 13.5332 100.865 13.436 100.907 13.3376C100.95 13.2393 101.014 13.0797 101.099 12.859C101.138 12.6887 101.21 12.4626 101.315 12.1807C101.421 11.8988 101.494 11.6967 101.536 11.5743C101.647 11.4003 101.74 11.2212 101.814 11.037C101.889 10.8529 101.9 10.7141 101.847 10.6208C101.819 10.5501 101.846 10.5006 101.929 10.4723C102.012 10.4439 102.053 10.4297 102.053 10.4297C102.149 10.4247 102.194 10.3742 102.189 10.2784C102.184 10.1825 102.215 10.0848 102.282 9.98512C102.314 9.67104 102.38 9.33709 102.482 8.98329C102.583 8.62948 102.681 8.43809 102.776 8.4091C102.871 8.38011 102.916 8.32367 102.911 8.23978C102.907 8.1559 102.948 8.02756 103.035 7.85476C103.003 7.68825 103.001 7.53215 103.029 7.38646C103.057 7.24078 103.07 7.14397 103.068 7.09603C103.179 6.92198 103.28 6.78451 103.371 6.68362C103.461 6.58272 103.54 6.48246 103.607 6.38282C103.607 6.38282 103.648 6.23651 103.728 5.94388C103.809 5.65125 103.916 5.39331 104.048 5.17007C104.089 5.02376 104.146 4.86452 104.222 4.69235C104.297 4.52019 104.378 4.34771 104.465 4.17491C104.552 4.00212 104.617 3.86653 104.66 3.76815C104.811 3.44778 105.055 3.29079 105.392 3.29717C105.729 3.30356 106.137 3.5225 106.616 3.95401C106.841 4.11048 107 4.27639 107.093 4.45175C107.186 4.6271 107.188 4.77721 107.098 4.90207C107.098 4.90207 107.069 4.90963 107.01 4.92476C106.95 4.93988 106.924 5.00736 106.93 5.1272C106.93 5.1272 106.949 5.2524 106.986 5.50279C107.023 5.75319 107.002 6.03669 106.922 6.35329C106.786 6.96126 106.667 7.56829 106.567 8.17437C106.467 8.78046 106.385 9.29541 106.324 9.71923C106.262 10.1431 106.233 10.4029 106.238 10.4988C106.243 10.5946 106.236 10.6911 106.217 10.7883C106.198 10.8854 106.129 10.9371 106.009 10.9434C106.009 10.9434 105.987 10.9866 105.944 11.073C105.9 11.1594 105.88 11.2385 105.884 11.3104C106.014 11.4959 106.065 11.7876 106.038 12.1855C106.011 12.5835 105.972 12.9881 105.922 13.3993C105.913 14.1448 105.943 14.9603 106.014 15.8458C106.084 16.7314 106.178 17.4955 106.296 18.1382C106.414 18.7809 106.535 19.1351 106.658 19.2007C106.754 19.1957 106.926 19.0365 107.174 18.7231C107.422 18.4097 107.697 17.9206 107.998 17.2559C108.395 16.5622 108.696 16.0177 108.904 15.6223C109.112 15.2269 109.304 14.8863 109.481 14.6007C109.659 14.315 109.864 13.9918 110.097 13.6311C110.331 13.2704 110.66 12.7785 111.084 12.1555C111.433 11.4882 111.793 10.9046 112.163 10.4045C112.534 9.90447 112.776 9.60336 112.891 9.50121C113.08 9.44323 113.212 9.32216 113.287 9.13802C113.361 8.95387 113.398 8.86179 113.398 8.86179C113.319 8.72176 113.366 8.47895 113.54 8.13336C113.715 7.78777 113.974 7.34759 114.318 6.81283C114.663 6.27807 115.034 5.67583 115.431 5.00611C115.811 4.45748 116.145 4.06746 116.433 3.83605C116.722 3.60465 117.011 3.51137 117.302 3.55621C117.593 3.60106 117.913 3.75849 118.264 4.02851C118.538 4.20643 118.753 4.41745 118.91 4.66157C119.067 4.90569 119.157 5.1233 119.179 5.31441C119.201 5.50552 119.141 5.62881 119 5.68428C118.905 5.71327 118.864 5.73345 118.877 5.7448C118.889 5.75616 118.946 5.80726 119.047 5.8981C119.047 5.8981 119.034 5.99491 119.008 6.18853C118.982 6.38215 118.955 6.65997 118.926 7.02199C118.84 7.21875 118.776 7.60063 118.733 8.16763C118.691 8.73462 118.622 9.26093 118.528 9.74656C118.452 10.1351 118.39 10.5529 118.341 11C118.292 11.4472 118.25 11.7799 118.213 11.9981C118.173 12.1444 118.126 12.4052 118.074 12.7805C118.021 13.1557 117.98 13.5124 117.95 13.8504C117.904 14.3575 117.859 14.9847 117.814 15.7321C117.769 16.4795 117.719 17.2392 117.663 18.0111C117.607 18.7831 117.559 19.4646 117.518 20.0555C117.477 20.6465 117.437 21.0271 117.397 21.1974C117.387 21.4623 117.378 21.8593 117.37 22.3885C117.361 22.9176 117.367 23.4821 117.386 24.0819C117.406 24.6817 117.448 25.2563 117.513 25.8057C117.578 26.355 117.654 26.7836 117.742 27.0914C117.793 27.5935 117.834 27.9158 117.865 28.0583C117.897 28.2009 117.892 28.3333 117.85 28.4557C117.647 28.7067 117.457 28.8608 117.279 28.9182C117.102 28.9755 116.829 28.9297 116.461 28.7808ZM128.772 24.9993C128.291 25.4571 127.723 25.7392 127.068 25.8457C126.413 25.9521 125.766 25.8838 125.129 25.6409C124.491 25.3979 123.953 24.9995 123.516 24.4456C123.081 23.9397 122.785 23.3484 122.63 22.6716C122.474 21.9948 122.415 21.1027 122.453 19.9951C122.476 19.0567 122.727 18.1003 123.204 17.1259C123.682 16.1516 124.279 15.2731 124.995 14.4906C125.711 13.708 126.433 13.1535 127.161 12.827C127.508 12.5684 127.807 12.4386 128.06 12.4374C128.312 12.4362 128.703 12.4457 129.233 12.466C129.788 12.509 130.207 12.5952 130.49 12.7246C130.773 12.8539 131.005 13.0341 131.185 13.2649C131.564 13.6056 131.822 13.9466 131.96 14.2878C132.098 14.629 132.176 14.9674 132.193 15.303C132.125 15.8353 131.805 16.4949 131.233 17.2819C130.662 18.0689 129.897 18.7278 128.94 19.2587C128.421 19.4541 127.85 19.5561 127.225 19.5648C126.601 19.5735 126.078 19.4447 125.655 19.1785C125.19 19.0106 124.892 19.0563 124.761 19.3154C124.63 19.5746 124.53 20.1867 124.461 21.1517C124.413 22.0675 124.519 22.7288 124.781 23.1356C125.043 23.5425 125.379 23.7712 125.79 23.8218C126.275 23.8925 126.656 23.9386 126.933 23.9601C127.211 23.9816 127.547 23.8619 127.942 23.6009C128.313 23.3411 128.545 23.1907 128.639 23.1497C128.733 23.1088 128.808 23.0568 128.865 22.9937C128.922 22.9306 129.064 22.773 129.291 22.5208C129.45 22.3442 129.575 22.2115 129.667 22.1226C129.758 22.0336 129.864 21.986 129.984 21.9798C130.103 21.9735 130.214 22.0218 130.316 22.1246C130.417 22.2274 130.517 22.3003 130.616 22.3432C130.855 22.3306 130.917 22.4716 130.8 22.7661C130.683 23.0606 130.443 23.4157 130.081 23.8312C129.718 24.2468 129.282 24.6361 128.772 24.9993ZM128.337 17.3797C128.594 17.246 128.861 17.0578 129.136 16.815C129.412 16.5723 129.644 16.3078 129.834 16.0215C130.023 15.7352 130.112 15.4961 130.102 15.3044C130.085 14.9689 129.914 14.6954 129.591 14.4841C129.267 14.2727 128.798 14.2672 128.184 14.4677C127.924 14.5534 127.634 14.7428 127.313 15.036C126.991 15.3292 126.69 15.6515 126.408 16.0027C126.126 16.354 125.902 16.6661 125.736 16.9392C125.57 17.2122 125.512 17.3715 125.563 17.4169C125.641 17.533 125.849 17.6122 126.188 17.6545C126.527 17.6968 126.905 17.695 127.323 17.6491C127.742 17.6031 128.079 17.5133 128.337 17.3797ZM135.837 24.3046C135.741 24.3096 135.6 24.2509 135.414 24.1285C135.227 24.0061 135.083 23.8995 134.982 23.8087C134.804 23.6257 134.692 23.4393 134.646 23.2495C134.6 23.0596 134.56 22.6292 134.525 21.9581C134.485 21.1911 134.597 20.3501 134.861 19.435C135.126 18.5199 135.587 17.228 136.244 15.5593L137.299 12.9806C137.385 12.7838 137.467 12.6353 137.546 12.5351C137.625 12.4348 137.697 12.3348 137.764 12.2352C137.86 12.2302 137.944 12.2258 138.016 12.222C138.088 12.2182 138.124 12.2164 138.124 12.2164C138.316 12.2063 138.513 12.3101 138.717 12.5277C138.921 12.7454 139.077 12.9835 139.187 13.2421C139.203 13.5537 139.178 13.8795 139.112 14.2194C139.046 14.5593 138.778 15.078 138.31 15.7755C138.156 16.0479 137.958 16.5029 137.715 17.1405C137.472 17.7781 137.315 18.3271 137.243 18.7875C137.22 18.8127 137.177 18.9171 137.115 19.1006C137.052 19.2841 136.985 19.4859 136.912 19.706C136.84 19.9261 136.76 20.1346 136.675 20.3313L136.536 21.1317L138.815 18.5248C139.882 17.3393 140.751 16.4887 141.421 15.973C142.091 15.4572 142.631 15.2246 143.043 15.2751C143.454 15.3257 143.818 15.631 144.136 16.1912C144.318 16.446 144.456 16.6731 144.55 16.8724C144.645 17.0717 144.713 17.3385 144.754 17.6728C144.796 18.0071 144.798 18.5117 144.762 19.1865L144.879 21.4155C145.233 21.3007 145.516 21.1958 145.727 21.1006C145.939 21.0054 146.161 20.9036 146.396 20.7952C146.607 20.688 146.854 20.5849 147.137 20.486C147.42 20.387 147.777 20.3143 148.207 20.2677C148.199 20.5805 148.109 20.9157 147.935 21.2733C147.762 21.6309 147.539 21.973 147.268 22.2996C146.997 22.6263 146.692 22.8946 146.355 23.1045C146.017 23.3145 145.681 23.4282 145.345 23.4458C145.034 23.4621 144.678 23.3246 144.278 23.0331C143.879 22.7416 143.585 22.4085 143.397 22.0338C143.287 21.7752 143.218 21.4905 143.19 21.1795C143.162 20.8686 143.125 20.2937 143.081 19.4548L143.012 18.1246C142.992 17.7412 142.872 17.6333 142.652 17.801C142.433 17.9687 142.254 18.1163 142.117 18.2436C141.774 18.5741 141.415 18.9534 141.041 19.3815C140.667 19.8097 140.287 20.2501 139.902 20.7029C138.86 21.9111 137.988 22.81 137.286 23.3995C136.584 23.9891 136.101 24.2908 135.837 24.3046ZM158.817 24.6144C158.654 24.719 158.431 24.6947 158.146 24.5414C157.862 24.388 157.579 24.1505 157.298 23.8288C157.115 23.55 156.985 23.2444 156.907 22.912C156.83 22.5796 156.775 22.1138 156.744 21.5146C156.743 21.034 156.709 20.7234 156.641 20.5827C156.574 20.442 156.437 20.4672 156.23 20.6583C156.024 20.8494 155.671 21.2223 155.172 21.7773C154.604 22.4078 154.059 22.905 153.537 23.2688C153.016 23.6326 152.586 23.8113 152.25 23.805C152.082 23.8137 151.891 23.7336 151.678 23.5645C151.465 23.3955 151.268 23.1775 151.085 22.9107C150.903 22.6438 150.745 22.3698 150.61 22.0884C150.438 21.5687 150.385 20.8926 150.449 20.0601C150.514 19.2275 150.654 18.349 150.87 17.4244C151.086 16.4999 151.346 15.621 151.651 14.7879C151.956 13.9548 152.281 13.2769 152.626 12.7541C152.971 12.2313 153.287 11.9624 153.575 11.9473C153.767 11.9373 153.945 12.0241 154.111 12.2076C154.277 12.3912 154.455 12.6823 154.644 13.081C154.748 13.2437 154.798 13.3853 154.792 13.5058C154.786 13.6262 154.692 13.7754 154.509 13.9532C154.309 14.2521 154.086 14.6964 153.84 15.286C153.595 15.8757 153.364 16.5127 153.147 17.1969C152.931 17.8812 152.743 18.5399 152.584 19.1731C152.425 19.8063 152.32 20.3225 152.268 20.7218C152.217 21.121 152.24 21.3181 152.335 21.3131C152.671 21.2955 153.065 21.1366 153.518 20.8365C153.971 20.5364 154.402 20.1713 154.813 19.7413C155.289 19.2116 155.71 18.6368 156.074 18.0169C156.438 17.397 156.806 16.7408 157.179 16.0484C157.465 15.5527 157.767 15.0081 158.084 14.4147C158.402 13.8213 158.602 13.4022 158.685 13.1575C158.988 12.5168 159.218 12.0782 159.373 11.8417C159.529 11.6053 159.725 11.4448 159.961 11.3603C160.081 11.354 160.195 11.3481 160.302 11.3424C160.41 11.3368 160.464 11.3339 160.464 11.3339C160.609 11.3504 160.783 11.4494 160.985 11.6311C161.181 11.7169 161.294 11.8012 161.322 11.8838C161.351 11.9664 161.368 12.0677 161.374 12.1875C161.291 12.4322 161.16 12.7936 160.98 13.2716C160.801 13.7496 160.669 14.099 160.585 14.3197C160.183 15.3742 159.787 16.4103 159.396 17.4282C159.004 18.4461 158.74 19.4753 158.602 20.516C158.572 20.854 158.586 21.2438 158.646 21.6853C158.705 22.1268 158.787 22.4409 158.893 22.6276C158.973 22.7677 159.071 22.9248 159.188 23.0989C159.306 23.273 159.439 23.4162 159.589 23.5285C159.813 23.6609 159.863 23.8145 159.74 23.9892C159.617 24.1639 159.45 24.3108 159.24 24.43C159.03 24.5491 158.889 24.6106 158.817 24.6144Z" fill="#AD321C"/>
</svg>
