<svg width="380" height="125" viewBox="0 0 380 125" fill="none" xmlns="http://www.w3.org/2000/svg">
<path d="M12.0312 120.463C5.8151 119.611 2.00521 115.776 0.601562 108.958C0.350911 107.755 0.200521 106.702 0.150391 105.8C0.0501302 104.847 0 103.394 0 101.438C0 99.9346 0.0250651 98.8066 0.0751953 98.0547C0.0751953 97.3027 0.125326 96.5007 0.225586 95.6484C0.827148 89.7832 2.10547 82.9404 4.06055 75.1201C7.4694 61.2842 13.7357 42.7611 22.8594 19.5508C23.3105 18.4479 23.7116 17.4453 24.0625 16.543C24.4134 15.5905 24.639 14.9639 24.7393 14.6631L25.1152 13.7607L24.8145 13.2344C24.5137 12.7832 24.3633 12.2568 24.3633 11.6553C24.3633 11.0537 24.4886 10.402 24.7393 9.7002C25.1403 8.59733 25.6165 7.59473 26.168 6.69238C26.7695 5.73991 27.346 5.08822 27.8975 4.7373C28.499 4.43652 29.0505 4.28613 29.5518 4.28613C29.9528 4.28613 30.3538 4.36133 30.7549 4.51172C31.6572 4.96289 32.2337 5.79004 32.4844 6.99316C32.5846 7.39421 32.6097 7.79525 32.5596 8.19629C32.5596 8.5472 32.5345 9.02344 32.4844 9.625C32.2839 11.179 31.6823 13.4349 30.6797 16.3926C29.7272 19.3001 28.2233 23.486 26.168 28.9502C19.0495 47.4482 14.0114 62.4372 11.0537 73.917C7.89551 86.0485 6.31641 95.498 6.31641 102.266C6.31641 107.078 7.11849 110.537 8.72266 112.643C9.97591 114.096 12.0312 114.823 14.8887 114.823H15.7158C17.9717 114.773 20.6536 114.272 23.7617 113.319C26.9199 112.367 31.4316 110.637 37.2969 108.131C44.1647 105.223 49.3532 103.143 52.8623 101.89C56.4215 100.586 59.6048 99.6338 62.4121 99.0322C64.0664 98.6312 65.3197 98.3805 66.1719 98.2803C67.0742 98.1299 68.152 98.0547 69.4053 98.0547C70.2074 98.0547 70.7839 98.0798 71.1348 98.1299C71.5358 98.18 71.8115 98.2552 71.9619 98.3555C72.1123 98.4557 72.2376 98.6061 72.3379 98.8066C72.388 98.957 72.4131 99.1074 72.4131 99.2578C72.4131 99.5586 72.3128 99.8343 72.1123 100.085C72.012 100.185 71.7865 100.311 71.4355 100.461C71.1348 100.561 70.5833 100.712 69.7812 100.912C68.6283 101.263 67.5755 101.589 66.623 101.89C65.7207 102.19 64.4674 102.667 62.8633 103.318C61.2591 103.97 58.8027 104.948 55.4941 106.251C52.3359 107.504 49.7041 108.582 47.5986 109.484C45.5433 110.337 43.3626 111.264 41.0566 112.267C37.9486 113.62 35.7178 114.598 34.3643 115.199C33.0107 115.751 31.8076 116.227 30.7549 116.628C24.0876 119.285 18.6484 120.613 14.4375 120.613C13.5853 120.613 12.7832 120.563 12.0312 120.463ZM74.6689 98.957C71.21 98.2552 69.0794 95.9242 68.2773 91.9639C68.0768 90.7607 67.9766 89.4824 67.9766 88.1289C67.9766 83.6673 69.0544 78.1781 71.21 71.6611C71.8115 70.0068 72.4632 68.3525 73.165 66.6982C73.8669 64.9938 74.5436 63.5902 75.1953 62.4873C75.7467 61.3844 76.248 60.6576 76.6992 60.3066C77.2005 59.9056 77.8021 59.7051 78.5039 59.7051C79.3561 59.7051 79.9827 59.9557 80.3838 60.457C80.835 60.9082 81.0605 61.5098 81.0605 62.2617C81.0605 62.4622 81.0355 62.6377 80.9854 62.7881C80.9854 62.9385 80.9352 63.139 80.835 63.3896C80.7347 63.5902 80.5843 63.916 80.3838 64.3672C75.9222 74.3932 73.6914 82.4642 73.6914 88.5801C73.6914 91.5378 74.1927 93.167 75.1953 93.4678C75.446 93.568 75.7969 93.6182 76.248 93.6182H76.6992C77.3008 93.6182 77.9274 93.4928 78.5791 93.2422C80.6344 92.5404 83.141 91.0365 86.0986 88.7305C87.3018 87.8281 88.5801 86.7754 89.9336 85.5723C91.3372 84.319 93.2171 82.5895 95.5732 80.3838C98.5309 77.5765 101.163 75.1702 103.469 73.165C105.775 71.1097 107.203 69.9567 107.755 69.7061C107.955 69.6559 108.131 69.6309 108.281 69.6309C108.582 69.6309 108.833 69.7311 109.033 69.9316C109.234 70.1322 109.334 70.3577 109.334 70.6084C109.334 70.9593 109.209 71.3353 108.958 71.7363C107.955 73.4909 106.025 76.0475 103.168 79.4062C101.965 80.8099 100.11 82.7399 97.6035 85.1963C95.097 87.6527 92.8662 89.708 90.9111 91.3623C84.9958 96.5257 80.083 99.1074 76.1729 99.1074C75.6715 99.1074 75.1702 99.0573 74.6689 98.957ZM83.6924 48.3506C82.8402 47.8994 82.3639 47.4232 82.2637 46.9219C82.1634 46.3704 82.1133 46.0195 82.1133 45.8691C82.1133 45.1673 82.389 44.5156 82.9404 43.9141C83.2412 43.6133 83.5169 43.4128 83.7676 43.3125C84.0684 43.2122 84.4694 43.1621 84.9707 43.1621C85.3717 43.1621 85.6475 43.1872 85.7979 43.2373C85.9482 43.2373 86.1237 43.2874 86.3242 43.3877C87.2767 43.9391 87.7529 44.7412 87.7529 45.7939C87.7529 46.6462 87.4521 47.348 86.8506 47.8994C86.3994 48.3005 85.9984 48.526 85.6475 48.5762C85.3467 48.6263 85.1462 48.6514 85.0459 48.6514C84.5446 48.6514 84.0934 48.5511 83.6924 48.3506ZM100.987 120.989C99.6839 120.638 98.7565 119.51 98.2051 117.605C97.6035 115.751 97.3027 112.943 97.3027 109.184C97.3027 106.426 97.4531 103.795 97.7539 101.288C99.3581 88.2041 102.291 73.4658 106.552 57.0732C106.702 56.5218 106.827 56.0205 106.928 55.5693C107.028 55.068 107.103 54.7171 107.153 54.5166C107.153 54.3161 107.178 54.1156 107.229 53.915C107.329 53.7145 107.404 53.5391 107.454 53.3887C107.504 53.2383 107.63 52.8122 107.83 52.1104C108.081 51.4085 108.331 50.5814 108.582 49.6289C111.189 40.6556 113.896 32.6097 116.703 25.4912C118.157 21.8818 119.435 18.9743 120.538 16.7686C121.641 14.5127 122.769 12.5827 123.922 10.9785C125.326 8.97331 126.579 7.74512 127.682 7.29395C127.932 7.19368 128.133 7.11849 128.283 7.06836C128.484 7.01823 128.785 6.99316 129.186 6.99316C129.587 6.99316 129.862 7.01823 130.013 7.06836C130.213 7.11849 130.389 7.19368 130.539 7.29395C131.492 7.79525 132.093 8.52214 132.344 9.47461C132.444 9.82552 132.494 10.2266 132.494 10.6777C132.494 11.1289 132.444 11.6553 132.344 12.2568C132.093 13.46 131.642 15.0892 130.99 17.1445C127.18 28.3737 122.067 39.277 115.65 49.8545C115.35 50.2555 115.124 50.6566 114.974 51.0576C114.823 51.4085 114.623 51.985 114.372 52.7871C114.172 53.5391 113.846 54.7422 113.395 56.3965C110.136 68.528 107.529 80.3086 105.574 91.7383C104.772 96.7513 104.221 101.037 103.92 104.597C103.569 108.106 103.394 110.788 103.394 112.643C103.394 113.344 103.419 113.971 103.469 114.522L103.544 115.575H103.92C104.772 115.575 105.198 116.001 105.198 116.854C105.198 117.154 105.123 117.555 104.973 118.057C104.872 118.558 104.747 118.984 104.597 119.335C104.196 120.037 103.744 120.513 103.243 120.764C102.692 121.014 102.215 121.14 101.814 121.14C101.564 121.14 101.288 121.09 100.987 120.989ZM130.163 98.957C126.704 98.2552 124.574 95.9242 123.771 91.9639C123.571 90.7607 123.471 89.4824 123.471 88.1289C123.471 83.6673 124.549 78.1781 126.704 71.6611C127.306 70.0068 127.957 68.3525 128.659 66.6982C129.361 64.9938 130.038 63.5902 130.689 62.4873C131.241 61.3844 131.742 60.6576 132.193 60.3066C132.695 59.9056 133.296 59.7051 133.998 59.7051C134.85 59.7051 135.477 59.9557 135.878 60.457C136.329 60.9082 136.555 61.5098 136.555 62.2617C136.555 62.4622 136.53 62.6377 136.479 62.7881C136.479 62.9385 136.429 63.139 136.329 63.3896C136.229 63.5902 136.078 63.916 135.878 64.3672C131.416 74.3932 129.186 82.4642 129.186 88.5801C129.186 91.5378 129.687 93.167 130.689 93.4678C130.94 93.568 131.291 93.6182 131.742 93.6182H132.193C132.795 93.6182 133.422 93.4928 134.073 93.2422C136.129 92.5404 138.635 91.0365 141.593 88.7305C142.796 87.8281 144.074 86.7754 145.428 85.5723C146.831 84.319 148.711 82.5895 151.067 80.3838C154.025 77.5765 156.657 75.1702 158.963 73.165C161.269 71.1097 162.698 69.9567 163.249 69.7061C163.45 69.6559 163.625 69.6309 163.775 69.6309C164.076 69.6309 164.327 69.7311 164.527 69.9316C164.728 70.1322 164.828 70.3577 164.828 70.6084C164.828 70.9593 164.703 71.3353 164.452 71.7363C163.45 73.4909 161.52 76.0475 158.662 79.4062C157.459 80.8099 155.604 82.7399 153.098 85.1963C150.591 87.6527 148.36 89.708 146.405 91.3623C140.49 96.5257 135.577 99.1074 131.667 99.1074C131.166 99.1074 130.664 99.0573 130.163 98.957ZM139.187 48.3506C138.334 47.8994 137.858 47.4232 137.758 46.9219C137.658 46.3704 137.607 46.0195 137.607 45.8691C137.607 45.1673 137.883 44.5156 138.435 43.9141C138.735 43.6133 139.011 43.4128 139.262 43.3125C139.562 43.2122 139.964 43.1621 140.465 43.1621C140.866 43.1621 141.142 43.1872 141.292 43.2373C141.442 43.2373 141.618 43.2874 141.818 43.3877C142.771 43.9391 143.247 44.7412 143.247 45.7939C143.247 46.6462 142.946 47.348 142.345 47.8994C141.894 48.3005 141.493 48.526 141.142 48.5762C140.841 48.6263 140.64 48.6514 140.54 48.6514C140.039 48.6514 139.588 48.5511 139.187 48.3506ZM204.832 124.824C201.223 124.122 198.44 121.34 196.485 116.478C194.931 112.267 193.929 106.502 193.478 99.1826C193.427 97.779 193.402 95.7988 193.402 93.2422C193.402 90.6354 193.427 88.4798 193.478 86.7754C194.179 70.9342 196.861 52.1855 201.523 30.5293C203.378 21.8568 204.657 17.1195 205.358 16.3174C205.91 15.4652 206.436 14.9889 206.938 14.8887C207.489 14.7884 207.865 14.7383 208.065 14.7383C208.717 14.7383 209.319 14.9889 209.87 15.4902C210.371 15.8913 210.672 16.3174 210.772 16.7686C210.923 17.1696 210.998 17.6208 210.998 18.1221C210.998 18.473 210.973 18.874 210.923 19.3252C210.823 20.3278 210.722 21.1048 210.622 21.6562C210.522 22.1576 210.346 22.5586 210.096 22.8594C209.995 23.0098 209.92 23.1602 209.87 23.3105C209.82 23.4609 209.745 23.7116 209.645 24.0625C209.544 24.3633 209.419 24.8395 209.269 25.4912C209.118 26.1429 208.918 27.0202 208.667 28.123C203.153 52.7871 200.195 73.6914 199.794 90.8359C199.744 92.4401 199.719 93.9941 199.719 95.498C199.719 100.561 200.045 105.023 200.696 108.883C201.849 114.848 203.479 118.232 205.584 119.034C205.885 119.134 206.16 119.185 206.411 119.185C206.662 119.185 207.013 119.109 207.464 118.959C213.68 116.904 222.603 106.326 234.233 87.2266C241.753 74.4935 248.22 61.4596 253.634 48.125C258.747 35.3418 261.73 25.0651 262.582 17.2949C262.783 15.2396 262.883 13.2093 262.883 11.2041V10.001C262.783 7.5446 262.557 5.76497 262.206 4.66211C262.056 4.16081 261.83 3.75977 261.529 3.45898C261.279 3.10807 260.827 2.75716 260.176 2.40625C259.474 2.00521 259.123 1.60417 259.123 1.20312C259.123 0.952474 259.248 0.676758 259.499 0.375977C259.8 0.125326 260.276 0 260.928 0H261.229C261.98 0 262.732 0.175456 263.484 0.526367C266.091 1.87988 267.645 4.96289 268.146 9.77539C268.197 10.2767 268.222 10.8532 268.222 11.5049C268.222 12.1566 268.197 12.8835 268.146 13.6855C268.096 15.3398 268.021 16.7936 267.921 18.0469C267.269 23.8118 265.665 30.4541 263.108 37.9736C258.196 52.2106 251.328 67.3499 242.505 83.3916C234.885 96.9268 227.716 107.579 220.999 115.35C220.197 116.252 219.219 117.255 218.066 118.357C216.964 119.51 216.036 120.388 215.284 120.989C212.778 122.994 210.396 124.248 208.141 124.749C207.589 124.849 207.113 124.899 206.712 124.899C206.311 124.899 206.01 124.899 205.81 124.899C205.459 124.899 205.133 124.874 204.832 124.824ZM271.756 98.6562C268.698 98.3053 266.342 96.9268 264.688 94.5205C262.983 92.0641 262.131 88.8809 262.131 84.9707C262.131 79.9076 263.459 74.6689 266.116 69.2549C266.618 68.2021 267.094 67.2998 267.545 66.5479C268.046 65.7458 268.623 64.9437 269.274 64.1416C272.533 59.7301 275.867 57.1986 279.275 56.5469C279.676 56.4967 279.977 56.4717 280.178 56.4717C280.428 56.4717 280.729 56.4967 281.08 56.5469C283.988 57.0983 285.441 58.9281 285.441 62.0361C285.441 62.5374 285.416 63.0387 285.366 63.54C284.965 65.5954 284.013 67.9264 282.509 70.5332C281.055 73.0898 279.401 75.3457 277.546 77.3008C275.14 79.6569 272.934 80.835 270.929 80.835C270.127 80.835 269.375 80.6595 268.673 80.3086H268.522C268.422 80.2585 268.347 80.2334 268.297 80.2334C268.247 80.2334 268.197 80.3086 268.146 80.459C268.146 80.5592 268.121 80.7848 268.071 81.1357C268.071 81.236 268.046 81.3613 267.996 81.5117C267.946 81.9128 267.896 82.389 267.846 82.9404C267.846 83.4417 267.846 84.2188 267.846 85.2715C267.846 86.1237 267.846 86.7503 267.846 87.1514C267.846 87.5524 267.871 87.8783 267.921 88.1289C267.971 88.3294 268.021 88.5801 268.071 88.8809C268.723 91.8887 270.427 93.3926 273.185 93.3926C275.039 93.3926 277.02 92.8411 279.125 91.7383C281.632 90.5352 284.489 88.5049 287.697 85.6475C288.299 85.096 289.527 83.918 291.382 82.1133C293.237 80.3086 295.167 78.4036 297.172 76.3984C299.227 74.3431 300.882 72.6637 302.135 71.3604C302.586 70.9092 302.912 70.5583 303.112 70.3076C303.363 70.057 303.563 69.8815 303.714 69.7812C303.864 69.681 303.99 69.6309 304.09 69.6309H304.315C304.616 69.6309 304.867 69.7311 305.067 69.9316C305.318 70.1823 305.443 70.4831 305.443 70.834V70.9844C305.393 71.235 305.218 71.6611 304.917 72.2627C304.666 72.8141 304.34 73.4157 303.939 74.0674C303.589 74.7191 303.263 75.3206 302.962 75.8721C301.759 77.6768 300.405 79.4564 298.901 81.2109C298.5 81.7122 297.799 82.4893 296.796 83.542C295.793 84.5446 294.741 85.5973 293.638 86.7002C292.585 87.7529 291.708 88.5801 291.006 89.1816C284.539 95.097 278.899 98.2552 274.087 98.6562C273.686 98.7064 273.41 98.7314 273.26 98.7314C273.109 98.7314 272.959 98.7314 272.809 98.7314H272.508C272.307 98.7314 272.057 98.7064 271.756 98.6562ZM271.455 75.8721C272.007 75.5713 272.683 75.07 273.485 74.3682C274.338 73.6663 275.115 72.8643 275.816 71.9619C277.02 70.458 278.072 68.8538 278.975 67.1494C279.877 65.3949 280.428 63.891 280.629 62.6377C280.679 62.387 280.704 62.1865 280.704 62.0361C280.704 61.7855 280.654 61.6351 280.554 61.585C280.504 61.5348 280.428 61.5098 280.328 61.5098C280.128 61.5098 279.852 61.585 279.501 61.7354C277.546 62.6377 275.465 64.668 273.26 67.8262C272.357 69.1797 271.856 70.082 271.756 70.5332C271.756 70.6836 271.706 70.8841 271.605 71.1348C271.505 71.3854 271.38 71.6361 271.229 71.8867C270.879 72.5885 270.653 73.2152 270.553 73.7666C270.503 74.2679 270.478 74.6188 270.478 74.8193C270.478 75.1702 270.528 75.471 270.628 75.7217C270.678 75.8721 270.753 75.9473 270.854 75.9473C270.954 75.9473 271.029 75.9473 271.079 75.9473C271.179 75.9473 271.305 75.9222 271.455 75.8721ZM296.044 117.079C295.743 116.979 295.417 116.753 295.066 116.402C294.715 116.102 294.44 115.776 294.239 115.425C293.888 114.673 293.613 113.745 293.412 112.643C293.312 112.191 293.262 111.565 293.262 110.763C293.262 109.91 293.262 109.184 293.262 108.582V106.777C293.262 105.524 293.287 104.446 293.337 103.544C293.888 95.5732 295.417 85.8229 297.924 74.293C300.13 63.9661 302.611 54.3161 305.368 45.3428C305.619 44.4404 305.819 43.7386 305.97 43.2373C306.07 42.9365 306.12 42.7611 306.12 42.7109C306.07 42.7109 306.02 42.7109 305.97 42.7109C305.97 42.7109 305.92 42.7109 305.819 42.7109C305.769 42.7109 305.694 42.7109 305.594 42.7109C305.544 42.7109 305.468 42.736 305.368 42.7861C305.268 42.7861 305.143 42.7861 304.992 42.7861C304.842 42.7861 304.666 42.8112 304.466 42.8613C304.315 42.8613 304.115 42.8613 303.864 42.8613C303.664 42.8613 303.413 42.8864 303.112 42.9365C302.862 42.9365 302.561 42.9616 302.21 43.0117C301.909 43.0117 301.583 43.0368 301.232 43.0869C300.43 43.137 299.453 43.2122 298.3 43.3125C291.282 43.9141 286.619 44.3652 284.313 44.666C283.01 44.8665 282.158 44.9668 281.757 44.9668C281.356 44.9668 281.08 44.9668 280.93 44.9668C280.529 44.9668 280.203 44.9167 279.952 44.8164C278.899 44.3151 278.373 43.513 278.373 42.4102V42.2598C278.373 40.7559 279.351 39.8535 281.306 39.5527C282.459 39.3522 284.364 39.1266 287.021 38.876C289.677 38.5752 292.685 38.2995 296.044 38.0488C297.397 37.9486 298.951 37.8483 300.706 37.748C302.461 37.5977 304.015 37.4723 305.368 37.3721C306.722 37.2718 307.499 37.2217 307.699 37.2217C307.749 37.2217 307.799 37.2217 307.85 37.2217C307.9 37.1715 307.95 37.0713 308 36.9209C308.05 36.7705 308.125 36.5449 308.226 36.2441C308.376 35.9434 308.526 35.5173 308.677 34.9658C311.985 25.4912 314.993 18.6986 317.7 14.5879C319.104 12.1816 320.633 10.9785 322.287 10.9785C323.089 10.9785 323.791 11.3044 324.393 11.9561C324.994 12.5576 325.295 13.3848 325.295 14.4375C325.295 15.4902 325.019 17.0192 324.468 19.0244C323.215 23.1852 321.31 28.2734 318.753 34.2891L317.7 36.6201H319.054C324.317 36.3193 328.228 36.1439 330.784 36.0938C333.341 36.0436 336.198 36.0186 339.356 36.0186C343.066 36.0687 346.099 36.1689 348.455 36.3193C350.861 36.4196 353.142 36.5951 355.298 36.8457C356.1 36.946 356.701 37.0462 357.103 37.1465C357.554 37.1966 357.854 37.2718 358.005 37.3721C358.205 37.4222 358.381 37.4974 358.531 37.5977C358.682 37.8483 358.757 38.099 358.757 38.3496V38.5752C358.657 38.9762 358.431 39.252 358.08 39.4023C357.479 39.5527 355.097 39.7533 350.937 40.0039C350.034 40.054 348.756 40.1292 347.102 40.2295C345.497 40.3298 343.918 40.43 342.364 40.5303C339.858 40.6807 337.602 40.806 335.597 40.9062C333.642 41.0065 330.709 41.1569 326.799 41.3574C319.58 41.7585 315.745 41.984 315.294 42.0342C315.244 42.0843 315.118 42.2848 314.918 42.6357C314.717 42.9867 314.492 43.4378 314.241 43.9893C313.138 46.2451 312.086 48.2002 311.083 49.8545V49.9297C310.832 50.2806 310.632 50.6064 310.481 50.9072C310.381 51.1579 310.256 51.4587 310.105 51.8096C310.005 52.1605 309.88 52.6618 309.729 53.3135C306.17 65.9463 303.162 79.4564 300.706 93.8438C299.453 101.012 298.826 106.702 298.826 110.913V112.417L299.202 112.567C299.653 112.768 299.879 113.169 299.879 113.771C299.879 114.021 299.829 114.322 299.729 114.673C299.327 115.926 298.676 116.728 297.773 117.079C297.473 117.179 297.172 117.229 296.871 117.229C296.62 117.229 296.345 117.179 296.044 117.079ZM323.114 120.764C320.858 120.012 319.73 118.433 319.73 116.026C319.73 115.675 319.756 115.299 319.806 114.898C320.307 112.542 321.736 109.785 324.092 106.627C327.2 102.667 331.586 98.2552 337.251 93.3926C338.003 92.7409 339.006 91.9137 340.259 90.9111C341.512 89.8584 342.49 89.0814 343.191 88.5801L343.718 88.2041L343.567 87.7529C343.417 87.4521 343.216 87.0762 342.966 86.625C342.765 86.1738 342.515 85.7728 342.214 85.4219C341.612 84.6699 340.785 83.8678 339.732 83.0156C338.73 82.1634 337.251 81.1357 335.296 79.9326C333.792 78.9801 332.689 78.2533 331.987 77.752C331.285 77.2507 330.684 76.7243 330.183 76.1729C329.631 75.7217 329.18 75.2705 328.829 74.8193C328.528 74.3682 328.253 73.8919 328.002 73.3906C327.451 72.388 327.1 71.2852 326.949 70.082V68.9541C326.949 68.7035 326.974 68.3525 327.024 67.9014C327.325 65.9964 328.102 64.0163 329.355 61.9609C331.26 59.0033 333.692 56.3714 336.649 54.0654C339.607 51.7093 342.389 50.2305 344.996 49.6289C345.497 49.5286 345.949 49.4785 346.35 49.4785C347.753 49.4785 348.931 49.9046 349.884 50.7568C351.037 51.7093 351.613 53.113 351.613 54.9678V55.4189C351.563 56.2712 351.413 57.1484 351.162 58.0508C350.911 58.9531 350.485 60.0811 349.884 61.4346C349.483 62.4873 349.132 63.2393 348.831 63.6904C348.58 64.1416 348.28 64.4424 347.929 64.5928C347.528 64.7933 347.152 64.8936 346.801 64.8936C346.5 64.8936 346.199 64.8184 345.898 64.668C345.247 64.3672 344.821 63.8158 344.62 63.0137C344.57 62.8132 344.545 62.6126 344.545 62.4121C344.545 62.2116 344.57 61.986 344.62 61.7354C344.72 61.2842 344.946 60.5322 345.297 59.4795C345.949 57.5745 346.274 56.196 346.274 55.3438V55.043L346.199 54.9678C346.149 54.9678 346.074 54.9928 345.974 55.043C343.567 55.6947 340.785 57.5745 337.627 60.6826C334.168 64.0915 332.438 66.9489 332.438 69.2549V69.5557C332.438 70.4079 332.84 71.2601 333.642 72.1123C334.043 72.5133 334.569 72.9395 335.221 73.3906C335.872 73.8418 336.875 74.4935 338.229 75.3457C338.93 75.7969 339.582 76.223 340.184 76.624C340.835 77.0251 341.312 77.3258 341.612 77.5264C344.57 79.6318 346.726 81.8125 348.079 84.0684L348.38 84.7451L350.711 83.166C357.077 78.9049 362.517 75.6214 367.028 73.3154C371.841 70.9092 375.425 69.5557 377.781 69.2549H378.082C378.684 69.2549 379.06 69.4805 379.21 69.9316C379.31 70.082 379.36 70.2074 379.36 70.3076C379.36 70.4079 379.335 70.5583 379.285 70.7588C379.235 70.9092 379.11 71.0596 378.909 71.21C378.759 71.3604 378.508 71.5609 378.157 71.8115C377.806 72.0622 377.28 72.388 376.578 72.7891C375.826 73.2402 374.673 73.9421 373.119 74.8945C372.518 75.2956 371.916 75.6715 371.314 76.0225C370.212 76.6742 369.034 77.401 367.78 78.2031C366.577 78.9551 365.549 79.5817 364.697 80.083C359.484 83.2412 355.047 86.1237 351.388 88.7305L349.809 89.8584L349.733 91.6631C349.733 92.5654 349.658 93.4176 349.508 94.2197C349.408 95.0218 349.207 95.874 348.906 96.7764C347.503 101.338 344.946 105.85 341.236 110.312C340.535 111.114 339.607 112.091 338.454 113.244C337.301 114.347 336.349 115.224 335.597 115.876C332.238 118.533 329.155 120.162 326.348 120.764C325.846 120.864 325.295 120.914 324.693 120.914C324.042 120.914 323.515 120.864 323.114 120.764ZM326.348 115.425C327.35 115.074 328.528 114.447 329.882 113.545C335.196 109.785 339.382 104.622 342.439 98.0547C342.59 97.7539 342.74 97.3529 342.891 96.8516C343.091 96.3001 343.242 95.8239 343.342 95.4229C343.492 95.0218 343.567 94.7962 343.567 94.7461C343.517 94.7461 343.392 94.8464 343.191 95.0469C342.891 95.2474 342.565 95.498 342.214 95.7988C334.544 102.215 329.28 107.73 326.423 112.342C326.022 112.943 325.696 113.545 325.445 114.146C325.195 114.698 325.044 115.124 324.994 115.425L324.919 115.801L325.295 115.726C325.445 115.726 325.596 115.701 325.746 115.65C325.947 115.55 326.147 115.475 326.348 115.425Z" fill="#012D1D"/>
</svg>
