<svg width="30" height="43" viewBox="0 0 30 43" fill="none" xmlns="http://www.w3.org/2000/svg">
<g clip-path="url(#clip0_1599_24474)">
<path d="M8.27148 31.8531C9.51525 33.438 10.6473 35.1074 11.6595 36.8493C12.5236 38.4875 12.8839 39.5983 13.5154 41.5722C13.9027 42.6628 14.2527 42.9883 15.0053 42.9883C15.8254 42.9883 16.1975 42.4346 16.4849 41.5782C17.0819 39.7141 17.5503 38.2915 18.2893 36.9472C19.7393 34.352 21.5412 32.0458 23.3117 29.8294C23.791 29.2021 26.8899 25.5475 28.285 22.6639C28.285 22.6639 29.9997 19.4964 29.9997 15.0725C29.9997 10.9344 28.3087 8.06445 28.3087 8.06445L23.4401 9.36804L20.4835 17.1539L19.752 18.2275L19.6057 18.4219L19.4112 18.6654L19.0697 19.0543L18.5818 19.5421L15.9489 21.6867L9.36648 25.4866L8.27148 31.8531Z" fill="#34A853"/>
<path d="M1.47803 22.1321C3.08455 25.801 6.18252 29.0261 8.27853 31.8563L19.4115 18.6712C19.4115 18.6712 17.843 20.722 14.9979 20.722C11.8288 20.722 9.26865 18.1918 9.26865 15.0014C9.26865 12.8136 10.5851 11.3105 10.5851 11.3105L3.02783 13.3352L1.47803 22.1321Z" fill="#FBBC04"/>
<path d="M19.5358 0.677734C23.2333 1.86967 26.3981 4.37198 28.3123 8.0619L19.4149 18.6629C19.4149 18.6629 20.7313 17.1327 20.7313 14.9584C20.7313 11.6937 17.9818 9.25477 15.0114 9.25477C12.2026 9.25477 10.5894 11.3022 10.5894 11.3022V4.62378L19.5358 0.677734Z" fill="#4285F4"/>
<path d="M3.51758 5.36211C5.72598 2.72037 9.61191 0 14.9693 0C17.5685 0 19.5267 0.682259 19.5267 0.682259L10.5811 11.3084H4.24297L3.51758 5.36211Z" fill="#1A73E8"/>
<path d="M1.47797 22.132C1.47797 22.132 0 19.2382 0 15.046C0 11.0838 1.54055 7.62033 3.51738 5.3623L10.5859 11.3095L1.47797 22.132Z" fill="#EA4335"/>
</g>
<defs>
<clipPath id="clip0_1599_24474">
<rect width="30" height="43" fill="white"/>
</clipPath>
</defs>
</svg>
