<svg width="28" height="43" viewBox="0 0 28 43" fill="none" xmlns="http://www.w3.org/2000/svg">
<g clip-path="url(#clip0_1599_24458)">
<path d="M14.1559 13.526C13.3757 13.6179 12.7807 14.2599 12.7254 15.0696C12.7015 15.4184 12.709 15.442 13.4895 17.477C15.265 22.1065 15.6951 23.2208 15.7674 23.3776C15.9428 23.7574 16.1892 24.1146 16.4972 24.4353C16.7334 24.6813 16.8893 24.8137 17.1528 24.9921C17.6161 25.3056 17.8459 25.3922 19.6485 25.933C21.4043 26.4599 22.3636 26.8099 23.1902 27.2257C24.2611 27.7643 25.0083 28.3768 25.4809 29.1037C25.82 29.6252 26.1203 30.5605 26.2509 31.5019C26.3021 31.87 26.3023 32.6834 26.2516 33.0161C26.1413 33.7383 25.9211 34.3434 25.5843 34.8497C25.4051 35.119 25.4675 35.0739 25.7279 34.7457C26.4651 33.8171 27.2159 32.2299 27.5991 30.7907C28.0628 29.0487 28.1259 27.1782 27.7806 25.4079C27.1083 21.9604 24.9603 18.9851 21.9352 17.311C21.7451 17.2058 21.0211 16.8212 20.0396 16.3042C19.889 16.2249 19.7386 16.1453 19.5882 16.0655C19.489 16.0126 19.2859 15.9051 19.1369 15.8268C18.988 15.7483 18.5592 15.522 18.1842 15.3237L17.2514 14.831C16.9471 14.6703 16.6429 14.5093 16.3388 14.3481C15.3661 13.8323 14.9544 13.6237 14.8371 13.5876C14.714 13.5495 14.4013 13.5009 14.3229 13.5074C14.3063 13.5088 14.2313 13.5172 14.1559 13.526Z" fill="url(#paint0_radial_1599_24458)"/>
<path d="M16.2762 30.8082C16.2223 30.8406 16.1467 30.8874 16.1081 30.9122C16.0694 30.9371 15.9838 30.9911 15.9175 31.0322C15.4358 31.3323 14.9544 31.6329 14.4733 31.934C14.1788 32.1181 13.8845 32.3027 13.5906 32.4878C13.4607 32.5697 13.3303 32.6509 13.1995 32.7314C13.1498 32.7614 12.9378 32.8937 12.7281 33.0255C12.4576 33.1954 12.1868 33.3648 11.9158 33.5337C11.6012 33.7297 11.287 33.9261 10.973 34.1229C10.6991 34.2946 10.425 34.4659 10.1507 34.6368C9.97961 34.7431 9.82167 34.8457 9.79958 34.8649C9.76677 34.8933 8.24591 35.8479 7.4828 36.319C6.90311 36.6767 6.23264 36.916 5.54631 37.01C5.22683 37.0538 4.6221 37.0539 4.30349 37.0103C3.43942 36.8921 2.64361 36.5656 1.96188 36.0499C1.69456 35.8475 1.19111 35.3379 0.99872 35.0746C0.545142 34.4543 0.251798 33.7889 0.0998762 33.0359C0.0648762 32.8626 0.0318449 32.7163 0.0263762 32.7106C0.0121574 32.6962 0.0378606 32.9579 0.0841262 33.3001C0.132251 33.656 0.234736 34.1708 0.345204 34.6111C1.19986 38.0182 3.63192 40.7894 6.92411 42.1079C7.87217 42.4874 8.82888 42.7265 9.8698 42.8438C10.2609 42.8881 11.3681 42.9059 11.7762 42.8744C13.6484 42.7308 15.2784 42.1724 16.9505 41.1016C17.0995 41.0063 17.3793 40.8275 17.5723 40.7043C17.7532 40.5889 17.9338 40.4729 18.1139 40.3563C18.2187 40.2882 18.3452 40.2077 18.3947 40.1775C18.4689 40.1316 18.5425 40.0848 18.6154 40.0369C18.6872 39.9899 18.994 39.7931 19.2974 39.5998L20.5106 38.8234L20.9272 38.5568L20.9422 38.5472L20.9881 38.5179L21.0099 38.5039L21.3165 38.3076L22.3764 37.6293C23.727 36.7694 24.1297 36.4675 24.757 35.8448C25.0187 35.5852 25.413 35.1421 25.4325 35.0858C25.4366 35.0743 25.5067 34.9648 25.5883 34.8424C25.9204 34.3445 26.1417 33.7347 26.2515 33.0155C26.3024 32.6828 26.3021 31.8694 26.251 31.5013C26.1522 30.7898 25.9278 29.9828 25.6859 29.4689C25.2892 28.6263 24.4441 27.8606 23.2301 27.244C22.8948 27.0737 22.5487 26.9178 22.51 26.9199C22.4917 26.9209 21.3619 27.6206 19.9995 28.4748C18.637 29.3293 17.4545 30.0707 17.3717 30.1228C17.2889 30.1749 17.1468 30.2627 17.0558 30.3183L16.2762 30.8082Z" fill="url(#paint1_radial_1599_24458)"/>
<path d="M0.00579687 26.7102L0.0117031 32.6603L0.0877187 33.0058C0.325281 34.0861 0.737078 34.8649 1.45294 35.5883C1.78959 35.9285 2.04706 36.1338 2.41194 36.3525C3.18412 36.8154 4.01505 37.0439 4.92516 37.0435C5.87847 37.043 6.70316 36.802 7.55289 36.2757C7.69628 36.187 8.25825 35.8364 8.80152 35.4967L9.78939 34.8792V20.7602L9.78917 14.3021C9.78895 10.1819 9.78152 7.73503 9.76861 7.54308C9.68767 6.33676 9.18969 5.22773 8.35242 4.3889C8.0955 4.13146 7.87598 3.95946 7.22192 3.50341C6.78054 3.1956 6.33925 2.88765 5.89805 2.57958L3.12998 0.646682C2.49791 0.205045 2.44847 0.174458 2.25739 0.105192C2.00889 0.0150918 1.74552 -0.0180447 1.49516 0.00932896C0.765406 0.0891228 0.181234 0.623076 0.0294219 1.34887C0.00579687 1.46191 0.00142187 2.96469 0.00109375 11.1213L0.000765625 20.7603H0L0.00579687 26.7102Z" fill="url(#paint2_linear_1599_24458)"/>
</g>
<defs>
<radialGradient id="paint0_radial_1599_24458" cx="0" cy="0" r="1" gradientTransform="matrix(-14.3219 -12.0507 22.9707 -14.5117 4.96185 -28.9703)" gradientUnits="userSpaceOnUse">
<stop stop-color="#00CACC"/>
<stop offset="1" stop-color="#048FCE"/>
</radialGradient>
<radialGradient id="paint1_radial_1599_24458" cx="0" cy="0" r="1" gradientTransform="matrix(21.7438 -15.7334 5.59081 22.0319 10.9541 33.7793)" gradientUnits="userSpaceOnUse">
<stop stop-color="#00BBEC"/>
<stop offset="1" stop-color="#2756A9"/>
</radialGradient>
<linearGradient id="paint2_linear_1599_24458" x1="4.8947" y1="0" x2="4.8947" y2="37.0435" gradientUnits="userSpaceOnUse">
<stop stop-color="#00BBEC"/>
<stop offset="1" stop-color="#2756A9"/>
</linearGradient>
<clipPath id="clip0_1599_24458">
<rect width="28" height="43" fill="white"/>
</clipPath>
</defs>
</svg>
