<svg width="83" height="69" viewBox="0 0 83 69" fill="none" xmlns="http://www.w3.org/2000/svg">
<g clip-path="url(#clip0_735_26431)">
<path d="M39.08 10.82C35.18 7.15997 30.62 4.96996 25.4 4.76997C15.81 4.40997 8.27002 9.80997 5.91002 18.98C3.72002 27.49 6.07001 35.01 11.49 41.69C12.66 43.14 13.95 44.5 15.26 45.82C17.28 47.86 19.05 49.93 20.22 52.71C22.94 59.16 31.11 61.63 37.63 58.29C38.76 57.71 39.62 57.65 40.75 58.27C46.39 61.34 53.83 59.73 56.62 54.01C58.86 49.41 62.4 46.18 65.63 42.56C69.85 37.83 72.51 32.42 73.03 26.04C73.07 25.56 73.27 24.92 73.62 24.66C75.22 23.45 76.9 22.36 78.67 21.14C78.67 23.23 78.84 25.44 78.64 27.62C77.75 37.13 72.73 44.5 66.27 51.1C60.67 56.81 54.6 61.92 47.75 66.12C42.69 69.22 37.76 69.68 32.41 66.81C24.45 62.53 17.57 56.94 11.47 50.33C7.81002 46.37 4.47002 42.17 2.46002 37.09C-0.619984 29.31 -1.02998 21.41 2.43002 13.7C5.96002 5.88997 12.43 1.67997 20.77 0.309965C26.92 -0.700035 32.52 0.819965 37.6 4.34997C38.37 4.87996 38.96 5.03997 39.84 4.43997C46.88 -0.400035 54.38 -1.31003 62.32 1.94997C62.53 2.03997 62.76 2.06997 62.97 2.12997C63.12 2.16997 63.28 2.22997 63.46 2.28997C62.16 3.30997 60.92 4.32997 59.63 5.27997C59.32 5.50997 58.81 5.63997 58.44 5.56997C49.65 4.00997 46.29 4.89997 39.08 10.82Z" fill="#D9E693"/>
<path d="M55.2 44.32C52.63 38.1 48.22 33.61 42.04 30.93C40.06 30.07 37.99 30.15 35.95 30.96C31.57 32.7 28.2 35.71 25.32 39.34C23.37 41.8 21.84 44.46 21.85 47.74C21.85 51.69 24.47 55.18 28.29 56.26C30.92 57.01 33.54 56.87 36.08 55.9C38.11 55.13 40.1 55 42.16 55.8C42.94 56.1 43.79 56.21 44.62 56.38C48.34 57.15 51.57 56.29 54.08 53.36C56.42 50.63 56.52 47.5 55.21 44.33L55.2 44.32Z" fill="#006838"/>
<path d="M64.3038 32.5751C65.6111 28.8548 64.0561 24.9202 60.8308 23.7869C57.6055 22.6536 53.9311 24.7508 52.6239 28.4711C51.3167 32.1915 52.8716 36.1261 56.0969 37.2594C59.3223 38.3927 62.9966 36.2955 64.3038 32.5751Z" fill="#009444"/>
<path d="M52.3554 23.9091C53.6626 20.1888 52.1076 16.2541 48.8823 15.1209C45.657 13.9876 41.9826 16.0848 40.6754 19.8051C39.3682 23.5255 40.9231 27.4601 44.1485 28.5934C47.3738 29.7267 51.0481 27.6295 52.3554 23.9091Z" fill="#009444"/>
<path d="M21.468 37.0884C24.6933 35.9551 26.2483 32.0204 24.9411 28.3001C23.6338 24.5798 19.9595 22.4826 16.7341 23.6158C13.5088 24.7491 11.9539 28.6838 13.2611 32.4041C14.5683 36.1244 18.2427 38.2217 21.468 37.0884Z" fill="#009444"/>
<path d="M33.4121 28.4299C36.6374 27.2966 38.1924 23.362 36.8851 19.6417C35.5779 15.9213 31.9036 13.8241 28.6782 14.9574C25.4529 16.0907 23.898 20.0253 25.2052 23.7457C26.5124 27.466 30.1868 29.5632 33.4121 28.4299Z" fill="#009444"/>
<path d="M81.34 12.62C81.35 12.55 81.36 12.48 81.37 12.4C81.71 9.50004 79.56 6.69004 76.54 6.34004C74.33 6.08004 72.26 7.28004 71.19 8.99004C70.54 7.08004 68.81 5.43004 66.6 5.17004C63.58 4.81004 60.84 7.04004 60.5 9.94004C60.5 10.01 60.49 10.08 60.48 10.16C60.48 10.16 59.77 13.57 63.16 17.79C64.7 19.74 66.45 21.63 69.36 24.62C72.88 22.39 75.02 20.96 76.97 19.42C81.25 16.11 81.35 12.62 81.35 12.62H81.34Z" fill="#ED1C24" stroke="#ED1C24" stroke-width="2" stroke-miterlimit="10"/>
</g>
<defs>
<clipPath id="clip0_735_26431">
<rect width="82.4" height="68.73" fill="white"/>
</clipPath>
</defs>
</svg>
