<svg width="23" height="22" viewBox="0 0 23 22" fill="none" xmlns="http://www.w3.org/2000/svg">
<path d="M21.9219 8.48832C21.9319 8.41832 21.9419 8.34832 21.9519 8.26832C22.2919 5.36832 20.1419 2.55832 17.1219 2.20832C14.9119 1.94832 12.8419 3.14832 11.7719 4.85832C11.1219 2.94832 9.39188 1.29832 7.18188 1.03832C4.16188 0.678322 1.42188 2.90832 1.08188 5.80832C1.08188 5.87832 1.07188 5.94832 1.06188 6.02832C1.06188 6.02832 0.351879 9.43832 3.74188 13.6583C5.28188 15.6083 7.03188 17.4983 9.94188 20.4883C13.4619 18.2583 15.6019 16.8283 17.5519 15.2883C21.8319 11.9783 21.9319 8.48832 21.9319 8.48832H21.9219Z" fill="#ED1C24" stroke="#ED1C24" stroke-width="2" stroke-miterlimit="10"/>
</svg>
