<svg width="40" height="37" viewBox="0 0 40 37" fill="none" xmlns="http://www.w3.org/2000/svg">
<path d="M20.8324 36.9805L17.8494 34.4761C14.3859 31.5539 11.519 29.0291 9.24865 26.9017C6.97829 24.7744 5.16501 22.8574 3.8088 21.1505C2.4526 19.4437 1.49246 17.8658 0.928386 16.4167C0.364312 14.9676 0.0573518 13.4768 0.00750424 11.9443C-0.0943581 8.81258 0.870021 6.16316 2.90064 3.996C4.93126 1.82884 7.51241 0.694334 10.6441 0.592471C12.3765 0.536122 14.0376 0.848955 15.6272 1.53097C17.2169 2.21298 18.5998 3.20188 19.7759 4.49767C20.8653 3.1282 22.181 2.05152 23.7229 1.26764C25.2649 0.483767 26.9022 0.063654 28.6346 0.0073046C31.7663 -0.0945578 34.4157 0.869822 36.5828 2.90044C38.75 4.93106 39.8845 7.51221 39.9864 10.6439C40.0362 12.1764 39.8268 13.684 39.3581 15.1667C38.8893 16.6494 38.0338 18.2864 36.7914 20.0777C35.5489 21.8691 33.8641 23.8999 31.7368 26.1703C29.6094 28.4406 26.9126 31.1464 23.6464 34.2876L20.8324 36.9805Z" fill="#95442D"/>
</svg>
