<svg width="24" height="24" viewBox="0 0 24 24" fill="none" xmlns="http://www.w3.org/2000/svg">
<g clip-path="url(#clip0_439_188)">
<path d="M22.987 8.56637C22.7268 7.94809 22.2946 7.5023 21.7368 7.27777L21.7293 7.27496C21.4754 7.17556 21.2051 7.12468 20.9325 7.12496H20.9025C19.6256 7.14418 18.322 8.22934 17.6592 9.82543C17.1731 10.9926 17.1173 12.2479 17.5101 13.1836C17.7698 13.8023 18.2029 14.2481 18.7631 14.4726L18.7692 14.475C19.0231 14.5744 19.2934 14.6252 19.566 14.625C20.8551 14.625 22.1723 13.5398 22.8473 11.9226C23.3273 10.7568 23.3803 9.50246 22.987 8.56637ZM17.8851 15.4504C17.1487 15.0079 16.4526 14.5893 15.9979 13.8375C14.7435 11.7562 13.986 10.5 12 10.5C10.0139 10.5 9.25448 11.7562 7.9973 13.8375C7.54167 14.5903 6.84417 15.0093 6.10542 15.4537C5.25839 15.9628 4.38323 16.4887 4.00542 17.5237C3.85851 17.8968 3.78452 18.2946 3.78745 18.6956C3.78745 20.3807 5.09995 21.7518 6.71245 21.7518C7.54448 21.7518 8.42995 21.4636 9.36698 21.1584C10.2679 20.865 11.1993 20.5617 12.0046 20.5617C12.81 20.5617 13.739 20.865 14.6367 21.1584C15.5718 21.4617 16.4531 21.75 17.2875 21.75C18.8976 21.75 20.2078 20.3789 20.2078 18.6937C20.2091 18.2924 20.1335 17.8946 19.9851 17.5218C19.6073 16.4859 18.7317 15.9595 17.8851 15.4504ZM7.0312 8.8523C7.58902 9.55215 8.29683 9.93746 9.02433 9.93746C9.12364 9.93744 9.22282 9.93007 9.32105 9.91543C10.8384 9.6923 11.7839 7.84074 11.4735 5.69668C11.3437 4.79527 10.9968 3.95574 10.5 3.33324C9.94308 2.6348 9.23433 2.24996 8.5073 2.24996C8.40798 2.24998 8.30881 2.25735 8.21058 2.27199C6.69323 2.49512 5.74776 4.34668 6.05808 6.49074C6.18745 7.39074 6.53433 8.22934 7.0312 8.8523ZM14.6793 9.91543C14.7776 9.93007 14.8767 9.93744 14.976 9.93746C15.704 9.93746 16.4114 9.55215 16.9692 8.8523C17.4656 8.22934 17.8106 7.39074 17.9418 6.4898C18.2521 4.34668 17.3067 2.49512 15.7893 2.27105C15.6911 2.25641 15.5919 2.24905 15.4926 2.24902C14.7656 2.24996 14.0568 2.6348 13.5 3.33324C13.0031 3.95574 12.6562 4.79527 12.5268 5.69762C12.2165 7.84074 13.162 9.6923 14.6793 9.91543ZM5.23073 14.475L5.2373 14.4726C5.79651 14.2481 6.22917 13.8028 6.48839 13.1845C6.8812 12.247 6.82589 10.9931 6.34073 9.8259C5.66901 8.21059 4.3523 7.12496 3.06464 7.12496C2.79196 7.12457 2.52164 7.17545 2.26776 7.27496L2.2612 7.2773C1.70339 7.49996 1.27073 7.94715 1.01151 8.56543C0.618702 9.50293 0.674015 10.7568 1.15917 11.924C1.83089 13.5393 3.14761 14.625 4.43526 14.625C4.70747 14.6252 4.9773 14.5743 5.23073 14.475Z" fill="white"/>
</g>
<defs>
<clipPath id="clip0_439_188">
<rect width="24" height="24" fill="white"/>
</clipPath>
</defs>
</svg>
