<svg width="24" height="24" viewBox="0 0 24 24" fill="none" xmlns="http://www.w3.org/2000/svg">
<g clip-path="url(#clip0_249_46)">
<path d="M22.987 8.5664C22.7269 7.94812 22.2947 7.50233 21.7369 7.2778L21.7294 7.27499C21.4755 7.17559 21.2052 7.12471 20.9325 7.12499H20.9025C19.6256 7.14421 18.322 8.22937 17.6592 9.82546C17.1731 10.9926 17.1173 12.248 17.5102 13.1836C17.7698 13.8023 18.203 14.2481 18.7631 14.4726L18.7692 14.475C19.0231 14.5744 19.2934 14.6253 19.5661 14.625C20.8552 14.625 22.1723 13.5398 22.8473 11.9226C23.3273 10.7569 23.3803 9.50249 22.987 8.5664ZM17.8852 15.4505C17.1487 15.008 16.4527 14.5894 15.998 13.8375C14.7436 11.7562 13.9861 10.5 12 10.5C10.0139 10.5 9.25453 11.7562 7.99734 13.8375C7.54172 14.5903 6.84422 15.0094 6.10547 15.4537C5.25844 15.9628 4.38328 16.4887 4.00547 17.5237C3.85856 17.8968 3.78456 18.2946 3.7875 18.6956C3.7875 20.3808 5.1 21.7519 6.7125 21.7519C7.54453 21.7519 8.43 21.4636 9.36703 21.1584C10.268 20.865 11.1994 20.5617 12.0047 20.5617C12.81 20.5617 13.7391 20.865 14.6367 21.1584C15.5719 21.4617 16.4531 21.75 17.2875 21.75C18.8977 21.75 20.2078 20.3789 20.2078 18.6937C20.2091 18.2925 20.1336 17.8947 19.9852 17.5219C19.6073 16.4859 18.7317 15.9595 17.8852 15.4505ZM7.03125 8.85233C7.58906 9.55218 8.29687 9.93749 9.02437 9.93749C9.12369 9.93747 9.22286 9.9301 9.32109 9.91546C10.8384 9.69233 11.7839 7.84077 11.4736 5.69671C11.3437 4.7953 10.9969 3.95577 10.5 3.33327C9.94312 2.63484 9.23437 2.24999 8.50734 2.24999C8.40803 2.25002 8.30885 2.25738 8.21062 2.27202C6.69328 2.49515 5.74781 4.34671 6.05812 6.49077C6.1875 7.39077 6.53437 8.22937 7.03125 8.85233ZM14.6794 9.91546C14.7776 9.9301 14.8768 9.93747 14.9761 9.93749C15.7041 9.93749 16.4114 9.55218 16.9692 8.85233C17.4656 8.22937 17.8106 7.39077 17.9419 6.48983C18.2522 4.34671 17.3067 2.49515 15.7894 2.27109C15.6911 2.25644 15.592 2.24908 15.4927 2.24905C14.7656 2.24999 14.0569 2.63484 13.5 3.33327C13.0031 3.95577 12.6562 4.7953 12.5269 5.69765C12.2166 7.84077 13.162 9.69233 14.6794 9.91546ZM5.23078 14.475L5.23734 14.4726C5.79656 14.2481 6.22922 13.8028 6.48844 13.1845C6.88125 12.247 6.82594 10.9931 6.34078 9.82593C5.66906 8.21062 4.35234 7.12499 3.06469 7.12499C2.79201 7.1246 2.52168 7.17548 2.26781 7.27499L2.26125 7.27734C1.70344 7.49999 1.27078 7.94718 1.01156 8.56546C0.618748 9.50296 0.67406 10.7569 1.15922 11.9241C1.83094 13.5394 3.14765 14.625 4.43531 14.625C4.70752 14.6252 4.97734 14.5743 5.23078 14.475Z" fill="white"/>
</g>
<defs>
<clipPath id="clip0_249_46">
<rect width="24" height="24" fill="white"/>
</clipPath>
</defs>
</svg>
