<svg width="23" height="23" viewBox="0 0 23 23" fill="none" xmlns="http://www.w3.org/2000/svg">
<path d="M22.4915 6.528C22.2125 15.3965 14.936 22.5 6 22.5C2.5835 22.5 0 19.8325 0 16.4655C2.48146e-05 16.0158 0.134795 15.5765 0.386922 15.2041C0.63905 14.8317 0.996968 14.5435 1.4145 14.3765L4.497 13.1435C4.99669 12.9436 5.54406 12.8946 6.07128 13.0028C6.59851 13.111 7.0824 13.3715 7.463 13.752L9.001 15.2905C9.069 15.3585 9.1455 15.3665 9.192 15.3525C10.6447 14.9086 11.9661 14.1148 13.0402 13.0407C14.1143 11.9666 14.9081 10.6452 15.352 9.1925C15.3665 9.1455 15.3585 9.069 15.2905 9.001L13.752 7.463C13.3715 7.0824 13.111 6.59851 13.0028 6.07128C12.8946 5.54406 12.9436 4.99669 13.1435 4.497L14.3765 1.4145C14.5435 0.996968 14.8317 0.63905 15.2041 0.386922C15.5765 0.134795 16.0158 2.48146e-05 16.4655 0C20.148 0 22.5485 2.9305 22.4915 6.528Z" fill="#214A1E"/>
</svg>
