<svg width="33" height="40" viewBox="0 0 33 40" fill="none" xmlns="http://www.w3.org/2000/svg">
<path d="M17.7446 39.946C13.057 39.0216 9.09904 36.5655 5.87088 32.5778C2.64271 28.5901 0.897042 24.0664 0.633859 19.0065L0.000140935 6.82302L15.6669 1.07288e-05L31.9569 5.16081L32.5907 17.3443C32.8538 22.4042 31.5869 27.0846 28.7899 31.3857C25.9929 35.6868 22.3111 38.5402 17.7446 39.946ZM17.5265 35.7517C20.7035 34.5851 23.2973 32.4725 25.3078 29.4139C27.3183 26.3554 28.4123 23.0024 28.5897 19.3549L16.7058 19.973L15.8876 4.24427L4.13759 9.36153L4.62846 18.7988C4.6475 19.1649 4.66309 19.4645 4.67521 19.6976C4.68733 19.9306 4.7362 20.2284 4.82182 20.5911L16.7058 19.973L17.5265 35.7517Z" fill="#416352"/>
</svg>
