<svg width="28" height="31" viewBox="0 0 28 31" fill="none" xmlns="http://www.w3.org/2000/svg">
<path d="M11.9873 22.9756L22.2818 12.1275L20.1276 10.0831L11.8773 18.7771L7.49188 14.6155L5.44757 16.7697L11.9873 22.9756ZM3.78451 30.618C2.95979 30.6396 2.2461 30.3644 1.64342 29.7925C1.04074 29.2206 0.728604 28.5223 0.707008 27.6975L0.157293 6.70475C0.135697 5.88003 0.410859 5.16634 0.982779 4.56366C1.5547 3.96098 2.25302 3.64885 3.07773 3.62725L9.37557 3.46233C9.6769 2.55414 10.2015 1.81515 10.9493 1.24538C11.6972 0.675609 12.5459 0.37829 13.4956 0.353422C14.4453 0.328554 15.3084 0.581045 16.0851 1.1109C16.8617 1.64075 17.4242 2.35126 17.7727 3.24245L24.0705 3.07753C24.8952 3.05594 25.6089 3.3311 26.2116 3.90302C26.8143 4.47494 27.1264 5.17326 27.148 5.99797L27.6977 26.9908C27.7193 27.8155 27.4442 28.5292 26.8723 29.1319C26.3003 29.7345 25.602 30.0467 24.7773 30.0683L3.78451 30.618ZM3.70598 27.619L24.6988 27.0693L24.1491 6.0765L3.15626 6.62622L3.70598 27.619ZM13.6232 5.22675C13.9481 5.21824 14.214 5.10499 14.4208 4.887C14.6277 4.66901 14.7269 4.39757 14.7184 4.07268C14.7099 3.7478 14.5966 3.48192 14.3786 3.27506C14.1606 3.06819 13.8892 2.96901 13.5643 2.97752C13.2394 2.98603 12.9736 3.09928 12.7667 3.31727C12.5598 3.53526 12.4606 3.80669 12.4692 4.13158C12.4777 4.45647 12.5909 4.72235 12.8089 4.92921C13.0269 5.13608 13.2983 5.23526 13.6232 5.22675ZM3.70598 27.619L3.15626 6.62622L3.70598 27.619Z" fill="#AD321C"/>
</svg>
