<svg width="25" height="31" viewBox="0 0 25 31" fill="none" xmlns="http://www.w3.org/2000/svg">
<path d="M6.06247 24.0584L18.0598 24.3097L18.1227 21.3104L6.1253 21.059L6.06247 24.0584ZM6.18813 18.0597L18.1855 18.311L18.2483 15.3117L6.25096 15.0604L6.18813 18.0597ZM2.93748 29.9942C2.11266 29.977 1.41271 29.6685 0.837647 29.0688C0.262579 28.4691 -0.016316 27.7569 0.000961469 26.9321L0.503579 2.93733C0.520857 2.11251 0.829333 1.41257 1.42901 0.837501C2.02868 0.262433 2.74093 -0.016462 3.56575 0.000815479L15.5631 0.252124L24.3727 9.43863L23.9957 27.4347C23.9784 28.2595 23.67 28.9595 23.0703 29.5345C22.4706 30.1096 21.7584 30.3885 20.9335 30.3712L2.93748 29.9942ZM13.8436 10.7184L14.0006 3.22005L3.50292 3.00016L3.0003 26.9949L20.9964 27.3719L21.3419 10.8755L13.8436 10.7184ZM3.50292 3.00016L3.34585 10.4985L3.50292 3.00016L3.34585 10.4985L3.0003 26.9949L3.50292 3.00016Z" fill="#AD321C"/>
</svg>
