<svg width="162" height="161" viewBox="0 0 162 161" fill="none" xmlns="http://www.w3.org/2000/svg">
<rect width="162" height="161" rx="80.5" fill="white"/>
<path d="M25.7787 91V83.2812L41.3725 62.7812C42.0808 61.8646 42.6225 60.9271 42.9975 59.9688C43.3933 58.9896 43.5912 58.0833 43.5912 57.25V57.1875C43.5912 55.9583 43.1954 55.0104 42.4037 54.3438C41.6121 53.6771 40.4871 53.3438 39.0287 53.3438C37.6329 53.3438 36.4871 53.8125 35.5912 54.75C34.7162 55.6667 34.185 56.9792 33.9975 58.6875V58.7188H25.2162V58.6875C25.5079 54.375 26.8829 51.0312 29.3412 48.6562C31.8204 46.2812 35.0287 45.0938 38.9662 45.0938C43.2371 45.0938 46.5392 46.125 48.8725 48.1875C51.2267 50.25 52.4037 53.1667 52.4037 56.9375V56.9688C52.4037 59.0312 52.0392 61.0833 51.31 63.125C50.6017 65.1458 49.6017 66.9792 48.31 68.625L37.1225 82.75H52.6537V91H25.7787ZM53.1887 84.0312V76.1562L67.1887 45.5938H76.8762L63.2512 75.7812H83.6575V84.0312H53.1887ZM71.5325 91.0312V64.2812H80.095V91.0312H71.5325ZM109.849 40.1875L89.5362 99.625H81.4112L101.724 40.1875H109.849ZM133.728 45.5625V51.25L123.54 91H114.259L124.134 53.8125H116.321V60.6562H107.759V45.5625H133.728Z" fill="#214A1E"/>
<path d="M43.7411 123.176C42.9286 123.176 42.1317 123.094 41.3505 122.93C40.577 122.766 39.8505 122.527 39.1708 122.215C38.4911 121.895 37.8778 121.512 37.3309 121.066L38.8192 118.418C39.4755 118.957 40.2333 119.375 41.0927 119.672C41.952 119.961 42.8348 120.105 43.7411 120.105C44.788 120.105 45.6005 119.93 46.1786 119.578C46.7567 119.219 47.0458 118.715 47.0458 118.066V118.055C47.0458 117.562 46.9012 117.188 46.6122 116.93C46.3231 116.664 45.9403 116.469 45.4637 116.344C44.995 116.219 44.4833 116.113 43.9286 116.027C43.2645 115.926 42.5927 115.801 41.913 115.652C41.2333 115.496 40.6083 115.254 40.038 114.926C39.4677 114.59 39.0067 114.113 38.6552 113.496C38.3114 112.879 38.1395 112.055 38.1395 111.023V111.012C38.1395 109.348 38.6864 108.062 39.7802 107.156C40.8739 106.242 42.4208 105.785 44.4208 105.785C45.3427 105.785 46.2802 105.941 47.2333 106.254C48.1864 106.559 49.0731 106.996 49.8934 107.566L48.5341 110.285C47.8778 109.824 47.1903 109.473 46.4716 109.23C45.7606 108.98 45.077 108.855 44.4208 108.855C43.4364 108.855 42.6747 109.02 42.1356 109.348C41.5966 109.668 41.327 110.121 41.327 110.707V110.719C41.327 111.266 41.4872 111.68 41.8075 111.961C42.1278 112.242 42.5458 112.453 43.0614 112.594C43.577 112.727 44.1317 112.852 44.7255 112.969C45.3817 113.094 46.0341 113.25 46.6825 113.438C47.3309 113.617 47.9247 113.879 48.4637 114.223C49.0028 114.566 49.4325 115.039 49.7528 115.641C50.0731 116.242 50.2333 117.023 50.2333 117.984V118.008C50.2333 119.648 49.6669 120.922 48.5341 121.828C47.4012 122.727 45.8036 123.176 43.7411 123.176ZM51.5003 123V105.961H54.7112V123H51.5003ZM52.6605 123V119.906H62.9144V123H52.6605ZM52.6605 116.086V112.992H61.6253V116.086H52.6605ZM52.6605 109.055V105.961H62.9144V109.055H52.6605ZM65.6814 116.145V113.051H71.6111C72.1111 113.051 72.5095 112.867 72.8064 112.5C73.1111 112.133 73.2673 111.648 73.2752 111.047C73.2752 110.445 73.1228 109.961 72.8181 109.594C72.5212 109.227 72.1189 109.043 71.6111 109.043H65.6814V105.949H71.8689C72.8142 105.949 73.6384 106.16 74.3416 106.582C75.0525 107.004 75.6033 107.598 75.9939 108.363C76.3845 109.129 76.5798 110.023 76.5798 111.047C76.5798 112.07 76.3806 112.965 75.9822 113.73C75.5916 114.496 75.0447 115.09 74.3416 115.512C73.6384 115.934 72.8142 116.145 71.8689 116.145H65.6814ZM64.4041 123V105.949H67.615V123H64.4041ZM73.4041 123L69.2673 115.617L72.7009 115.078L77.2947 123H73.4041ZM82.4172 123L76.7453 105.961H80.05L83.6711 117.328L87.2922 105.961H90.5969L84.925 123H82.4172ZM94.36 105.961V123H91.0319V105.961H94.36ZM102.248 123.176C100.943 123.176 99.8302 122.93 98.9083 122.438C97.9942 121.938 97.295 121.215 96.8106 120.27C96.3262 119.316 96.0841 118.168 96.0841 116.824V112.148C96.0841 110.797 96.3262 109.648 96.8106 108.703C97.295 107.758 97.9942 107.035 98.9083 106.535C99.8302 106.035 100.943 105.785 102.248 105.785C103.326 105.785 104.283 106.016 105.119 106.477C105.963 106.938 106.658 107.605 107.205 108.48C107.76 109.355 108.143 110.418 108.354 111.668H105.025C104.9 111.098 104.705 110.617 104.44 110.227C104.182 109.828 103.865 109.523 103.49 109.312C103.123 109.102 102.709 108.996 102.248 108.996C101.35 108.996 100.65 109.273 100.15 109.828C99.6583 110.375 99.4122 111.148 99.4122 112.148V116.824C99.4122 117.824 99.6583 118.598 100.15 119.145C100.65 119.691 101.35 119.965 102.248 119.965C102.951 119.965 103.545 119.734 104.029 119.273C104.514 118.805 104.846 118.145 105.025 117.293H108.354C108.135 118.535 107.748 119.598 107.193 120.48C106.647 121.355 105.955 122.023 105.119 122.484C104.283 122.945 103.326 123.176 102.248 123.176ZM109.621 123V105.961H112.832V123H109.621ZM110.781 123V119.906H121.035V123H110.781ZM110.781 116.086V112.992H119.746V116.086H110.781ZM110.781 109.055V105.961H121.035V109.055H110.781Z" fill="#214A1E"/>
</svg>
