<svg width="20" height="20" viewBox="0 0 20 20" fill="none" xmlns="http://www.w3.org/2000/svg">
<path d="M12 1.20245C12 0.154847 10.752 -0.389953 9.984 0.322847L5.3376 4.63445C5.22676 4.73761 5.08102 4.79505 4.9296 4.79525L1.8 4.79525C1.32261 4.79525 0.864773 4.98489 0.527208 5.32245C0.189642 5.66002 8.44325e-09 6.11786 9.10209e-09 6.59525L1.73827e-08 12.5952C1.80415e-08 13.0726 0.189642 13.5305 0.527208 13.868C0.864773 14.2056 1.32261 14.3952 1.8 14.3952L4.9284 14.3952C5.07966 14.3951 5.22538 14.4521 5.3364 14.5548L9.984 18.8676C10.752 19.5792 12 19.0356 12 17.988L12 1.20245ZM15.9048 3.14765C15.9636 3.09517 16.0321 3.05478 16.1065 3.02879C16.1809 3.0028 16.2597 2.99172 16.3383 2.99618C16.417 3.00064 16.494 3.02054 16.565 3.05477C16.636 3.08899 16.6995 3.13687 16.752 3.19565C18.326 4.95567 19.1962 7.23405 19.1962 9.59525C19.1962 11.9564 18.326 14.2348 16.752 15.9948C16.6997 16.0544 16.6361 16.103 16.5649 16.1378C16.4937 16.1726 16.4163 16.193 16.3372 16.1977C16.258 16.2025 16.1788 16.1915 16.1039 16.1654C16.0291 16.1393 15.9601 16.0987 15.9011 16.0458C15.842 15.9929 15.794 15.9289 15.7599 15.8574C15.7257 15.7859 15.7061 15.7083 15.7021 15.6291C15.6981 15.5499 15.7098 15.4708 15.7365 15.3962C15.7633 15.3216 15.8046 15.253 15.858 15.1944C17.2354 13.6544 17.9968 11.6608 17.9968 9.59465C17.9968 7.52853 17.2354 5.53488 15.858 3.99485C15.7519 3.87629 15.6972 3.72043 15.7059 3.56156C15.7147 3.40268 15.7863 3.25379 15.9048 3.14765ZM14.4948 13.1148C14.4265 13.0755 14.3665 13.0232 14.3185 12.9607C14.2704 12.8982 14.2351 12.8269 14.2146 12.7508C14.1941 12.6747 14.1888 12.5953 14.199 12.5171C14.2092 12.4389 14.2347 12.3636 14.274 12.2952C14.748 11.4743 14.9975 10.5431 14.9975 9.59525C14.9975 8.64735 14.748 7.71615 14.274 6.89525C14.2306 6.82696 14.2014 6.75059 14.1883 6.67074C14.1752 6.59089 14.1783 6.50921 14.1976 6.43062C14.2168 6.35202 14.2518 6.27813 14.3003 6.21339C14.3489 6.14865 14.41 6.0944 14.4801 6.0539C14.5501 6.0134 14.6277 5.9875 14.708 5.97774C14.7883 5.96798 14.8698 5.97458 14.9475 5.99712C15.0252 6.01967 15.0976 6.0577 15.1602 6.10894C15.2229 6.16017 15.2745 6.22354 15.312 6.29525C15.8915 7.29847 16.1966 8.43655 16.1968 9.59509C16.197 10.7536 15.8923 11.8918 15.3132 12.8952C15.2336 13.0327 15.1028 13.133 14.9494 13.1742C14.796 13.2154 14.6325 13.194 14.4948 13.1148Z" fill="white"/>
</svg>
