<svg width="21" height="18" viewBox="0 0 21 18" fill="none" xmlns="http://www.w3.org/2000/svg">
<path d="M11.4 12.35L7.65 8.6L15.95 0.3C16.15 0.1 16.3875 0 16.6625 0C16.9375 0 17.175 0.1 17.375 0.3L19.7 2.625C19.9 2.825 20 3.0625 20 3.3375C20 3.6125 19.9 3.85 19.7 4.05L11.4 12.35ZM11.4 9.5L17.6 3.325L16.675 2.4L10.5 8.6L11.4 9.5ZM10 18L12 16H21V18H10ZM4.075 18C3.30833 18 2.57083 17.85 1.8625 17.55C1.15417 17.25 0.533333 16.8333 0 16.3L6.625 9.7L9.225 12.3C9.45833 12.5333 9.64167 12.8 9.775 13.1C9.90833 13.4 9.975 13.7167 9.975 14.05C9.975 14.3833 9.90833 14.7042 9.775 15.0125C9.64167 15.3208 9.45833 15.5917 9.225 15.825L8.75 16.3C8.21667 16.8333 7.59583 17.25 6.8875 17.55C6.17917 17.85 5.44167 18 4.675 18H4.075ZM4.075 16H4.675C5.175 16 5.65833 15.9042 6.125 15.7125C6.59167 15.5208 7 15.25 7.35 14.9L7.825 14.425C7.925 14.325 7.975 14.2083 7.975 14.075C7.975 13.9417 7.925 13.825 7.825 13.725L6.625 12.525L3.225 15.9C3.35833 15.9333 3.5 15.9583 3.65 15.975C3.8 15.9917 3.94167 16 4.075 16ZM17.6 3.325L16.675 2.4L17.6 3.325Z" fill="#AD321C"/>
</svg>
