<svg width="31" height="197" viewBox="0 0 31 197" fill="none" xmlns="http://www.w3.org/2000/svg">
<path d="M24.5941 0.776985C18.6432 12.5118 12.2753 24.0798 5.4902 35.3697C4.65597 36.7601 6.04635 38.0949 7.43673 37.8724C14.3608 36.8157 21.3406 36.3152 28.3481 36.3986C27.8754 35.5644 27.4026 34.7302 26.9299 33.8959C23.4818 40.1248 19.978 46.2981 16.6689 52.6105C13.3876 58.8394 10.1897 65.124 7.04742 71.4363C5.21212 75.0791 3.43243 78.7219 1.68055 82.3925C1.01316 83.8385 2.12548 85.3679 3.73832 85.0342C11.2186 83.477 18.8101 82.6984 26.4294 82.7262C25.9289 81.8364 25.4283 80.9743 24.9278 80.0845C18.0871 92.5423 11.5245 105.084 5.54581 117.959C3.84954 121.601 2.18109 125.272 0.56824 128.97C-0.0157209 130.277 0.651675 131.862 2.23671 131.862C10.9683 131.918 19.6999 131.946 28.4037 131.974C27.792 131.167 27.1802 130.361 26.5684 129.554C19.8112 145.989 13.332 162.562 7.24208 179.247C5.518 183.974 3.82173 188.729 2.12546 193.484C3.40462 193.484 4.71158 193.484 5.99073 193.484C4.98965 186.449 4.62817 179.358 3.54367 172.35C3.23779 170.293 0.0677159 170.877 0.0121005 172.823C-0.0713225 176.466 0.290155 180.025 0.679463 183.64C1.06877 187.283 1.56933 190.926 2.09767 194.569C2.23671 195.431 3.23777 196.042 4.01638 196.042C4.93403 196.042 5.65704 195.403 5.93512 194.569C11.7469 177.773 17.9202 161.088 24.5107 144.598C26.3738 139.927 28.2925 135.255 30.2112 130.583C30.7118 129.415 29.4882 128.164 28.3759 128.164C19.6443 128.108 10.9127 128.053 2.20889 127.997C2.76505 128.97 3.32121 129.916 3.87737 130.889C9.63356 117.903 15.779 105.111 22.3138 92.5145C24.1769 88.9273 26.0123 85.3679 27.9588 81.8364C28.5984 80.6684 27.792 79.1946 26.4294 79.1946C18.4764 79.139 10.5512 79.9454 2.76506 81.5305C3.46025 82.4481 4.12762 83.3102 4.82281 84.2C10.9683 71.4363 17.3919 58.8116 24.0101 46.2703C25.901 42.6832 27.792 39.096 29.7663 35.5644C30.3781 34.4521 29.5994 33.0895 28.3481 33.0617C21.0347 32.9505 13.7491 33.4232 6.51908 34.5355C7.15865 35.3697 7.79825 36.204 8.46563 37.0382C15.1951 25.6927 21.4518 14.0969 27.1802 2.22299C28.0144 0.554525 25.4839 -0.974898 24.5941 0.776985Z" fill="white"/>
<path d="M3.32119 195.18C3.18215 195.208 3.23777 195.236 3.54366 195.236C3.6827 195.236 3.82173 195.208 3.93296 195.152C4.21104 195.069 4.4891 194.958 4.73937 194.846C5.26771 194.624 5.74044 194.374 6.18537 194.04C7.10302 193.4 8.02069 192.705 8.91053 192.038C9.856 191.315 10.7736 190.592 11.6913 189.841C12.6924 189.007 13.5822 188.312 13.7491 186.921C13.8325 186.254 13.1095 185.614 12.4699 185.642C11.1073 185.67 10.2731 186.643 9.35545 187.505C8.54903 188.228 7.7426 188.951 6.90837 189.646C6.07414 190.341 5.23992 191.037 4.37788 191.704C3.96076 192.038 3.59925 192.371 3.23775 192.761C3.07091 192.955 2.90408 193.15 2.76505 193.373C2.62601 193.512 2.54258 193.678 2.48696 193.845C2.45915 194.151 2.43134 194.235 2.45914 194.068C2.15326 194.707 2.70942 195.291 3.32119 195.18Z" fill="white"/>
</svg>
