<svg width="214" height="205" viewBox="0 0 214 205" fill="none" xmlns="http://www.w3.org/2000/svg">
<path d="M159.514 2.10155C168.443 6.14241 174.016 14.4732 175.826 24.5053C177.634 34.4764 175.759 46.5846 169.154 58.9823C164.851 67.0295 158.823 74.7985 152.77 82.367C146.689 89.9617 140.391 97.4344 133.954 104.811C121.026 119.678 107.633 134.267 94.5968 149.073C81.6465 163.801 69.0389 178.79 57.8392 194.345C56.4444 196.281 55.2599 198.216 53.9256 200.16C53.2129 199.376 52.5003 198.592 51.8035 197.825C59.3721 192.156 66.8716 186.296 74.541 180.853C75.6307 180.086 76.8658 180.173 77.2445 180.878C77.5915 181.55 77.3109 182.918 76.1953 183.773C68.536 189.747 60.6651 195.372 52.8604 201.128C51.9176 201.826 50.7745 201.783 50.3311 201.295C49.8085 200.72 50.0776 199.744 50.7383 198.793C52.0884 196.866 53.5623 195.018 54.9729 193.1C56.3389 191.19 57.7653 189.289 59.1629 187.415C61.987 183.639 64.9161 179.864 67.8928 176.14C73.8878 168.624 80.1434 161.221 86.5228 153.897C99.2658 139.23 112.517 124.834 125.4 110.263C131.827 102.99 138.161 95.6746 144.296 88.2542C150.389 80.9036 156.578 73.3699 161.676 65.6187C165.78 59.376 168.817 53.1162 170.611 46.9353C172.248 41.2166 172.787 35.7946 172.414 30.7566C172.056 25.7359 170.665 21.0818 168.526 17.1079C166.402 13.1514 163.361 9.80546 159.793 7.03504C158.936 6.38164 158.079 5.72826 157.165 5.12718C156.622 4.7613 156.512 4.003 157.191 3.13106C157.813 2.31144 158.885 1.81416 159.514 2.10155Z" fill="#006838"/>
<path d="M54.2133 197.354C54.2205 197.824 54.2119 198.278 54.1746 198.757C54.0221 199.977 52.1507 201.042 51.7577 200.031C51.33 198.924 51.4076 197.39 51.3888 196.039C51.3728 194.748 51.4015 193.45 51.4302 192.151C51.4976 189.449 51.5362 186.773 51.6036 184.07C51.6165 183.391 52.2556 182.301 53.1049 181.847C53.4849 181.629 53.721 181.542 54.0909 181.428C54.9201 181.184 55.5319 181.742 55.4902 182.448C55.3494 185.185 55.2086 187.922 55.0519 190.641C54.9786 191.949 54.9212 193.274 54.7903 194.634C54.6465 196.037 54.6423 197.536 54.0839 199.062C53.4922 198.932 52.9006 198.801 52.3377 198.644C52.7666 198.191 53.256 197.746 53.7166 197.328C53.947 197.118 54.2176 197.127 54.2133 197.354Z" fill="#006838"/>
</svg>
