<svg width="274" height="173" viewBox="0 0 274 173" fill="none" xmlns="http://www.w3.org/2000/svg">
<path d="M13.4668 115.126C12.9825 115.154 12.5259 114.993 12.0969 114.641C11.4264 114.056 10.7625 112.819 10.1053 110.93L9.95081 110.462C9.21535 108.237 8.61474 105.449 8.14898 102.098C7.41182 96.6802 7.28046 91.0545 7.75493 85.2203C8.02995 82.0192 8.36624 79.9744 8.7638 79.0861C8.87809 78.8344 9.03418 78.6594 9.23207 78.561C9.28651 78.5266 9.33599 78.502 9.38049 78.4873C9.64754 78.3991 9.91175 78.4516 10.1731 78.645C10.3507 78.7838 10.4762 78.9645 10.5497 79.187L10.5792 79.276C10.6674 79.5431 10.6766 79.7951 10.6069 80.0321C10.5621 80.1456 10.4976 80.2492 10.4134 80.3429C10.3242 80.4217 10.2351 80.4758 10.1461 80.5052L10.0498 80.5124L9.94452 81.0902C9.68776 82.9524 9.51365 85.3384 9.4222 88.2485C9.22983 95.8326 9.89431 102.623 11.4156 108.621C11.4841 108.878 11.5699 109.162 11.6728 109.474C11.7709 109.77 11.8543 110.023 11.9229 110.23L12.1141 110.809C12.2416 111.195 12.3446 111.482 12.4232 111.669C12.6001 112.055 12.7746 112.409 12.9467 112.731C13.1337 113.047 13.2494 113.198 13.2939 113.184C13.3087 113.179 13.331 113.147 13.3608 113.087C13.4006 113.009 13.4453 112.92 13.4949 112.821C14.1057 111.632 14.6866 108.634 15.2375 103.828C15.6865 100.207 16.0665 95.5808 16.3773 89.9488C16.3977 89.7116 16.4106 89.5017 16.416 89.3189C16.437 88.8347 16.4578 88.4493 16.4783 88.1628C16.4988 87.8763 16.5166 87.6565 16.5318 87.5033C16.5422 87.3354 16.5499 87.2094 16.555 87.1254C16.5602 87.0414 16.5678 86.9648 16.5779 86.8957C16.6434 86.3968 16.8665 86.0762 17.2474 85.9339C17.3364 85.9045 17.413 85.8874 17.4773 85.8826C17.5366 85.863 17.6107 85.8632 17.6996 85.8832C18.0553 85.9137 18.3364 86.117 18.543 86.4931C18.5774 86.5475 18.6143 86.6341 18.6535 86.7528C18.6976 86.8863 18.7441 87.0519 18.793 87.2497C18.9156 87.6206 19.043 88.0557 19.1751 88.5551C19.2534 88.8419 19.3857 89.2919 19.5719 89.9051C19.768 90.4985 19.9666 91.0993 20.1676 91.7076C20.3735 92.3307 20.5378 92.803 20.6605 93.1245C21.6764 95.8496 22.8068 98.1748 24.052 100.1C26.3505 103.619 28.675 105.648 31.0256 106.188C31.6083 106.308 32.1519 106.285 32.6563 106.118C32.8195 106.064 32.9704 105.998 33.1089 105.919C33.7917 105.545 34.3963 104.86 34.9226 103.863C35.6077 102.6 36.0839 100.929 36.3511 98.8494C36.967 93.7419 36.6493 88.5233 35.398 83.1936C35.2707 82.7585 35.1114 82.2516 34.9202 81.673C34.724 81.0796 34.5548 80.5925 34.4125 80.2116C33.5482 78.144 32.4685 76.2464 31.1734 74.5186C30.0902 73.0335 29.1067 72.149 28.223 71.8651C28.0354 71.7955 27.9169 71.7359 27.8677 71.6863C27.8184 71.6368 27.7888 71.5972 27.779 71.5675C27.7643 71.523 27.757 71.4761 27.7571 71.4266C27.7526 71.2636 27.8245 71.1575 27.9729 71.1085C28.0619 71.0791 28.1731 71.067 28.3065 71.0723C29.1021 71.0397 29.9831 71.4151 30.9496 72.1982C32.3056 73.264 33.5959 74.9275 34.8205 77.1887C35.5434 78.5296 36.1426 79.9196 36.6182 81.3587C36.9075 82.234 37.1547 83.1314 37.3599 84.051C38.3309 88.8315 38.5979 93.5978 38.1608 98.35C37.9381 100.415 37.5383 102.193 36.9613 103.683C36.8618 103.93 36.7078 104.261 36.4992 104.675C36.3006 105.07 36.1367 105.371 36.0077 105.578C35.2141 106.762 34.2684 107.535 33.1706 107.898C32.7997 108.021 32.4215 108.096 32.036 108.125C29.7776 108.263 27.4287 107.056 24.9894 104.505C22.3975 101.741 20.2186 97.8371 18.4527 92.7927L18.048 91.6429L17.9552 93.1546C17.4693 99.6015 16.9825 104.477 16.4947 107.781C15.9461 111.698 15.2633 113.989 14.4463 114.654C14.3424 114.738 14.2211 114.819 14.0825 114.898C13.9637 114.986 13.8672 115.043 13.7931 115.068C13.7634 115.077 13.7164 115.085 13.6522 115.089C13.5928 115.109 13.531 115.121 13.4668 115.126ZM45.8113 96.7349C44.872 96.9302 44.0399 96.7526 43.315 96.2023C42.5703 95.6421 42.0068 94.7833 41.6243 93.6261C41.1291 92.1277 41.0099 90.4475 41.2667 88.5853C41.3121 88.2248 41.3647 87.9111 41.4247 87.6445C41.4946 87.3581 41.5868 87.0643 41.7012 86.7632C42.2341 85.1389 42.973 84.0637 43.9181 83.5374C44.0319 83.4833 44.1185 83.4465 44.1778 83.4269C44.252 83.4024 44.3435 83.3804 44.4522 83.3609C45.3666 83.2397 45.9758 83.639 46.2798 84.5588C46.3288 84.7072 46.3705 84.858 46.4047 85.0113C46.487 85.6588 46.4331 86.4418 46.243 87.3603C46.0628 88.2592 45.7939 89.0886 45.4362 89.8486C44.9545 90.7812 44.4169 91.3456 43.8235 91.5417C43.5861 91.6202 43.3464 91.6418 43.1044 91.6066L43.0599 91.6213C43.0253 91.6162 43.0006 91.6162 42.9858 91.6211C42.971 91.626 42.9635 91.6531 42.9633 91.7026C42.9732 91.7322 42.9878 91.8014 43.0073 91.9102C43.0171 91.9399 43.0219 91.9794 43.0218 92.0288C43.0462 92.1524 43.0779 92.2982 43.117 92.4663C43.1661 92.6147 43.2421 92.8447 43.345 93.1562C43.4284 93.4084 43.4897 93.5939 43.5289 93.7126C43.5681 93.8312 43.6074 93.9252 43.6468 93.9945C43.6812 94.0489 43.7206 94.1182 43.7648 94.2023C44.2519 95.0287 44.9034 95.3071 45.7193 95.0374C46.2683 94.856 46.8003 94.4992 47.3156 93.9668C47.9397 93.3656 48.5868 92.4853 49.2568 91.3259C49.3809 91.1038 49.6291 90.6351 50.0015 89.9196C50.3739 89.2041 50.7588 88.4515 51.1561 87.662C51.5634 86.8527 51.8887 86.1939 52.1321 85.6856C52.2215 85.5079 52.2836 85.3722 52.3184 85.2784C52.3681 85.1797 52.4103 85.1082 52.445 85.0638C52.4797 85.0194 52.5119 84.9923 52.5415 84.9825L52.6083 84.9605C52.6973 84.931 52.7813 84.9362 52.8603 84.9759C52.959 85.0256 53.0255 85.1023 53.0598 85.2062L53.0745 85.2507C53.0842 85.3298 53.0739 85.4731 53.0437 85.6805C53.0235 85.8682 52.9859 86.0781 52.931 86.3102C52.8908 86.5374 52.8533 86.7473 52.8182 86.9399C52.6386 87.5917 52.4121 88.2507 52.1386 88.9171C52.069 89.1046 51.9373 89.4032 51.7435 89.8128C51.5449 90.2076 51.3363 90.6221 51.1178 91.0564C50.9092 91.4709 50.7305 91.8015 50.5816 92.0482C49.2463 94.4313 47.8862 95.9175 46.5012 96.5069C46.3874 96.561 46.3083 96.5954 46.2638 96.6101C46.2193 96.6248 46.1748 96.6395 46.1302 96.6542L46.0412 96.6836C45.9819 96.7032 45.9053 96.7203 45.8113 96.7349ZM43.4939 90.0215C43.6277 89.8785 43.7789 89.664 43.9476 89.3778C44.1312 89.0868 44.2827 88.7734 44.4022 88.4377C44.6111 87.875 44.7658 87.2973 44.8661 86.7046C44.9615 86.0971 44.9777 85.5981 44.9144 85.2076C44.9047 85.1285 44.8925 85.0667 44.8778 85.0222C44.8533 84.948 44.8238 84.9084 44.7892 84.9034C44.7695 84.8934 44.7448 84.8934 44.7151 84.9032C44.6557 84.9228 44.5815 84.972 44.4924 85.0508C44.002 85.5091 43.5849 86.3134 43.241 87.4638C43.1064 87.9526 43.0463 88.2687 43.0607 88.412C43.0754 88.4566 43.0802 88.5208 43.075 88.6048C43.0699 88.6888 43.0573 88.7752 43.0373 88.8641C43.0021 89.1061 42.9966 89.3136 43.0209 89.4866C43.0551 89.6399 43.082 89.7462 43.1016 89.8055C43.1359 89.9094 43.1802 89.9935 43.2344 90.0579C43.2639 90.0975 43.2935 90.1124 43.3232 90.1026C43.3529 90.0928 43.3751 90.0854 43.39 90.0805C43.4196 90.0707 43.4543 90.051 43.4939 90.0215ZM60.0995 92.5312C59.7388 92.5352 59.4402 92.4282 59.2036 92.2102C59.0113 92.0269 58.8637 91.7795 58.7608 91.4679C58.6333 91.0822 58.5728 90.6003 58.5792 90.0222C58.6236 88.115 59.1108 85.9793 60.0409 83.6149C60.2049 83.2151 60.4211 82.7487 60.6892 82.2157C60.9674 81.663 61.2081 81.2214 61.4116 80.8909C62.6814 78.9573 63.8875 77.8017 65.0299 77.4241C65.386 77.3065 65.7443 77.2703 66.1049 77.3157L66.3938 77.3683L66.446 77.2276C66.6151 76.7933 66.7418 76.5292 66.826 76.4356C66.945 76.2975 67.0861 76.2015 67.2492 76.1476C67.3531 76.1133 67.4717 76.0988 67.6051 76.104C67.9114 76.1345 68.1432 76.2882 68.3006 76.5653L68.367 76.6915L68.3962 76.8546C68.4257 76.9437 68.4401 77.087 68.4396 77.2846C68.4342 77.4674 68.4236 77.7342 68.4079 78.085C68.2947 79.8339 68.3478 81.3138 68.567 82.525C68.6061 82.6931 68.6673 82.9032 68.7507 83.1554L68.8757 83.5337C69.013 83.9491 69.1283 84.2484 69.2217 84.4314C69.9351 85.6438 70.7763 86.1475 71.7452 85.9425C71.8095 85.9377 71.8787 85.923 71.9529 85.8985C72.9617 85.5651 74.223 84.1033 75.7366 81.5131C76.1534 80.8323 76.5182 80.1934 76.831 79.5963C77.1587 78.9943 77.5237 78.2813 77.926 77.4572C78.0502 77.1857 78.1521 76.971 78.2315 76.8131C78.311 76.6552 78.3731 76.5442 78.4177 76.4801C78.4723 76.3962 78.5144 76.3494 78.5441 76.3396C78.5837 76.31 78.6109 76.2928 78.6257 76.2879L78.6998 76.2881C78.8629 76.2836 78.9689 76.3555 79.018 76.5039L79.0623 76.5633L79.0621 76.6374L78.9791 77.2079C78.3892 79.9042 77.2165 82.4804 75.461 84.9366C74.6577 86.0413 73.8701 86.82 73.0982 87.2726C72.9052 87.3857 72.6603 87.4914 72.3636 87.5894C72.0817 87.6826 71.8296 87.7412 71.6072 87.7654C70.001 87.8848 68.6787 87.1452 67.6402 85.5465C67.3795 85.1061 67.1584 84.6114 66.977 84.0625C66.7612 83.4097 66.605 82.6879 66.5082 81.8971C66.4985 81.818 66.4937 81.7538 66.4938 81.7044C66.4842 81.6253 66.4769 81.5536 66.4722 81.4894L66.4501 81.4226C66.4353 81.4275 66.2862 81.7483 66.0029 82.385C65.7345 83.0168 65.2474 84.1322 64.5417 85.7313C63.6371 87.824 62.9241 89.3514 62.4028 90.3136C61.8766 91.2609 61.4081 91.8848 60.9972 92.1851C60.8636 92.2787 60.7473 92.35 60.6483 92.3992C60.5297 92.4384 60.4481 92.4654 60.4035 92.4801C60.2849 92.5193 60.1835 92.5363 60.0995 92.5312ZM60.5944 90.2942C60.9862 89.7368 61.4703 88.8363 62.0466 87.5926C62.1907 87.2817 62.3298 86.9807 62.464 86.6895C62.5932 86.3835 62.7995 85.9121 63.0828 85.2755C63.3611 84.6239 63.7788 83.622 64.3356 82.2695C64.599 81.6724 64.9022 80.9715 65.2452 80.167C65.3745 79.861 65.4789 79.6043 65.5585 79.397L65.6779 79.086C65.6581 79.0761 65.6285 79.0859 65.5889 79.1154C65.5592 79.1252 65.5147 79.1399 65.4553 79.1595C64.5497 79.7057 63.6379 80.7311 62.72 82.2358C61.6181 84.1797 60.864 86.3296 60.4577 88.6855C60.3374 89.367 60.2913 90.0241 60.3193 90.6566L60.3787 90.6123C60.4134 90.5679 60.4853 90.4619 60.5944 90.2942ZM78.3234 86.3109C77.9084 86.3 77.6347 86.0942 77.5023 85.6936C77.3945 85.3673 77.3296 84.6482 77.3077 83.5364C77.3032 83.3733 77.2818 83.0595 77.2434 82.5949C77.2002 82.1155 77.1473 81.5571 77.0847 80.9195C76.8486 78.562 76.673 76.7111 76.5579 75.3668C76.4526 74.0028 76.3863 72.881 76.359 72.0015C76.3548 71.6902 76.3578 71.4752 76.368 71.3567C76.3733 71.2233 76.4032 71.1147 76.4578 71.0308C76.557 70.8828 76.6808 70.7843 76.8291 70.7353L76.8959 70.7132C77.0739 70.6544 77.2518 70.6697 77.4294 70.7591C77.5232 70.7939 77.5947 70.8361 77.644 70.8856C77.6933 70.9351 77.7425 71.0094 77.7917 71.1083C77.8163 71.1331 77.8409 71.1826 77.8654 71.2567C77.9243 71.4348 77.9802 71.7783 78.0332 72.2874C78.1205 72.9497 78.2336 74.1136 78.3726 75.7791C78.3774 75.8434 78.3846 75.915 78.3943 75.9941C78.4137 76.1523 78.4307 76.2783 78.4452 76.3722C78.4598 76.4662 78.4696 76.5205 78.4745 76.5354L78.5192 76.4466C78.539 76.4071 78.5614 76.3503 78.5863 76.2763C79.0042 75.1508 79.4708 74.3219 79.9861 73.7895C80.2585 73.5185 80.5579 73.329 80.8843 73.2211C81.181 73.1231 81.4924 73.0942 81.8184 73.1346C81.9764 73.1647 82.1591 73.2195 82.3664 73.2991C82.5886 73.3737 82.9218 73.5105 83.366 73.7093C84.0124 74.0222 84.5382 74.194 84.9433 74.2247C85.3632 74.2505 85.9144 74.1506 86.5969 73.9251C87.0419 73.778 87.4104 73.648 87.7022 73.5351C87.9891 73.4073 88.3058 73.2451 88.6521 73.0483C88.8451 72.9352 89.0059 72.8491 89.1346 72.7902C89.2583 72.7164 89.335 72.6746 89.3646 72.6648C89.4783 72.6601 89.5696 72.6875 89.6387 72.747C89.7077 72.8065 89.7495 72.8585 89.7642 72.903C89.779 72.9475 89.7813 73.0043 89.7712 73.0734C89.7413 73.1821 89.6618 73.34 89.5328 73.5472C89.4038 73.7544 89.2576 73.9591 89.094 74.1612C88.5093 74.7823 87.7645 75.2424 86.8595 75.5415C85.8507 75.8749 84.9537 75.9492 84.1686 75.7643C83.9365 75.7094 83.6896 75.6346 83.428 75.5401C83.1812 75.4406 82.8135 75.2742 82.3249 75.0407C81.8215 74.8121 81.4956 74.7223 81.3473 74.7714C81.2731 74.7959 81.1815 74.8673 81.0725 74.9856C80.9734 75.0842 80.8817 75.205 80.7973 75.3481C80.1474 76.3692 79.6198 77.8848 79.2144 79.8947C79.1843 80.1022 79.1416 80.3467 79.0866 80.6282C79.0463 80.9048 79.0086 81.1641 78.9734 81.4061C78.953 81.6432 78.9428 81.7865 78.9426 81.8359C78.9425 81.8853 78.9496 82.0311 78.9638 82.2732C78.9879 82.4956 79.0119 82.7675 79.0358 83.0887C79.1126 83.9684 79.1505 84.6059 79.1495 85.0012C79.1584 85.3767 79.1355 85.6311 79.0808 85.7644C79.0162 85.9174 78.9319 86.0358 78.8279 86.1195C78.719 86.1884 78.6201 86.2376 78.5311 86.267C78.4569 86.2915 78.3877 86.3061 78.3234 86.3109ZM91.3477 81.6856C90.4084 81.8809 89.5763 81.7033 88.8514 81.153C88.1067 80.5928 87.5431 79.734 87.1607 78.5768C86.6655 77.0784 86.5463 75.3982 86.803 73.536C86.8484 73.1755 86.9011 72.8618 86.9611 72.5952C87.031 72.3088 87.1232 72.015 87.2376 71.7139C87.7704 70.0896 88.5094 69.0144 89.4545 68.4881C89.5683 68.434 89.6548 68.3972 89.7142 68.3776C89.7884 68.3531 89.8798 68.3311 89.9886 68.3116C90.903 68.1904 91.5122 68.5897 91.8162 69.5095C91.8652 69.6579 91.9068 69.8087 91.941 69.962C92.0234 70.6095 91.9695 71.3925 91.7794 72.311C91.5992 73.2099 91.3302 74.0393 90.9725 74.7993C90.4909 75.7319 89.9533 76.2963 89.3599 76.4924C89.1225 76.5709 88.8828 76.5925 88.6408 76.5573L88.5963 76.572C88.5617 76.5669 88.537 76.5669 88.5222 76.5718C88.5073 76.5767 88.4998 76.6038 88.4997 76.6533C88.5095 76.6829 88.5242 76.7521 88.5437 76.8609C88.5535 76.8906 88.5583 76.9301 88.5582 76.9795C88.5826 77.1031 88.6143 77.2489 88.6534 77.417C88.7024 77.5654 88.7784 77.7954 88.8814 78.1069C88.9647 78.3591 89.026 78.5446 89.0653 78.6633C89.1045 78.7819 89.1438 78.8759 89.1831 78.9452C89.2176 78.9996 89.2569 79.0689 89.3012 79.153C89.7882 79.9794 90.4397 80.2578 91.2557 79.9881C91.8046 79.8067 92.3367 79.4499 92.8519 78.9175C93.4761 78.3163 94.1231 77.436 94.7931 76.2766C94.9172 76.0545 95.1655 75.5858 95.5379 74.8703C95.9103 74.1548 96.2952 73.4022 96.6925 72.6127C97.0997 71.8034 97.4251 71.1446 97.6685 70.6363C97.7579 70.4586 97.82 70.3229 97.8548 70.2291C97.9045 70.1304 97.9466 70.0589 97.9813 70.0145C98.016 69.9701 98.0482 69.943 98.0779 69.9332L98.1447 69.9112C98.2337 69.8817 98.3177 69.8869 98.3966 69.9266C98.4953 69.9763 98.5618 70.053 98.5961 70.1569L98.6109 70.2014C98.6205 70.2805 98.6103 70.4238 98.5801 70.6312C98.5599 70.8189 98.5223 71.0288 98.4673 71.2609C98.4272 71.4881 98.3896 71.698 98.3545 71.8906C98.175 72.5424 97.9485 73.2014 97.675 73.8678C97.6054 74.0553 97.4737 74.3539 97.2799 74.7636C97.0812 75.1583 96.8727 75.5728 96.6541 76.0071C96.4456 76.4216 96.2668 76.7522 96.118 76.9989C94.7827 79.382 93.4226 80.8683 92.0376 81.4576C91.9238 81.5117 91.8446 81.5461 91.8001 81.5608C91.7556 81.5755 91.7111 81.5902 91.6666 81.6049L91.5776 81.6343C91.5183 81.6539 91.4416 81.671 91.3477 81.6856ZM89.0302 74.9722C89.164 74.8292 89.3153 74.6147 89.484 74.3285C89.6676 74.0375 89.8191 73.7241 89.9385 73.3884C90.1475 72.8257 90.3021 72.248 90.4025 71.6553C90.4979 71.0478 90.514 70.5488 90.4508 70.1583C90.4411 70.0792 90.4289 70.0174 90.4142 69.9729C90.3897 69.8987 90.3601 69.8591 90.3256 69.8541C90.3058 69.8441 90.2811 69.8441 90.2514 69.8539C90.1921 69.8735 90.1179 69.9227 90.0287 70.0015C89.5384 70.4598 89.1213 71.2641 88.7774 72.4145C88.6427 72.9033 88.5826 73.2194 88.5971 73.3627C88.6118 73.4073 88.6166 73.4715 88.6114 73.5555C88.6063 73.6395 88.5937 73.7259 88.5737 73.8148C88.5385 74.0568 88.533 74.2643 88.5573 74.4373C88.5915 74.5906 88.6184 74.6969 88.638 74.7562C88.6723 74.8601 88.7166 74.9442 88.7707 75.0086C88.8003 75.0482 88.8299 75.0631 88.8596 75.0533C88.8892 75.0435 88.9115 75.0361 88.9263 75.0312C88.956 75.0214 88.9906 75.0017 89.0302 74.9722ZM105.636 77.4819C105.275 77.4859 104.977 77.3789 104.74 77.1609C104.548 76.9776 104.4 76.7302 104.297 76.4186C104.17 76.0329 104.109 75.551 104.116 74.9729C104.16 73.0657 104.647 70.93 105.577 68.5656C105.741 68.1658 105.957 67.6994 106.226 67.1664C106.504 66.6138 106.744 66.1721 106.948 65.8416C108.218 63.908 109.424 62.7524 110.566 62.3748C110.922 62.2572 111.281 62.221 111.641 62.2664L111.93 62.319L111.982 62.1783C112.151 61.744 112.278 61.4799 112.362 61.3863C112.481 61.2482 112.622 61.1522 112.786 61.0983C112.889 61.064 113.008 61.0495 113.141 61.0547C113.448 61.0852 113.68 61.2389 113.837 61.5161L113.903 61.6422L113.933 61.8053C113.962 61.8944 113.976 62.0377 113.976 62.2353C113.971 62.4181 113.96 62.6849 113.944 63.0357C113.831 64.7846 113.884 66.2645 114.103 67.4757C114.142 67.6438 114.204 67.8539 114.287 68.1061L114.412 68.4844C114.549 68.8998 114.665 69.1991 114.758 69.3821C115.471 70.5945 116.313 71.0982 117.282 70.8932C117.346 70.8884 117.415 70.8737 117.489 70.8492C118.498 70.5158 119.759 69.054 121.273 66.4638C121.69 65.783 122.055 65.1441 122.367 64.547C122.695 63.945 123.06 63.232 123.462 62.4079C123.587 62.1364 123.688 61.9217 123.768 61.7638C123.847 61.6059 123.909 61.4949 123.954 61.4308C124.009 61.3469 124.051 61.3001 124.08 61.2903C124.12 61.2607 124.147 61.2435 124.162 61.2386L124.236 61.2388C124.399 61.2343 124.505 61.3062 124.554 61.4546L124.599 61.514L124.598 61.5881L124.515 62.1586C123.926 64.8549 122.753 67.4311 120.997 69.8873C120.194 70.992 119.406 71.7707 118.635 72.2233C118.442 72.3364 118.197 72.4421 117.9 72.5401C117.618 72.6333 117.366 72.6919 117.144 72.7161C115.537 72.8355 114.215 72.0959 113.177 70.4972C112.916 70.0568 112.695 69.5621 112.513 69.0132C112.298 68.3604 112.141 67.6386 112.045 66.8478C112.035 66.7687 112.03 66.7045 112.03 66.6551C112.021 66.576 112.013 66.5043 112.009 66.4401L111.986 66.3733C111.972 66.3782 111.823 66.699 111.539 67.3357C111.271 67.9675 110.784 69.0829 110.078 70.682C109.173 72.7747 108.46 74.3021 107.939 75.2643C107.413 76.2116 106.944 76.8355 106.534 77.1358C106.4 77.2294 106.284 77.3007 106.185 77.3499C106.066 77.3891 105.984 77.4161 105.94 77.4308C105.821 77.47 105.72 77.487 105.636 77.4819ZM106.131 75.2449C106.523 74.6875 107.007 73.787 107.583 72.5433C107.727 72.2324 107.866 71.9314 108 71.6402C108.13 71.3342 108.336 70.8628 108.619 70.2262C108.898 69.5746 109.315 68.5727 109.872 67.2202C110.135 66.6231 110.439 65.9222 110.782 65.1177C110.911 64.8117 111.015 64.555 111.095 64.3477L111.214 64.0367C111.194 64.0268 111.165 64.0366 111.125 64.0661C111.096 64.0759 111.051 64.0906 110.992 64.1102C110.086 64.6564 109.174 65.6818 108.256 67.1865C107.154 69.1304 106.4 71.2803 105.994 73.6362C105.874 74.3177 105.828 74.9748 105.856 75.6073L105.915 75.563C105.95 75.5186 106.022 75.4126 106.131 75.2449ZM125.592 77.6993C125.172 77.723 124.788 77.4799 124.438 76.97C124.079 76.4799 123.715 75.6786 123.347 74.5659C123.078 73.7499 122.865 72.9563 122.709 72.1851C121.904 68.1561 121.33 63.5075 120.988 58.2395C120.978 58.0616 120.966 57.9009 120.952 57.7576C120.933 57.5995 120.921 57.4882 120.916 57.424C120.896 57.3647 120.884 57.3029 120.879 57.2386C120.889 57.1695 120.894 57.1102 120.894 57.0608C120.895 57.0114 120.89 56.873 120.881 56.6457C120.886 56.4135 120.88 56.1442 120.861 55.8378C120.754 52.9272 120.769 50.2813 120.903 47.9C120.98 46.6897 121.074 45.7042 121.185 44.9435C121.291 44.1681 121.436 43.4866 121.62 42.899C121.839 42.1683 122.09 41.6823 122.372 41.4409C122.437 41.3867 122.489 41.3448 122.528 41.3153C122.583 41.2808 122.669 41.244 122.788 41.2048C122.907 41.1656 122.991 41.146 123.04 41.1461C123.104 41.1414 123.164 41.1464 123.218 41.1614C123.549 41.2166 123.798 41.3729 123.965 41.6303C124.029 41.7243 124.083 41.8381 124.128 41.9716C124.172 42.1051 124.208 42.2658 124.237 42.4536C124.281 42.8342 124.307 43.3605 124.315 44.0325C124.286 47.7284 123.839 51.4553 122.974 55.2132C122.925 55.3613 122.897 55.5021 122.892 55.6355C122.882 55.754 122.879 55.9442 122.883 56.2061C122.897 56.4483 122.918 56.8362 122.947 57.3699C123.169 61.2789 123.55 65.0202 124.089 68.594C124.342 70.156 124.598 71.4784 124.857 72.5612C125.096 73.634 125.307 74.4449 125.488 74.9938C125.557 75.2015 125.626 75.3845 125.694 75.5428L125.82 75.847L125.931 75.8102C126.183 75.7269 126.351 75.8113 126.434 76.0635C126.464 76.1525 126.481 76.2786 126.485 76.4416C126.504 76.5998 126.509 76.7382 126.499 76.8567C126.449 77.1037 126.362 77.2887 126.238 77.4119C126.099 77.54 125.971 77.6237 125.852 77.6629C125.778 77.6874 125.691 77.6996 125.592 77.6993ZM130.248 70.5327C129.882 70.5713 129.559 70.4395 129.278 70.1374C128.943 69.7709 128.633 69.1574 128.349 68.2969C128.246 67.9853 128.151 67.6466 128.063 67.2808C127.627 65.5651 127.299 63.6743 127.077 61.6084C126.84 59.5473 126.751 57.6843 126.809 56.0193C126.845 55.4314 126.896 55.0116 126.961 54.7597C127.036 54.4882 127.147 54.3032 127.296 54.2047C127.375 54.1456 127.444 54.1063 127.503 54.0867C127.563 54.0671 127.642 54.0574 127.741 54.0576C127.904 54.0531 128.052 54.1029 128.185 54.207C128.328 54.2914 128.427 54.4151 128.481 54.5783C128.515 54.6822 128.543 55.1171 128.566 55.883C128.632 59.169 128.979 62.3618 129.609 65.4615C129.658 65.7087 129.709 65.9633 129.763 66.2253C129.811 66.4724 129.85 66.6652 129.88 66.8037C129.924 66.9372 129.953 67.0262 129.968 67.0707L130.005 67.182L130.035 66.9745C130.07 66.8313 130.107 66.6461 130.147 66.419C130.469 64.4532 130.762 62.8753 131.027 61.6852C131.232 60.7617 131.411 60.0853 131.566 59.6558C131.72 59.2263 131.886 58.9327 132.064 58.7751C132.114 58.7258 132.166 58.6839 132.22 58.6495C132.275 58.615 132.347 58.5831 132.436 58.5537C132.554 58.5145 132.638 58.4949 132.688 58.495C132.747 58.4754 132.831 58.4806 132.94 58.5105C133.335 58.5609 133.66 58.8483 133.916 59.3728C134.014 59.5706 134.262 60.1716 134.66 61.1757C135.052 62.2143 135.443 63.0232 135.832 63.6023C136.073 63.9834 136.312 64.2829 136.549 64.5009C136.785 64.7189 136.955 64.8108 137.059 64.7765L137.082 64.7691C137.131 64.7198 137.201 64.6064 137.29 64.4287C137.389 64.2313 137.471 64.0314 137.536 63.829C137.596 63.6117 137.646 63.3401 137.686 63.0141C137.742 62.6832 137.782 62.3572 137.807 62.0361C137.859 61.3445 137.883 60.5712 137.88 59.7164C137.887 58.8419 137.86 58.0611 137.797 57.3741C137.759 56.9096 137.713 56.5463 137.659 56.2843C137.601 56.0074 137.515 55.6737 137.402 55.2831C137.314 55.016 137.25 54.8232 137.211 54.7045C137.182 54.566 137.172 54.4623 137.182 54.3931C137.192 54.324 137.225 54.2475 137.279 54.1636C137.369 53.9859 137.51 53.8652 137.703 53.8015C138.044 53.6887 138.333 53.7661 138.569 54.0335C138.761 54.2168 138.949 54.3606 139.131 54.4648C139.314 54.569 139.531 54.6536 139.783 54.7185C140.647 54.943 141.737 54.9285 143.052 54.675C143.487 54.597 144.001 54.4847 144.594 54.338C145.182 54.1764 145.702 54.0295 146.152 53.8973C146.374 53.8237 146.577 53.7649 146.76 53.7209C146.953 53.6572 147.064 53.6204 147.094 53.6106C147.276 53.616 147.397 53.7078 147.456 53.8858C147.471 53.9303 147.468 53.9723 147.448 54.0118C147.443 54.0463 147.428 54.1007 147.403 54.1747C147.309 54.3375 147.141 54.5248 146.898 54.7367C146.655 54.9485 146.361 55.1528 146.014 55.3496C145.757 55.5169 145.542 55.6374 145.369 55.7111C145.196 55.7848 144.924 55.8829 144.553 56.0055C142.678 56.6084 141.013 56.7228 139.556 56.3484C139.398 56.3184 139.297 56.3107 139.253 56.3254C139.257 56.3403 139.265 56.4119 139.274 56.5404C139.289 56.6343 139.303 56.753 139.318 56.8963C139.415 57.6377 139.474 58.4655 139.497 59.3796C139.534 60.2889 139.527 61.1387 139.475 61.9292C139.356 64.0585 138.943 65.4459 138.234 66.0913C137.992 66.3032 137.737 66.4532 137.47 66.5415C136.817 66.7572 136.104 66.5652 135.329 65.9653C135.083 65.767 134.834 65.5119 134.583 65.2C134.327 64.8732 134.095 64.5465 133.889 64.2199C133.505 63.5568 133.151 62.7851 132.827 61.9047L132.739 61.6377L132.604 62.2006C132.354 63.287 132.044 64.9366 131.672 67.1492C131.552 67.8802 131.449 68.4407 131.364 68.8308C131.294 69.2161 131.224 69.5025 131.154 69.6901C131.08 69.8628 130.996 70.0059 130.901 70.1193C130.753 70.3165 130.589 70.4446 130.411 70.5034C130.352 70.523 130.298 70.5328 130.248 70.5327ZM144.795 64.5401C144.435 64.5441 144.136 64.4371 143.899 64.2191C143.707 64.0358 143.559 63.7884 143.456 63.4768C143.329 63.0911 143.268 62.6092 143.275 62.0311C143.319 60.124 143.807 57.9882 144.737 55.6238C144.901 55.224 145.117 54.7576 145.385 54.2247C145.663 53.672 145.904 53.2304 146.107 52.8998C147.377 50.9662 148.583 49.8106 149.726 49.4331C150.082 49.3154 150.44 49.2793 150.801 49.3246L151.089 49.3773L151.142 49.2366C151.311 48.8022 151.438 48.5382 151.522 48.4445C151.641 48.3065 151.782 48.2105 151.945 48.1565C152.049 48.1222 152.167 48.1077 152.301 48.113C152.607 48.1434 152.839 48.2972 152.996 48.5743L153.063 48.7005L153.092 48.8636C153.121 48.9526 153.136 49.0959 153.135 49.2936C153.13 49.4764 153.119 49.7432 153.104 50.0939C152.99 51.8428 153.043 53.3228 153.263 54.5339C153.302 54.702 153.363 54.9122 153.446 55.1644L153.571 55.5427C153.709 55.9581 153.824 56.2573 153.917 56.4404C154.631 57.6528 155.472 58.1564 156.441 57.9514C156.505 57.9466 156.574 57.932 156.649 57.9075C157.657 57.574 158.919 56.1122 160.432 53.5221C160.849 52.8413 161.214 52.2023 161.527 51.6053C161.854 51.0033 162.219 50.2902 162.622 49.4661C162.746 49.1947 162.848 48.98 162.927 48.8221C163.007 48.6642 163.069 48.5531 163.113 48.489C163.168 48.4052 163.21 48.3583 163.24 48.3485C163.279 48.319 163.307 48.3018 163.321 48.2969L163.396 48.297C163.559 48.2925 163.665 48.3644 163.714 48.5128L163.758 48.5722L163.758 48.6463L163.675 49.2168C163.085 51.9131 161.912 54.4894 160.157 56.9455C159.353 58.0503 158.566 58.8289 157.794 59.2815C157.601 59.3947 157.356 59.5003 157.059 59.5984C156.777 59.6915 156.525 59.7502 156.303 59.7743C154.697 59.8937 153.374 59.1541 152.336 57.5555C152.075 57.115 151.854 56.6204 151.673 56.0714C151.457 55.4187 151.301 54.6969 151.204 53.9061C151.194 53.827 151.189 53.7627 151.19 53.7133C151.18 53.6342 151.173 53.5626 151.168 53.4983L151.146 53.4316C151.131 53.4365 150.982 53.7573 150.699 54.3939C150.43 55.0257 149.943 56.1411 149.237 57.7402C148.333 59.8329 147.62 61.3604 147.099 62.3225C146.572 63.2699 146.104 63.8937 145.693 64.1941C145.559 64.2876 145.443 64.359 145.344 64.4081C145.225 64.4473 145.144 64.4743 145.099 64.489C144.981 64.5283 144.879 64.5453 144.795 64.5401ZM145.29 62.3031C145.682 61.7458 146.166 60.8452 146.742 59.6016C146.886 59.2907 147.026 58.9896 147.16 58.6984C147.289 58.3924 147.495 57.9211 147.778 57.2844C148.057 56.6329 148.474 55.6309 149.031 54.2785C149.295 53.6813 149.598 52.9804 149.941 52.1759C150.07 51.8699 150.175 51.6132 150.254 51.4059L150.374 51.0949C150.354 51.085 150.324 51.0948 150.285 51.1243C150.255 51.1342 150.21 51.1489 150.151 51.1685C149.245 51.7146 148.334 52.74 147.416 54.2447C146.314 56.1887 145.56 58.3386 145.153 60.6944C145.033 61.376 144.987 62.033 145.015 62.6656L145.074 62.6212C145.109 62.5769 145.181 62.4708 145.29 62.3031ZM170.1 71.753C169.497 71.8206 168.986 71.5451 168.568 70.9264C168.464 70.7631 168.364 70.5331 168.266 70.2363C168.168 69.9396 168.099 69.6578 168.06 69.3909C167.827 67.9376 167.908 66.1664 168.304 64.0774C168.87 61.1587 169.796 58.2853 171.083 55.4574L171.284 55.0206L171.271 54.3091C171.186 51.0131 170.871 48.443 170.327 46.5986C170.293 46.4453 170.256 46.3093 170.217 46.1907C170.173 46.0571 170.126 45.9409 170.077 45.8419C169.989 45.6243 169.925 45.5056 169.886 45.4857C169.871 45.4906 169.843 45.5078 169.804 45.5374C169.769 45.5818 169.715 45.6409 169.64 45.7148C169.581 45.7839 169.529 45.8504 169.484 45.9145C169.207 46.2696 168.899 46.7827 168.561 47.4538C168.224 48.1249 167.9 48.8652 167.592 49.6748C167.358 50.2622 167.129 50.8891 166.905 51.5556C166.691 52.2023 166.445 52.9997 166.165 53.9476C165.856 55.0537 165.595 55.8559 165.381 56.3544C165.177 56.8332 164.949 57.1883 164.696 57.4199C164.498 57.6171 164.288 57.7524 164.065 57.8259C163.754 57.9289 163.423 57.8984 163.073 57.7345C162.372 57.3571 161.816 56.5454 161.404 55.2992C161.159 54.5574 160.963 53.6675 160.818 52.6295C160.61 50.8057 160.568 48.886 160.692 46.8704C160.748 46.1442 160.821 45.5934 160.911 45.2181C161.015 44.8379 161.147 44.564 161.306 44.3964C161.42 44.293 161.536 44.2216 161.655 44.1824C161.714 44.1628 161.768 44.1531 161.818 44.1532C162.006 44.124 162.178 44.1492 162.336 44.2286C162.479 44.313 162.566 44.3997 162.595 44.4887C162.639 44.5728 162.664 44.6223 162.669 44.6371C162.713 44.7706 162.725 44.9065 162.705 45.0448C162.705 45.0943 162.69 45.1486 162.66 45.2078C162.64 45.2473 162.62 45.2867 162.6 45.3262C162.541 45.3952 162.501 45.5483 162.481 45.7854C162.368 47.139 162.389 48.7943 162.542 50.7514C162.657 52.145 162.827 53.3066 163.052 54.2361L163.346 55.1263C163.454 55.4527 163.54 55.6876 163.604 55.831L163.7 55.9721L163.893 55.5872C163.998 55.3552 164.112 55.0541 164.237 54.6839C164.371 54.2939 164.578 53.6496 164.857 52.751C165.195 51.6846 165.477 50.8182 165.701 50.1517C165.925 49.4852 166.146 48.8855 166.365 48.3524C167.111 46.4767 167.838 45.142 168.547 44.3483C168.671 44.2251 168.812 44.1044 168.97 43.9862C169.129 43.868 169.272 43.7795 169.401 43.7205L169.512 43.6837C169.928 43.5464 170.35 43.5796 170.779 43.7833C171.386 44.0764 171.861 44.7422 172.205 45.7807C172.263 45.9587 172.317 46.1466 172.366 46.3444C172.611 47.2838 172.808 48.3788 172.958 49.6292C172.987 49.8171 173.016 50.0543 173.045 50.341C173.069 50.6128 173.096 50.8673 173.125 51.1046C173.149 51.327 173.161 51.4629 173.161 51.5123L173.191 51.4531C173.215 51.4285 173.248 51.3767 173.287 51.2977C173.679 50.691 174.151 49.9757 174.701 49.152C175.267 48.3233 175.708 47.692 176.025 47.258C176.095 47.1692 176.152 47.0928 176.196 47.0287C176.241 46.9645 176.268 46.9226 176.278 46.9029L176.434 46.7032C176.538 46.57 176.66 46.4147 176.799 46.2372C176.947 46.0399 177.086 45.8624 177.215 45.7046C177.354 45.5271 177.465 45.3915 177.55 45.2978C178.169 44.5829 178.754 43.9866 179.303 43.5087C179.868 43.0259 180.276 42.7428 180.528 42.6595L180.64 42.6227C180.753 42.6181 180.83 42.6504 180.869 42.7197C180.923 42.784 180.955 42.831 180.965 42.8607C180.99 42.9349 180.987 43.0263 180.957 43.1349C180.927 43.1941 180.893 43.2632 180.853 43.3422C180.808 43.4063 180.741 43.5025 180.652 43.6307C180.563 43.759 180.431 43.934 180.258 44.1559C180.134 44.3286 180.02 44.4814 179.916 44.6146C179.802 44.7675 179.727 44.8661 179.693 44.9105C179.648 44.9746 179.522 45.1398 179.313 45.4061C179.12 45.6675 178.887 45.9831 178.614 46.353C178.599 46.3579 178.587 46.3702 178.577 46.3899C178.314 46.7401 178.074 47.0582 177.856 47.3442C177.647 47.6105 177.509 47.788 177.439 47.8768C177.385 47.9606 177.335 48.0346 177.29 48.0987C177.246 48.1628 177.216 48.1974 177.201 48.2023C177.167 48.2466 177.087 48.3551 176.963 48.5278C176.854 48.6955 176.715 48.8977 176.547 49.1344C176.388 49.3515 176.237 49.566 176.093 49.7781C175.572 50.592 175.073 51.3986 174.597 52.1979C174.121 52.9971 173.743 53.6731 173.465 54.2257L173.286 54.581L173.291 55.4927C173.3 58.0571 173.189 60.6361 172.96 63.2296C172.577 68.0955 171.824 70.8458 170.701 71.4803C170.557 71.5936 170.419 71.6723 170.285 71.7164C170.226 71.736 170.164 71.7482 170.1 71.753ZM170.1 68.8402C170.449 67.507 170.733 65.6277 170.952 63.2022C171.008 62.6242 171.059 61.9573 171.105 61.2014C171.166 60.4407 171.2 59.8701 171.206 59.4896C171.191 59.4945 171.169 59.5266 171.139 59.5858C171.119 59.6747 171.077 59.7956 171.012 59.9486C170.101 62.7677 169.625 65.2864 169.585 67.5048C169.579 67.8853 169.597 68.2658 169.641 68.6464C169.684 69.0269 169.736 69.3062 169.794 69.4843L169.839 69.6178L169.913 69.4697C169.928 69.4154 169.95 69.334 169.98 69.2253C170.025 69.1118 170.065 68.9834 170.1 68.8402ZM182.412 58.8471C181.67 58.8452 181.182 58.4882 180.947 57.7761C180.913 57.6722 180.883 57.5585 180.859 57.4349C180.777 56.6886 180.93 55.7329 181.318 54.5678C181.851 53.0918 182.717 51.3572 183.918 49.3641C184.077 49.0977 184.293 48.7549 184.566 48.3356C184.834 47.9014 185.047 47.5759 185.206 47.3589L185.325 47.1961L185.236 47.0773C185.162 47.003 185.066 46.9113 184.948 46.8023C184.844 46.6884 184.731 46.5943 184.607 46.5198C184.356 46.3561 184.033 46.1997 183.638 46.0504C183.258 45.8963 182.719 45.7368 182.023 45.5719C181.485 45.4371 181.087 45.3299 180.831 45.2502C180.574 45.1705 180.344 45.0735 180.142 44.9594C179.935 44.8798 179.757 44.7904 179.609 44.6912C179.476 44.5871 179.348 44.4731 179.225 44.3493C178.963 44.1065 178.752 43.8144 178.59 43.4731L178.479 43.1393C178.455 43.0651 178.428 42.9588 178.399 42.8203C178.301 42.2272 178.337 41.5652 178.507 40.8343C178.782 39.7727 179.244 38.756 179.894 37.7843C180.539 36.7977 181.217 36.0879 181.93 35.655C182.069 35.5763 182.197 35.5173 182.316 35.4781C182.731 35.3408 183.122 35.3517 183.487 35.5107C183.921 35.6798 184.229 36.0388 184.41 36.5878L184.455 36.7213C184.523 36.9784 184.564 37.2527 184.578 37.5443C184.593 37.8358 184.577 38.2113 184.531 38.6707C184.515 39.0215 184.485 39.2784 184.44 39.4413C184.41 39.5993 184.351 39.7178 184.261 39.7966C184.162 39.8952 184.061 39.9616 183.957 39.9959C183.868 40.0254 183.772 40.0325 183.668 40.0174C183.446 39.9922 183.266 39.8706 183.128 39.6529C183.093 39.5984 183.066 39.5416 183.047 39.4822C183.027 39.4229 183.012 39.3537 183.003 39.2746C182.988 39.1312 182.982 38.8866 182.982 38.5408C182.989 37.9133 182.951 37.4734 182.867 37.2212L182.838 37.1322L182.808 37.1173C182.793 37.1222 182.774 37.137 182.749 37.1616C182.1 37.5898 181.461 38.4183 180.83 39.647C180.14 40.9941 179.908 42.0089 180.133 42.6914L180.163 42.7804C180.246 43.0326 180.448 43.2456 180.769 43.4193C180.927 43.4988 181.124 43.5734 181.361 43.6432C181.598 43.713 181.959 43.8078 182.442 43.9276C182.694 43.9925 182.929 44.0549 183.146 44.1147C183.378 44.1697 183.548 44.2121 183.657 44.242C184.738 44.5758 185.59 45.0104 186.211 45.5456L186.366 45.7165L186.901 45.0211C188.369 43.1374 189.657 41.6337 190.767 40.51C191.956 39.3271 192.884 38.576 193.552 38.2566L193.641 38.2271C193.819 38.1683 193.953 38.1983 194.041 38.3171C194.086 38.3518 194.113 38.384 194.122 38.4137C194.132 38.4433 194.14 38.4903 194.144 38.5545C194.144 38.6039 194.122 38.6607 194.077 38.7248C194.047 38.784 193.993 38.8679 193.913 38.9764C193.834 39.0849 193.71 39.2328 193.542 39.4202C193.363 39.6272 193.091 39.9477 192.724 40.3816C192.585 40.5591 192.444 40.7292 192.3 40.8919C192.038 41.1926 191.76 41.523 191.468 41.8829C191.185 42.2231 190.942 42.5091 190.739 42.7408C189.505 44.1854 188.474 45.4723 187.646 46.6017L187.289 47.09L187.443 47.6314C187.531 47.8985 187.593 48.158 187.626 48.4101C187.675 48.6573 187.699 48.9291 187.699 49.2256C187.729 50.7129 187.414 52.2982 186.752 53.9814C186.623 54.2874 186.444 54.6674 186.216 55.1214C185.983 55.5606 185.786 55.9134 185.628 56.1798C184.894 57.2946 184.14 58.0783 183.369 58.5309C183.23 58.6096 183.072 58.6783 182.894 58.7372C182.701 58.8009 182.54 58.8376 182.412 58.8471ZM182.846 56.9509C183.109 56.749 183.396 56.4483 183.708 56.0489C184.913 54.4164 185.647 52.479 185.91 50.2364C185.925 50.1327 185.93 49.9993 185.926 49.8362C185.931 49.6534 185.929 49.4977 185.919 49.3692C185.925 49.2358 185.925 49.1617 185.92 49.1469C185.905 49.1518 185.878 49.1937 185.838 49.2727C185.769 49.3614 185.697 49.4675 185.622 49.5908C183.98 52.24 182.962 54.3867 182.567 56.0311C182.507 56.2484 182.47 56.4583 182.454 56.6608C182.434 56.8485 182.431 56.9893 182.446 57.0832L182.46 57.2019L182.564 57.1428C182.609 57.1281 182.651 57.106 182.69 57.0765C182.74 57.0272 182.792 56.9853 182.846 56.9509ZM203.159 44.5357C202.927 44.5301 202.729 44.4555 202.567 44.3118C202.473 44.2276 202.414 44.1484 202.389 44.0742C202.35 44.0049 202.325 43.9554 202.316 43.9258C202.276 43.8071 202.245 43.6612 202.22 43.4882C202.191 43.251 202.163 42.8902 202.134 42.4059C201.819 38.2151 201.698 32.1743 201.773 24.2836L201.798 23.1645L201.702 23.0976C201.638 23.0529 201.581 22.9564 201.532 22.8081C201.488 22.6745 201.464 22.5263 201.459 22.3632C201.455 22.2495 201.462 22.1236 201.482 21.9853C201.517 21.8421 201.575 21.6174 201.655 21.3112C201.739 21.0199 201.807 20.8002 201.856 20.6521C201.916 20.4843 201.976 20.3658 202.035 20.2968C202.09 20.213 202.164 20.139 202.258 20.075C202.352 20.0111 202.444 19.9643 202.533 19.9349C202.711 19.8761 202.884 19.8765 203.052 19.9363C203.308 20.016 203.496 20.2092 203.613 20.5158C203.653 20.6345 203.684 20.8792 203.708 21.2498C203.727 21.6056 203.742 22.2504 203.755 23.1843C203.762 24.1034 203.764 25.4276 203.759 27.157C203.771 28.585 203.777 29.7511 203.78 30.6553C203.774 31.0358 203.776 31.2902 203.786 31.4187C203.784 32.0611 203.785 32.7355 203.788 33.4421C203.801 34.1289 203.814 34.717 203.828 35.2062C203.836 35.6805 203.846 35.9326 203.855 35.9622L203.923 35.7919C203.967 35.6784 204.02 35.5377 204.079 35.3699C204.393 34.4269 204.753 33.5508 205.161 32.7415C205.906 31.1623 206.709 30.2305 207.569 29.9461C208.341 29.6911 209.091 29.9451 209.82 30.7078C210.042 30.9308 210.274 31.2328 210.515 31.6138C210.771 31.99 211.088 32.5269 211.467 33.2246C211.909 34.0163 212.254 34.6101 212.5 35.006C212.741 35.3871 212.965 35.6916 213.172 35.9194C213.625 36.4443 214.072 36.7493 214.511 36.8344C214.709 36.8844 214.926 36.8701 215.163 36.7916C215.979 36.522 216.983 35.4746 218.173 33.6494C218.555 33.1118 218.882 32.6087 219.155 32.14C219.428 31.6713 219.714 31.1655 220.012 30.6228C220.195 30.2823 220.337 30.0134 220.436 29.816C220.55 29.6137 220.642 29.4682 220.711 29.3794C220.781 29.2907 220.838 29.2389 220.882 29.2242C220.927 29.2095 220.984 29.2072 221.053 29.2172C221.117 29.2125 221.176 29.2423 221.23 29.3066C221.295 29.3513 221.336 29.4033 221.356 29.4626C221.385 29.5516 221.35 29.8183 221.25 30.2628C221.145 30.6924 221.008 31.1491 220.839 31.6329C220.291 33.3114 219.465 34.8435 218.359 36.2291C217.685 37.0773 217.056 37.6884 216.472 38.0624C216.388 38.1066 216.311 38.1484 216.242 38.1878C216.187 38.2222 216.118 38.2616 216.034 38.3058C215.945 38.3353 215.819 38.3769 215.656 38.4309C215.329 38.5387 215.07 38.5998 214.877 38.6142C214.684 38.6285 214.45 38.6155 214.173 38.5753C212.988 38.424 211.893 37.5763 210.889 36.0321C210.751 35.8144 210.589 35.5471 210.402 35.2304C210.21 34.8989 209.964 34.4535 209.664 33.8944C209.079 32.8207 208.68 32.1625 208.468 31.9199C208.36 31.7911 208.276 31.7119 208.217 31.6821C208.153 31.6374 208.091 31.6249 208.032 31.6445C207.898 31.6887 207.71 31.8661 207.467 32.1767C207.224 32.4874 206.989 32.8697 206.76 33.3237C206.134 34.5179 205.575 36.0111 205.081 37.8034C204.602 39.5909 204.286 41.3244 204.134 43.004C204.104 43.2114 204.088 43.3893 204.088 43.5375C204.068 43.6264 204.055 43.6881 204.05 43.7227C204.025 43.945 203.943 44.1202 203.805 44.2483C203.666 44.3764 203.537 44.4601 203.418 44.4993C203.344 44.5238 203.258 44.5359 203.159 44.5357ZM222.947 38.1934C222.008 38.3886 221.176 38.2111 220.451 37.6608C219.706 37.1005 219.142 36.2418 218.76 35.0846C218.265 33.5862 218.146 31.9059 218.402 30.0438C218.448 29.6832 218.5 29.3696 218.56 29.1029C218.63 28.8165 218.722 28.5228 218.837 28.2217C219.37 26.5974 220.109 25.5222 221.054 24.9959C221.168 24.9418 221.254 24.905 221.314 24.8854C221.388 24.8609 221.479 24.8389 221.588 24.8194C222.502 24.6982 223.112 25.0975 223.416 26.0173C223.465 26.1657 223.506 26.3165 223.54 26.4697C223.623 27.1172 223.569 27.9003 223.379 28.8188C223.199 29.7176 222.93 30.547 222.572 31.3071C222.09 32.2397 221.553 32.8041 220.959 33.0002C220.722 33.0786 220.482 33.1003 220.24 33.065L220.196 33.0798C220.161 33.0747 220.136 33.0747 220.121 33.0796C220.107 33.0845 220.099 33.1116 220.099 33.161C220.109 33.1907 220.123 33.2599 220.143 33.3687C220.153 33.3983 220.158 33.4379 220.158 33.4873C220.182 33.6109 220.214 33.7567 220.253 33.9248C220.302 34.0732 220.378 34.3031 220.481 34.6147C220.564 34.8669 220.625 35.0523 220.665 35.171C220.704 35.2897 220.743 35.3837 220.782 35.453C220.817 35.5074 220.856 35.5767 220.901 35.6608C221.388 36.4872 222.039 36.7656 222.855 36.4959C223.404 36.3145 223.936 35.9576 224.451 35.4253C225.075 34.8241 225.722 33.9438 226.392 32.7843C226.517 32.5623 226.765 32.0935 227.137 31.378C227.51 30.6625 227.895 29.91 228.292 29.1205C228.699 28.3112 229.024 27.6524 229.268 27.1441C229.357 26.9664 229.419 26.8307 229.454 26.7369C229.504 26.6382 229.546 26.5667 229.581 26.5223C229.615 26.4779 229.648 26.4508 229.677 26.441L229.744 26.4189C229.833 26.3895 229.917 26.3947 229.996 26.4344C230.095 26.4841 230.161 26.5608 230.195 26.6647L230.21 26.7092C230.22 26.7883 230.21 26.9315 230.179 27.139C230.159 27.3267 230.122 27.5366 230.067 27.7687C230.027 27.9959 229.989 28.2058 229.954 28.3984C229.774 29.0501 229.548 29.7092 229.274 30.3755C229.205 30.5631 229.073 30.8617 228.879 31.2713C228.681 31.6661 228.472 32.0806 228.253 32.5149C228.045 32.9294 227.866 33.26 227.717 33.5067C226.382 35.8898 225.022 37.376 223.637 37.9654C223.523 38.0195 223.444 38.0539 223.399 38.0686C223.355 38.0833 223.31 38.098 223.266 38.1127L223.177 38.1421C223.118 38.1617 223.041 38.1788 222.947 38.1934ZM220.63 31.48C220.763 31.337 220.915 31.1225 221.083 30.8363C221.267 30.5453 221.418 30.2319 221.538 29.8962C221.747 29.3334 221.901 28.7557 222.002 28.1631C222.097 27.5556 222.113 27.0566 222.05 26.666C222.04 26.587 222.028 26.5252 222.014 26.4807C221.989 26.4065 221.959 26.3669 221.925 26.3618C221.905 26.3519 221.88 26.3519 221.851 26.3617C221.791 26.3813 221.717 26.4305 221.628 26.5093C221.138 26.9676 220.721 27.7719 220.377 28.9223C220.242 29.4111 220.182 29.7272 220.196 29.8705C220.211 29.915 220.216 29.9793 220.211 30.0633C220.206 30.1472 220.193 30.2337 220.173 30.3226C220.138 30.5646 220.132 30.7721 220.157 30.9451C220.191 31.0984 220.218 31.2047 220.237 31.264C220.272 31.3679 220.316 31.452 220.37 31.5163C220.4 31.556 220.429 31.5709 220.459 31.561C220.489 31.5512 220.511 31.5439 220.526 31.539C220.555 31.5292 220.59 31.5095 220.63 31.48ZM229.531 36.3384C229.116 36.3274 228.842 36.1217 228.71 35.7211C228.602 35.3947 228.537 34.6756 228.515 33.5638C228.511 33.4008 228.489 33.087 228.451 32.6224C228.408 32.143 228.355 31.5845 228.292 30.947C228.056 28.5895 227.88 26.7386 227.765 25.3943C227.66 24.0303 227.594 22.9085 227.566 22.0289C227.562 21.7176 227.565 21.5027 227.576 21.3842C227.581 21.2508 227.611 21.1421 227.665 21.0583C227.764 20.9103 227.888 20.8118 228.037 20.7628L228.103 20.7407C228.281 20.6819 228.459 20.6971 228.637 20.7865C228.731 20.8214 228.802 20.8635 228.852 20.9131C228.901 20.9626 228.95 21.0369 228.999 21.1358C229.024 21.1606 229.048 21.2101 229.073 21.2842C229.132 21.4623 229.188 21.8058 229.241 22.3149C229.328 22.9772 229.441 24.1411 229.58 25.8066C229.585 25.8709 229.592 25.9425 229.602 26.0216C229.621 26.1798 229.638 26.3058 229.653 26.3997C229.667 26.4936 229.677 26.548 229.682 26.5629L229.727 26.474C229.747 26.4346 229.769 26.3778 229.794 26.3037C230.212 25.1782 230.678 24.3493 231.194 23.817C231.466 23.546 231.765 23.3565 232.092 23.2486C232.389 23.1506 232.7 23.1217 233.026 23.1621C233.184 23.1921 233.367 23.247 233.574 23.3265C233.796 23.4012 234.129 23.538 234.573 23.7367C235.22 24.0497 235.746 24.2215 236.151 24.2522C236.571 24.278 237.122 24.1781 237.804 23.9525C238.249 23.8054 238.618 23.6755 238.91 23.5626C239.197 23.4348 239.513 23.2726 239.86 23.0758C240.053 22.9627 240.213 22.8766 240.342 22.8177C240.466 22.7439 240.542 22.7021 240.572 22.6922C240.686 22.6876 240.777 22.715 240.846 22.7745C240.915 22.8339 240.957 22.8859 240.972 22.9304C240.986 22.9749 240.989 23.0318 240.979 23.1009C240.949 23.2096 240.869 23.3675 240.74 23.5747C240.611 23.7819 240.465 23.9865 240.301 24.1887C239.717 24.8098 238.972 25.2699 238.067 25.5689C237.058 25.9024 236.161 25.9766 235.376 25.7918C235.144 25.7369 234.897 25.6621 234.635 25.5676C234.389 25.4681 234.021 25.3016 233.532 25.0682C233.029 24.8396 232.703 24.7498 232.555 24.7988C232.481 24.8234 232.389 24.8948 232.28 25.0131C232.181 25.1116 232.089 25.2325 232.005 25.3755C231.355 26.3967 230.827 27.9122 230.422 29.9222C230.392 30.1297 230.349 30.3741 230.294 30.6556C230.254 30.9322 230.216 31.1915 230.181 31.4336C230.161 31.6707 230.15 31.814 230.15 31.8634C230.15 31.9128 230.157 32.0586 230.171 32.3007C230.195 32.5231 230.219 32.7949 230.243 33.1162C230.32 33.9959 230.358 34.6334 230.357 35.0286C230.366 35.4042 230.343 35.6586 230.288 35.7919C230.224 35.9449 230.139 36.0632 230.035 36.147C229.927 36.2159 229.828 36.265 229.739 36.2945C229.664 36.319 229.595 36.3336 229.531 36.3384ZM242.555 31.7131C241.616 31.9083 240.784 31.7308 240.059 31.1805C239.314 30.6202 238.751 29.7615 238.368 28.6043C237.873 27.1059 237.754 25.4256 238.011 23.5635C238.056 23.2029 238.109 22.8893 238.169 22.6226C238.238 22.3362 238.331 22.0425 238.445 21.7414C238.978 20.1171 239.717 19.0419 240.662 18.5156C240.776 18.4615 240.862 18.4247 240.922 18.4051C240.996 18.3806 241.087 18.3586 241.196 18.3391C242.11 18.2179 242.72 18.6172 243.024 19.537C243.073 19.6854 243.114 19.8362 243.149 19.9895C243.231 20.6369 243.177 21.42 242.987 22.3385C242.807 23.2373 242.538 24.0667 242.18 24.8268C241.698 25.7594 241.161 26.3238 240.567 26.5199C240.33 26.5983 240.09 26.62 239.848 26.5847L239.804 26.5995C239.769 26.5944 239.744 26.5944 239.73 26.5993C239.715 26.6042 239.707 26.6313 239.707 26.6807C239.717 26.7104 239.732 26.7796 239.751 26.8884C239.761 26.918 239.766 26.9576 239.766 27.007C239.79 27.1306 239.822 27.2764 239.861 27.4445C239.91 27.5929 239.986 27.8228 240.089 28.1344C240.172 28.3866 240.234 28.572 240.273 28.6907C240.312 28.8094 240.351 28.9034 240.391 28.9727C240.425 29.0271 240.464 29.0964 240.509 29.1805C240.996 30.0069 241.647 30.2853 242.463 30.0156C243.012 29.8342 243.544 29.4773 244.059 28.945C244.684 28.3438 245.331 27.4635 246.001 26.304C246.125 26.082 246.373 25.6132 246.745 24.8977C247.118 24.1822 247.503 23.4297 247.9 22.6402C248.307 21.8309 248.633 21.1721 248.876 20.6638C248.965 20.4861 249.027 20.3504 249.062 20.2566C249.112 20.1579 249.154 20.0864 249.189 20.042C249.224 19.9976 249.256 19.9705 249.285 19.9607L249.352 19.9386C249.441 19.9092 249.525 19.9144 249.604 19.9541C249.703 20.0038 249.769 20.0805 249.804 20.1844L249.818 20.2289C249.828 20.308 249.818 20.4512 249.788 20.6587C249.767 20.8464 249.73 21.0563 249.675 21.2884C249.635 21.5156 249.597 21.7255 249.562 21.9181C249.382 22.5698 249.156 23.2289 248.883 23.8952C248.813 24.0828 248.681 24.3814 248.487 24.791C248.289 25.1858 248.08 25.6003 247.862 26.0346C247.653 26.4491 247.474 26.7797 247.325 27.0264C245.99 29.4095 244.63 30.8957 243.245 31.4851C243.131 31.5392 243.052 31.5736 243.008 31.5883C242.963 31.603 242.919 31.6177 242.874 31.6324L242.785 31.6618C242.726 31.6814 242.649 31.6985 242.555 31.7131ZM240.238 24.9997C240.372 24.8567 240.523 24.6422 240.692 24.356C240.875 24.065 241.027 23.7516 241.146 23.4159C241.355 22.8532 241.51 22.2754 241.61 21.6828C241.705 21.0753 241.722 20.5763 241.658 20.1857C241.649 20.1067 241.636 20.0449 241.622 20.0004C241.597 19.9262 241.568 19.8866 241.533 19.8816C241.513 19.8716 241.489 19.8716 241.459 19.8814C241.4 19.901 241.325 19.9502 241.236 20.029C240.746 20.4873 240.329 21.2916 239.985 22.442C239.85 22.9308 239.79 23.2469 239.805 23.3902C239.819 23.4347 239.824 23.499 239.819 23.583C239.814 23.667 239.801 23.7534 239.781 23.8423C239.746 24.0843 239.741 24.2918 239.765 24.4648C239.799 24.6181 239.826 24.7244 239.845 24.7837C239.88 24.8876 239.924 24.9717 239.978 25.0361C240.008 25.0757 240.037 25.0906 240.067 25.0807C240.097 25.0709 240.119 25.0636 240.134 25.0587C240.164 25.0489 240.198 25.0292 240.238 24.9997ZM31.1256 167.438C29.9 167.514 28.7395 166.318 27.6439 163.849C27.4917 163.488 27.3445 163.092 27.2023 162.662C27.0601 162.232 26.9645 161.943 26.9154 161.794C26.7635 161.334 26.6484 160.936 26.5702 160.6C25.592 156.694 25.1214 152.332 25.1584 147.515C25.174 145.272 25.303 143.147 25.5453 141.142C25.7827 139.122 26.1006 137.519 26.4989 136.334C26.7481 135.495 27.1027 134.999 27.5626 134.847L27.6293 134.825C27.9409 134.722 28.2175 134.763 28.4591 134.946C28.6515 135.08 28.7967 135.295 28.8948 135.592C28.9781 135.844 29.0317 136.156 29.0554 136.526C29.0747 136.734 29.0863 136.993 29.0905 137.304C29.0946 137.616 29.0988 137.902 29.1031 138.164C29.1025 138.411 29.0996 138.577 29.0944 138.661C29.0096 139.002 28.8484 139.211 28.6111 139.29C28.4775 139.334 28.3367 139.331 28.1886 139.281C28.0554 139.226 27.9518 139.137 27.878 139.013L27.8263 138.932L27.7666 139.124C27.7565 139.193 27.7364 139.332 27.7062 139.539C27.676 139.747 27.6458 139.979 27.6155 140.236C27.2171 143.362 27.068 146.621 27.168 150.01C27.1876 150.07 27.4815 150.088 28.0498 150.065C28.539 150.051 28.9418 150.025 29.2581 149.986C29.5844 149.928 29.9552 149.83 30.3706 149.693C30.8305 149.541 31.2163 149.388 31.528 149.236C31.8348 149.069 32.1862 148.837 32.5822 148.542C33.0179 148.217 33.5353 147.791 34.1345 147.264C34.7337 146.737 35.2216 146.271 35.5982 145.867C35.8162 145.63 35.9871 145.45 36.111 145.327C36.2348 145.204 36.324 145.125 36.3784 145.091C36.4279 145.041 36.475 145.009 36.5195 144.995L36.564 144.98C36.5936 144.97 36.6356 144.973 36.6899 144.988C36.8134 145.013 36.8923 145.077 36.9266 145.181C36.956 145.27 36.9533 145.386 36.9183 145.529C36.8433 145.9 36.6346 146.339 36.2924 146.847C35.965 147.35 35.566 147.836 35.0954 148.304C34.1146 149.27 33.0947 150.043 32.0358 150.623C31.7835 150.756 31.509 150.871 31.2123 150.97C30.9155 151.068 30.7004 151.139 30.5669 151.183C30.3147 151.266 30.1045 151.327 29.9365 151.366L29.8474 151.396C29.7684 151.406 29.714 151.415 29.6843 151.425C29.6497 151.42 29.625 151.42 29.6102 151.425C29.5954 151.43 29.5904 151.44 29.5953 151.455L29.6692 151.529C29.7234 151.593 29.785 151.655 29.854 151.715C30.6475 152.522 31.3048 153.416 31.8261 154.395C32.1407 154.999 32.4109 155.642 32.6364 156.324C32.8619 157.007 33.0429 157.729 33.1793 158.49C33.3644 159.548 33.453 160.638 33.4452 161.759C33.4571 162.891 33.3755 163.889 33.2003 164.753C33.0051 165.755 32.6944 166.459 32.2685 166.863C32.0356 167.104 31.7857 167.269 31.5186 167.357C31.3851 167.401 31.2541 167.428 31.1256 167.438ZM31.2795 165.215C31.5482 164.484 31.6991 163.472 31.732 162.177C31.765 160.883 31.667 159.59 31.4381 158.3C31.4088 158.162 31.3745 158.033 31.3353 157.915C31.3109 157.791 31.2693 157.64 31.2105 157.462C31.1665 157.279 31.0905 157.024 30.9827 156.698C30.8797 156.387 30.7988 156.142 30.74 155.964C30.6811 155.786 30.6271 155.647 30.578 155.548C30.5288 155.449 30.4747 155.336 30.4158 155.207C29.8062 154.01 28.9492 152.935 27.8448 151.984C27.5194 151.696 27.3271 151.562 27.2677 151.582C27.2529 151.587 27.2479 151.597 27.2528 151.612C27.2478 151.646 27.2548 151.817 27.2737 152.123C27.2878 152.415 27.3092 152.753 27.3378 153.139C27.3813 153.519 27.42 153.86 27.4538 154.162C27.6658 156.297 27.9966 158.294 28.4464 160.153C28.5982 160.712 28.7819 161.317 28.9977 161.97C29.2183 162.638 29.4121 163.174 29.5791 163.58C30.0459 164.594 30.479 165.257 30.8784 165.57L31.0115 165.674L31.0785 165.577C31.1033 165.553 31.1281 165.503 31.153 165.429C31.1976 165.365 31.2398 165.294 31.2795 165.215ZM37.7461 154.191C36.7971 154.307 36.069 154.021 35.5619 153.333C35.0498 152.63 34.6908 151.967 34.4849 151.344C34.2691 150.692 34.1228 149.95 34.0459 149.12C33.9507 147.687 34.0977 146.239 34.4869 144.778C34.7661 143.78 35.0891 143.089 35.4557 142.705C35.5152 142.636 35.5647 142.587 35.6043 142.557C35.6439 142.527 35.686 142.505 35.7305 142.491C35.775 142.476 35.8417 142.454 35.9307 142.424C36.0939 142.371 36.2175 142.346 36.3015 142.351C36.4003 142.352 36.5114 142.389 36.6347 142.463L36.7605 142.545L36.8279 142.301C36.8979 141.965 37.0394 141.696 37.2524 141.494C37.3267 141.42 37.3837 141.368 37.4233 141.339C37.4777 141.304 37.5568 141.27 37.6607 141.236C37.7645 141.201 37.8486 141.182 37.9128 141.177C37.9771 141.172 38.0537 141.18 38.1425 141.2C38.5772 141.27 38.9545 141.54 39.2744 142.011C39.4516 142.298 39.6088 142.649 39.7461 143.064C39.9128 143.569 40.057 144.179 40.1787 144.896L40.2517 145.341L40.3627 145.378C40.4714 145.408 40.6393 145.443 40.8665 145.483C41.0887 145.509 41.2814 145.519 41.4445 145.514C41.6619 145.525 41.8645 145.515 42.0523 145.486C42.2401 145.457 42.4552 145.411 42.6975 145.347L42.9423 145.266C43.6099 145.046 44.2853 144.65 44.9687 144.078C45.2211 143.896 45.5554 143.613 45.9714 143.228C46.3826 142.829 46.7293 142.484 47.0117 142.193C47.2098 141.996 47.3659 141.846 47.4798 141.743C47.5888 141.624 47.6755 141.538 47.7399 141.484C47.7993 141.415 47.8439 141.375 47.8736 141.366C47.9132 141.336 47.9478 141.316 47.9775 141.306C48.1555 141.248 48.2986 141.307 48.4069 141.485C48.4265 141.545 48.4362 141.599 48.4361 141.649C48.4508 141.693 48.4482 141.76 48.4282 141.849C48.2981 142.501 47.9356 143.196 47.3408 143.936C47.0682 144.256 46.714 144.604 46.2782 144.978C45.8573 145.348 45.4463 145.673 45.0454 145.953C44.4218 146.357 43.8059 146.659 43.1976 146.86C42.3519 147.14 41.5167 147.227 40.6918 147.121C40.5486 147.086 40.4622 147.073 40.4325 147.083C40.4176 147.088 40.4127 147.098 40.4176 147.113C40.4077 147.132 40.4026 147.192 40.4023 147.291C40.4021 147.389 40.4017 147.513 40.4014 147.661C40.3998 148.254 40.3637 148.867 40.2929 149.499C40.232 150.111 40.1541 150.647 40.059 151.107C39.6546 152.721 38.9949 153.713 38.0799 154.081L37.7461 154.191ZM37.7952 152.398C38.1717 151.994 38.4601 151.298 38.6603 150.31C38.8604 149.322 38.9374 148.211 38.8911 146.975L38.8627 146.516L38.7295 146.412C38.1277 146.035 37.6472 145.527 37.2882 144.889C37.2341 144.775 37.1702 144.631 37.0966 144.458C37.0377 144.28 36.9838 144.117 36.9348 143.969C36.8808 143.805 36.849 143.684 36.8393 143.605L36.8395 143.531L36.6391 143.671C36.5895 143.721 36.545 143.76 36.5054 143.79C36.4806 143.814 36.4533 143.856 36.4235 143.915C36.4036 143.955 36.3689 144.024 36.3192 144.123C36.0258 144.878 35.8357 145.772 35.7491 146.804C35.6575 147.822 35.6772 148.803 35.8082 149.747C35.8326 149.87 35.8619 150.009 35.8961 150.162C35.9451 150.31 36.0211 150.54 36.1241 150.852C36.2025 151.089 36.2614 151.267 36.3006 151.386C36.3398 151.505 36.3791 151.599 36.4185 151.668C36.4529 151.722 36.4923 151.792 36.5365 151.876C36.8467 152.316 37.1228 152.554 37.3648 152.589C37.4191 152.604 37.4759 152.602 37.5353 152.582C37.6243 152.553 37.7109 152.492 37.7952 152.398ZM47.7497 151.181C47.3347 151.171 47.061 150.965 46.9286 150.564C46.8207 150.238 46.7559 149.519 46.734 148.407C46.7295 148.244 46.708 147.93 46.6697 147.465C46.6265 146.986 46.5735 146.428 46.5109 145.79C46.2749 143.433 46.0993 141.582 45.9841 140.237C45.8789 138.873 45.8126 137.752 45.7852 136.872C45.7811 136.561 45.7841 136.346 45.7943 136.227C45.7996 136.094 45.8295 135.985 45.8841 135.901C45.9833 135.753 46.107 135.655 46.2554 135.606L46.3222 135.584C46.5002 135.525 46.678 135.54 46.8557 135.63C46.9495 135.664 47.021 135.707 47.0703 135.756C47.1196 135.806 47.1688 135.88 47.2179 135.979C47.2426 136.004 47.2672 136.053 47.2917 136.127C47.3505 136.305 47.4065 136.649 47.4595 137.158C47.5468 137.82 47.6599 138.984 47.7989 140.65C47.8037 140.714 47.8109 140.786 47.8206 140.865C47.84 141.023 47.8569 141.149 47.8715 141.243C47.8861 141.337 47.8958 141.391 47.9007 141.406L47.9454 141.317C47.9653 141.278 47.9877 141.221 48.0126 141.147C48.4305 140.021 48.8971 139.192 49.4123 138.66C49.6848 138.389 49.9842 138.2 50.3106 138.092C50.6073 137.994 50.9187 137.965 51.2447 138.005C51.4027 138.035 51.5854 138.09 51.7927 138.17C52.0149 138.244 52.348 138.381 52.7922 138.58C53.4387 138.893 53.9645 139.065 54.3696 139.095C54.7895 139.121 55.3407 139.021 56.0231 138.796C56.4682 138.649 56.8367 138.519 57.1285 138.406C57.4154 138.278 57.732 138.116 58.0784 137.919C58.2714 137.806 58.4322 137.72 58.5608 137.661C58.6845 137.587 58.7612 137.545 58.7909 137.535C58.9046 137.531 58.9959 137.558 59.0649 137.618C59.1339 137.677 59.1758 137.729 59.1905 137.773C59.2052 137.818 59.2075 137.875 59.1975 137.944C59.1676 138.053 59.0881 138.211 58.9591 138.418C58.8301 138.625 58.6838 138.83 58.5202 139.032C57.9356 139.653 57.1908 140.113 56.2858 140.412C55.277 140.745 54.38 140.82 53.5948 140.635C53.3627 140.58 53.1159 140.505 52.8542 140.411C52.6074 140.311 52.2398 140.145 51.7512 139.911C51.2478 139.683 50.9219 139.593 50.7735 139.642C50.6994 139.666 50.6078 139.738 50.4988 139.856C50.3997 139.955 50.308 140.076 50.2236 140.219C49.5737 141.24 49.0461 142.755 48.6407 144.765C48.6105 144.973 48.5679 145.217 48.5128 145.499C48.4726 145.775 48.4349 146.035 48.3997 146.277C48.3793 146.514 48.369 146.657 48.3689 146.706C48.3688 146.756 48.3758 146.902 48.39 147.144C48.4142 147.366 48.4382 147.638 48.4621 147.959C48.5389 148.839 48.5768 149.476 48.5757 149.872C48.5847 150.247 48.5618 150.502 48.5071 150.635C48.4425 150.788 48.3582 150.906 48.2542 150.99C48.1453 151.059 48.0463 151.108 47.9573 151.138C47.8832 151.162 47.8139 151.177 47.7497 151.181ZM75.4178 157.811C74.8148 157.878 74.3041 157.603 73.8857 156.984C73.7823 156.821 73.6816 156.591 73.5836 156.294C73.4855 155.997 73.417 155.716 73.3782 155.449C73.1448 153.995 73.2259 152.224 73.6216 150.135C74.1874 147.216 75.1138 144.343 76.4008 141.515L76.602 141.078L76.589 140.367C76.5036 137.071 76.189 134.501 75.6452 132.656C75.611 132.503 75.5743 132.367 75.5351 132.248C75.491 132.115 75.4443 131.999 75.3952 131.9C75.3068 131.682 75.2429 131.563 75.2034 131.543C75.1886 131.548 75.1613 131.566 75.1217 131.595C75.087 131.639 75.0325 131.699 74.9582 131.773C74.8988 131.842 74.8467 131.908 74.8021 131.972C74.5245 132.327 74.2168 132.84 73.8791 133.511C73.5414 134.183 73.2183 134.923 72.9099 135.732C72.6762 136.32 72.4473 136.947 72.2232 137.613C72.0091 138.26 71.7625 139.057 71.4833 140.005C71.1741 141.111 70.9127 141.914 70.6989 142.412C70.4951 142.891 70.2669 143.246 70.0143 143.478C69.8162 143.675 69.6059 143.81 69.3833 143.884C69.0718 143.987 68.7408 143.956 68.3904 143.792C67.6897 143.415 67.1335 142.603 66.7216 141.357C66.4765 140.615 66.2811 139.725 66.1355 138.687C65.9277 136.863 65.8857 134.944 66.0095 132.928C66.0657 132.202 66.1387 131.651 66.2286 131.276C66.3334 130.896 66.465 130.622 66.6235 130.454C66.7375 130.351 66.8537 130.279 66.9724 130.24C67.0318 130.22 67.0862 130.211 67.1356 130.211C67.3234 130.182 67.4963 130.207 67.6542 130.286C67.7973 130.371 67.8835 130.457 67.9129 130.546C67.9572 130.631 67.9818 130.68 67.9867 130.695C68.0308 130.828 68.0428 130.964 68.0227 131.103C68.0225 131.152 68.0076 131.206 67.9778 131.265C67.9579 131.305 67.9381 131.344 67.9182 131.384C67.8587 131.453 67.8188 131.606 67.7984 131.843C67.6863 133.197 67.7067 134.852 67.8598 136.809C67.9748 138.203 68.1448 139.364 68.3697 140.294L68.6639 141.184C68.7718 141.51 68.8576 141.745 68.9215 141.889L69.0175 142.03L69.2112 141.645C69.3155 141.413 69.4299 141.112 69.5544 140.742C69.6888 140.352 69.8955 139.707 70.1745 138.809C70.5133 137.742 70.7947 136.876 71.0187 136.209C71.2428 135.543 71.4642 134.943 71.683 134.41C72.4289 132.534 73.1562 131.2 73.8648 130.406C73.9887 130.283 74.1298 130.162 74.2882 130.044C74.4466 129.926 74.5901 129.837 74.7188 129.778L74.83 129.741C75.2454 129.604 75.6678 129.637 76.0972 129.841C76.7042 130.134 77.1793 130.8 77.5225 131.838C77.5813 132.016 77.6352 132.204 77.6841 132.402C77.9287 133.342 78.126 134.436 78.276 135.687C78.3052 135.875 78.3342 136.112 78.3631 136.399C78.3871 136.671 78.4137 136.925 78.4427 137.162C78.4668 137.385 78.4788 137.521 78.4787 137.57L78.5085 137.511C78.5333 137.486 78.5655 137.434 78.6053 137.355C78.9972 136.749 79.4684 136.033 80.019 135.21C80.5844 134.381 81.0257 133.75 81.3431 133.316C81.4125 133.227 81.4695 133.15 81.5141 133.086C81.5588 133.022 81.5861 132.98 81.596 132.961L81.7521 132.761C81.8562 132.628 81.9777 132.472 82.1165 132.295C82.2652 132.098 82.4041 131.92 82.5329 131.762C82.6717 131.585 82.7832 131.449 82.8675 131.356C83.487 130.641 84.0715 130.044 84.6212 129.566C85.1857 129.084 85.5941 128.801 85.8463 128.717L85.9576 128.68C86.0712 128.676 86.1477 128.708 86.1871 128.777C86.2413 128.842 86.2733 128.889 86.2831 128.918C86.3076 128.993 86.3049 129.084 86.275 129.193C86.2452 129.252 86.2104 129.321 86.1707 129.4C86.126 129.464 86.0591 129.56 85.9698 129.688C85.8805 129.817 85.7492 129.992 85.5757 130.214C85.4517 130.386 85.3376 130.539 85.2335 130.672C85.1195 130.825 85.0451 130.924 85.0104 130.968C84.9658 131.032 84.8394 131.198 84.6312 131.464C84.4378 131.725 84.2048 132.041 83.9321 132.411C83.9172 132.416 83.9048 132.428 83.8949 132.448C83.6321 132.798 83.3917 133.116 83.1735 133.402C82.9653 133.668 82.8265 133.846 82.7571 133.934C82.7026 134.018 82.653 134.092 82.6083 134.156C82.5637 134.221 82.5339 134.255 82.5191 134.26C82.4844 134.304 82.4051 134.413 82.2811 134.585C82.172 134.753 82.0331 134.955 81.8645 135.192C81.7058 135.409 81.5546 135.624 81.4107 135.836C80.8898 136.65 80.3912 137.456 79.9148 138.256C79.4384 139.055 79.0612 139.731 78.7831 140.283L78.6043 140.639L78.6093 141.55C78.6176 144.115 78.5072 146.694 78.2782 149.287C77.8952 154.153 77.142 156.903 76.0188 157.538C75.8752 157.651 75.7367 157.73 75.6031 157.774C75.5438 157.794 75.482 157.806 75.4178 157.811ZM75.4178 154.898C75.7671 153.565 76.0511 151.685 76.2698 149.26C76.3256 148.682 76.3767 148.015 76.4231 147.259C76.4844 146.498 76.5179 145.928 76.5239 145.547C76.509 145.552 76.4867 145.584 76.4569 145.643C76.4369 145.732 76.3946 145.853 76.33 146.006C75.4185 148.825 74.9427 151.344 74.9024 153.563C74.8965 153.943 74.9153 154.323 74.9588 154.704C75.0023 155.085 75.0534 155.364 75.1123 155.542L75.1564 155.675L75.2309 155.527C75.2459 155.473 75.2683 155.392 75.2982 155.283C75.343 155.17 75.3829 155.041 75.4178 154.898ZM87.1101 137.877C86.1611 137.993 85.433 137.707 84.9259 137.019C84.4138 136.316 84.0548 135.653 83.8489 135.03C83.6331 134.377 83.4868 133.636 83.4099 132.805C83.3147 131.372 83.4617 129.925 83.8509 128.463C84.1301 127.466 84.4531 126.775 84.8197 126.391C84.8791 126.322 84.9287 126.272 84.9683 126.243C85.0079 126.213 85.0499 126.191 85.0945 126.176C85.139 126.162 85.2057 126.14 85.2947 126.11C85.4579 126.056 85.5815 126.032 85.6655 126.037C85.7643 126.037 85.8754 126.075 85.9987 126.149L86.1245 126.231L86.1919 125.986C86.2619 125.651 86.4034 125.382 86.6164 125.18C86.6907 125.106 86.7476 125.054 86.7873 125.024C86.8417 124.99 86.9208 124.956 87.0247 124.921C87.1285 124.887 87.2126 124.867 87.2768 124.863C87.3411 124.858 87.4176 124.865 87.5065 124.885C87.9412 124.956 88.3185 125.226 88.6384 125.696C88.8156 125.983 88.9728 126.335 89.1101 126.75C89.2768 127.254 89.421 127.865 89.5427 128.582L89.6156 129.027L89.7267 129.064C89.8354 129.094 90.0033 129.129 90.2304 129.169C90.4527 129.194 90.6454 129.205 90.8085 129.2C91.0259 129.211 91.2285 129.201 91.4163 129.172C91.6041 129.143 91.8192 129.096 92.0615 129.033L92.3063 128.952C92.9739 128.731 93.6493 128.335 94.3327 127.764C94.5851 127.582 94.9194 127.298 95.3354 126.914C95.7465 126.515 96.0933 126.17 96.3757 125.879C96.5738 125.682 96.7299 125.532 96.8438 125.428C96.9528 125.31 97.0395 125.224 97.1038 125.169C97.1633 125.1 97.2079 125.061 97.2376 125.051C97.2772 125.022 97.3118 125.002 97.3415 124.992C97.5195 124.933 97.6626 124.993 97.7709 125.171C97.7905 125.231 97.8002 125.285 97.8001 125.334C97.8148 125.379 97.8122 125.446 97.7922 125.534C97.6621 126.186 97.2996 126.882 96.7047 127.622C96.4322 127.942 96.078 128.29 95.6422 128.664C95.2213 129.034 94.8103 129.359 94.4094 129.639C93.7858 130.043 93.1698 130.345 92.5616 130.546C91.7159 130.826 90.8807 130.912 90.0558 130.806C89.9126 130.772 89.8261 130.759 89.7965 130.769C89.7816 130.774 89.7767 130.784 89.7816 130.798C89.7716 130.818 89.7666 130.877 89.7663 130.976C89.766 131.075 89.7657 131.199 89.7654 131.347C89.7638 131.94 89.7277 132.552 89.6569 133.185C89.596 133.797 89.5181 134.333 89.423 134.792C89.0186 136.407 88.3589 137.398 87.4439 137.767L87.1101 137.877ZM87.1592 136.084C87.5357 135.679 87.8241 134.983 88.0242 133.996C88.2244 133.008 88.3014 131.896 88.2551 130.661L88.2267 130.201L88.0935 130.097C87.4917 129.72 87.0112 129.213 86.6522 128.574C86.5981 128.46 86.5342 128.317 86.4606 128.144C86.4017 127.966 86.3478 127.803 86.2988 127.654C86.2448 127.491 86.213 127.37 86.2033 127.291L86.2035 127.217L86.0031 127.357C85.9535 127.406 85.909 127.446 85.8693 127.475C85.8446 127.5 85.8173 127.542 85.7875 127.601C85.7676 127.641 85.7329 127.71 85.6832 127.808C85.3897 128.564 85.1997 129.457 85.1131 130.49C85.0215 131.508 85.0412 132.488 85.1722 133.433C85.1966 133.556 85.2259 133.695 85.2601 133.848C85.3091 133.996 85.3851 134.226 85.4881 134.538C85.5665 134.775 85.6254 134.953 85.6646 135.072C85.7038 135.19 85.7431 135.284 85.7825 135.354C85.8169 135.408 85.8563 135.477 85.9005 135.562C86.2107 136.002 86.4868 136.24 86.7288 136.275C86.7831 136.29 86.8399 136.288 86.8993 136.268C86.9883 136.239 87.0749 136.177 87.1592 136.084ZM97.8941 134.017C97.0834 134.153 96.3977 133.721 95.837 132.722C95.724 132.48 95.6013 132.158 95.4689 131.757C95.3414 131.372 95.2336 130.996 95.1456 130.63C94.8581 129.063 94.7585 127.442 94.8468 125.767C94.9203 124.097 95.1656 122.823 95.5829 121.945C95.6774 121.733 95.7741 121.577 95.8732 121.479C95.9871 121.375 96.1182 121.299 96.2666 121.25C96.3704 121.216 96.4471 121.198 96.4965 121.199C96.541 121.184 96.6003 121.189 96.6743 121.214C96.8669 121.249 97.0174 121.331 97.1258 121.46C97.2441 121.569 97.3253 121.69 97.3695 121.823L97.3989 121.912C97.4177 122.268 97.2787 122.52 96.9819 122.667C96.9423 122.697 96.9101 122.724 96.8853 122.749C96.8705 122.753 96.8531 122.776 96.8333 122.815C96.8134 122.855 96.8009 122.916 96.7957 123C96.561 123.983 96.4492 125.188 96.4604 126.616C96.4666 128.03 96.5868 129.339 96.8209 130.545C96.8746 130.807 96.9504 131.087 97.0485 131.384C97.1466 131.68 97.2349 131.898 97.3136 132.036C97.3677 132.15 97.4243 132.247 97.4834 132.326C97.5425 132.405 97.5794 132.442 97.5943 132.437C97.6091 132.432 97.6289 132.418 97.6537 132.393C97.6784 132.368 97.7082 132.334 97.7429 132.29C98.2581 131.757 98.8814 130.506 99.6128 128.537C100.066 127.317 100.494 126.024 100.898 124.656C101.301 123.289 101.546 122.286 101.632 121.649C101.653 121.165 101.856 120.859 102.242 120.732C102.583 120.619 102.862 120.691 103.079 120.949C103.153 121.023 103.204 121.105 103.234 121.194L103.263 121.283C103.292 121.421 103.309 121.646 103.313 121.957C103.292 122.639 103.332 123.259 103.434 123.818C103.493 124.144 103.566 124.441 103.655 124.708C103.738 124.96 103.794 125.131 103.824 125.22C103.912 125.487 104.005 125.719 104.104 125.917C104.61 126.852 105.239 127.41 105.989 127.589C106.419 127.694 106.871 127.668 107.346 127.511L107.435 127.482C107.979 127.286 108.57 126.86 109.209 126.204C109.432 125.983 109.675 125.721 109.938 125.421C110.215 125.115 110.453 124.839 110.651 124.592C110.85 124.346 110.944 124.208 110.934 124.178C110.929 124.163 110.927 124.156 110.927 124.156C110.937 124.136 110.949 124.124 110.964 124.119C110.989 124.094 111.073 123.976 111.217 123.764C111.361 123.552 111.527 123.307 111.715 123.031C111.904 122.755 112.077 122.508 112.236 122.291C112.633 121.65 112.958 121.09 113.211 120.611C113.598 119.94 113.829 119.568 113.903 119.494C113.943 119.464 113.985 119.442 114.029 119.428C114.118 119.398 114.2 119.396 114.274 119.421C114.373 119.471 114.437 119.54 114.466 119.629L114.496 119.718C114.49 119.901 114.443 120.18 114.353 120.555C114.273 120.911 114.163 121.276 114.024 121.651C113.491 123.127 112.67 124.551 111.56 125.921C110.608 127.124 109.743 127.994 108.966 128.531C108.531 128.807 108.098 129.015 107.668 129.158C106.051 129.692 104.582 129.256 103.261 127.849C103.064 127.602 102.857 127.3 102.641 126.943C102.419 126.572 102.274 126.283 102.206 126.075C102.191 126.031 102.179 125.994 102.169 125.964C102.159 125.934 102.147 125.922 102.132 125.927L102.08 126.067C102.05 126.176 102.017 126.302 101.982 126.445C101.768 127.092 101.532 127.795 101.273 128.556C101.009 129.301 100.763 129.95 100.534 130.503C100.38 130.883 100.176 131.312 99.9232 131.791C99.6699 132.27 99.4664 132.625 99.3127 132.857C98.8714 133.463 98.4282 133.84 97.9831 133.987L97.8941 134.017ZM113.816 129.347C113.401 129.336 113.128 129.13 112.995 128.73C112.887 128.403 112.823 127.684 112.801 126.573C112.796 126.409 112.775 126.096 112.736 125.631C112.693 125.152 112.64 124.593 112.578 123.956C112.342 121.598 112.166 119.747 112.051 118.403C111.946 117.039 111.879 115.917 111.852 115.038C111.848 114.726 111.851 114.511 111.861 114.393C111.866 114.259 111.896 114.151 111.951 114.067C112.05 113.919 112.174 113.82 112.322 113.771L112.389 113.749C112.567 113.691 112.745 113.706 112.922 113.795C113.016 113.83 113.088 113.872 113.137 113.922C113.186 113.971 113.236 114.046 113.285 114.144C113.309 114.169 113.334 114.219 113.358 114.293C113.417 114.471 113.473 114.814 113.526 115.324C113.613 115.986 113.727 117.15 113.866 118.815C113.87 118.88 113.878 118.951 113.887 119.03C113.907 119.188 113.924 119.314 113.938 119.408C113.953 119.502 113.963 119.557 113.967 119.572L114.012 119.483C114.032 119.443 114.054 119.386 114.079 119.312C114.497 118.187 114.964 117.358 115.479 116.826C115.751 116.555 116.051 116.365 116.377 116.257C116.674 116.159 116.985 116.13 117.311 116.171C117.469 116.201 117.652 116.256 117.859 116.335C118.082 116.41 118.415 116.547 118.859 116.745C119.505 117.058 120.031 117.23 120.436 117.261C120.856 117.287 121.407 117.187 122.09 116.961C122.535 116.814 122.903 116.684 123.195 116.571C123.482 116.444 123.799 116.281 124.145 116.085C124.338 115.971 124.499 115.885 124.628 115.826C124.751 115.753 124.828 115.711 124.858 115.701C124.971 115.696 125.063 115.724 125.132 115.783C125.201 115.843 125.243 115.895 125.257 115.939C125.272 115.984 125.274 116.04 125.264 116.11C125.234 116.218 125.155 116.376 125.026 116.583C124.897 116.791 124.751 116.995 124.587 117.197C124.002 117.818 123.258 118.279 122.353 118.578C121.344 118.911 120.447 118.985 119.662 118.801C119.429 118.746 119.183 118.671 118.921 118.576C118.674 118.477 118.306 118.31 117.818 118.077C117.314 117.848 116.989 117.758 116.84 117.808C116.766 117.832 116.674 117.903 116.565 118.022C116.466 118.12 116.375 118.241 116.29 118.384C115.64 119.405 115.113 120.921 114.707 122.931C114.677 123.138 114.635 123.383 114.58 123.664C114.539 123.941 114.502 124.2 114.466 124.442C114.446 124.679 114.436 124.823 114.436 124.872C114.435 124.921 114.443 125.067 114.457 125.309C114.481 125.532 114.505 125.804 114.529 126.125C114.606 127.005 114.643 127.642 114.642 128.037C114.651 128.413 114.628 128.667 114.574 128.801C114.509 128.954 114.425 129.072 114.321 129.156C114.212 129.225 114.113 129.274 114.024 129.303C113.95 129.328 113.881 129.342 113.816 129.347ZM134.86 123.849C134.662 123.848 134.497 123.796 134.364 123.692C134.196 123.583 134.08 123.432 134.017 123.239C133.977 123.12 133.96 122.994 133.966 122.861C133.951 122.619 133.935 122.32 133.916 121.964C133.897 121.608 133.873 121.336 133.844 121.148C133.839 121.035 133.822 120.909 133.793 120.77C133.793 120.671 133.789 120.582 133.779 120.503C133.774 120.439 133.772 120.358 133.772 120.259C133.753 120.15 133.736 120.049 133.721 119.955L133.721 119.807C133.707 119.713 133.69 119.611 133.67 119.503C133.661 119.325 133.646 119.181 133.627 119.073C133.622 119.008 133.62 118.927 133.62 118.828C133.596 118.655 133.579 118.504 133.569 118.376C133.507 117.788 133.451 117.271 133.403 116.826C133.37 116.377 133.343 116.073 133.324 115.914C133.324 115.816 133.312 115.704 133.288 115.581C133.278 115.452 133.273 115.339 133.274 115.24C133.24 114.988 133.196 114.607 133.143 114.098C133.105 113.584 133.064 113.063 133.021 112.534C132.988 111.985 132.955 111.536 132.921 111.185C132.835 109.93 132.764 108.818 132.707 107.849C132.66 106.861 132.626 105.761 132.604 104.551C132.582 103.439 132.593 102.275 132.636 101.06C132.673 99.8296 132.725 99.0144 132.79 98.6144C132.85 98.2983 132.947 98.0935 133.081 97.9999C133.229 97.9015 133.333 97.8425 133.392 97.8229C133.556 97.7689 133.736 97.7669 133.933 97.8168C134.027 97.8517 134.109 97.8988 134.178 97.9583C134.247 98.0178 134.328 98.1143 134.421 98.248C134.461 98.3172 134.498 98.3791 134.532 98.4335C134.567 98.488 134.596 98.5523 134.621 98.6265C134.645 98.7006 134.682 98.8119 134.731 98.9603C134.834 99.2718 134.898 99.5141 134.922 99.6871C134.961 99.8552 134.968 100.026 134.943 100.199C134.907 100.589 134.778 100.821 134.556 100.894C134.526 100.904 134.509 100.926 134.503 100.961C134.494 100.981 134.491 101.023 134.496 101.087C134.489 101.615 134.49 102.216 134.499 102.888C134.522 103.555 134.537 104.126 134.546 104.6C134.541 104.783 134.545 104.971 134.559 105.163C134.574 105.356 134.583 105.583 134.587 105.845C134.601 106.186 134.622 106.648 134.65 107.231C134.679 107.666 134.71 108.232 134.742 108.929C134.79 109.621 134.845 110.335 134.907 111.071C134.922 111.363 134.936 111.605 134.95 111.798C134.965 111.941 134.977 112.028 134.986 112.057C135.001 112.25 135.015 112.467 135.029 112.71C135.058 112.947 135.078 113.154 135.087 113.332C135.111 113.505 135.126 113.599 135.131 113.614L135.161 113.555C135.17 113.535 135.183 113.498 135.198 113.444C136.394 109.346 137.876 106.758 139.642 105.68C139.756 105.626 139.88 105.577 140.013 105.533L140.214 105.467C140.436 105.393 140.622 105.357 140.77 105.357C141.101 105.363 141.402 105.428 141.674 105.552C142.295 105.84 142.771 106.432 143.099 107.327L143.188 107.594C143.389 108.202 143.503 108.971 143.53 109.9C143.54 110.029 143.549 110.132 143.559 110.211L143.559 110.36L143.655 110.278C143.724 110.239 143.799 110.19 143.878 110.131C144.848 109.382 146.061 108.669 147.515 107.991C147.782 107.853 148.049 107.74 148.316 107.652C148.598 107.559 148.873 107.493 149.14 107.454C149.669 107.361 150.056 107.365 150.303 107.464C150.377 107.489 150.429 107.521 150.459 107.561C150.483 107.586 150.503 107.62 150.518 107.665C150.576 107.843 150.542 107.986 150.413 108.094C150.299 108.198 150.014 108.383 149.559 108.648C149.104 108.914 148.644 109.165 148.179 109.401C146.501 110.251 145.046 111.226 143.813 112.324C143.694 112.413 143.598 112.494 143.523 112.568C143.459 112.622 143.429 112.657 143.434 112.672C143.419 112.726 143.394 112.899 143.359 113.19C143.318 113.467 143.276 113.761 143.23 114.072C143.195 114.364 143.165 114.571 143.14 114.694C142.824 116.527 142.361 118.013 141.75 119.153C141.263 120.169 140.74 120.803 140.181 121.053C140.112 121.093 140.033 121.127 139.944 121.157C139.736 121.225 139.528 121.244 139.321 121.214C139.015 121.184 138.753 121.065 138.536 120.857C138.374 120.713 138.25 120.564 138.167 120.411C138.093 120.238 138.039 120.099 138.005 119.995C137.961 119.862 137.929 119.716 137.91 119.558C137.779 118.515 138.064 117.31 138.764 115.943C139.355 114.793 140.23 113.607 141.389 112.385L141.716 112.03L141.739 111.652C141.828 110.027 141.73 108.784 141.445 107.923C141.411 107.819 141.372 107.725 141.327 107.641C141.18 107.344 141.049 107.174 140.936 107.129C140.822 107.084 140.699 107.084 140.565 107.128C140.491 107.152 140.412 107.187 140.328 107.231C139.16 108.078 138.082 109.973 137.097 112.915C136.559 114.574 136.156 116.319 135.89 118.152C135.785 118.779 135.722 119.261 135.701 119.597C135.68 119.933 135.677 120.246 135.691 120.538C135.772 121.68 135.795 122.445 135.759 122.836C135.704 123.364 135.498 123.687 135.142 123.805C135.053 123.834 134.959 123.849 134.86 123.849ZM139.8 119.229C139.924 119.057 140.071 118.802 140.24 118.467C140.404 118.117 140.543 117.791 140.657 117.49C140.891 116.803 141.108 115.966 141.308 114.979L141.219 115.082C141.165 115.166 141.088 115.282 140.989 115.43C140.889 115.578 140.788 115.743 140.683 115.926C140.574 116.094 140.478 116.249 140.393 116.392C139.738 117.596 139.454 118.579 139.541 119.34L139.563 119.406C139.578 119.451 139.592 119.471 139.607 119.466L139.681 119.392C139.716 119.348 139.756 119.293 139.8 119.229ZM147.849 118.297C147.489 118.301 147.19 118.194 146.954 117.976C146.761 117.793 146.614 117.545 146.511 117.234C146.383 116.848 146.323 116.366 146.329 115.788C146.374 113.881 146.861 111.745 147.791 109.381C147.955 108.981 148.171 108.514 148.439 107.982C148.717 107.429 148.958 106.987 149.162 106.657C150.431 104.723 151.638 103.567 152.78 103.19C153.136 103.072 153.494 103.036 153.855 103.081L154.144 103.134L154.196 102.993C154.365 102.559 154.492 102.295 154.576 102.201C154.695 102.063 154.836 101.967 154.999 101.913C155.103 101.879 155.222 101.865 155.355 101.87C155.661 101.9 155.893 102.054 156.051 102.331L156.117 102.457L156.146 102.62C156.176 102.709 156.19 102.853 156.19 103.05C156.184 103.233 156.174 103.5 156.158 103.851C156.045 105.6 156.098 107.08 156.317 108.291C156.356 108.459 156.417 108.669 156.501 108.921L156.626 109.3C156.763 109.715 156.878 110.014 156.972 110.197C157.685 111.41 158.526 111.913 159.495 111.708C159.559 111.703 159.629 111.689 159.703 111.664C160.712 111.331 161.973 109.869 163.487 107.279C163.903 106.598 164.268 105.959 164.581 105.362C164.909 104.76 165.274 104.047 165.676 103.223C165.8 102.951 165.902 102.737 165.982 102.579C166.061 102.421 166.123 102.31 166.168 102.246C166.222 102.162 166.264 102.115 166.294 102.105C166.334 102.076 166.361 102.059 166.376 102.054L166.45 102.054C166.613 102.049 166.719 102.121 166.768 102.27L166.812 102.329L166.812 102.403L166.729 102.974C166.139 105.67 164.966 108.246 163.211 110.702C162.408 111.807 161.62 112.586 160.848 113.038C160.655 113.152 160.41 113.257 160.114 113.355C159.832 113.448 159.58 113.507 159.357 113.531C157.751 113.651 156.429 112.911 155.39 111.312C155.129 110.872 154.908 110.377 154.727 109.828C154.511 109.176 154.355 108.454 154.258 107.663C154.248 107.584 154.244 107.52 154.244 107.47C154.234 107.391 154.227 107.319 154.222 107.255L154.2 107.188C154.185 107.193 154.036 107.514 153.753 108.151C153.484 108.783 152.997 109.898 152.292 111.497C151.387 113.59 150.674 115.117 150.153 116.079C149.627 117.027 149.158 117.651 148.747 117.951C148.614 118.044 148.497 118.116 148.398 118.165C148.28 118.204 148.198 118.231 148.154 118.246C148.035 118.285 147.933 118.302 147.849 118.297ZM148.344 116.06C148.736 115.503 149.22 114.602 149.797 113.358C149.941 113.047 150.08 112.746 150.214 112.455C150.343 112.149 150.549 111.678 150.833 111.041C151.111 110.39 151.529 109.388 152.086 108.035C152.349 107.438 152.652 106.737 152.995 105.933C153.124 105.627 153.229 105.37 153.308 105.163L153.428 104.852C153.408 104.842 153.378 104.852 153.339 104.881C153.309 104.891 153.265 104.906 153.205 104.925C152.3 105.471 151.388 106.497 150.47 108.002C149.368 109.945 148.614 112.095 148.208 114.451C148.087 115.133 148.041 115.79 148.069 116.422L148.129 116.378C148.163 116.334 148.235 116.228 148.344 116.06ZM166.53 113.382C166.332 113.382 166.167 113.329 166.033 113.225C165.866 113.116 165.75 112.965 165.686 112.772C165.647 112.654 165.63 112.528 165.635 112.394C165.621 112.152 165.605 111.853 165.586 111.497C165.567 111.142 165.543 110.87 165.514 110.682C165.509 110.568 165.492 110.442 165.463 110.304C165.463 110.205 165.458 110.116 165.449 110.037C165.444 109.973 165.442 109.891 165.442 109.792C165.422 109.684 165.405 109.582 165.391 109.488L165.391 109.34C165.377 109.246 165.36 109.145 165.34 109.036C165.331 108.858 165.316 108.715 165.297 108.606C165.292 108.542 165.29 108.46 165.29 108.361C165.266 108.188 165.249 108.038 165.239 107.909C165.176 107.321 165.121 106.805 165.073 106.36C165.039 105.91 165.013 105.606 164.993 105.448C164.994 105.349 164.982 105.238 164.957 105.114C164.948 104.986 164.943 104.872 164.943 104.773C164.909 104.521 164.866 104.141 164.813 103.632C164.775 103.118 164.734 102.596 164.691 102.067C164.658 101.519 164.624 101.069 164.591 100.718C164.505 99.463 164.434 98.3511 164.377 97.3825C164.33 96.3942 164.296 95.2947 164.274 94.0841C164.252 92.9723 164.263 91.8087 164.305 90.5933C164.343 89.3631 164.394 88.5479 164.46 88.1479C164.52 87.8318 164.617 87.627 164.75 87.5334C164.899 87.435 165.003 87.376 165.062 87.3564C165.225 87.3024 165.406 87.3004 165.603 87.3503C165.697 87.3852 165.778 87.4323 165.847 87.4918C165.916 87.5513 165.998 87.6478 166.091 87.7815C166.131 87.8507 166.167 87.9126 166.202 87.967C166.236 88.0215 166.266 88.0858 166.29 88.16C166.315 88.2341 166.352 88.3454 166.401 88.4938C166.504 88.8053 166.567 89.0476 166.591 89.2206C166.631 89.3887 166.638 89.5592 166.612 89.7321C166.577 90.1223 166.448 90.3542 166.225 90.4278C166.196 90.4376 166.178 90.4597 166.173 90.4943C166.163 90.5141 166.161 90.5561 166.165 90.6203C166.159 91.149 166.16 91.7493 166.168 92.4213C166.191 93.0884 166.207 93.6592 166.216 94.1335C166.21 94.3163 166.215 94.5041 166.229 94.6969C166.243 94.8896 166.253 95.1169 166.257 95.3788C166.271 95.7198 166.292 96.1818 166.32 96.7649C166.349 97.1998 166.379 97.7656 166.412 98.4624C166.46 99.1543 166.515 99.8684 166.577 100.605C166.591 100.896 166.605 101.139 166.62 101.331C166.634 101.475 166.646 101.561 166.656 101.591C166.67 101.783 166.685 102.001 166.699 102.243C166.728 102.48 166.747 102.688 166.757 102.866C166.781 103.039 166.795 103.133 166.8 103.148L166.83 103.088C166.84 103.069 166.853 103.032 166.868 102.977C168.064 98.8792 169.545 96.2914 171.312 95.2139C171.426 95.1598 171.55 95.1107 171.683 95.0666L171.883 95.0004C172.106 94.9268 172.291 94.8903 172.44 94.8906C172.771 94.8964 173.072 94.9614 173.343 95.0857C173.965 95.3738 174.44 95.9655 174.769 96.8607L174.857 97.1277C175.058 97.736 175.173 98.5046 175.2 99.4336C175.209 99.5621 175.219 99.6659 175.229 99.745L175.228 99.8932L175.325 99.8119C175.394 99.7726 175.468 99.7234 175.548 99.6643C176.518 98.9157 177.73 98.2024 179.185 97.5242C179.452 97.3865 179.719 97.2736 179.986 97.1853C180.268 97.0922 180.542 97.0262 180.809 96.9873C181.338 96.8948 181.726 96.8983 181.973 96.9977C182.047 97.0226 182.099 97.0549 182.128 97.0945C182.153 97.1192 182.173 97.1539 182.187 97.1984C182.246 97.3764 182.211 97.5196 182.082 97.628C181.969 97.7315 181.684 97.916 181.229 98.1817C180.773 98.4473 180.313 98.6981 179.848 98.9341C178.171 99.7846 176.716 100.759 175.483 101.858C175.364 101.947 175.267 102.028 175.193 102.102C175.129 102.156 175.099 102.19 175.104 102.205C175.089 102.26 175.064 102.432 175.028 102.724C174.988 103.001 174.945 103.294 174.9 103.606C174.865 103.897 174.835 104.104 174.81 104.228C174.494 106.06 174.03 107.546 173.42 108.686C172.933 109.703 172.41 110.336 171.851 110.587C171.782 110.626 171.702 110.661 171.613 110.69C171.406 110.759 171.198 110.778 170.991 110.748C170.684 110.717 170.423 110.598 170.206 110.39C170.043 110.246 169.92 110.098 169.837 109.944C169.763 109.771 169.709 109.633 169.675 109.529C169.63 109.395 169.599 109.25 169.579 109.091C169.449 108.048 169.733 106.844 170.433 105.477C171.024 104.327 171.9 103.141 173.059 101.918L173.386 101.564L173.409 101.186C173.497 99.5602 173.399 98.3173 173.115 97.4568C173.08 97.3529 173.041 97.259 172.997 97.1748C172.849 96.878 172.719 96.7072 172.605 96.6624C172.492 96.6177 172.368 96.6174 172.235 96.6615C172.161 96.686 172.082 96.7204 171.997 96.7646C170.829 97.6115 169.752 99.5061 168.766 102.448C168.228 104.107 167.826 105.853 167.56 107.685C167.454 108.313 167.391 108.794 167.371 109.13C167.35 109.466 167.347 109.78 167.361 110.071C167.442 111.213 167.465 111.979 167.429 112.369C167.373 112.898 167.167 113.221 166.811 113.339C166.722 113.368 166.628 113.383 166.53 113.382ZM171.47 108.763C171.594 108.59 171.741 108.336 171.909 108C172.073 107.65 172.212 107.324 172.327 107.023C172.561 106.337 172.778 105.5 172.978 104.512L172.889 104.616C172.834 104.7 172.757 104.816 172.658 104.964C172.559 105.112 172.457 105.277 172.353 105.459C172.244 105.627 172.147 105.782 172.063 105.926C171.408 107.13 171.123 108.112 171.21 108.873L171.232 108.94C171.247 108.984 171.262 109.004 171.277 108.999L171.351 108.925C171.386 108.881 171.425 108.827 171.47 108.763ZM182.932 106.283C181.84 106.413 180.982 105.932 180.357 104.838C180.18 104.502 180.025 104.133 179.893 103.733C179.456 102.412 179.239 100.682 179.239 98.543C179.255 97.9946 179.286 97.4413 179.332 96.883C179.373 96.31 179.436 95.8284 179.521 95.4383C179.577 95.0579 179.654 94.7938 179.753 94.6458C179.862 94.4781 180.021 94.3599 180.228 94.2913C180.48 94.2079 180.69 94.2208 180.858 94.3299C181.036 94.4193 181.161 94.5753 181.235 94.7978C181.255 94.8572 181.264 94.9116 181.264 94.961C181.279 95.0055 181.284 95.0697 181.279 95.1537C181.268 95.2229 181.256 95.334 181.241 95.4871C180.901 98.8907 181.03 101.497 181.628 103.307C181.917 104.183 182.225 104.616 182.551 104.607C182.635 104.612 182.744 104.592 182.878 104.548L183.011 104.504C183.189 104.445 183.362 104.347 183.531 104.209C184.07 103.8 184.665 103.11 185.315 102.138C185.583 101.754 185.858 101.317 186.141 100.829C186.434 100.32 186.821 99.6248 187.302 98.7415C187.903 97.6215 188.447 96.6519 188.933 95.833C189.414 94.9991 189.724 94.5182 189.863 94.3901C189.918 94.3556 189.967 94.331 190.012 94.3163C190.101 94.2869 190.185 94.2921 190.264 94.3318C190.342 94.3715 190.394 94.4285 190.419 94.5027C190.453 94.6065 190.453 94.73 190.418 94.8732C190.293 95.4906 189.972 96.436 189.454 97.7094C189.236 98.2425 188.875 98.9951 188.374 99.9672C187.872 100.939 187.413 101.766 186.996 102.447C185.751 104.553 184.549 105.798 183.392 106.18C183.244 106.229 183.091 106.263 182.932 106.283ZM180.653 90.4235C180.357 90.3733 180.169 90.279 180.091 90.1404C180.007 89.987 179.958 89.8881 179.943 89.8436C179.875 89.6359 179.892 89.416 179.997 89.1841C180.056 89.0656 180.118 88.9793 180.183 88.9252C180.262 88.8661 180.376 88.812 180.524 88.763C180.643 88.7237 180.727 88.7042 180.776 88.7043C180.821 88.6896 180.878 88.6873 180.947 88.6973C181.283 88.7674 181.502 88.9582 181.605 89.2697C181.688 89.5219 181.668 89.7591 181.544 89.9811C181.449 90.1439 181.353 90.2499 181.254 90.299C181.17 90.3433 181.113 90.3703 181.083 90.3801C180.935 90.4292 180.792 90.4436 180.653 90.4235ZM191.973 103.196C191.033 103.392 190.201 103.214 189.476 102.664C188.732 102.103 188.168 101.245 187.786 100.088C187.291 98.5891 187.171 96.9089 187.428 95.0467C187.473 94.6861 187.526 94.3725 187.586 94.1059C187.656 93.8195 187.748 93.5257 187.863 93.2246C188.395 91.6003 189.134 90.5251 190.08 89.9988C190.193 89.9447 190.28 89.9079 190.339 89.8883C190.413 89.8638 190.505 89.8418 190.614 89.8223C191.528 89.7011 192.137 90.1004 192.441 91.0202C192.49 91.1686 192.532 91.3194 192.566 91.4727C192.648 92.1202 192.595 92.9032 192.404 93.8217C192.224 94.7205 191.955 95.55 191.598 96.31C191.116 97.2426 190.578 97.807 189.985 98.0031C189.748 98.0815 189.508 98.1032 189.266 98.068L189.221 98.0827C189.187 98.0776 189.162 98.0776 189.147 98.0825C189.132 98.0874 189.125 98.1145 189.125 98.164C189.135 98.1936 189.149 98.2628 189.169 98.3716C189.178 98.4013 189.183 98.4408 189.183 98.4902C189.208 98.6138 189.239 98.7596 189.278 98.9277C189.327 99.0761 189.403 99.3061 189.506 99.6176C189.59 99.8698 189.651 100.055 189.69 100.174C189.73 100.293 189.769 100.387 189.808 100.456C189.843 100.51 189.882 100.58 189.926 100.664C190.413 101.49 191.065 101.768 191.881 101.499C192.43 101.317 192.962 100.961 193.477 100.428C194.101 99.827 194.748 98.9467 195.418 97.7873C195.542 97.5652 195.791 97.0965 196.163 96.381C196.535 95.6655 196.92 94.9129 197.318 94.1234C197.725 93.3141 198.05 92.6553 198.294 92.147C198.383 91.9693 198.445 91.8336 198.48 91.7398C198.529 91.6411 198.572 91.5696 198.606 91.5252C198.641 91.4808 198.673 91.4537 198.703 91.4439L198.77 91.4219C198.859 91.3924 198.943 91.3976 199.022 91.4373C199.12 91.487 199.187 91.5637 199.221 91.6676L199.236 91.7121C199.246 91.7912 199.235 91.9344 199.205 92.1419C199.185 92.3296 199.147 92.5395 199.092 92.7716C199.052 92.9988 199.015 93.2087 198.98 93.4013C198.8 94.0531 198.574 94.7121 198.3 95.3785C198.23 95.566 198.099 95.8646 197.905 96.2742C197.706 96.669 197.498 97.0835 197.279 97.5178C197.071 97.9323 196.892 98.2629 196.743 98.5096C195.408 100.893 194.048 102.379 192.663 102.968C192.549 103.022 192.47 103.057 192.425 103.071C192.381 103.086 192.336 103.101 192.292 103.116L192.203 103.145C192.143 103.165 192.067 103.182 191.973 103.196ZM189.655 96.4829C189.789 96.3399 189.94 96.1254 190.109 95.8392C190.293 95.5482 190.444 95.2348 190.564 94.8991C190.773 94.3364 190.927 93.7587 191.028 93.166C191.123 92.5585 191.139 92.0595 191.076 91.669C191.066 91.5899 191.054 91.5281 191.039 91.4836C191.015 91.4094 190.985 91.3698 190.951 91.3648C190.931 91.3548 190.906 91.3548 190.876 91.3646C190.817 91.3842 190.743 91.4334 190.654 91.5122C190.163 91.9705 189.746 92.7748 189.402 93.9252C189.268 94.414 189.208 94.7301 189.222 94.8734C189.237 94.918 189.242 94.9822 189.236 95.0662C189.231 95.1502 189.219 95.2366 189.199 95.3255C189.164 95.5675 189.158 95.775 189.182 95.948C189.216 96.1013 189.243 96.2076 189.263 96.2669C189.297 96.3708 189.342 96.4549 189.396 96.5193C189.425 96.5589 189.455 96.5738 189.485 96.564C189.514 96.5542 189.537 96.5468 189.551 96.5419C189.581 96.5321 189.616 96.5124 189.655 96.4829ZM200.623 107.595C199.882 107.593 199.394 107.236 199.159 106.524C199.124 106.42 199.095 106.306 199.07 106.182C198.988 105.436 199.142 104.48 199.53 103.315C200.062 101.839 200.929 100.105 202.13 98.1116C202.289 97.8452 202.504 97.5023 202.777 97.083C203.045 96.6489 203.259 96.3233 203.417 96.1063L203.536 95.9436L203.448 95.8248C203.374 95.7505 203.278 95.6588 203.159 95.5498C203.056 95.4359 202.942 95.3417 202.819 95.2673C202.567 95.1036 202.244 94.9471 201.849 94.7979C201.469 94.6437 200.931 94.4842 200.235 94.3194C199.697 94.1846 199.299 94.0774 199.042 93.9976C198.786 93.9179 198.556 93.821 198.354 93.7068C198.147 93.6272 197.969 93.5378 197.821 93.4386C197.688 93.3345 197.56 93.2206 197.436 93.0967C197.175 92.8539 196.963 92.5619 196.801 92.2205L196.691 91.8867C196.666 91.8125 196.639 91.7062 196.61 91.5678C196.513 90.9746 196.549 90.3126 196.719 89.5818C196.994 88.5202 197.456 87.5035 198.105 86.5318C198.75 85.5452 199.429 84.8354 200.142 84.4024C200.28 84.3237 200.409 84.2648 200.527 84.2255C200.943 84.0882 201.333 84.0991 201.698 84.2582C202.133 84.4273 202.441 84.7863 202.622 85.3352L202.666 85.4687C202.735 85.7259 202.776 86.0002 202.79 86.2918C202.804 86.5833 202.788 86.9588 202.743 87.4182C202.727 87.769 202.697 88.0258 202.652 88.1888C202.622 88.3468 202.562 88.4652 202.473 88.5441C202.374 88.6426 202.273 88.7091 202.169 88.7434C202.08 88.7728 201.983 88.78 201.88 88.7649C201.657 88.7396 201.477 88.6181 201.339 88.4003C201.305 88.3459 201.278 88.289 201.258 88.2297C201.239 88.1703 201.224 88.1011 201.214 88.022C201.2 87.8787 201.193 87.6341 201.194 87.2882C201.201 86.6607 201.162 86.2209 201.079 85.9687L201.049 85.8797L201.02 85.8648C201.005 85.8697 200.985 85.8844 200.96 85.9091C200.312 86.3373 199.673 87.1658 199.042 88.3945C198.352 89.7416 198.119 90.7564 198.345 91.4389L198.374 91.5279C198.458 91.7801 198.66 91.9931 198.98 92.1668C199.138 92.2463 199.336 92.3209 199.573 92.3907C199.81 92.4605 200.17 92.5553 200.654 92.6751C200.906 92.74 201.14 92.8023 201.358 92.8622C201.59 92.9171 201.76 92.9596 201.869 92.9895C202.95 93.3233 203.801 93.7578 204.422 94.2931L204.578 94.4639L205.113 93.7686C206.58 91.8849 207.869 90.3812 208.979 89.2574C210.168 88.0746 211.096 87.3235 211.764 87.004L211.853 86.9746C212.031 86.9158 212.164 86.9458 212.253 87.0646C212.297 87.0993 212.324 87.1315 212.334 87.1611C212.344 87.1908 212.351 87.2378 212.356 87.302C212.356 87.3514 212.333 87.4082 212.289 87.4723C212.259 87.5315 212.204 87.6154 212.125 87.7239C212.046 87.8324 211.922 87.9803 211.753 88.1676C211.575 88.3747 211.302 88.6952 210.936 89.129C210.797 89.3066 210.656 89.4767 210.512 89.6393C210.249 89.9401 209.972 90.2704 209.679 90.6304C209.397 90.9706 209.154 91.2565 208.951 91.4883C207.717 92.9328 206.686 94.2198 205.858 95.3492L205.501 95.8374L205.655 96.3789C205.743 96.6459 205.804 96.9055 205.838 97.1576C205.887 97.4048 205.911 97.6766 205.91 97.973C205.941 99.4604 205.626 101.046 204.964 102.729C204.835 103.035 204.656 103.415 204.428 103.869C204.194 104.308 203.998 104.661 203.839 104.927C203.105 106.042 202.352 106.826 201.58 107.278C201.442 107.357 201.283 107.426 201.105 107.485C200.912 107.548 200.752 107.585 200.623 107.595ZM201.058 105.698C201.32 105.496 201.608 105.196 201.92 104.796C203.125 103.164 203.859 101.226 204.121 98.9838C204.136 98.8801 204.142 98.7467 204.137 98.5837C204.143 98.4009 204.141 98.2452 204.131 98.1167C204.136 97.9833 204.136 97.9092 204.132 97.8944C204.117 97.8993 204.089 97.9412 204.05 98.0202C203.98 98.1089 203.908 98.215 203.834 98.3383C202.192 100.987 201.173 103.134 200.779 104.779C200.719 104.996 200.681 105.206 200.666 105.408C200.646 105.596 200.643 105.737 200.657 105.831L200.672 105.949L200.776 105.89C200.82 105.876 200.862 105.853 200.902 105.824C200.952 105.775 201.004 105.733 201.058 105.698Z" fill="#204E1C"/>
</svg>
